M48
; DRILL file {KiCad (5.1.0)-1} date 3/23/2019 7:31:40 AM
; FORMAT={-:-/ absolute / metric / decimal}
; #@! TF.CreationDate,2019-03-23T07:31:40-07:00
; #@! TF.GenerationSoftware,Kicad,Pcbnew,(5.1.0)-1
; #@! TF.FileFunction,Plated,1,2,PTH
FMAT,2
METRIC
T1C0.305
T2C0.700
T3C0.900
T4C2.200
%
G90
G05
T1
X129.5Y-75.75
X129.5Y-79.25
X129.5Y-82.0
X130.0Y-104.0
X134.0Y-104.0
X138.0Y-104.0
X138.5Y-88.712
X138.707Y-87.356
X141.0Y-91.5
X141.25Y-94.75
X142.0Y-87.25
X142.0Y-103.5
X145.0Y-91.5
X145.5Y-88.712
X146.0Y-104.0
X146.75Y-64.0
X147.0Y-88.75
X147.25Y-72.75
X148.75Y-72.75
X150.0Y-104.0
X150.25Y-72.5
X150.25Y-76.5
X150.25Y-78.5
X150.25Y-85.75
X152.25Y-63.0
X152.75Y-70.75
X153.75Y-65.5
X154.0Y-104.0
X157.5Y-63.25
T3
X131.0Y-70.55
X131.0Y-73.05
X133.0Y-73.05
X134.3Y-70.55
X135.0Y-73.05
X136.3Y-70.55
X137.0Y-73.05
X139.0Y-70.55
X139.0Y-73.05
T4
X127.75Y-67.55
X142.25Y-67.55
T2
G00X135.75Y-66.75
M15
G01X134.25Y-66.75
M16
G05
T0
M30
