G04 #@! TF.GenerationSoftware,KiCad,Pcbnew,(5.1.0)-1*
G04 #@! TF.CreationDate,2019-03-23T07:31:29-07:00*
G04 #@! TF.ProjectId,triple-bypass-aio,74726970-6c65-42d6-9279-706173732d61,0.4*
G04 #@! TF.SameCoordinates,Original*
G04 #@! TF.FileFunction,Copper,L2,Bot*
G04 #@! TF.FilePolarity,Positive*
%FSLAX46Y46*%
G04 Gerber Fmt 4.6, Leading zero omitted, Abs format (unit mm)*
G04 Created by KiCad (PCBNEW (5.1.0)-1) date 2019-03-23 07:31:29*
%MOMM*%
%LPD*%
G04 APERTURE LIST*
%ADD10C,0.100000*%
%ADD11C,0.150000*%
%ADD12C,0.300000*%
%ADD13C,0.400000*%
%ADD14C,0.200000*%
%ADD15C,0.203200*%
%ADD16C,3.300000*%
%ADD17C,1.408000*%
%ADD18R,1.408000X1.408000*%
%ADD19O,3.200000X1.700000*%
%ADD20C,1.200000*%
%ADD21C,0.812800*%
%ADD22C,0.609600*%
%ADD23C,0.304800*%
%ADD24C,0.177800*%
%ADD25C,0.508000*%
%ADD26C,0.254000*%
G04 APERTURE END LIST*
D10*
D11*
X159400000Y-171900000D02*
X159400000Y-203900000D01*
X267400000Y-203900000D01*
X267400000Y-171900000D01*
X159400000Y-171900000D01*
D10*
D11*
X10000000Y-10000000D02*
X10000000Y-205900000D01*
X269400000Y-205900000D01*
X269400000Y-10000000D01*
X10000000Y-10000000D01*
D10*
D11*
X12000000Y-12000000D02*
X12000000Y-203900000D01*
X267400000Y-203900000D01*
X267400000Y-12000000D01*
X12000000Y-12000000D01*
D10*
D11*
X60000000Y-12000000D02*
X60000000Y-10000000D01*
D10*
D11*
X110000000Y-12000000D02*
X110000000Y-10000000D01*
D10*
D11*
X160000000Y-12000000D02*
X160000000Y-10000000D01*
D10*
D11*
X210000000Y-12000000D02*
X210000000Y-10000000D01*
D10*
D11*
X260000000Y-12000000D02*
X260000000Y-10000000D01*
D10*
D11*
X36065476Y-11588095D02*
X35322619Y-11588095D01*
X35694047Y-11588095D02*
X35694047Y-10288095D01*
X35570238Y-10473809D01*
X35446428Y-10597619D01*
X35322619Y-10659523D01*
D10*
D11*
X85322619Y-10411904D02*
X85384523Y-10350000D01*
X85508333Y-10288095D01*
X85817857Y-10288095D01*
X85941666Y-10350000D01*
X86003571Y-10411904D01*
X86065476Y-10535714D01*
X86065476Y-10659523D01*
X86003571Y-10845238D01*
X85260714Y-11588095D01*
X86065476Y-11588095D01*
D10*
D11*
X135260714Y-10288095D02*
X136065476Y-10288095D01*
X135632142Y-10783333D01*
X135817857Y-10783333D01*
X135941666Y-10845238D01*
X136003571Y-10907142D01*
X136065476Y-11030952D01*
X136065476Y-11340476D01*
X136003571Y-11464285D01*
X135941666Y-11526190D01*
X135817857Y-11588095D01*
X135446428Y-11588095D01*
X135322619Y-11526190D01*
X135260714Y-11464285D01*
D10*
D11*
X185941666Y-10721428D02*
X185941666Y-11588095D01*
X185632142Y-10226190D02*
X185322619Y-11154761D01*
X186127380Y-11154761D01*
D10*
D11*
X236003571Y-10288095D02*
X235384523Y-10288095D01*
X235322619Y-10907142D01*
X235384523Y-10845238D01*
X235508333Y-10783333D01*
X235817857Y-10783333D01*
X235941666Y-10845238D01*
X236003571Y-10907142D01*
X236065476Y-11030952D01*
X236065476Y-11340476D01*
X236003571Y-11464285D01*
X235941666Y-11526190D01*
X235817857Y-11588095D01*
X235508333Y-11588095D01*
X235384523Y-11526190D01*
X235322619Y-11464285D01*
D10*
D11*
X60000000Y-203900000D02*
X60000000Y-205900000D01*
D10*
D11*
X110000000Y-203900000D02*
X110000000Y-205900000D01*
D10*
D11*
X160000000Y-203900000D02*
X160000000Y-205900000D01*
D10*
D11*
X210000000Y-203900000D02*
X210000000Y-205900000D01*
D10*
D11*
X260000000Y-203900000D02*
X260000000Y-205900000D01*
D10*
D11*
X36065476Y-205488095D02*
X35322619Y-205488095D01*
X35694047Y-205488095D02*
X35694047Y-204188095D01*
X35570238Y-204373809D01*
X35446428Y-204497619D01*
X35322619Y-204559523D01*
D10*
D11*
X85322619Y-204311904D02*
X85384523Y-204250000D01*
X85508333Y-204188095D01*
X85817857Y-204188095D01*
X85941666Y-204250000D01*
X86003571Y-204311904D01*
X86065476Y-204435714D01*
X86065476Y-204559523D01*
X86003571Y-204745238D01*
X85260714Y-205488095D01*
X86065476Y-205488095D01*
D10*
D11*
X135260714Y-204188095D02*
X136065476Y-204188095D01*
X135632142Y-204683333D01*
X135817857Y-204683333D01*
X135941666Y-204745238D01*
X136003571Y-204807142D01*
X136065476Y-204930952D01*
X136065476Y-205240476D01*
X136003571Y-205364285D01*
X135941666Y-205426190D01*
X135817857Y-205488095D01*
X135446428Y-205488095D01*
X135322619Y-205426190D01*
X135260714Y-205364285D01*
D10*
D11*
X185941666Y-204621428D02*
X185941666Y-205488095D01*
X185632142Y-204126190D02*
X185322619Y-205054761D01*
X186127380Y-205054761D01*
D10*
D11*
X236003571Y-204188095D02*
X235384523Y-204188095D01*
X235322619Y-204807142D01*
X235384523Y-204745238D01*
X235508333Y-204683333D01*
X235817857Y-204683333D01*
X235941666Y-204745238D01*
X236003571Y-204807142D01*
X236065476Y-204930952D01*
X236065476Y-205240476D01*
X236003571Y-205364285D01*
X235941666Y-205426190D01*
X235817857Y-205488095D01*
X235508333Y-205488095D01*
X235384523Y-205426190D01*
X235322619Y-205364285D01*
D10*
D11*
X10000000Y-60000000D02*
X12000000Y-60000000D01*
D10*
D11*
X10000000Y-110000000D02*
X12000000Y-110000000D01*
D10*
D11*
X10000000Y-160000000D02*
X12000000Y-160000000D01*
D10*
D11*
X10690476Y-35216666D02*
X11309523Y-35216666D01*
X10566666Y-35588095D02*
X11000000Y-34288095D01*
X11433333Y-35588095D01*
D10*
D11*
X11092857Y-84907142D02*
X11278571Y-84969047D01*
X11340476Y-85030952D01*
X11402380Y-85154761D01*
X11402380Y-85340476D01*
X11340476Y-85464285D01*
X11278571Y-85526190D01*
X11154761Y-85588095D01*
X10659523Y-85588095D01*
X10659523Y-84288095D01*
X11092857Y-84288095D01*
X11216666Y-84350000D01*
X11278571Y-84411904D01*
X11340476Y-84535714D01*
X11340476Y-84659523D01*
X11278571Y-84783333D01*
X11216666Y-84845238D01*
X11092857Y-84907142D01*
X10659523Y-84907142D01*
D10*
D11*
X11402380Y-135464285D02*
X11340476Y-135526190D01*
X11154761Y-135588095D01*
X11030952Y-135588095D01*
X10845238Y-135526190D01*
X10721428Y-135402380D01*
X10659523Y-135278571D01*
X10597619Y-135030952D01*
X10597619Y-134845238D01*
X10659523Y-134597619D01*
X10721428Y-134473809D01*
X10845238Y-134350000D01*
X11030952Y-134288095D01*
X11154761Y-134288095D01*
X11340476Y-134350000D01*
X11402380Y-134411904D01*
D10*
D11*
X10659523Y-185588095D02*
X10659523Y-184288095D01*
X10969047Y-184288095D01*
X11154761Y-184350000D01*
X11278571Y-184473809D01*
X11340476Y-184597619D01*
X11402380Y-184845238D01*
X11402380Y-185030952D01*
X11340476Y-185278571D01*
X11278571Y-185402380D01*
X11154761Y-185526190D01*
X10969047Y-185588095D01*
X10659523Y-185588095D01*
D10*
D11*
X269400000Y-60000000D02*
X267400000Y-60000000D01*
D10*
D11*
X269400000Y-110000000D02*
X267400000Y-110000000D01*
D10*
D11*
X269400000Y-160000000D02*
X267400000Y-160000000D01*
D10*
D11*
X268090476Y-35216666D02*
X268709523Y-35216666D01*
X267966666Y-35588095D02*
X268400000Y-34288095D01*
X268833333Y-35588095D01*
D10*
D11*
X268492857Y-84907142D02*
X268678571Y-84969047D01*
X268740476Y-85030952D01*
X268802380Y-85154761D01*
X268802380Y-85340476D01*
X268740476Y-85464285D01*
X268678571Y-85526190D01*
X268554761Y-85588095D01*
X268059523Y-85588095D01*
X268059523Y-84288095D01*
X268492857Y-84288095D01*
X268616666Y-84350000D01*
X268678571Y-84411904D01*
X268740476Y-84535714D01*
X268740476Y-84659523D01*
X268678571Y-84783333D01*
X268616666Y-84845238D01*
X268492857Y-84907142D01*
X268059523Y-84907142D01*
D10*
D11*
X268802380Y-135464285D02*
X268740476Y-135526190D01*
X268554761Y-135588095D01*
X268430952Y-135588095D01*
X268245238Y-135526190D01*
X268121428Y-135402380D01*
X268059523Y-135278571D01*
X267997619Y-135030952D01*
X267997619Y-134845238D01*
X268059523Y-134597619D01*
X268121428Y-134473809D01*
X268245238Y-134350000D01*
X268430952Y-134288095D01*
X268554761Y-134288095D01*
X268740476Y-134350000D01*
X268802380Y-134411904D01*
D10*
D11*
X268059523Y-185588095D02*
X268059523Y-184288095D01*
X268369047Y-184288095D01*
X268554761Y-184350000D01*
X268678571Y-184473809D01*
X268740476Y-184597619D01*
X268802380Y-184845238D01*
X268802380Y-185030952D01*
X268740476Y-185278571D01*
X268678571Y-185402380D01*
X268554761Y-185526190D01*
X268369047Y-185588095D01*
X268059523Y-185588095D01*
D10*
D11*
X182832142Y-199678571D02*
X182832142Y-198178571D01*
X183189285Y-198178571D01*
X183403571Y-198250000D01*
X183546428Y-198392857D01*
X183617857Y-198535714D01*
X183689285Y-198821428D01*
X183689285Y-199035714D01*
X183617857Y-199321428D01*
X183546428Y-199464285D01*
X183403571Y-199607142D01*
X183189285Y-199678571D01*
X182832142Y-199678571D01*
X184975000Y-199678571D02*
X184975000Y-198892857D01*
X184903571Y-198750000D01*
X184760714Y-198678571D01*
X184475000Y-198678571D01*
X184332142Y-198750000D01*
X184975000Y-199607142D02*
X184832142Y-199678571D01*
X184475000Y-199678571D01*
X184332142Y-199607142D01*
X184260714Y-199464285D01*
X184260714Y-199321428D01*
X184332142Y-199178571D01*
X184475000Y-199107142D01*
X184832142Y-199107142D01*
X184975000Y-199035714D01*
X185475000Y-198678571D02*
X186046428Y-198678571D01*
X185689285Y-198178571D02*
X185689285Y-199464285D01*
X185760714Y-199607142D01*
X185903571Y-199678571D01*
X186046428Y-199678571D01*
X187117857Y-199607142D02*
X186975000Y-199678571D01*
X186689285Y-199678571D01*
X186546428Y-199607142D01*
X186475000Y-199464285D01*
X186475000Y-198892857D01*
X186546428Y-198750000D01*
X186689285Y-198678571D01*
X186975000Y-198678571D01*
X187117857Y-198750000D01*
X187189285Y-198892857D01*
X187189285Y-199035714D01*
X186475000Y-199178571D01*
X187832142Y-199535714D02*
X187903571Y-199607142D01*
X187832142Y-199678571D01*
X187760714Y-199607142D01*
X187832142Y-199535714D01*
X187832142Y-199678571D01*
X187832142Y-198750000D02*
X187903571Y-198821428D01*
X187832142Y-198892857D01*
X187760714Y-198821428D01*
X187832142Y-198750000D01*
X187832142Y-198892857D01*
X189617857Y-198321428D02*
X189689285Y-198250000D01*
X189832142Y-198178571D01*
X190189285Y-198178571D01*
X190332142Y-198250000D01*
X190403571Y-198321428D01*
X190475000Y-198464285D01*
X190475000Y-198607142D01*
X190403571Y-198821428D01*
X189546428Y-199678571D01*
X190475000Y-199678571D01*
X191403571Y-198178571D02*
X191546428Y-198178571D01*
X191689285Y-198250000D01*
X191760714Y-198321428D01*
X191832142Y-198464285D01*
X191903571Y-198750000D01*
X191903571Y-199107142D01*
X191832142Y-199392857D01*
X191760714Y-199535714D01*
X191689285Y-199607142D01*
X191546428Y-199678571D01*
X191403571Y-199678571D01*
X191260714Y-199607142D01*
X191189285Y-199535714D01*
X191117857Y-199392857D01*
X191046428Y-199107142D01*
X191046428Y-198750000D01*
X191117857Y-198464285D01*
X191189285Y-198321428D01*
X191260714Y-198250000D01*
X191403571Y-198178571D01*
X193332142Y-199678571D02*
X192475000Y-199678571D01*
X192903571Y-199678571D02*
X192903571Y-198178571D01*
X192760714Y-198392857D01*
X192617857Y-198535714D01*
X192475000Y-198607142D01*
X194046428Y-199678571D02*
X194332142Y-199678571D01*
X194475000Y-199607142D01*
X194546428Y-199535714D01*
X194689285Y-199321428D01*
X194760714Y-199035714D01*
X194760714Y-198464285D01*
X194689285Y-198321428D01*
X194617857Y-198250000D01*
X194475000Y-198178571D01*
X194189285Y-198178571D01*
X194046428Y-198250000D01*
X193975000Y-198321428D01*
X193903571Y-198464285D01*
X193903571Y-198821428D01*
X193975000Y-198964285D01*
X194046428Y-199035714D01*
X194189285Y-199107142D01*
X194475000Y-199107142D01*
X194617857Y-199035714D01*
X194689285Y-198964285D01*
X194760714Y-198821428D01*
X195403571Y-199107142D02*
X196546428Y-199107142D01*
X197546428Y-198178571D02*
X197689285Y-198178571D01*
X197832142Y-198250000D01*
X197903571Y-198321428D01*
X197975000Y-198464285D01*
X198046428Y-198750000D01*
X198046428Y-199107142D01*
X197975000Y-199392857D01*
X197903571Y-199535714D01*
X197832142Y-199607142D01*
X197689285Y-199678571D01*
X197546428Y-199678571D01*
X197403571Y-199607142D01*
X197332142Y-199535714D01*
X197260714Y-199392857D01*
X197189285Y-199107142D01*
X197189285Y-198750000D01*
X197260714Y-198464285D01*
X197332142Y-198321428D01*
X197403571Y-198250000D01*
X197546428Y-198178571D01*
X198546428Y-198178571D02*
X199475000Y-198178571D01*
X198975000Y-198750000D01*
X199189285Y-198750000D01*
X199332142Y-198821428D01*
X199403571Y-198892857D01*
X199475000Y-199035714D01*
X199475000Y-199392857D01*
X199403571Y-199535714D01*
X199332142Y-199607142D01*
X199189285Y-199678571D01*
X198760714Y-199678571D01*
X198617857Y-199607142D01*
X198546428Y-199535714D01*
X200117857Y-199107142D02*
X201260714Y-199107142D01*
X201903571Y-198321428D02*
X201975000Y-198250000D01*
X202117857Y-198178571D01*
X202475000Y-198178571D01*
X202617857Y-198250000D01*
X202689285Y-198321428D01*
X202760714Y-198464285D01*
X202760714Y-198607142D01*
X202689285Y-198821428D01*
X201832142Y-199678571D01*
X202760714Y-199678571D01*
X203260714Y-198178571D02*
X204189285Y-198178571D01*
X203689285Y-198750000D01*
X203903571Y-198750000D01*
X204046428Y-198821428D01*
X204117857Y-198892857D01*
X204189285Y-199035714D01*
X204189285Y-199392857D01*
X204117857Y-199535714D01*
X204046428Y-199607142D01*
X203903571Y-199678571D01*
X203475000Y-199678571D01*
X203332142Y-199607142D01*
X203260714Y-199535714D01*
D10*
D11*
X159400000Y-200400000D02*
X267400000Y-200400000D01*
D10*
D11*
X160832142Y-202478571D02*
X160832142Y-200978571D01*
X161689285Y-202478571D02*
X161046428Y-201621428D01*
X161689285Y-200978571D02*
X160832142Y-201835714D01*
X162332142Y-202478571D02*
X162332142Y-201478571D01*
X162332142Y-200978571D02*
X162260714Y-201050000D01*
X162332142Y-201121428D01*
X162403571Y-201050000D01*
X162332142Y-200978571D01*
X162332142Y-201121428D01*
X163903571Y-202335714D02*
X163832142Y-202407142D01*
X163617857Y-202478571D01*
X163475000Y-202478571D01*
X163260714Y-202407142D01*
X163117857Y-202264285D01*
X163046428Y-202121428D01*
X162975000Y-201835714D01*
X162975000Y-201621428D01*
X163046428Y-201335714D01*
X163117857Y-201192857D01*
X163260714Y-201050000D01*
X163475000Y-200978571D01*
X163617857Y-200978571D01*
X163832142Y-201050000D01*
X163903571Y-201121428D01*
X165189285Y-202478571D02*
X165189285Y-201692857D01*
X165117857Y-201550000D01*
X164975000Y-201478571D01*
X164689285Y-201478571D01*
X164546428Y-201550000D01*
X165189285Y-202407142D02*
X165046428Y-202478571D01*
X164689285Y-202478571D01*
X164546428Y-202407142D01*
X164475000Y-202264285D01*
X164475000Y-202121428D01*
X164546428Y-201978571D01*
X164689285Y-201907142D01*
X165046428Y-201907142D01*
X165189285Y-201835714D01*
X166546428Y-202478571D02*
X166546428Y-200978571D01*
X166546428Y-202407142D02*
X166403571Y-202478571D01*
X166117857Y-202478571D01*
X165975000Y-202407142D01*
X165903571Y-202335714D01*
X165832142Y-202192857D01*
X165832142Y-201764285D01*
X165903571Y-201621428D01*
X165975000Y-201550000D01*
X166117857Y-201478571D01*
X166403571Y-201478571D01*
X166546428Y-201550000D01*
X168403571Y-201692857D02*
X168903571Y-201692857D01*
X169117857Y-202478571D02*
X168403571Y-202478571D01*
X168403571Y-200978571D01*
X169117857Y-200978571D01*
X169760714Y-202335714D02*
X169832142Y-202407142D01*
X169760714Y-202478571D01*
X169689285Y-202407142D01*
X169760714Y-202335714D01*
X169760714Y-202478571D01*
X170475000Y-202478571D02*
X170475000Y-200978571D01*
X170832142Y-200978571D01*
X171046428Y-201050000D01*
X171189285Y-201192857D01*
X171260714Y-201335714D01*
X171332142Y-201621428D01*
X171332142Y-201835714D01*
X171260714Y-202121428D01*
X171189285Y-202264285D01*
X171046428Y-202407142D01*
X170832142Y-202478571D01*
X170475000Y-202478571D01*
X171975000Y-202335714D02*
X172046428Y-202407142D01*
X171975000Y-202478571D01*
X171903571Y-202407142D01*
X171975000Y-202335714D01*
X171975000Y-202478571D01*
X172617857Y-202050000D02*
X173332142Y-202050000D01*
X172475000Y-202478571D02*
X172975000Y-200978571D01*
X173475000Y-202478571D01*
X173975000Y-202335714D02*
X174046428Y-202407142D01*
X173975000Y-202478571D01*
X173903571Y-202407142D01*
X173975000Y-202335714D01*
X173975000Y-202478571D01*
X176975000Y-202478571D02*
X176975000Y-200978571D01*
X177117857Y-201907142D02*
X177546428Y-202478571D01*
X177546428Y-201478571D02*
X176975000Y-202050000D01*
X178189285Y-202478571D02*
X178189285Y-201478571D01*
X178189285Y-200978571D02*
X178117857Y-201050000D01*
X178189285Y-201121428D01*
X178260714Y-201050000D01*
X178189285Y-200978571D01*
X178189285Y-201121428D01*
X179546428Y-202407142D02*
X179403571Y-202478571D01*
X179117857Y-202478571D01*
X178975000Y-202407142D01*
X178903571Y-202335714D01*
X178832142Y-202192857D01*
X178832142Y-201764285D01*
X178903571Y-201621428D01*
X178975000Y-201550000D01*
X179117857Y-201478571D01*
X179403571Y-201478571D01*
X179546428Y-201550000D01*
X180832142Y-202478571D02*
X180832142Y-201692857D01*
X180760714Y-201550000D01*
X180617857Y-201478571D01*
X180332142Y-201478571D01*
X180189285Y-201550000D01*
X180832142Y-202407142D02*
X180689285Y-202478571D01*
X180332142Y-202478571D01*
X180189285Y-202407142D01*
X180117857Y-202264285D01*
X180117857Y-202121428D01*
X180189285Y-201978571D01*
X180332142Y-201907142D01*
X180689285Y-201907142D01*
X180832142Y-201835714D01*
X182189285Y-202478571D02*
X182189285Y-200978571D01*
X182189285Y-202407142D02*
X182046428Y-202478571D01*
X181760714Y-202478571D01*
X181617857Y-202407142D01*
X181546428Y-202335714D01*
X181475000Y-202192857D01*
X181475000Y-201764285D01*
X181546428Y-201621428D01*
X181617857Y-201550000D01*
X181760714Y-201478571D01*
X182046428Y-201478571D01*
X182189285Y-201550000D01*
X184475000Y-203050000D02*
X184403571Y-202978571D01*
X184260714Y-202764285D01*
X184189285Y-202621428D01*
X184117857Y-202407142D01*
X184046428Y-202050000D01*
X184046428Y-201764285D01*
X184117857Y-201407142D01*
X184189285Y-201192857D01*
X184260714Y-201050000D01*
X184403571Y-200835714D01*
X184475000Y-200764285D01*
X185760714Y-200978571D02*
X185046428Y-200978571D01*
X184975000Y-201692857D01*
X185046428Y-201621428D01*
X185189285Y-201550000D01*
X185546428Y-201550000D01*
X185689285Y-201621428D01*
X185760714Y-201692857D01*
X185832142Y-201835714D01*
X185832142Y-202192857D01*
X185760714Y-202335714D01*
X185689285Y-202407142D01*
X185546428Y-202478571D01*
X185189285Y-202478571D01*
X185046428Y-202407142D01*
X184975000Y-202335714D01*
X186475000Y-202335714D02*
X186546428Y-202407142D01*
X186475000Y-202478571D01*
X186403571Y-202407142D01*
X186475000Y-202335714D01*
X186475000Y-202478571D01*
X187975000Y-202478571D02*
X187117857Y-202478571D01*
X187546428Y-202478571D02*
X187546428Y-200978571D01*
X187403571Y-201192857D01*
X187260714Y-201335714D01*
X187117857Y-201407142D01*
X188617857Y-202335714D02*
X188689285Y-202407142D01*
X188617857Y-202478571D01*
X188546428Y-202407142D01*
X188617857Y-202335714D01*
X188617857Y-202478571D01*
X189617857Y-200978571D02*
X189760714Y-200978571D01*
X189903571Y-201050000D01*
X189975000Y-201121428D01*
X190046428Y-201264285D01*
X190117857Y-201550000D01*
X190117857Y-201907142D01*
X190046428Y-202192857D01*
X189975000Y-202335714D01*
X189903571Y-202407142D01*
X189760714Y-202478571D01*
X189617857Y-202478571D01*
X189475000Y-202407142D01*
X189403571Y-202335714D01*
X189332142Y-202192857D01*
X189260714Y-201907142D01*
X189260714Y-201550000D01*
X189332142Y-201264285D01*
X189403571Y-201121428D01*
X189475000Y-201050000D01*
X189617857Y-200978571D01*
X190617857Y-203050000D02*
X190689285Y-202978571D01*
X190832142Y-202764285D01*
X190903571Y-202621428D01*
X190975000Y-202407142D01*
X191046428Y-202050000D01*
X191046428Y-201764285D01*
X190975000Y-201407142D01*
X190903571Y-201192857D01*
X190832142Y-201050000D01*
X190689285Y-200835714D01*
X190617857Y-200764285D01*
X191760714Y-201907142D02*
X192903571Y-201907142D01*
X194403571Y-202478571D02*
X193546428Y-202478571D01*
X193975000Y-202478571D02*
X193975000Y-200978571D01*
X193832142Y-201192857D01*
X193689285Y-201335714D01*
X193546428Y-201407142D01*
D10*
D11*
X159400000Y-197400000D02*
X267400000Y-197400000D01*
D10*
D12*
X246809285Y-199678571D02*
X246309285Y-198964285D01*
X245952142Y-199678571D02*
X245952142Y-198178571D01*
X246523571Y-198178571D01*
X246666428Y-198250000D01*
X246737857Y-198321428D01*
X246809285Y-198464285D01*
X246809285Y-198678571D01*
X246737857Y-198821428D01*
X246666428Y-198892857D01*
X246523571Y-198964285D01*
X245952142Y-198964285D01*
X248023571Y-199607142D02*
X247880714Y-199678571D01*
X247595000Y-199678571D01*
X247452142Y-199607142D01*
X247380714Y-199464285D01*
X247380714Y-198892857D01*
X247452142Y-198750000D01*
X247595000Y-198678571D01*
X247880714Y-198678571D01*
X248023571Y-198750000D01*
X248095000Y-198892857D01*
X248095000Y-199035714D01*
X247380714Y-199178571D01*
X248595000Y-198678571D02*
X248952142Y-199678571D01*
X249309285Y-198678571D01*
X249880714Y-199535714D02*
X249952142Y-199607142D01*
X249880714Y-199678571D01*
X249809285Y-199607142D01*
X249880714Y-199535714D01*
X249880714Y-199678571D01*
X249880714Y-198750000D02*
X249952142Y-198821428D01*
X249880714Y-198892857D01*
X249809285Y-198821428D01*
X249880714Y-198750000D01*
X249880714Y-198892857D01*
X252023571Y-198178571D02*
X252166428Y-198178571D01*
X252309285Y-198250000D01*
X252380714Y-198321428D01*
X252452142Y-198464285D01*
X252523571Y-198750000D01*
X252523571Y-199107142D01*
X252452142Y-199392857D01*
X252380714Y-199535714D01*
X252309285Y-199607142D01*
X252166428Y-199678571D01*
X252023571Y-199678571D01*
X251880714Y-199607142D01*
X251809285Y-199535714D01*
X251737857Y-199392857D01*
X251666428Y-199107142D01*
X251666428Y-198750000D01*
X251737857Y-198464285D01*
X251809285Y-198321428D01*
X251880714Y-198250000D01*
X252023571Y-198178571D01*
X253166428Y-199535714D02*
X253237857Y-199607142D01*
X253166428Y-199678571D01*
X253095000Y-199607142D01*
X253166428Y-199535714D01*
X253166428Y-199678571D01*
X254523571Y-198678571D02*
X254523571Y-199678571D01*
X254166428Y-198107142D02*
X253809285Y-199178571D01*
X254737857Y-199178571D01*
D10*
D11*
X160760714Y-199607142D02*
X160975000Y-199678571D01*
X161332142Y-199678571D01*
X161475000Y-199607142D01*
X161546428Y-199535714D01*
X161617857Y-199392857D01*
X161617857Y-199250000D01*
X161546428Y-199107142D01*
X161475000Y-199035714D01*
X161332142Y-198964285D01*
X161046428Y-198892857D01*
X160903571Y-198821428D01*
X160832142Y-198750000D01*
X160760714Y-198607142D01*
X160760714Y-198464285D01*
X160832142Y-198321428D01*
X160903571Y-198250000D01*
X161046428Y-198178571D01*
X161403571Y-198178571D01*
X161617857Y-198250000D01*
X162260714Y-199678571D02*
X162260714Y-198678571D01*
X162260714Y-198178571D02*
X162189285Y-198250000D01*
X162260714Y-198321428D01*
X162332142Y-198250000D01*
X162260714Y-198178571D01*
X162260714Y-198321428D01*
X162832142Y-198678571D02*
X163617857Y-198678571D01*
X162832142Y-199678571D01*
X163617857Y-199678571D01*
X164760714Y-199607142D02*
X164617857Y-199678571D01*
X164332142Y-199678571D01*
X164189285Y-199607142D01*
X164117857Y-199464285D01*
X164117857Y-198892857D01*
X164189285Y-198750000D01*
X164332142Y-198678571D01*
X164617857Y-198678571D01*
X164760714Y-198750000D01*
X164832142Y-198892857D01*
X164832142Y-199035714D01*
X164117857Y-199178571D01*
X165475000Y-199535714D02*
X165546428Y-199607142D01*
X165475000Y-199678571D01*
X165403571Y-199607142D01*
X165475000Y-199535714D01*
X165475000Y-199678571D01*
X165475000Y-198750000D02*
X165546428Y-198821428D01*
X165475000Y-198892857D01*
X165403571Y-198821428D01*
X165475000Y-198750000D01*
X165475000Y-198892857D01*
X167260714Y-199250000D02*
X167975000Y-199250000D01*
X167117857Y-199678571D02*
X167617857Y-198178571D01*
X168117857Y-199678571D01*
D10*
D11*
X245832142Y-202478571D02*
X245832142Y-200978571D01*
X247189285Y-202478571D02*
X247189285Y-200978571D01*
X247189285Y-202407142D02*
X247046428Y-202478571D01*
X246760714Y-202478571D01*
X246617857Y-202407142D01*
X246546428Y-202335714D01*
X246475000Y-202192857D01*
X246475000Y-201764285D01*
X246546428Y-201621428D01*
X246617857Y-201550000D01*
X246760714Y-201478571D01*
X247046428Y-201478571D01*
X247189285Y-201550000D01*
X247903571Y-202335714D02*
X247975000Y-202407142D01*
X247903571Y-202478571D01*
X247832142Y-202407142D01*
X247903571Y-202335714D01*
X247903571Y-202478571D01*
X247903571Y-201550000D02*
X247975000Y-201621428D01*
X247903571Y-201692857D01*
X247832142Y-201621428D01*
X247903571Y-201550000D01*
X247903571Y-201692857D01*
X250546428Y-202478571D02*
X249689285Y-202478571D01*
X250117857Y-202478571D02*
X250117857Y-200978571D01*
X249975000Y-201192857D01*
X249832142Y-201335714D01*
X249689285Y-201407142D01*
X252260714Y-200907142D02*
X250975000Y-202835714D01*
X253546428Y-202478571D02*
X252689285Y-202478571D01*
X253117857Y-202478571D02*
X253117857Y-200978571D01*
X252975000Y-201192857D01*
X252832142Y-201335714D01*
X252689285Y-201407142D01*
D10*
D11*
X159400000Y-193400000D02*
X267400000Y-193400000D01*
D10*
D13*
X161112380Y-194104761D02*
X162255238Y-194104761D01*
X161433809Y-196104761D02*
X161683809Y-194104761D01*
X162671904Y-196104761D02*
X162838571Y-194771428D01*
X162921904Y-194104761D02*
X162814761Y-194200000D01*
X162898095Y-194295238D01*
X163005238Y-194200000D01*
X162921904Y-194104761D01*
X162898095Y-194295238D01*
X163505238Y-194771428D02*
X164267142Y-194771428D01*
X163874285Y-194104761D02*
X163660000Y-195819047D01*
X163731428Y-196009523D01*
X163910000Y-196104761D01*
X164100476Y-196104761D01*
X165052857Y-196104761D02*
X164874285Y-196009523D01*
X164802857Y-195819047D01*
X165017142Y-194104761D01*
X166588571Y-196009523D02*
X166386190Y-196104761D01*
X166005238Y-196104761D01*
X165826666Y-196009523D01*
X165755238Y-195819047D01*
X165850476Y-195057142D01*
X165969523Y-194866666D01*
X166171904Y-194771428D01*
X166552857Y-194771428D01*
X166731428Y-194866666D01*
X166802857Y-195057142D01*
X166779047Y-195247619D01*
X165802857Y-195438095D01*
X167552857Y-195914285D02*
X167636190Y-196009523D01*
X167529047Y-196104761D01*
X167445714Y-196009523D01*
X167552857Y-195914285D01*
X167529047Y-196104761D01*
X167683809Y-194866666D02*
X167767142Y-194961904D01*
X167660000Y-195057142D01*
X167576666Y-194961904D01*
X167683809Y-194866666D01*
X167660000Y-195057142D01*
X169969523Y-194104761D02*
X171112380Y-194104761D01*
X170290952Y-196104761D02*
X170540952Y-194104761D01*
X171529047Y-196104761D02*
X171695714Y-194771428D01*
X171648095Y-195152380D02*
X171767142Y-194961904D01*
X171874285Y-194866666D01*
X172076666Y-194771428D01*
X172267142Y-194771428D01*
X172767142Y-196104761D02*
X172933809Y-194771428D01*
X173017142Y-194104761D02*
X172910000Y-194200000D01*
X172993333Y-194295238D01*
X173100476Y-194200000D01*
X173017142Y-194104761D01*
X172993333Y-194295238D01*
X173886190Y-194771428D02*
X173636190Y-196771428D01*
X173874285Y-194866666D02*
X174076666Y-194771428D01*
X174457619Y-194771428D01*
X174636190Y-194866666D01*
X174719523Y-194961904D01*
X174790952Y-195152380D01*
X174719523Y-195723809D01*
X174600476Y-195914285D01*
X174493333Y-196009523D01*
X174290952Y-196104761D01*
X173910000Y-196104761D01*
X173731428Y-196009523D01*
X175814761Y-196104761D02*
X175636190Y-196009523D01*
X175564761Y-195819047D01*
X175779047Y-194104761D01*
X177350476Y-196009523D02*
X177148095Y-196104761D01*
X176767142Y-196104761D01*
X176588571Y-196009523D01*
X176517142Y-195819047D01*
X176612380Y-195057142D01*
X176731428Y-194866666D01*
X176933809Y-194771428D01*
X177314761Y-194771428D01*
X177493333Y-194866666D01*
X177564761Y-195057142D01*
X177540952Y-195247619D01*
X176564761Y-195438095D01*
X180612380Y-195057142D02*
X180886190Y-195152380D01*
X180969523Y-195247619D01*
X181040952Y-195438095D01*
X181005238Y-195723809D01*
X180886190Y-195914285D01*
X180779047Y-196009523D01*
X180576666Y-196104761D01*
X179814761Y-196104761D01*
X180064761Y-194104761D01*
X180731428Y-194104761D01*
X180910000Y-194200000D01*
X180993333Y-194295238D01*
X181064761Y-194485714D01*
X181040952Y-194676190D01*
X180921904Y-194866666D01*
X180814761Y-194961904D01*
X180612380Y-195057142D01*
X179945714Y-195057142D01*
X181790952Y-194771428D02*
X182100476Y-196104761D01*
X182743333Y-194771428D02*
X182100476Y-196104761D01*
X181850476Y-196580952D01*
X181743333Y-196676190D01*
X181540952Y-196771428D01*
X183505238Y-194771428D02*
X183255238Y-196771428D01*
X183493333Y-194866666D02*
X183695714Y-194771428D01*
X184076666Y-194771428D01*
X184255238Y-194866666D01*
X184338571Y-194961904D01*
X184410000Y-195152380D01*
X184338571Y-195723809D01*
X184219523Y-195914285D01*
X184112380Y-196009523D01*
X183910000Y-196104761D01*
X183529047Y-196104761D01*
X183350476Y-196009523D01*
X186005238Y-196104761D02*
X186136190Y-195057142D01*
X186064761Y-194866666D01*
X185886190Y-194771428D01*
X185505238Y-194771428D01*
X185302857Y-194866666D01*
X186017142Y-196009523D02*
X185814761Y-196104761D01*
X185338571Y-196104761D01*
X185160000Y-196009523D01*
X185088571Y-195819047D01*
X185112380Y-195628571D01*
X185231428Y-195438095D01*
X185433809Y-195342857D01*
X185910000Y-195342857D01*
X186112380Y-195247619D01*
X186874285Y-196009523D02*
X187052857Y-196104761D01*
X187433809Y-196104761D01*
X187636190Y-196009523D01*
X187755238Y-195819047D01*
X187767142Y-195723809D01*
X187695714Y-195533333D01*
X187517142Y-195438095D01*
X187231428Y-195438095D01*
X187052857Y-195342857D01*
X186981428Y-195152380D01*
X186993333Y-195057142D01*
X187112380Y-194866666D01*
X187314761Y-194771428D01*
X187600476Y-194771428D01*
X187779047Y-194866666D01*
X188493333Y-196009523D02*
X188671904Y-196104761D01*
X189052857Y-196104761D01*
X189255238Y-196009523D01*
X189374285Y-195819047D01*
X189386190Y-195723809D01*
X189314761Y-195533333D01*
X189136190Y-195438095D01*
X188850476Y-195438095D01*
X188671904Y-195342857D01*
X188600476Y-195152380D01*
X188612380Y-195057142D01*
X188731428Y-194866666D01*
X188933809Y-194771428D01*
X189219523Y-194771428D01*
X189398095Y-194866666D01*
X191695714Y-195533333D02*
X192648095Y-195533333D01*
X191433809Y-196104761D02*
X192350476Y-194104761D01*
X192767142Y-196104761D01*
X193433809Y-196104761D02*
X193683809Y-194104761D01*
X195017142Y-194104761D02*
X195398095Y-194104761D01*
X195576666Y-194200000D01*
X195743333Y-194390476D01*
X195790952Y-194771428D01*
X195707619Y-195438095D01*
X195564761Y-195819047D01*
X195350476Y-196009523D01*
X195148095Y-196104761D01*
X194767142Y-196104761D01*
X194588571Y-196009523D01*
X194421904Y-195819047D01*
X194374285Y-195438095D01*
X194457619Y-194771428D01*
X194600476Y-194390476D01*
X194814761Y-194200000D01*
X195017142Y-194104761D01*
D10*
D11*
X161332142Y-191492857D02*
X160832142Y-191492857D01*
X160832142Y-192278571D02*
X160832142Y-190778571D01*
X161546428Y-190778571D01*
X162117857Y-192278571D02*
X162117857Y-191278571D01*
X162117857Y-190778571D02*
X162046428Y-190850000D01*
X162117857Y-190921428D01*
X162189285Y-190850000D01*
X162117857Y-190778571D01*
X162117857Y-190921428D01*
X163046428Y-192278571D02*
X162903571Y-192207142D01*
X162832142Y-192064285D01*
X162832142Y-190778571D01*
X164189285Y-192207142D02*
X164046428Y-192278571D01*
X163760714Y-192278571D01*
X163617857Y-192207142D01*
X163546428Y-192064285D01*
X163546428Y-191492857D01*
X163617857Y-191350000D01*
X163760714Y-191278571D01*
X164046428Y-191278571D01*
X164189285Y-191350000D01*
X164260714Y-191492857D01*
X164260714Y-191635714D01*
X163546428Y-191778571D01*
X164903571Y-192135714D02*
X164975000Y-192207142D01*
X164903571Y-192278571D01*
X164832142Y-192207142D01*
X164903571Y-192135714D01*
X164903571Y-192278571D01*
X164903571Y-191350000D02*
X164975000Y-191421428D01*
X164903571Y-191492857D01*
X164832142Y-191421428D01*
X164903571Y-191350000D01*
X164903571Y-191492857D01*
X166546428Y-191278571D02*
X167117857Y-191278571D01*
X166760714Y-190778571D02*
X166760714Y-192064285D01*
X166832142Y-192207142D01*
X166975000Y-192278571D01*
X167117857Y-192278571D01*
X167617857Y-192278571D02*
X167617857Y-191278571D01*
X167617857Y-191564285D02*
X167689285Y-191421428D01*
X167760714Y-191350000D01*
X167903571Y-191278571D01*
X168046428Y-191278571D01*
X168546428Y-192278571D02*
X168546428Y-191278571D01*
X168546428Y-190778571D02*
X168475000Y-190850000D01*
X168546428Y-190921428D01*
X168617857Y-190850000D01*
X168546428Y-190778571D01*
X168546428Y-190921428D01*
X169260714Y-191278571D02*
X169260714Y-192778571D01*
X169260714Y-191350000D02*
X169403571Y-191278571D01*
X169689285Y-191278571D01*
X169832142Y-191350000D01*
X169903571Y-191421428D01*
X169975000Y-191564285D01*
X169975000Y-191992857D01*
X169903571Y-192135714D01*
X169832142Y-192207142D01*
X169689285Y-192278571D01*
X169403571Y-192278571D01*
X169260714Y-192207142D01*
X170832142Y-192278571D02*
X170689285Y-192207142D01*
X170617857Y-192064285D01*
X170617857Y-190778571D01*
X171975000Y-192207142D02*
X171832142Y-192278571D01*
X171546428Y-192278571D01*
X171403571Y-192207142D01*
X171332142Y-192064285D01*
X171332142Y-191492857D01*
X171403571Y-191350000D01*
X171546428Y-191278571D01*
X171832142Y-191278571D01*
X171975000Y-191350000D01*
X172046428Y-191492857D01*
X172046428Y-191635714D01*
X171332142Y-191778571D01*
X172689285Y-191707142D02*
X173832142Y-191707142D01*
X174546428Y-192278571D02*
X174546428Y-190778571D01*
X174546428Y-191350000D02*
X174689285Y-191278571D01*
X174975000Y-191278571D01*
X175117857Y-191350000D01*
X175189285Y-191421428D01*
X175260714Y-191564285D01*
X175260714Y-191992857D01*
X175189285Y-192135714D01*
X175117857Y-192207142D01*
X174975000Y-192278571D01*
X174689285Y-192278571D01*
X174546428Y-192207142D01*
X175760714Y-191278571D02*
X176117857Y-192278571D01*
X176475000Y-191278571D02*
X176117857Y-192278571D01*
X175975000Y-192635714D01*
X175903571Y-192707142D01*
X175760714Y-192778571D01*
X177046428Y-191278571D02*
X177046428Y-192778571D01*
X177046428Y-191350000D02*
X177189285Y-191278571D01*
X177475000Y-191278571D01*
X177617857Y-191350000D01*
X177689285Y-191421428D01*
X177760714Y-191564285D01*
X177760714Y-191992857D01*
X177689285Y-192135714D01*
X177617857Y-192207142D01*
X177475000Y-192278571D01*
X177189285Y-192278571D01*
X177046428Y-192207142D01*
X179046428Y-192278571D02*
X179046428Y-191492857D01*
X178975000Y-191350000D01*
X178832142Y-191278571D01*
X178546428Y-191278571D01*
X178403571Y-191350000D01*
X179046428Y-192207142D02*
X178903571Y-192278571D01*
X178546428Y-192278571D01*
X178403571Y-192207142D01*
X178332142Y-192064285D01*
X178332142Y-191921428D01*
X178403571Y-191778571D01*
X178546428Y-191707142D01*
X178903571Y-191707142D01*
X179046428Y-191635714D01*
X179689285Y-192207142D02*
X179832142Y-192278571D01*
X180117857Y-192278571D01*
X180260714Y-192207142D01*
X180332142Y-192064285D01*
X180332142Y-191992857D01*
X180260714Y-191850000D01*
X180117857Y-191778571D01*
X179903571Y-191778571D01*
X179760714Y-191707142D01*
X179689285Y-191564285D01*
X179689285Y-191492857D01*
X179760714Y-191350000D01*
X179903571Y-191278571D01*
X180117857Y-191278571D01*
X180260714Y-191350000D01*
X180903571Y-192207142D02*
X181046428Y-192278571D01*
X181332142Y-192278571D01*
X181475000Y-192207142D01*
X181546428Y-192064285D01*
X181546428Y-191992857D01*
X181475000Y-191850000D01*
X181332142Y-191778571D01*
X181117857Y-191778571D01*
X180975000Y-191707142D01*
X180903571Y-191564285D01*
X180903571Y-191492857D01*
X180975000Y-191350000D01*
X181117857Y-191278571D01*
X181332142Y-191278571D01*
X181475000Y-191350000D01*
X182189285Y-191707142D02*
X183332142Y-191707142D01*
X184689285Y-192278571D02*
X184689285Y-191492857D01*
X184617857Y-191350000D01*
X184475000Y-191278571D01*
X184189285Y-191278571D01*
X184046428Y-191350000D01*
X184689285Y-192207142D02*
X184546428Y-192278571D01*
X184189285Y-192278571D01*
X184046428Y-192207142D01*
X183975000Y-192064285D01*
X183975000Y-191921428D01*
X184046428Y-191778571D01*
X184189285Y-191707142D01*
X184546428Y-191707142D01*
X184689285Y-191635714D01*
X185403571Y-192278571D02*
X185403571Y-191278571D01*
X185403571Y-190778571D02*
X185332142Y-190850000D01*
X185403571Y-190921428D01*
X185475000Y-190850000D01*
X185403571Y-190778571D01*
X185403571Y-190921428D01*
X186332142Y-192278571D02*
X186189285Y-192207142D01*
X186117857Y-192135714D01*
X186046428Y-191992857D01*
X186046428Y-191564285D01*
X186117857Y-191421428D01*
X186189285Y-191350000D01*
X186332142Y-191278571D01*
X186546428Y-191278571D01*
X186689285Y-191350000D01*
X186760714Y-191421428D01*
X186832142Y-191564285D01*
X186832142Y-191992857D01*
X186760714Y-192135714D01*
X186689285Y-192207142D01*
X186546428Y-192278571D01*
X186332142Y-192278571D01*
X187475000Y-192135714D02*
X187546428Y-192207142D01*
X187475000Y-192278571D01*
X187403571Y-192207142D01*
X187475000Y-192135714D01*
X187475000Y-192278571D01*
X188189285Y-192278571D02*
X188189285Y-190778571D01*
X188332142Y-191707142D02*
X188760714Y-192278571D01*
X188760714Y-191278571D02*
X188189285Y-191850000D01*
X189403571Y-192278571D02*
X189403571Y-191278571D01*
X189403571Y-190778571D02*
X189332142Y-190850000D01*
X189403571Y-190921428D01*
X189475000Y-190850000D01*
X189403571Y-190778571D01*
X189403571Y-190921428D01*
X190760714Y-192207142D02*
X190617857Y-192278571D01*
X190332142Y-192278571D01*
X190189285Y-192207142D01*
X190117857Y-192135714D01*
X190046428Y-191992857D01*
X190046428Y-191564285D01*
X190117857Y-191421428D01*
X190189285Y-191350000D01*
X190332142Y-191278571D01*
X190617857Y-191278571D01*
X190760714Y-191350000D01*
X192046428Y-192278571D02*
X192046428Y-191492857D01*
X191975000Y-191350000D01*
X191832142Y-191278571D01*
X191546428Y-191278571D01*
X191403571Y-191350000D01*
X192046428Y-192207142D02*
X191903571Y-192278571D01*
X191546428Y-192278571D01*
X191403571Y-192207142D01*
X191332142Y-192064285D01*
X191332142Y-191921428D01*
X191403571Y-191778571D01*
X191546428Y-191707142D01*
X191903571Y-191707142D01*
X192046428Y-191635714D01*
X193403571Y-192278571D02*
X193403571Y-190778571D01*
X193403571Y-192207142D02*
X193260714Y-192278571D01*
X192975000Y-192278571D01*
X192832142Y-192207142D01*
X192760714Y-192135714D01*
X192689285Y-191992857D01*
X192689285Y-191564285D01*
X192760714Y-191421428D01*
X192832142Y-191350000D01*
X192975000Y-191278571D01*
X193260714Y-191278571D01*
X193403571Y-191350000D01*
X193760714Y-192421428D02*
X194903571Y-192421428D01*
X195260714Y-191278571D02*
X195260714Y-192778571D01*
X195260714Y-191350000D02*
X195403571Y-191278571D01*
X195689285Y-191278571D01*
X195832142Y-191350000D01*
X195903571Y-191421428D01*
X195975000Y-191564285D01*
X195975000Y-191992857D01*
X195903571Y-192135714D01*
X195832142Y-192207142D01*
X195689285Y-192278571D01*
X195403571Y-192278571D01*
X195260714Y-192207142D01*
X197260714Y-192207142D02*
X197117857Y-192278571D01*
X196832142Y-192278571D01*
X196689285Y-192207142D01*
X196617857Y-192135714D01*
X196546428Y-191992857D01*
X196546428Y-191564285D01*
X196617857Y-191421428D01*
X196689285Y-191350000D01*
X196832142Y-191278571D01*
X197117857Y-191278571D01*
X197260714Y-191350000D01*
X197903571Y-192278571D02*
X197903571Y-190778571D01*
X197903571Y-191350000D02*
X198046428Y-191278571D01*
X198332142Y-191278571D01*
X198475000Y-191350000D01*
X198546428Y-191421428D01*
X198617857Y-191564285D01*
X198617857Y-191992857D01*
X198546428Y-192135714D01*
X198475000Y-192207142D01*
X198332142Y-192278571D01*
X198046428Y-192278571D01*
X197903571Y-192207142D01*
D10*
D11*
X159400000Y-187400000D02*
X267400000Y-187400000D01*
D10*
D11*
X160760714Y-189507142D02*
X160975000Y-189578571D01*
X161332142Y-189578571D01*
X161475000Y-189507142D01*
X161546428Y-189435714D01*
X161617857Y-189292857D01*
X161617857Y-189150000D01*
X161546428Y-189007142D01*
X161475000Y-188935714D01*
X161332142Y-188864285D01*
X161046428Y-188792857D01*
X160903571Y-188721428D01*
X160832142Y-188650000D01*
X160760714Y-188507142D01*
X160760714Y-188364285D01*
X160832142Y-188221428D01*
X160903571Y-188150000D01*
X161046428Y-188078571D01*
X161403571Y-188078571D01*
X161617857Y-188150000D01*
X162260714Y-189578571D02*
X162260714Y-188078571D01*
X162903571Y-189578571D02*
X162903571Y-188792857D01*
X162832142Y-188650000D01*
X162689285Y-188578571D01*
X162475000Y-188578571D01*
X162332142Y-188650000D01*
X162260714Y-188721428D01*
X164189285Y-189507142D02*
X164046428Y-189578571D01*
X163760714Y-189578571D01*
X163617857Y-189507142D01*
X163546428Y-189364285D01*
X163546428Y-188792857D01*
X163617857Y-188650000D01*
X163760714Y-188578571D01*
X164046428Y-188578571D01*
X164189285Y-188650000D01*
X164260714Y-188792857D01*
X164260714Y-188935714D01*
X163546428Y-189078571D01*
X165475000Y-189507142D02*
X165332142Y-189578571D01*
X165046428Y-189578571D01*
X164903571Y-189507142D01*
X164832142Y-189364285D01*
X164832142Y-188792857D01*
X164903571Y-188650000D01*
X165046428Y-188578571D01*
X165332142Y-188578571D01*
X165475000Y-188650000D01*
X165546428Y-188792857D01*
X165546428Y-188935714D01*
X164832142Y-189078571D01*
X165975000Y-188578571D02*
X166546428Y-188578571D01*
X166189285Y-188078571D02*
X166189285Y-189364285D01*
X166260714Y-189507142D01*
X166403571Y-189578571D01*
X166546428Y-189578571D01*
X167046428Y-189435714D02*
X167117857Y-189507142D01*
X167046428Y-189578571D01*
X166975000Y-189507142D01*
X167046428Y-189435714D01*
X167046428Y-189578571D01*
X167046428Y-188650000D02*
X167117857Y-188721428D01*
X167046428Y-188792857D01*
X166975000Y-188721428D01*
X167046428Y-188650000D01*
X167046428Y-188792857D01*
D10*
D11*
X160832142Y-183578571D02*
X160832142Y-182078571D01*
X161475000Y-183578571D02*
X161475000Y-182792857D01*
X161403571Y-182650000D01*
X161260714Y-182578571D01*
X161046428Y-182578571D01*
X160903571Y-182650000D01*
X160832142Y-182721428D01*
X161975000Y-182578571D02*
X162546428Y-182578571D01*
X162189285Y-182078571D02*
X162189285Y-183364285D01*
X162260714Y-183507142D01*
X162403571Y-183578571D01*
X162546428Y-183578571D01*
X162832142Y-182578571D02*
X163403571Y-182578571D01*
X163046428Y-182078571D02*
X163046428Y-183364285D01*
X163117857Y-183507142D01*
X163260714Y-183578571D01*
X163403571Y-183578571D01*
X163903571Y-182578571D02*
X163903571Y-184078571D01*
X163903571Y-182650000D02*
X164046428Y-182578571D01*
X164332142Y-182578571D01*
X164475000Y-182650000D01*
X164546428Y-182721428D01*
X164617857Y-182864285D01*
X164617857Y-183292857D01*
X164546428Y-183435714D01*
X164475000Y-183507142D01*
X164332142Y-183578571D01*
X164046428Y-183578571D01*
X163903571Y-183507142D01*
X165189285Y-183507142D02*
X165332142Y-183578571D01*
X165617857Y-183578571D01*
X165760714Y-183507142D01*
X165832142Y-183364285D01*
X165832142Y-183292857D01*
X165760714Y-183150000D01*
X165617857Y-183078571D01*
X165403571Y-183078571D01*
X165260714Y-183007142D01*
X165189285Y-182864285D01*
X165189285Y-182792857D01*
X165260714Y-182650000D01*
X165403571Y-182578571D01*
X165617857Y-182578571D01*
X165760714Y-182650000D01*
X166475000Y-183435714D02*
X166546428Y-183507142D01*
X166475000Y-183578571D01*
X166403571Y-183507142D01*
X166475000Y-183435714D01*
X166475000Y-183578571D01*
X166475000Y-182650000D02*
X166546428Y-182721428D01*
X166475000Y-182792857D01*
X166403571Y-182721428D01*
X166475000Y-182650000D01*
X166475000Y-182792857D01*
X168260714Y-182007142D02*
X166975000Y-183935714D01*
X169832142Y-182007142D02*
X168546428Y-183935714D01*
X170975000Y-182578571D02*
X170975000Y-183792857D01*
X170903571Y-183935714D01*
X170832142Y-184007142D01*
X170689285Y-184078571D01*
X170475000Y-184078571D01*
X170332142Y-184007142D01*
X170975000Y-183507142D02*
X170832142Y-183578571D01*
X170546428Y-183578571D01*
X170403571Y-183507142D01*
X170332142Y-183435714D01*
X170260714Y-183292857D01*
X170260714Y-182864285D01*
X170332142Y-182721428D01*
X170403571Y-182650000D01*
X170546428Y-182578571D01*
X170832142Y-182578571D01*
X170975000Y-182650000D01*
X171689285Y-183578571D02*
X171689285Y-182578571D01*
X171689285Y-182078571D02*
X171617857Y-182150000D01*
X171689285Y-182221428D01*
X171760714Y-182150000D01*
X171689285Y-182078571D01*
X171689285Y-182221428D01*
X172189285Y-182578571D02*
X172760714Y-182578571D01*
X172403571Y-182078571D02*
X172403571Y-183364285D01*
X172475000Y-183507142D01*
X172617857Y-183578571D01*
X172760714Y-183578571D01*
X173260714Y-183578571D02*
X173260714Y-182078571D01*
X173903571Y-183578571D02*
X173903571Y-182792857D01*
X173832142Y-182650000D01*
X173689285Y-182578571D01*
X173475000Y-182578571D01*
X173332142Y-182650000D01*
X173260714Y-182721428D01*
X175260714Y-182578571D02*
X175260714Y-183578571D01*
X174617857Y-182578571D02*
X174617857Y-183364285D01*
X174689285Y-183507142D01*
X174832142Y-183578571D01*
X175046428Y-183578571D01*
X175189285Y-183507142D01*
X175260714Y-183435714D01*
X175975000Y-183578571D02*
X175975000Y-182078571D01*
X175975000Y-182650000D02*
X176117857Y-182578571D01*
X176403571Y-182578571D01*
X176546428Y-182650000D01*
X176617857Y-182721428D01*
X176689285Y-182864285D01*
X176689285Y-183292857D01*
X176617857Y-183435714D01*
X176546428Y-183507142D01*
X176403571Y-183578571D01*
X176117857Y-183578571D01*
X175975000Y-183507142D01*
X177332142Y-183435714D02*
X177403571Y-183507142D01*
X177332142Y-183578571D01*
X177260714Y-183507142D01*
X177332142Y-183435714D01*
X177332142Y-183578571D01*
X178689285Y-183507142D02*
X178546428Y-183578571D01*
X178260714Y-183578571D01*
X178117857Y-183507142D01*
X178046428Y-183435714D01*
X177975000Y-183292857D01*
X177975000Y-182864285D01*
X178046428Y-182721428D01*
X178117857Y-182650000D01*
X178260714Y-182578571D01*
X178546428Y-182578571D01*
X178689285Y-182650000D01*
X179546428Y-183578571D02*
X179403571Y-183507142D01*
X179332142Y-183435714D01*
X179260714Y-183292857D01*
X179260714Y-182864285D01*
X179332142Y-182721428D01*
X179403571Y-182650000D01*
X179546428Y-182578571D01*
X179760714Y-182578571D01*
X179903571Y-182650000D01*
X179975000Y-182721428D01*
X180046428Y-182864285D01*
X180046428Y-183292857D01*
X179975000Y-183435714D01*
X179903571Y-183507142D01*
X179760714Y-183578571D01*
X179546428Y-183578571D01*
X180689285Y-183578571D02*
X180689285Y-182578571D01*
X180689285Y-182721428D02*
X180760714Y-182650000D01*
X180903571Y-182578571D01*
X181117857Y-182578571D01*
X181260714Y-182650000D01*
X181332142Y-182792857D01*
X181332142Y-183578571D01*
X181332142Y-182792857D02*
X181403571Y-182650000D01*
X181546428Y-182578571D01*
X181760714Y-182578571D01*
X181903571Y-182650000D01*
X181975000Y-182792857D01*
X181975000Y-183578571D01*
X183760714Y-182007142D02*
X182475000Y-183935714D01*
X184260714Y-183578571D02*
X184260714Y-182578571D01*
X184260714Y-182864285D02*
X184332142Y-182721428D01*
X184403571Y-182650000D01*
X184546428Y-182578571D01*
X184689285Y-182578571D01*
X185832142Y-183578571D02*
X185832142Y-182792857D01*
X185760714Y-182650000D01*
X185617857Y-182578571D01*
X185332142Y-182578571D01*
X185189285Y-182650000D01*
X185832142Y-183507142D02*
X185689285Y-183578571D01*
X185332142Y-183578571D01*
X185189285Y-183507142D01*
X185117857Y-183364285D01*
X185117857Y-183221428D01*
X185189285Y-183078571D01*
X185332142Y-183007142D01*
X185689285Y-183007142D01*
X185832142Y-182935714D01*
X186546428Y-182578571D02*
X186546428Y-183578571D01*
X186546428Y-182721428D02*
X186617857Y-182650000D01*
X186760714Y-182578571D01*
X186975000Y-182578571D01*
X187117857Y-182650000D01*
X187189285Y-182792857D01*
X187189285Y-183578571D01*
X188546428Y-183578571D02*
X188546428Y-182078571D01*
X188546428Y-183507142D02*
X188403571Y-183578571D01*
X188117857Y-183578571D01*
X187975000Y-183507142D01*
X187903571Y-183435714D01*
X187832142Y-183292857D01*
X187832142Y-182864285D01*
X187903571Y-182721428D01*
X187975000Y-182650000D01*
X188117857Y-182578571D01*
X188403571Y-182578571D01*
X188546428Y-182650000D01*
X189117857Y-182578571D02*
X189475000Y-183578571D01*
X189832142Y-182578571D02*
X189475000Y-183578571D01*
X189332142Y-183935714D01*
X189260714Y-184007142D01*
X189117857Y-184078571D01*
X190403571Y-183578571D02*
X190403571Y-182078571D01*
X190403571Y-182650000D02*
X190546428Y-182578571D01*
X190832142Y-182578571D01*
X190975000Y-182650000D01*
X191046428Y-182721428D01*
X191117857Y-182864285D01*
X191117857Y-183292857D01*
X191046428Y-183435714D01*
X190975000Y-183507142D01*
X190832142Y-183578571D01*
X190546428Y-183578571D01*
X190403571Y-183507142D01*
X192332142Y-183507142D02*
X192189285Y-183578571D01*
X191903571Y-183578571D01*
X191760714Y-183507142D01*
X191689285Y-183364285D01*
X191689285Y-182792857D01*
X191760714Y-182650000D01*
X191903571Y-182578571D01*
X192189285Y-182578571D01*
X192332142Y-182650000D01*
X192403571Y-182792857D01*
X192403571Y-182935714D01*
X191689285Y-183078571D01*
X193689285Y-183507142D02*
X193546428Y-183578571D01*
X193260714Y-183578571D01*
X193117857Y-183507142D01*
X193046428Y-183435714D01*
X192975000Y-183292857D01*
X192975000Y-182864285D01*
X193046428Y-182721428D01*
X193117857Y-182650000D01*
X193260714Y-182578571D01*
X193546428Y-182578571D01*
X193689285Y-182650000D01*
X194332142Y-183578571D02*
X194332142Y-182078571D01*
X194475000Y-183007142D02*
X194903571Y-183578571D01*
X194903571Y-182578571D02*
X194332142Y-183150000D01*
X196117857Y-183507142D02*
X195975000Y-183578571D01*
X195689285Y-183578571D01*
X195546428Y-183507142D01*
X195475000Y-183364285D01*
X195475000Y-182792857D01*
X195546428Y-182650000D01*
X195689285Y-182578571D01*
X195975000Y-182578571D01*
X196117857Y-182650000D01*
X196189285Y-182792857D01*
X196189285Y-182935714D01*
X195475000Y-183078571D01*
X196832142Y-183578571D02*
X196832142Y-182578571D01*
X196832142Y-182721428D02*
X196903571Y-182650000D01*
X197046428Y-182578571D01*
X197260714Y-182578571D01*
X197403571Y-182650000D01*
X197475000Y-182792857D01*
X197475000Y-183578571D01*
X197475000Y-182792857D02*
X197546428Y-182650000D01*
X197689285Y-182578571D01*
X197903571Y-182578571D01*
X198046428Y-182650000D01*
X198117857Y-182792857D01*
X198117857Y-183578571D01*
X199403571Y-183507142D02*
X199260714Y-183578571D01*
X198975000Y-183578571D01*
X198832142Y-183507142D01*
X198760714Y-183364285D01*
X198760714Y-182792857D01*
X198832142Y-182650000D01*
X198975000Y-182578571D01*
X199260714Y-182578571D01*
X199403571Y-182650000D01*
X199475000Y-182792857D01*
X199475000Y-182935714D01*
X198760714Y-183078571D01*
X199975000Y-182578571D02*
X200332142Y-183578571D01*
X200689285Y-182578571D02*
X200332142Y-183578571D01*
X200189285Y-183935714D01*
X200117857Y-184007142D01*
X199975000Y-184078571D01*
X201832142Y-183507142D02*
X201689285Y-183578571D01*
X201403571Y-183578571D01*
X201260714Y-183507142D01*
X201189285Y-183364285D01*
X201189285Y-182792857D01*
X201260714Y-182650000D01*
X201403571Y-182578571D01*
X201689285Y-182578571D01*
X201832142Y-182650000D01*
X201903571Y-182792857D01*
X201903571Y-182935714D01*
X201189285Y-183078571D01*
X202546428Y-183578571D02*
X202546428Y-182578571D01*
X202546428Y-182864285D02*
X202617857Y-182721428D01*
X202689285Y-182650000D01*
X202832142Y-182578571D01*
X202975000Y-182578571D01*
X204546428Y-182007142D02*
X203260714Y-183935714D01*
X204832142Y-182578571D02*
X205403571Y-182578571D01*
X205046428Y-182078571D02*
X205046428Y-183364285D01*
X205117857Y-183507142D01*
X205260714Y-183578571D01*
X205403571Y-183578571D01*
X205903571Y-183578571D02*
X205903571Y-182578571D01*
X205903571Y-182864285D02*
X205975000Y-182721428D01*
X206046428Y-182650000D01*
X206189285Y-182578571D01*
X206332142Y-182578571D01*
X206832142Y-183578571D02*
X206832142Y-182578571D01*
X206832142Y-182078571D02*
X206760714Y-182150000D01*
X206832142Y-182221428D01*
X206903571Y-182150000D01*
X206832142Y-182078571D01*
X206832142Y-182221428D01*
X207546428Y-182578571D02*
X207546428Y-184078571D01*
X207546428Y-182650000D02*
X207689285Y-182578571D01*
X207975000Y-182578571D01*
X208117857Y-182650000D01*
X208189285Y-182721428D01*
X208260714Y-182864285D01*
X208260714Y-183292857D01*
X208189285Y-183435714D01*
X208117857Y-183507142D01*
X207975000Y-183578571D01*
X207689285Y-183578571D01*
X207546428Y-183507142D01*
X209117857Y-183578571D02*
X208975000Y-183507142D01*
X208903571Y-183364285D01*
X208903571Y-182078571D01*
X210260714Y-183507142D02*
X210117857Y-183578571D01*
X209832142Y-183578571D01*
X209689285Y-183507142D01*
X209617857Y-183364285D01*
X209617857Y-182792857D01*
X209689285Y-182650000D01*
X209832142Y-182578571D01*
X210117857Y-182578571D01*
X210260714Y-182650000D01*
X210332142Y-182792857D01*
X210332142Y-182935714D01*
X209617857Y-183078571D01*
X210975000Y-183007142D02*
X212117857Y-183007142D01*
X212832142Y-183578571D02*
X212832142Y-182078571D01*
X212832142Y-182650000D02*
X212975000Y-182578571D01*
X213260714Y-182578571D01*
X213403571Y-182650000D01*
X213475000Y-182721428D01*
X213546428Y-182864285D01*
X213546428Y-183292857D01*
X213475000Y-183435714D01*
X213403571Y-183507142D01*
X213260714Y-183578571D01*
X212975000Y-183578571D01*
X212832142Y-183507142D01*
X214046428Y-182578571D02*
X214403571Y-183578571D01*
X214760714Y-182578571D02*
X214403571Y-183578571D01*
X214260714Y-183935714D01*
X214189285Y-184007142D01*
X214046428Y-184078571D01*
X215332142Y-182578571D02*
X215332142Y-184078571D01*
X215332142Y-182650000D02*
X215475000Y-182578571D01*
X215760714Y-182578571D01*
X215903571Y-182650000D01*
X215975000Y-182721428D01*
X216046428Y-182864285D01*
X216046428Y-183292857D01*
X215975000Y-183435714D01*
X215903571Y-183507142D01*
X215760714Y-183578571D01*
X215475000Y-183578571D01*
X215332142Y-183507142D01*
X217332142Y-183578571D02*
X217332142Y-182792857D01*
X217260714Y-182650000D01*
X217117857Y-182578571D01*
X216832142Y-182578571D01*
X216689285Y-182650000D01*
X217332142Y-183507142D02*
X217189285Y-183578571D01*
X216832142Y-183578571D01*
X216689285Y-183507142D01*
X216617857Y-183364285D01*
X216617857Y-183221428D01*
X216689285Y-183078571D01*
X216832142Y-183007142D01*
X217189285Y-183007142D01*
X217332142Y-182935714D01*
X217975000Y-183507142D02*
X218117857Y-183578571D01*
X218403571Y-183578571D01*
X218546428Y-183507142D01*
X218617857Y-183364285D01*
X218617857Y-183292857D01*
X218546428Y-183150000D01*
X218403571Y-183078571D01*
X218189285Y-183078571D01*
X218046428Y-183007142D01*
X217975000Y-182864285D01*
X217975000Y-182792857D01*
X218046428Y-182650000D01*
X218189285Y-182578571D01*
X218403571Y-182578571D01*
X218546428Y-182650000D01*
X219189285Y-183507142D02*
X219332142Y-183578571D01*
X219617857Y-183578571D01*
X219760714Y-183507142D01*
X219832142Y-183364285D01*
X219832142Y-183292857D01*
X219760714Y-183150000D01*
X219617857Y-183078571D01*
X219403571Y-183078571D01*
X219260714Y-183007142D01*
X219189285Y-182864285D01*
X219189285Y-182792857D01*
X219260714Y-182650000D01*
X219403571Y-182578571D01*
X219617857Y-182578571D01*
X219760714Y-182650000D01*
X220475000Y-183007142D02*
X221617857Y-183007142D01*
X222332142Y-183578571D02*
X222332142Y-182078571D01*
X222475000Y-183007142D02*
X222903571Y-183578571D01*
X222903571Y-182578571D02*
X222332142Y-183150000D01*
X223546428Y-183578571D02*
X223546428Y-182578571D01*
X223546428Y-182078571D02*
X223475000Y-182150000D01*
X223546428Y-182221428D01*
X223617857Y-182150000D01*
X223546428Y-182078571D01*
X223546428Y-182221428D01*
X224903571Y-183507142D02*
X224760714Y-183578571D01*
X224475000Y-183578571D01*
X224332142Y-183507142D01*
X224260714Y-183435714D01*
X224189285Y-183292857D01*
X224189285Y-182864285D01*
X224260714Y-182721428D01*
X224332142Y-182650000D01*
X224475000Y-182578571D01*
X224760714Y-182578571D01*
X224903571Y-182650000D01*
X226189285Y-183578571D02*
X226189285Y-182792857D01*
X226117857Y-182650000D01*
X225975000Y-182578571D01*
X225689285Y-182578571D01*
X225546428Y-182650000D01*
X226189285Y-183507142D02*
X226046428Y-183578571D01*
X225689285Y-183578571D01*
X225546428Y-183507142D01*
X225475000Y-183364285D01*
X225475000Y-183221428D01*
X225546428Y-183078571D01*
X225689285Y-183007142D01*
X226046428Y-183007142D01*
X226189285Y-182935714D01*
X227546428Y-183578571D02*
X227546428Y-182078571D01*
X227546428Y-183507142D02*
X227403571Y-183578571D01*
X227117857Y-183578571D01*
X226975000Y-183507142D01*
X226903571Y-183435714D01*
X226832142Y-183292857D01*
X226832142Y-182864285D01*
X226903571Y-182721428D01*
X226975000Y-182650000D01*
X227117857Y-182578571D01*
X227403571Y-182578571D01*
X227546428Y-182650000D01*
D10*
D11*
X161546428Y-180578571D02*
X160832142Y-180578571D01*
X160832142Y-179078571D01*
X162046428Y-180578571D02*
X162046428Y-179578571D01*
X162046428Y-179078571D02*
X161975000Y-179150000D01*
X162046428Y-179221428D01*
X162117857Y-179150000D01*
X162046428Y-179078571D01*
X162046428Y-179221428D01*
X163403571Y-180507142D02*
X163260714Y-180578571D01*
X162975000Y-180578571D01*
X162832142Y-180507142D01*
X162760714Y-180435714D01*
X162689285Y-180292857D01*
X162689285Y-179864285D01*
X162760714Y-179721428D01*
X162832142Y-179650000D01*
X162975000Y-179578571D01*
X163260714Y-179578571D01*
X163403571Y-179650000D01*
X164617857Y-180507142D02*
X164475000Y-180578571D01*
X164189285Y-180578571D01*
X164046428Y-180507142D01*
X163975000Y-180364285D01*
X163975000Y-179792857D01*
X164046428Y-179650000D01*
X164189285Y-179578571D01*
X164475000Y-179578571D01*
X164617857Y-179650000D01*
X164689285Y-179792857D01*
X164689285Y-179935714D01*
X163975000Y-180078571D01*
X165332142Y-179578571D02*
X165332142Y-180578571D01*
X165332142Y-179721428D02*
X165403571Y-179650000D01*
X165546428Y-179578571D01*
X165760714Y-179578571D01*
X165903571Y-179650000D01*
X165975000Y-179792857D01*
X165975000Y-180578571D01*
X166617857Y-180507142D02*
X166760714Y-180578571D01*
X167046428Y-180578571D01*
X167189285Y-180507142D01*
X167260714Y-180364285D01*
X167260714Y-180292857D01*
X167189285Y-180150000D01*
X167046428Y-180078571D01*
X166832142Y-180078571D01*
X166689285Y-180007142D01*
X166617857Y-179864285D01*
X166617857Y-179792857D01*
X166689285Y-179650000D01*
X166832142Y-179578571D01*
X167046428Y-179578571D01*
X167189285Y-179650000D01*
X168475000Y-180507142D02*
X168332142Y-180578571D01*
X168046428Y-180578571D01*
X167903571Y-180507142D01*
X167832142Y-180364285D01*
X167832142Y-179792857D01*
X167903571Y-179650000D01*
X168046428Y-179578571D01*
X168332142Y-179578571D01*
X168475000Y-179650000D01*
X168546428Y-179792857D01*
X168546428Y-179935714D01*
X167832142Y-180078571D01*
X169832142Y-180578571D02*
X169832142Y-179078571D01*
X169832142Y-180507142D02*
X169689285Y-180578571D01*
X169403571Y-180578571D01*
X169260714Y-180507142D01*
X169189285Y-180435714D01*
X169117857Y-180292857D01*
X169117857Y-179864285D01*
X169189285Y-179721428D01*
X169260714Y-179650000D01*
X169403571Y-179578571D01*
X169689285Y-179578571D01*
X169832142Y-179650000D01*
X172332142Y-179578571D02*
X172332142Y-180578571D01*
X171689285Y-179578571D02*
X171689285Y-180364285D01*
X171760714Y-180507142D01*
X171903571Y-180578571D01*
X172117857Y-180578571D01*
X172260714Y-180507142D01*
X172332142Y-180435714D01*
X173046428Y-179578571D02*
X173046428Y-180578571D01*
X173046428Y-179721428D02*
X173117857Y-179650000D01*
X173260714Y-179578571D01*
X173475000Y-179578571D01*
X173617857Y-179650000D01*
X173689285Y-179792857D01*
X173689285Y-180578571D01*
X175046428Y-180578571D02*
X175046428Y-179078571D01*
X175046428Y-180507142D02*
X174903571Y-180578571D01*
X174617857Y-180578571D01*
X174475000Y-180507142D01*
X174403571Y-180435714D01*
X174332142Y-180292857D01*
X174332142Y-179864285D01*
X174403571Y-179721428D01*
X174475000Y-179650000D01*
X174617857Y-179578571D01*
X174903571Y-179578571D01*
X175046428Y-179650000D01*
X176332142Y-180507142D02*
X176189285Y-180578571D01*
X175903571Y-180578571D01*
X175760714Y-180507142D01*
X175689285Y-180364285D01*
X175689285Y-179792857D01*
X175760714Y-179650000D01*
X175903571Y-179578571D01*
X176189285Y-179578571D01*
X176332142Y-179650000D01*
X176403571Y-179792857D01*
X176403571Y-179935714D01*
X175689285Y-180078571D01*
X177046428Y-180578571D02*
X177046428Y-179578571D01*
X177046428Y-179864285D02*
X177117857Y-179721428D01*
X177189285Y-179650000D01*
X177332142Y-179578571D01*
X177475000Y-179578571D01*
X179975000Y-180435714D02*
X179903571Y-180507142D01*
X179689285Y-180578571D01*
X179546428Y-180578571D01*
X179332142Y-180507142D01*
X179189285Y-180364285D01*
X179117857Y-180221428D01*
X179046428Y-179935714D01*
X179046428Y-179721428D01*
X179117857Y-179435714D01*
X179189285Y-179292857D01*
X179332142Y-179150000D01*
X179546428Y-179078571D01*
X179689285Y-179078571D01*
X179903571Y-179150000D01*
X179975000Y-179221428D01*
X180617857Y-179792857D02*
X181117857Y-179792857D01*
X181332142Y-180578571D02*
X180617857Y-180578571D01*
X180617857Y-179078571D01*
X181332142Y-179078571D01*
X182832142Y-180578571D02*
X182332142Y-179864285D01*
X181975000Y-180578571D02*
X181975000Y-179078571D01*
X182546428Y-179078571D01*
X182689285Y-179150000D01*
X182760714Y-179221428D01*
X182832142Y-179364285D01*
X182832142Y-179578571D01*
X182760714Y-179721428D01*
X182689285Y-179792857D01*
X182546428Y-179864285D01*
X181975000Y-179864285D01*
X183475000Y-180578571D02*
X183475000Y-179078571D01*
X184332142Y-180578571D01*
X184332142Y-179078571D01*
X186475000Y-179078571D02*
X186760714Y-179078571D01*
X186903571Y-179150000D01*
X187046428Y-179292857D01*
X187117857Y-179578571D01*
X187117857Y-180078571D01*
X187046428Y-180364285D01*
X186903571Y-180507142D01*
X186760714Y-180578571D01*
X186475000Y-180578571D01*
X186332142Y-180507142D01*
X186189285Y-180364285D01*
X186117857Y-180078571D01*
X186117857Y-179578571D01*
X186189285Y-179292857D01*
X186332142Y-179150000D01*
X186475000Y-179078571D01*
X187760714Y-180578571D02*
X187760714Y-179078571D01*
X187760714Y-179792857D02*
X188617857Y-179792857D01*
X188617857Y-180578571D02*
X188617857Y-179078571D01*
X190046428Y-180578571D02*
X189332142Y-180578571D01*
X189332142Y-179078571D01*
X191546428Y-179578571D02*
X191903571Y-180578571D01*
X192260714Y-179578571D01*
X192832142Y-180435714D02*
X192903571Y-180507142D01*
X192832142Y-180578571D01*
X192760714Y-180507142D01*
X192832142Y-180435714D01*
X192832142Y-180578571D01*
X194332142Y-180578571D02*
X193475000Y-180578571D01*
X193903571Y-180578571D02*
X193903571Y-179078571D01*
X193760714Y-179292857D01*
X193617857Y-179435714D01*
X193475000Y-179507142D01*
X194975000Y-180435714D02*
X195046428Y-180507142D01*
X194975000Y-180578571D01*
X194903571Y-180507142D01*
X194975000Y-180435714D01*
X194975000Y-180578571D01*
X195617857Y-179221428D02*
X195689285Y-179150000D01*
X195832142Y-179078571D01*
X196189285Y-179078571D01*
X196332142Y-179150000D01*
X196403571Y-179221428D01*
X196475000Y-179364285D01*
X196475000Y-179507142D01*
X196403571Y-179721428D01*
X195546428Y-180578571D01*
X196475000Y-180578571D01*
D10*
D11*
X179400000Y-197400000D02*
X179400000Y-200400000D01*
D10*
D11*
X243400000Y-197400000D02*
X243400000Y-203900000D01*
D14*
X158500000Y-62000000D02*
X125500000Y-62000000D01*
D15*
X158500000Y-62000000D02*
X158500000Y-118000000D01*
X125500000Y-118000000D02*
X125500000Y-62000000D01*
X125500000Y-118000000D02*
X158500000Y-118000000D01*
D16*
X127750000Y-67550000D03*
X142250000Y-67550000D03*
D17*
X135000000Y-73050000D03*
X137000000Y-73050000D03*
X133000000Y-73050000D03*
X131000000Y-73050000D03*
X139000000Y-73050000D03*
X131000000Y-70550000D03*
X134300000Y-70550000D03*
D18*
X136300000Y-70550000D03*
D17*
X139000000Y-70550000D03*
D19*
X135000000Y-66750000D03*
D20*
X133000000Y-77100000D03*
X133000000Y-83900000D03*
X155000000Y-70650000D03*
X155000000Y-63850000D03*
D21*
X129500000Y-79250000D03*
X130000000Y-104000000D03*
X134000000Y-104000000D03*
X138000000Y-104000000D03*
X142000000Y-103500000D03*
X146000000Y-104000000D03*
X150000000Y-104000000D03*
X154000000Y-104000000D03*
X138500000Y-88712500D03*
X145500000Y-88712500D03*
X145000000Y-91500000D03*
X150250000Y-85750000D03*
X150250000Y-78500000D03*
X150250000Y-76500000D03*
X150250000Y-72500000D03*
X147250000Y-72750000D03*
X148750000Y-72750000D03*
X141250000Y-94750000D03*
X146750000Y-64000000D03*
X157500000Y-63250000D03*
X152250000Y-63000000D03*
X129500000Y-75750000D03*
D22*
X147000000Y-88750000D03*
X138706661Y-87356149D03*
D21*
X141000000Y-91500000D03*
X142000000Y-87250000D03*
X129500000Y-82000000D03*
D22*
X152750000Y-70750000D03*
X153750000Y-65500000D03*
D23*
X135000000Y-66750000D02*
X131250000Y-66750000D01*
X130450000Y-67550000D02*
X127750000Y-67550000D01*
X131250000Y-66750000D02*
X130450000Y-67550000D01*
D24*
X147000000Y-88750000D02*
X144500000Y-86250000D01*
X139812810Y-86250000D02*
X138706661Y-87356149D01*
X144500000Y-86250000D02*
X139812810Y-86250000D01*
D25*
X142000000Y-89250000D02*
X142000000Y-87250000D01*
X141000000Y-91500000D02*
X141000000Y-90250000D01*
X141000000Y-90250000D02*
X142000000Y-89250000D01*
X129500000Y-82000000D02*
X127500000Y-80000000D01*
X127500000Y-80000000D02*
X127500000Y-71750000D01*
X127500000Y-71750000D02*
X130250000Y-69000000D01*
X132750000Y-69000000D02*
X134300000Y-70550000D01*
X130250000Y-69000000D02*
X132750000Y-69000000D01*
D24*
X152750000Y-70750000D02*
X152750000Y-66500000D01*
X152750000Y-66500000D02*
X153750000Y-65500000D01*
D26*
G36*
X157873000Y-117373000D02*
G01*
X126127000Y-117373000D01*
X126127000Y-87283600D01*
X137970061Y-87283600D01*
X137970061Y-87428698D01*
X137998368Y-87571007D01*
X138053895Y-87705060D01*
X138134506Y-87825704D01*
X138237106Y-87928304D01*
X138357750Y-88008915D01*
X138491803Y-88064442D01*
X138634112Y-88092749D01*
X138779210Y-88092749D01*
X138921519Y-88064442D01*
X139055572Y-88008915D01*
X139176216Y-87928304D01*
X139278816Y-87825704D01*
X139359427Y-87705060D01*
X139414954Y-87571007D01*
X139443261Y-87428698D01*
X139443261Y-87355929D01*
X140028491Y-86770700D01*
X141312163Y-86770700D01*
X141257197Y-86852963D01*
X141194011Y-87005506D01*
X141161800Y-87167444D01*
X141161800Y-87332556D01*
X141194011Y-87494494D01*
X141257197Y-87647037D01*
X141314201Y-87732350D01*
X141314200Y-88965933D01*
X140538886Y-89741247D01*
X140512721Y-89762720D01*
X140491248Y-89788885D01*
X140491245Y-89788888D01*
X140427020Y-89867147D01*
X140363339Y-89986286D01*
X140324124Y-90115560D01*
X140310883Y-90250000D01*
X140314201Y-90283688D01*
X140314200Y-91017651D01*
X140257197Y-91102963D01*
X140194011Y-91255506D01*
X140161800Y-91417444D01*
X140161800Y-91582556D01*
X140194011Y-91744494D01*
X140257197Y-91897037D01*
X140348927Y-92034322D01*
X140465678Y-92151073D01*
X140602963Y-92242803D01*
X140755506Y-92305989D01*
X140917444Y-92338200D01*
X141082556Y-92338200D01*
X141244494Y-92305989D01*
X141397037Y-92242803D01*
X141534322Y-92151073D01*
X141651073Y-92034322D01*
X141742803Y-91897037D01*
X141805989Y-91744494D01*
X141838200Y-91582556D01*
X141838200Y-91417444D01*
X141805989Y-91255506D01*
X141742803Y-91102963D01*
X141685800Y-91017651D01*
X141685800Y-90534067D01*
X142461114Y-89758753D01*
X142487279Y-89737280D01*
X142536735Y-89677019D01*
X142572980Y-89632854D01*
X142572982Y-89632852D01*
X142636662Y-89513714D01*
X142675877Y-89384440D01*
X142682012Y-89322155D01*
X142689118Y-89250000D01*
X142685800Y-89216311D01*
X142685800Y-87732349D01*
X142742803Y-87647037D01*
X142805989Y-87494494D01*
X142838200Y-87332556D01*
X142838200Y-87167444D01*
X142805989Y-87005506D01*
X142742803Y-86852963D01*
X142687837Y-86770700D01*
X144284320Y-86770700D01*
X146263400Y-88749781D01*
X146263400Y-88822549D01*
X146291707Y-88964858D01*
X146347234Y-89098911D01*
X146427845Y-89219555D01*
X146530445Y-89322155D01*
X146651089Y-89402766D01*
X146785142Y-89458293D01*
X146927451Y-89486600D01*
X147072549Y-89486600D01*
X147214858Y-89458293D01*
X147348911Y-89402766D01*
X147469555Y-89322155D01*
X147572155Y-89219555D01*
X147652766Y-89098911D01*
X147708293Y-88964858D01*
X147736600Y-88822549D01*
X147736600Y-88677451D01*
X147708293Y-88535142D01*
X147652766Y-88401089D01*
X147572155Y-88280445D01*
X147469555Y-88177845D01*
X147348911Y-88097234D01*
X147214858Y-88041707D01*
X147072549Y-88013400D01*
X146999781Y-88013400D01*
X144886283Y-85899903D01*
X144869972Y-85880028D01*
X144790685Y-85814959D01*
X144700227Y-85766609D01*
X144602075Y-85736835D01*
X144525575Y-85729300D01*
X144500000Y-85726781D01*
X144474425Y-85729300D01*
X139838385Y-85729300D01*
X139812810Y-85726781D01*
X139710734Y-85736835D01*
X139680960Y-85745867D01*
X139612583Y-85766609D01*
X139522125Y-85814959D01*
X139442838Y-85880028D01*
X139426532Y-85899897D01*
X138706881Y-86619549D01*
X138634112Y-86619549D01*
X138491803Y-86647856D01*
X138357750Y-86703383D01*
X138237106Y-86783994D01*
X138134506Y-86886594D01*
X138053895Y-87007238D01*
X137998368Y-87141291D01*
X137970061Y-87283600D01*
X126127000Y-87283600D01*
X126127000Y-83798377D01*
X131968200Y-83798377D01*
X131968200Y-84001623D01*
X132007852Y-84200965D01*
X132085631Y-84388740D01*
X132198549Y-84557734D01*
X132342266Y-84701451D01*
X132511260Y-84814369D01*
X132699035Y-84892148D01*
X132898377Y-84931800D01*
X133101623Y-84931800D01*
X133300965Y-84892148D01*
X133488740Y-84814369D01*
X133657734Y-84701451D01*
X133801451Y-84557734D01*
X133914369Y-84388740D01*
X133992148Y-84200965D01*
X134031800Y-84001623D01*
X134031800Y-83798377D01*
X133992148Y-83599035D01*
X133914369Y-83411260D01*
X133801451Y-83242266D01*
X133657734Y-83098549D01*
X133488740Y-82985631D01*
X133300965Y-82907852D01*
X133101623Y-82868200D01*
X132898377Y-82868200D01*
X132699035Y-82907852D01*
X132511260Y-82985631D01*
X132342266Y-83098549D01*
X132198549Y-83242266D01*
X132085631Y-83411260D01*
X132007852Y-83599035D01*
X131968200Y-83798377D01*
X126127000Y-83798377D01*
X126127000Y-69173246D01*
X126216681Y-69262927D01*
X126331171Y-69148437D01*
X126505223Y-69479354D01*
X126905540Y-69685125D01*
X127338308Y-69808846D01*
X127786898Y-69845759D01*
X128234070Y-69794449D01*
X128604626Y-69675506D01*
X127038886Y-71241247D01*
X127012721Y-71262720D01*
X126991248Y-71288885D01*
X126991245Y-71288888D01*
X126927020Y-71367147D01*
X126863339Y-71486286D01*
X126824124Y-71615560D01*
X126810883Y-71750000D01*
X126814201Y-71783689D01*
X126814200Y-79966321D01*
X126810883Y-80000000D01*
X126814200Y-80033679D01*
X126814200Y-80033688D01*
X126824123Y-80134439D01*
X126863338Y-80263713D01*
X126927019Y-80382852D01*
X127012720Y-80487279D01*
X127038887Y-80508754D01*
X128673994Y-82143862D01*
X128694011Y-82244494D01*
X128757197Y-82397037D01*
X128848927Y-82534322D01*
X128965678Y-82651073D01*
X129102963Y-82742803D01*
X129255506Y-82805989D01*
X129417444Y-82838200D01*
X129582556Y-82838200D01*
X129744494Y-82805989D01*
X129897037Y-82742803D01*
X130034322Y-82651073D01*
X130151073Y-82534322D01*
X130242803Y-82397037D01*
X130305989Y-82244494D01*
X130338200Y-82082556D01*
X130338200Y-81917444D01*
X130305989Y-81755506D01*
X130242803Y-81602963D01*
X130151073Y-81465678D01*
X130034322Y-81348927D01*
X129897037Y-81257197D01*
X129744494Y-81194011D01*
X129643862Y-81173994D01*
X128185800Y-79715933D01*
X128185800Y-76998377D01*
X131968200Y-76998377D01*
X131968200Y-77201623D01*
X132007852Y-77400965D01*
X132085631Y-77588740D01*
X132198549Y-77757734D01*
X132342266Y-77901451D01*
X132511260Y-78014369D01*
X132699035Y-78092148D01*
X132898377Y-78131800D01*
X133101623Y-78131800D01*
X133300965Y-78092148D01*
X133488740Y-78014369D01*
X133657734Y-77901451D01*
X133801451Y-77757734D01*
X133914369Y-77588740D01*
X133992148Y-77400965D01*
X134031800Y-77201623D01*
X134031800Y-76998377D01*
X133992148Y-76799035D01*
X133914369Y-76611260D01*
X133801451Y-76442266D01*
X133657734Y-76298549D01*
X133488740Y-76185631D01*
X133300965Y-76107852D01*
X133101623Y-76068200D01*
X132898377Y-76068200D01*
X132699035Y-76107852D01*
X132511260Y-76185631D01*
X132342266Y-76298549D01*
X132198549Y-76442266D01*
X132085631Y-76611260D01*
X132007852Y-76799035D01*
X131968200Y-76998377D01*
X128185800Y-76998377D01*
X128185800Y-72938133D01*
X129864200Y-72938133D01*
X129864200Y-73161867D01*
X129907848Y-73381301D01*
X129993467Y-73588003D01*
X130117766Y-73774031D01*
X130275969Y-73932234D01*
X130461997Y-74056533D01*
X130668699Y-74142152D01*
X130888133Y-74185800D01*
X131111867Y-74185800D01*
X131331301Y-74142152D01*
X131538003Y-74056533D01*
X131724031Y-73932234D01*
X131882234Y-73774031D01*
X132000000Y-73597780D01*
X132117766Y-73774031D01*
X132275969Y-73932234D01*
X132461997Y-74056533D01*
X132668699Y-74142152D01*
X132888133Y-74185800D01*
X133111867Y-74185800D01*
X133331301Y-74142152D01*
X133538003Y-74056533D01*
X133724031Y-73932234D01*
X133882234Y-73774031D01*
X134000000Y-73597780D01*
X134117766Y-73774031D01*
X134275969Y-73932234D01*
X134461997Y-74056533D01*
X134668699Y-74142152D01*
X134888133Y-74185800D01*
X135111867Y-74185800D01*
X135331301Y-74142152D01*
X135538003Y-74056533D01*
X135724031Y-73932234D01*
X135882234Y-73774031D01*
X136000000Y-73597780D01*
X136117766Y-73774031D01*
X136275969Y-73932234D01*
X136461997Y-74056533D01*
X136668699Y-74142152D01*
X136888133Y-74185800D01*
X137111867Y-74185800D01*
X137331301Y-74142152D01*
X137538003Y-74056533D01*
X137724031Y-73932234D01*
X137882234Y-73774031D01*
X138000000Y-73597780D01*
X138117766Y-73774031D01*
X138275969Y-73932234D01*
X138461997Y-74056533D01*
X138668699Y-74142152D01*
X138888133Y-74185800D01*
X139111867Y-74185800D01*
X139331301Y-74142152D01*
X139538003Y-74056533D01*
X139724031Y-73932234D01*
X139882234Y-73774031D01*
X140006533Y-73588003D01*
X140092152Y-73381301D01*
X140135800Y-73161867D01*
X140135800Y-72938133D01*
X140092152Y-72718699D01*
X140006533Y-72511997D01*
X139882234Y-72325969D01*
X139724031Y-72167766D01*
X139538003Y-72043467D01*
X139331301Y-71957848D01*
X139111867Y-71914200D01*
X138888133Y-71914200D01*
X138668699Y-71957848D01*
X138461997Y-72043467D01*
X138275969Y-72167766D01*
X138117766Y-72325969D01*
X138000000Y-72502220D01*
X137882234Y-72325969D01*
X137724031Y-72167766D01*
X137538003Y-72043467D01*
X137331301Y-71957848D01*
X137111867Y-71914200D01*
X136888133Y-71914200D01*
X136668699Y-71957848D01*
X136461997Y-72043467D01*
X136275969Y-72167766D01*
X136117766Y-72325969D01*
X136000000Y-72502220D01*
X135882234Y-72325969D01*
X135724031Y-72167766D01*
X135538003Y-72043467D01*
X135331301Y-71957848D01*
X135111867Y-71914200D01*
X134888133Y-71914200D01*
X134668699Y-71957848D01*
X134461997Y-72043467D01*
X134275969Y-72167766D01*
X134117766Y-72325969D01*
X134000000Y-72502220D01*
X133882234Y-72325969D01*
X133724031Y-72167766D01*
X133538003Y-72043467D01*
X133331301Y-71957848D01*
X133111867Y-71914200D01*
X132888133Y-71914200D01*
X132668699Y-71957848D01*
X132461997Y-72043467D01*
X132275969Y-72167766D01*
X132117766Y-72325969D01*
X132000000Y-72502220D01*
X131882234Y-72325969D01*
X131724031Y-72167766D01*
X131538003Y-72043467D01*
X131331301Y-71957848D01*
X131111867Y-71914200D01*
X130888133Y-71914200D01*
X130668699Y-71957848D01*
X130461997Y-72043467D01*
X130275969Y-72167766D01*
X130117766Y-72325969D01*
X129993467Y-72511997D01*
X129907848Y-72718699D01*
X129864200Y-72938133D01*
X128185800Y-72938133D01*
X128185800Y-72034067D01*
X129884676Y-70335191D01*
X129864200Y-70438133D01*
X129864200Y-70661867D01*
X129907848Y-70881301D01*
X129993467Y-71088003D01*
X130117766Y-71274031D01*
X130275969Y-71432234D01*
X130461997Y-71556533D01*
X130668699Y-71642152D01*
X130888133Y-71685800D01*
X131111867Y-71685800D01*
X131331301Y-71642152D01*
X131538003Y-71556533D01*
X131724031Y-71432234D01*
X131882234Y-71274031D01*
X132006533Y-71088003D01*
X132092152Y-70881301D01*
X132135800Y-70661867D01*
X132135800Y-70438133D01*
X132092152Y-70218699D01*
X132006533Y-70011997D01*
X131882234Y-69825969D01*
X131742065Y-69685800D01*
X132465933Y-69685800D01*
X133173170Y-70393038D01*
X133164200Y-70438133D01*
X133164200Y-70661867D01*
X133207848Y-70881301D01*
X133293467Y-71088003D01*
X133417766Y-71274031D01*
X133575969Y-71432234D01*
X133761997Y-71556533D01*
X133968699Y-71642152D01*
X134188133Y-71685800D01*
X134411867Y-71685800D01*
X134631301Y-71642152D01*
X134838003Y-71556533D01*
X135024031Y-71432234D01*
X135165711Y-71290554D01*
X135170448Y-71338648D01*
X135195139Y-71420042D01*
X135235234Y-71495056D01*
X135289194Y-71560806D01*
X135354944Y-71614766D01*
X135429958Y-71654861D01*
X135511352Y-71679552D01*
X135596000Y-71687889D01*
X137004000Y-71687889D01*
X137088648Y-71679552D01*
X137170042Y-71654861D01*
X137245056Y-71614766D01*
X137310806Y-71560806D01*
X137364766Y-71495056D01*
X137404861Y-71420042D01*
X137429552Y-71338648D01*
X137437889Y-71254000D01*
X137437889Y-70438133D01*
X137864200Y-70438133D01*
X137864200Y-70661867D01*
X137907848Y-70881301D01*
X137993467Y-71088003D01*
X138117766Y-71274031D01*
X138275969Y-71432234D01*
X138461997Y-71556533D01*
X138668699Y-71642152D01*
X138888133Y-71685800D01*
X139111867Y-71685800D01*
X139331301Y-71642152D01*
X139538003Y-71556533D01*
X139724031Y-71432234D01*
X139882234Y-71274031D01*
X140006533Y-71088003D01*
X140092152Y-70881301D01*
X140132700Y-70677451D01*
X152013400Y-70677451D01*
X152013400Y-70822549D01*
X152041707Y-70964858D01*
X152097234Y-71098911D01*
X152177845Y-71219555D01*
X152280445Y-71322155D01*
X152401089Y-71402766D01*
X152535142Y-71458293D01*
X152677451Y-71486600D01*
X152822549Y-71486600D01*
X152964858Y-71458293D01*
X153098911Y-71402766D01*
X153219555Y-71322155D01*
X153322155Y-71219555D01*
X153402766Y-71098911D01*
X153458293Y-70964858D01*
X153486600Y-70822549D01*
X153486600Y-70677451D01*
X153460926Y-70548377D01*
X153968200Y-70548377D01*
X153968200Y-70751623D01*
X154007852Y-70950965D01*
X154085631Y-71138740D01*
X154198549Y-71307734D01*
X154342266Y-71451451D01*
X154511260Y-71564369D01*
X154699035Y-71642148D01*
X154898377Y-71681800D01*
X155101623Y-71681800D01*
X155300965Y-71642148D01*
X155488740Y-71564369D01*
X155657734Y-71451451D01*
X155801451Y-71307734D01*
X155914369Y-71138740D01*
X155992148Y-70950965D01*
X156031800Y-70751623D01*
X156031800Y-70548377D01*
X155992148Y-70349035D01*
X155914369Y-70161260D01*
X155801451Y-69992266D01*
X155657734Y-69848549D01*
X155488740Y-69735631D01*
X155300965Y-69657852D01*
X155101623Y-69618200D01*
X154898377Y-69618200D01*
X154699035Y-69657852D01*
X154511260Y-69735631D01*
X154342266Y-69848549D01*
X154198549Y-69992266D01*
X154085631Y-70161260D01*
X154007852Y-70349035D01*
X153968200Y-70548377D01*
X153460926Y-70548377D01*
X153458293Y-70535142D01*
X153402766Y-70401089D01*
X153322155Y-70280445D01*
X153270700Y-70228990D01*
X153270700Y-66715680D01*
X153749781Y-66236600D01*
X153822549Y-66236600D01*
X153964858Y-66208293D01*
X154098911Y-66152766D01*
X154219555Y-66072155D01*
X154322155Y-65969555D01*
X154402766Y-65848911D01*
X154458293Y-65714858D01*
X154486600Y-65572549D01*
X154486600Y-65427451D01*
X154458293Y-65285142D01*
X154402766Y-65151089D01*
X154322155Y-65030445D01*
X154219555Y-64927845D01*
X154098911Y-64847234D01*
X153964858Y-64791707D01*
X153822549Y-64763400D01*
X153677451Y-64763400D01*
X153535142Y-64791707D01*
X153401089Y-64847234D01*
X153280445Y-64927845D01*
X153177845Y-65030445D01*
X153097234Y-65151089D01*
X153041707Y-65285142D01*
X153013400Y-65427451D01*
X153013400Y-65500219D01*
X152399898Y-66113722D01*
X152380029Y-66130028D01*
X152314960Y-66209315D01*
X152300376Y-66236600D01*
X152266610Y-66299773D01*
X152236835Y-66397925D01*
X152226781Y-66500000D01*
X152229301Y-66525585D01*
X152229300Y-70228990D01*
X152177845Y-70280445D01*
X152097234Y-70401089D01*
X152041707Y-70535142D01*
X152013400Y-70677451D01*
X140132700Y-70677451D01*
X140135800Y-70661867D01*
X140135800Y-70438133D01*
X140092152Y-70218699D01*
X140006533Y-70011997D01*
X139882234Y-69825969D01*
X139724031Y-69667766D01*
X139538003Y-69543467D01*
X139331301Y-69457848D01*
X139111867Y-69414200D01*
X138888133Y-69414200D01*
X138668699Y-69457848D01*
X138461997Y-69543467D01*
X138275969Y-69667766D01*
X138117766Y-69825969D01*
X137993467Y-70011997D01*
X137907848Y-70218699D01*
X137864200Y-70438133D01*
X137437889Y-70438133D01*
X137437889Y-69846000D01*
X137429552Y-69761352D01*
X137404861Y-69679958D01*
X137364766Y-69604944D01*
X137310806Y-69539194D01*
X137245056Y-69485234D01*
X137170042Y-69445139D01*
X137088648Y-69420448D01*
X137004000Y-69412111D01*
X135596000Y-69412111D01*
X135511352Y-69420448D01*
X135429958Y-69445139D01*
X135354944Y-69485234D01*
X135289194Y-69539194D01*
X135235234Y-69604944D01*
X135195139Y-69679958D01*
X135170448Y-69761352D01*
X135165711Y-69809446D01*
X135024031Y-69667766D01*
X134838003Y-69543467D01*
X134631301Y-69457848D01*
X134411867Y-69414200D01*
X134188133Y-69414200D01*
X134143038Y-69423170D01*
X133868303Y-69148435D01*
X140831170Y-69148435D01*
X141005223Y-69479354D01*
X141405540Y-69685125D01*
X141838308Y-69808846D01*
X142286898Y-69845759D01*
X142734070Y-69794449D01*
X143162639Y-69656885D01*
X143494777Y-69479354D01*
X143668830Y-69148435D01*
X142250000Y-67729605D01*
X140831170Y-69148435D01*
X133868303Y-69148435D01*
X133258758Y-68538891D01*
X133237280Y-68512720D01*
X133132853Y-68427019D01*
X133013714Y-68363338D01*
X132884440Y-68324123D01*
X132783689Y-68314200D01*
X132783679Y-68314200D01*
X132750000Y-68310883D01*
X132716321Y-68314200D01*
X130283678Y-68314200D01*
X130249999Y-68310883D01*
X130216320Y-68314200D01*
X130216311Y-68314200D01*
X130115560Y-68324123D01*
X129986286Y-68363338D01*
X129868860Y-68426104D01*
X129885125Y-68394460D01*
X130008846Y-67961692D01*
X130045759Y-67513102D01*
X129999149Y-67106890D01*
X132808524Y-67106890D01*
X132829437Y-67200953D01*
X132944709Y-67469426D01*
X133110143Y-67710252D01*
X133319381Y-67914176D01*
X133564382Y-68073361D01*
X133835731Y-68181690D01*
X134123000Y-68235000D01*
X134873000Y-68235000D01*
X134873000Y-66877000D01*
X135127000Y-66877000D01*
X135127000Y-68235000D01*
X135877000Y-68235000D01*
X136164269Y-68181690D01*
X136435618Y-68073361D01*
X136680619Y-67914176D01*
X136889857Y-67710252D01*
X136974594Y-67586898D01*
X139954241Y-67586898D01*
X140005551Y-68034070D01*
X140143115Y-68462639D01*
X140320646Y-68794777D01*
X140651565Y-68968830D01*
X142070395Y-67550000D01*
X142429605Y-67550000D01*
X143848435Y-68968830D01*
X144179354Y-68794777D01*
X144385125Y-68394460D01*
X144508846Y-67961692D01*
X144545759Y-67513102D01*
X144494449Y-67065930D01*
X144356885Y-66637361D01*
X144179354Y-66305223D01*
X143848435Y-66131170D01*
X142429605Y-67550000D01*
X142070395Y-67550000D01*
X140651565Y-66131170D01*
X140320646Y-66305223D01*
X140114875Y-66705540D01*
X139991154Y-67138308D01*
X139954241Y-67586898D01*
X136974594Y-67586898D01*
X137055291Y-67469426D01*
X137170563Y-67200953D01*
X137191476Y-67106890D01*
X137070155Y-66877000D01*
X135127000Y-66877000D01*
X134873000Y-66877000D01*
X132929845Y-66877000D01*
X132808524Y-67106890D01*
X129999149Y-67106890D01*
X129994449Y-67065930D01*
X129856885Y-66637361D01*
X129726331Y-66393110D01*
X132808524Y-66393110D01*
X132929845Y-66623000D01*
X134873000Y-66623000D01*
X134873000Y-66603000D01*
X135127000Y-66603000D01*
X135127000Y-66623000D01*
X137070155Y-66623000D01*
X137191476Y-66393110D01*
X137170563Y-66299047D01*
X137055291Y-66030574D01*
X137001017Y-65951565D01*
X140831170Y-65951565D01*
X142250000Y-67370395D01*
X143668830Y-65951565D01*
X143494777Y-65620646D01*
X143094460Y-65414875D01*
X142661692Y-65291154D01*
X142213102Y-65254241D01*
X141765930Y-65305551D01*
X141337361Y-65443115D01*
X141005223Y-65620646D01*
X140831170Y-65951565D01*
X137001017Y-65951565D01*
X136889857Y-65789748D01*
X136680619Y-65585824D01*
X136435618Y-65426639D01*
X136164269Y-65318310D01*
X135877000Y-65265000D01*
X134123000Y-65265000D01*
X133835731Y-65318310D01*
X133564382Y-65426639D01*
X133319381Y-65585824D01*
X133110143Y-65789748D01*
X132944709Y-66030574D01*
X132829437Y-66299047D01*
X132808524Y-66393110D01*
X129726331Y-66393110D01*
X129679354Y-66305223D01*
X129348435Y-66131170D01*
X127929605Y-67550000D01*
X127943748Y-67564143D01*
X127764143Y-67743748D01*
X127750000Y-67729605D01*
X127735858Y-67743748D01*
X127556253Y-67564143D01*
X127570395Y-67550000D01*
X127556253Y-67535858D01*
X127735858Y-67356253D01*
X127750000Y-67370395D01*
X129168830Y-65951565D01*
X128994777Y-65620646D01*
X128594460Y-65414875D01*
X128161692Y-65291154D01*
X127713102Y-65254241D01*
X127265930Y-65305551D01*
X126837361Y-65443115D01*
X126505223Y-65620646D01*
X126331171Y-65951563D01*
X126216681Y-65837073D01*
X126127000Y-65926754D01*
X126127000Y-63748377D01*
X153968200Y-63748377D01*
X153968200Y-63951623D01*
X154007852Y-64150965D01*
X154085631Y-64338740D01*
X154198549Y-64507734D01*
X154342266Y-64651451D01*
X154511260Y-64764369D01*
X154699035Y-64842148D01*
X154898377Y-64881800D01*
X155101623Y-64881800D01*
X155300965Y-64842148D01*
X155488740Y-64764369D01*
X155657734Y-64651451D01*
X155801451Y-64507734D01*
X155914369Y-64338740D01*
X155992148Y-64150965D01*
X156031800Y-63951623D01*
X156031800Y-63748377D01*
X155992148Y-63549035D01*
X155914369Y-63361260D01*
X155801451Y-63192266D01*
X155657734Y-63048549D01*
X155488740Y-62935631D01*
X155300965Y-62857852D01*
X155101623Y-62818200D01*
X154898377Y-62818200D01*
X154699035Y-62857852D01*
X154511260Y-62935631D01*
X154342266Y-63048549D01*
X154198549Y-63192266D01*
X154085631Y-63361260D01*
X154007852Y-63549035D01*
X153968200Y-63748377D01*
X126127000Y-63748377D01*
X126127000Y-62627000D01*
X157873000Y-62627000D01*
X157873000Y-117373000D01*
X157873000Y-117373000D01*
G37*
X157873000Y-117373000D02*
X126127000Y-117373000D01*
X126127000Y-87283600D01*
X137970061Y-87283600D01*
X137970061Y-87428698D01*
X137998368Y-87571007D01*
X138053895Y-87705060D01*
X138134506Y-87825704D01*
X138237106Y-87928304D01*
X138357750Y-88008915D01*
X138491803Y-88064442D01*
X138634112Y-88092749D01*
X138779210Y-88092749D01*
X138921519Y-88064442D01*
X139055572Y-88008915D01*
X139176216Y-87928304D01*
X139278816Y-87825704D01*
X139359427Y-87705060D01*
X139414954Y-87571007D01*
X139443261Y-87428698D01*
X139443261Y-87355929D01*
X140028491Y-86770700D01*
X141312163Y-86770700D01*
X141257197Y-86852963D01*
X141194011Y-87005506D01*
X141161800Y-87167444D01*
X141161800Y-87332556D01*
X141194011Y-87494494D01*
X141257197Y-87647037D01*
X141314201Y-87732350D01*
X141314200Y-88965933D01*
X140538886Y-89741247D01*
X140512721Y-89762720D01*
X140491248Y-89788885D01*
X140491245Y-89788888D01*
X140427020Y-89867147D01*
X140363339Y-89986286D01*
X140324124Y-90115560D01*
X140310883Y-90250000D01*
X140314201Y-90283688D01*
X140314200Y-91017651D01*
X140257197Y-91102963D01*
X140194011Y-91255506D01*
X140161800Y-91417444D01*
X140161800Y-91582556D01*
X140194011Y-91744494D01*
X140257197Y-91897037D01*
X140348927Y-92034322D01*
X140465678Y-92151073D01*
X140602963Y-92242803D01*
X140755506Y-92305989D01*
X140917444Y-92338200D01*
X141082556Y-92338200D01*
X141244494Y-92305989D01*
X141397037Y-92242803D01*
X141534322Y-92151073D01*
X141651073Y-92034322D01*
X141742803Y-91897037D01*
X141805989Y-91744494D01*
X141838200Y-91582556D01*
X141838200Y-91417444D01*
X141805989Y-91255506D01*
X141742803Y-91102963D01*
X141685800Y-91017651D01*
X141685800Y-90534067D01*
X142461114Y-89758753D01*
X142487279Y-89737280D01*
X142536735Y-89677019D01*
X142572980Y-89632854D01*
X142572982Y-89632852D01*
X142636662Y-89513714D01*
X142675877Y-89384440D01*
X142682012Y-89322155D01*
X142689118Y-89250000D01*
X142685800Y-89216311D01*
X142685800Y-87732349D01*
X142742803Y-87647037D01*
X142805989Y-87494494D01*
X142838200Y-87332556D01*
X142838200Y-87167444D01*
X142805989Y-87005506D01*
X142742803Y-86852963D01*
X142687837Y-86770700D01*
X144284320Y-86770700D01*
X146263400Y-88749781D01*
X146263400Y-88822549D01*
X146291707Y-88964858D01*
X146347234Y-89098911D01*
X146427845Y-89219555D01*
X146530445Y-89322155D01*
X146651089Y-89402766D01*
X146785142Y-89458293D01*
X146927451Y-89486600D01*
X147072549Y-89486600D01*
X147214858Y-89458293D01*
X147348911Y-89402766D01*
X147469555Y-89322155D01*
X147572155Y-89219555D01*
X147652766Y-89098911D01*
X147708293Y-88964858D01*
X147736600Y-88822549D01*
X147736600Y-88677451D01*
X147708293Y-88535142D01*
X147652766Y-88401089D01*
X147572155Y-88280445D01*
X147469555Y-88177845D01*
X147348911Y-88097234D01*
X147214858Y-88041707D01*
X147072549Y-88013400D01*
X146999781Y-88013400D01*
X144886283Y-85899903D01*
X144869972Y-85880028D01*
X144790685Y-85814959D01*
X144700227Y-85766609D01*
X144602075Y-85736835D01*
X144525575Y-85729300D01*
X144500000Y-85726781D01*
X144474425Y-85729300D01*
X139838385Y-85729300D01*
X139812810Y-85726781D01*
X139710734Y-85736835D01*
X139680960Y-85745867D01*
X139612583Y-85766609D01*
X139522125Y-85814959D01*
X139442838Y-85880028D01*
X139426532Y-85899897D01*
X138706881Y-86619549D01*
X138634112Y-86619549D01*
X138491803Y-86647856D01*
X138357750Y-86703383D01*
X138237106Y-86783994D01*
X138134506Y-86886594D01*
X138053895Y-87007238D01*
X137998368Y-87141291D01*
X137970061Y-87283600D01*
X126127000Y-87283600D01*
X126127000Y-83798377D01*
X131968200Y-83798377D01*
X131968200Y-84001623D01*
X132007852Y-84200965D01*
X132085631Y-84388740D01*
X132198549Y-84557734D01*
X132342266Y-84701451D01*
X132511260Y-84814369D01*
X132699035Y-84892148D01*
X132898377Y-84931800D01*
X133101623Y-84931800D01*
X133300965Y-84892148D01*
X133488740Y-84814369D01*
X133657734Y-84701451D01*
X133801451Y-84557734D01*
X133914369Y-84388740D01*
X133992148Y-84200965D01*
X134031800Y-84001623D01*
X134031800Y-83798377D01*
X133992148Y-83599035D01*
X133914369Y-83411260D01*
X133801451Y-83242266D01*
X133657734Y-83098549D01*
X133488740Y-82985631D01*
X133300965Y-82907852D01*
X133101623Y-82868200D01*
X132898377Y-82868200D01*
X132699035Y-82907852D01*
X132511260Y-82985631D01*
X132342266Y-83098549D01*
X132198549Y-83242266D01*
X132085631Y-83411260D01*
X132007852Y-83599035D01*
X131968200Y-83798377D01*
X126127000Y-83798377D01*
X126127000Y-69173246D01*
X126216681Y-69262927D01*
X126331171Y-69148437D01*
X126505223Y-69479354D01*
X126905540Y-69685125D01*
X127338308Y-69808846D01*
X127786898Y-69845759D01*
X128234070Y-69794449D01*
X128604626Y-69675506D01*
X127038886Y-71241247D01*
X127012721Y-71262720D01*
X126991248Y-71288885D01*
X126991245Y-71288888D01*
X126927020Y-71367147D01*
X126863339Y-71486286D01*
X126824124Y-71615560D01*
X126810883Y-71750000D01*
X126814201Y-71783689D01*
X126814200Y-79966321D01*
X126810883Y-80000000D01*
X126814200Y-80033679D01*
X126814200Y-80033688D01*
X126824123Y-80134439D01*
X126863338Y-80263713D01*
X126927019Y-80382852D01*
X127012720Y-80487279D01*
X127038887Y-80508754D01*
X128673994Y-82143862D01*
X128694011Y-82244494D01*
X128757197Y-82397037D01*
X128848927Y-82534322D01*
X128965678Y-82651073D01*
X129102963Y-82742803D01*
X129255506Y-82805989D01*
X129417444Y-82838200D01*
X129582556Y-82838200D01*
X129744494Y-82805989D01*
X129897037Y-82742803D01*
X130034322Y-82651073D01*
X130151073Y-82534322D01*
X130242803Y-82397037D01*
X130305989Y-82244494D01*
X130338200Y-82082556D01*
X130338200Y-81917444D01*
X130305989Y-81755506D01*
X130242803Y-81602963D01*
X130151073Y-81465678D01*
X130034322Y-81348927D01*
X129897037Y-81257197D01*
X129744494Y-81194011D01*
X129643862Y-81173994D01*
X128185800Y-79715933D01*
X128185800Y-76998377D01*
X131968200Y-76998377D01*
X131968200Y-77201623D01*
X132007852Y-77400965D01*
X132085631Y-77588740D01*
X132198549Y-77757734D01*
X132342266Y-77901451D01*
X132511260Y-78014369D01*
X132699035Y-78092148D01*
X132898377Y-78131800D01*
X133101623Y-78131800D01*
X133300965Y-78092148D01*
X133488740Y-78014369D01*
X133657734Y-77901451D01*
X133801451Y-77757734D01*
X133914369Y-77588740D01*
X133992148Y-77400965D01*
X134031800Y-77201623D01*
X134031800Y-76998377D01*
X133992148Y-76799035D01*
X133914369Y-76611260D01*
X133801451Y-76442266D01*
X133657734Y-76298549D01*
X133488740Y-76185631D01*
X133300965Y-76107852D01*
X133101623Y-76068200D01*
X132898377Y-76068200D01*
X132699035Y-76107852D01*
X132511260Y-76185631D01*
X132342266Y-76298549D01*
X132198549Y-76442266D01*
X132085631Y-76611260D01*
X132007852Y-76799035D01*
X131968200Y-76998377D01*
X128185800Y-76998377D01*
X128185800Y-72938133D01*
X129864200Y-72938133D01*
X129864200Y-73161867D01*
X129907848Y-73381301D01*
X129993467Y-73588003D01*
X130117766Y-73774031D01*
X130275969Y-73932234D01*
X130461997Y-74056533D01*
X130668699Y-74142152D01*
X130888133Y-74185800D01*
X131111867Y-74185800D01*
X131331301Y-74142152D01*
X131538003Y-74056533D01*
X131724031Y-73932234D01*
X131882234Y-73774031D01*
X132000000Y-73597780D01*
X132117766Y-73774031D01*
X132275969Y-73932234D01*
X132461997Y-74056533D01*
X132668699Y-74142152D01*
X132888133Y-74185800D01*
X133111867Y-74185800D01*
X133331301Y-74142152D01*
X133538003Y-74056533D01*
X133724031Y-73932234D01*
X133882234Y-73774031D01*
X134000000Y-73597780D01*
X134117766Y-73774031D01*
X134275969Y-73932234D01*
X134461997Y-74056533D01*
X134668699Y-74142152D01*
X134888133Y-74185800D01*
X135111867Y-74185800D01*
X135331301Y-74142152D01*
X135538003Y-74056533D01*
X135724031Y-73932234D01*
X135882234Y-73774031D01*
X136000000Y-73597780D01*
X136117766Y-73774031D01*
X136275969Y-73932234D01*
X136461997Y-74056533D01*
X136668699Y-74142152D01*
X136888133Y-74185800D01*
X137111867Y-74185800D01*
X137331301Y-74142152D01*
X137538003Y-74056533D01*
X137724031Y-73932234D01*
X137882234Y-73774031D01*
X138000000Y-73597780D01*
X138117766Y-73774031D01*
X138275969Y-73932234D01*
X138461997Y-74056533D01*
X138668699Y-74142152D01*
X138888133Y-74185800D01*
X139111867Y-74185800D01*
X139331301Y-74142152D01*
X139538003Y-74056533D01*
X139724031Y-73932234D01*
X139882234Y-73774031D01*
X140006533Y-73588003D01*
X140092152Y-73381301D01*
X140135800Y-73161867D01*
X140135800Y-72938133D01*
X140092152Y-72718699D01*
X140006533Y-72511997D01*
X139882234Y-72325969D01*
X139724031Y-72167766D01*
X139538003Y-72043467D01*
X139331301Y-71957848D01*
X139111867Y-71914200D01*
X138888133Y-71914200D01*
X138668699Y-71957848D01*
X138461997Y-72043467D01*
X138275969Y-72167766D01*
X138117766Y-72325969D01*
X138000000Y-72502220D01*
X137882234Y-72325969D01*
X137724031Y-72167766D01*
X137538003Y-72043467D01*
X137331301Y-71957848D01*
X137111867Y-71914200D01*
X136888133Y-71914200D01*
X136668699Y-71957848D01*
X136461997Y-72043467D01*
X136275969Y-72167766D01*
X136117766Y-72325969D01*
X136000000Y-72502220D01*
X135882234Y-72325969D01*
X135724031Y-72167766D01*
X135538003Y-72043467D01*
X135331301Y-71957848D01*
X135111867Y-71914200D01*
X134888133Y-71914200D01*
X134668699Y-71957848D01*
X134461997Y-72043467D01*
X134275969Y-72167766D01*
X134117766Y-72325969D01*
X134000000Y-72502220D01*
X133882234Y-72325969D01*
X133724031Y-72167766D01*
X133538003Y-72043467D01*
X133331301Y-71957848D01*
X133111867Y-71914200D01*
X132888133Y-71914200D01*
X132668699Y-71957848D01*
X132461997Y-72043467D01*
X132275969Y-72167766D01*
X132117766Y-72325969D01*
X132000000Y-72502220D01*
X131882234Y-72325969D01*
X131724031Y-72167766D01*
X131538003Y-72043467D01*
X131331301Y-71957848D01*
X131111867Y-71914200D01*
X130888133Y-71914200D01*
X130668699Y-71957848D01*
X130461997Y-72043467D01*
X130275969Y-72167766D01*
X130117766Y-72325969D01*
X129993467Y-72511997D01*
X129907848Y-72718699D01*
X129864200Y-72938133D01*
X128185800Y-72938133D01*
X128185800Y-72034067D01*
X129884676Y-70335191D01*
X129864200Y-70438133D01*
X129864200Y-70661867D01*
X129907848Y-70881301D01*
X129993467Y-71088003D01*
X130117766Y-71274031D01*
X130275969Y-71432234D01*
X130461997Y-71556533D01*
X130668699Y-71642152D01*
X130888133Y-71685800D01*
X131111867Y-71685800D01*
X131331301Y-71642152D01*
X131538003Y-71556533D01*
X131724031Y-71432234D01*
X131882234Y-71274031D01*
X132006533Y-71088003D01*
X132092152Y-70881301D01*
X132135800Y-70661867D01*
X132135800Y-70438133D01*
X132092152Y-70218699D01*
X132006533Y-70011997D01*
X131882234Y-69825969D01*
X131742065Y-69685800D01*
X132465933Y-69685800D01*
X133173170Y-70393038D01*
X133164200Y-70438133D01*
X133164200Y-70661867D01*
X133207848Y-70881301D01*
X133293467Y-71088003D01*
X133417766Y-71274031D01*
X133575969Y-71432234D01*
X133761997Y-71556533D01*
X133968699Y-71642152D01*
X134188133Y-71685800D01*
X134411867Y-71685800D01*
X134631301Y-71642152D01*
X134838003Y-71556533D01*
X135024031Y-71432234D01*
X135165711Y-71290554D01*
X135170448Y-71338648D01*
X135195139Y-71420042D01*
X135235234Y-71495056D01*
X135289194Y-71560806D01*
X135354944Y-71614766D01*
X135429958Y-71654861D01*
X135511352Y-71679552D01*
X135596000Y-71687889D01*
X137004000Y-71687889D01*
X137088648Y-71679552D01*
X137170042Y-71654861D01*
X137245056Y-71614766D01*
X137310806Y-71560806D01*
X137364766Y-71495056D01*
X137404861Y-71420042D01*
X137429552Y-71338648D01*
X137437889Y-71254000D01*
X137437889Y-70438133D01*
X137864200Y-70438133D01*
X137864200Y-70661867D01*
X137907848Y-70881301D01*
X137993467Y-71088003D01*
X138117766Y-71274031D01*
X138275969Y-71432234D01*
X138461997Y-71556533D01*
X138668699Y-71642152D01*
X138888133Y-71685800D01*
X139111867Y-71685800D01*
X139331301Y-71642152D01*
X139538003Y-71556533D01*
X139724031Y-71432234D01*
X139882234Y-71274031D01*
X140006533Y-71088003D01*
X140092152Y-70881301D01*
X140132700Y-70677451D01*
X152013400Y-70677451D01*
X152013400Y-70822549D01*
X152041707Y-70964858D01*
X152097234Y-71098911D01*
X152177845Y-71219555D01*
X152280445Y-71322155D01*
X152401089Y-71402766D01*
X152535142Y-71458293D01*
X152677451Y-71486600D01*
X152822549Y-71486600D01*
X152964858Y-71458293D01*
X153098911Y-71402766D01*
X153219555Y-71322155D01*
X153322155Y-71219555D01*
X153402766Y-71098911D01*
X153458293Y-70964858D01*
X153486600Y-70822549D01*
X153486600Y-70677451D01*
X153460926Y-70548377D01*
X153968200Y-70548377D01*
X153968200Y-70751623D01*
X154007852Y-70950965D01*
X154085631Y-71138740D01*
X154198549Y-71307734D01*
X154342266Y-71451451D01*
X154511260Y-71564369D01*
X154699035Y-71642148D01*
X154898377Y-71681800D01*
X155101623Y-71681800D01*
X155300965Y-71642148D01*
X155488740Y-71564369D01*
X155657734Y-71451451D01*
X155801451Y-71307734D01*
X155914369Y-71138740D01*
X155992148Y-70950965D01*
X156031800Y-70751623D01*
X156031800Y-70548377D01*
X155992148Y-70349035D01*
X155914369Y-70161260D01*
X155801451Y-69992266D01*
X155657734Y-69848549D01*
X155488740Y-69735631D01*
X155300965Y-69657852D01*
X155101623Y-69618200D01*
X154898377Y-69618200D01*
X154699035Y-69657852D01*
X154511260Y-69735631D01*
X154342266Y-69848549D01*
X154198549Y-69992266D01*
X154085631Y-70161260D01*
X154007852Y-70349035D01*
X153968200Y-70548377D01*
X153460926Y-70548377D01*
X153458293Y-70535142D01*
X153402766Y-70401089D01*
X153322155Y-70280445D01*
X153270700Y-70228990D01*
X153270700Y-66715680D01*
X153749781Y-66236600D01*
X153822549Y-66236600D01*
X153964858Y-66208293D01*
X154098911Y-66152766D01*
X154219555Y-66072155D01*
X154322155Y-65969555D01*
X154402766Y-65848911D01*
X154458293Y-65714858D01*
X154486600Y-65572549D01*
X154486600Y-65427451D01*
X154458293Y-65285142D01*
X154402766Y-65151089D01*
X154322155Y-65030445D01*
X154219555Y-64927845D01*
X154098911Y-64847234D01*
X153964858Y-64791707D01*
X153822549Y-64763400D01*
X153677451Y-64763400D01*
X153535142Y-64791707D01*
X153401089Y-64847234D01*
X153280445Y-64927845D01*
X153177845Y-65030445D01*
X153097234Y-65151089D01*
X153041707Y-65285142D01*
X153013400Y-65427451D01*
X153013400Y-65500219D01*
X152399898Y-66113722D01*
X152380029Y-66130028D01*
X152314960Y-66209315D01*
X152300376Y-66236600D01*
X152266610Y-66299773D01*
X152236835Y-66397925D01*
X152226781Y-66500000D01*
X152229301Y-66525585D01*
X152229300Y-70228990D01*
X152177845Y-70280445D01*
X152097234Y-70401089D01*
X152041707Y-70535142D01*
X152013400Y-70677451D01*
X140132700Y-70677451D01*
X140135800Y-70661867D01*
X140135800Y-70438133D01*
X140092152Y-70218699D01*
X140006533Y-70011997D01*
X139882234Y-69825969D01*
X139724031Y-69667766D01*
X139538003Y-69543467D01*
X139331301Y-69457848D01*
X139111867Y-69414200D01*
X138888133Y-69414200D01*
X138668699Y-69457848D01*
X138461997Y-69543467D01*
X138275969Y-69667766D01*
X138117766Y-69825969D01*
X137993467Y-70011997D01*
X137907848Y-70218699D01*
X137864200Y-70438133D01*
X137437889Y-70438133D01*
X137437889Y-69846000D01*
X137429552Y-69761352D01*
X137404861Y-69679958D01*
X137364766Y-69604944D01*
X137310806Y-69539194D01*
X137245056Y-69485234D01*
X137170042Y-69445139D01*
X137088648Y-69420448D01*
X137004000Y-69412111D01*
X135596000Y-69412111D01*
X135511352Y-69420448D01*
X135429958Y-69445139D01*
X135354944Y-69485234D01*
X135289194Y-69539194D01*
X135235234Y-69604944D01*
X135195139Y-69679958D01*
X135170448Y-69761352D01*
X135165711Y-69809446D01*
X135024031Y-69667766D01*
X134838003Y-69543467D01*
X134631301Y-69457848D01*
X134411867Y-69414200D01*
X134188133Y-69414200D01*
X134143038Y-69423170D01*
X133868303Y-69148435D01*
X140831170Y-69148435D01*
X141005223Y-69479354D01*
X141405540Y-69685125D01*
X141838308Y-69808846D01*
X142286898Y-69845759D01*
X142734070Y-69794449D01*
X143162639Y-69656885D01*
X143494777Y-69479354D01*
X143668830Y-69148435D01*
X142250000Y-67729605D01*
X140831170Y-69148435D01*
X133868303Y-69148435D01*
X133258758Y-68538891D01*
X133237280Y-68512720D01*
X133132853Y-68427019D01*
X133013714Y-68363338D01*
X132884440Y-68324123D01*
X132783689Y-68314200D01*
X132783679Y-68314200D01*
X132750000Y-68310883D01*
X132716321Y-68314200D01*
X130283678Y-68314200D01*
X130249999Y-68310883D01*
X130216320Y-68314200D01*
X130216311Y-68314200D01*
X130115560Y-68324123D01*
X129986286Y-68363338D01*
X129868860Y-68426104D01*
X129885125Y-68394460D01*
X130008846Y-67961692D01*
X130045759Y-67513102D01*
X129999149Y-67106890D01*
X132808524Y-67106890D01*
X132829437Y-67200953D01*
X132944709Y-67469426D01*
X133110143Y-67710252D01*
X133319381Y-67914176D01*
X133564382Y-68073361D01*
X133835731Y-68181690D01*
X134123000Y-68235000D01*
X134873000Y-68235000D01*
X134873000Y-66877000D01*
X135127000Y-66877000D01*
X135127000Y-68235000D01*
X135877000Y-68235000D01*
X136164269Y-68181690D01*
X136435618Y-68073361D01*
X136680619Y-67914176D01*
X136889857Y-67710252D01*
X136974594Y-67586898D01*
X139954241Y-67586898D01*
X140005551Y-68034070D01*
X140143115Y-68462639D01*
X140320646Y-68794777D01*
X140651565Y-68968830D01*
X142070395Y-67550000D01*
X142429605Y-67550000D01*
X143848435Y-68968830D01*
X144179354Y-68794777D01*
X144385125Y-68394460D01*
X144508846Y-67961692D01*
X144545759Y-67513102D01*
X144494449Y-67065930D01*
X144356885Y-66637361D01*
X144179354Y-66305223D01*
X143848435Y-66131170D01*
X142429605Y-67550000D01*
X142070395Y-67550000D01*
X140651565Y-66131170D01*
X140320646Y-66305223D01*
X140114875Y-66705540D01*
X139991154Y-67138308D01*
X139954241Y-67586898D01*
X136974594Y-67586898D01*
X137055291Y-67469426D01*
X137170563Y-67200953D01*
X137191476Y-67106890D01*
X137070155Y-66877000D01*
X135127000Y-66877000D01*
X134873000Y-66877000D01*
X132929845Y-66877000D01*
X132808524Y-67106890D01*
X129999149Y-67106890D01*
X129994449Y-67065930D01*
X129856885Y-66637361D01*
X129726331Y-66393110D01*
X132808524Y-66393110D01*
X132929845Y-66623000D01*
X134873000Y-66623000D01*
X134873000Y-66603000D01*
X135127000Y-66603000D01*
X135127000Y-66623000D01*
X137070155Y-66623000D01*
X137191476Y-66393110D01*
X137170563Y-66299047D01*
X137055291Y-66030574D01*
X137001017Y-65951565D01*
X140831170Y-65951565D01*
X142250000Y-67370395D01*
X143668830Y-65951565D01*
X143494777Y-65620646D01*
X143094460Y-65414875D01*
X142661692Y-65291154D01*
X142213102Y-65254241D01*
X141765930Y-65305551D01*
X141337361Y-65443115D01*
X141005223Y-65620646D01*
X140831170Y-65951565D01*
X137001017Y-65951565D01*
X136889857Y-65789748D01*
X136680619Y-65585824D01*
X136435618Y-65426639D01*
X136164269Y-65318310D01*
X135877000Y-65265000D01*
X134123000Y-65265000D01*
X133835731Y-65318310D01*
X133564382Y-65426639D01*
X133319381Y-65585824D01*
X133110143Y-65789748D01*
X132944709Y-66030574D01*
X132829437Y-66299047D01*
X132808524Y-66393110D01*
X129726331Y-66393110D01*
X129679354Y-66305223D01*
X129348435Y-66131170D01*
X127929605Y-67550000D01*
X127943748Y-67564143D01*
X127764143Y-67743748D01*
X127750000Y-67729605D01*
X127735858Y-67743748D01*
X127556253Y-67564143D01*
X127570395Y-67550000D01*
X127556253Y-67535858D01*
X127735858Y-67356253D01*
X127750000Y-67370395D01*
X129168830Y-65951565D01*
X128994777Y-65620646D01*
X128594460Y-65414875D01*
X128161692Y-65291154D01*
X127713102Y-65254241D01*
X127265930Y-65305551D01*
X126837361Y-65443115D01*
X126505223Y-65620646D01*
X126331171Y-65951563D01*
X126216681Y-65837073D01*
X126127000Y-65926754D01*
X126127000Y-63748377D01*
X153968200Y-63748377D01*
X153968200Y-63951623D01*
X154007852Y-64150965D01*
X154085631Y-64338740D01*
X154198549Y-64507734D01*
X154342266Y-64651451D01*
X154511260Y-64764369D01*
X154699035Y-64842148D01*
X154898377Y-64881800D01*
X155101623Y-64881800D01*
X155300965Y-64842148D01*
X155488740Y-64764369D01*
X155657734Y-64651451D01*
X155801451Y-64507734D01*
X155914369Y-64338740D01*
X155992148Y-64150965D01*
X156031800Y-63951623D01*
X156031800Y-63748377D01*
X155992148Y-63549035D01*
X155914369Y-63361260D01*
X155801451Y-63192266D01*
X155657734Y-63048549D01*
X155488740Y-62935631D01*
X155300965Y-62857852D01*
X155101623Y-62818200D01*
X154898377Y-62818200D01*
X154699035Y-62857852D01*
X154511260Y-62935631D01*
X154342266Y-63048549D01*
X154198549Y-63192266D01*
X154085631Y-63361260D01*
X154007852Y-63549035D01*
X153968200Y-63748377D01*
X126127000Y-63748377D01*
X126127000Y-62627000D01*
X157873000Y-62627000D01*
X157873000Y-117373000D01*
M02*
