G04 #@! TF.GenerationSoftware,KiCad,Pcbnew,(5.1.0)-1*
G04 #@! TF.CreationDate,2019-03-23T07:31:29-07:00*
G04 #@! TF.ProjectId,triple-bypass-aio,74726970-6c65-42d6-9279-706173732d61,0.4*
G04 #@! TF.SameCoordinates,Original*
G04 #@! TF.FileFunction,Legend,Bot*
G04 #@! TF.FilePolarity,Positive*
%FSLAX46Y46*%
G04 Gerber Fmt 4.6, Leading zero omitted, Abs format (unit mm)*
G04 Created by KiCad (PCBNEW (5.1.0)-1) date 2019-03-23 07:31:29*
%MOMM*%
%LPD*%
G04 APERTURE LIST*
%ADD10C,0.100000*%
%ADD11C,0.150000*%
%ADD12C,0.300000*%
%ADD13C,0.400000*%
%ADD14C,0.200000*%
%ADD15C,0.203200*%
%ADD16C,0.127000*%
%ADD17C,0.010000*%
%ADD18C,0.050000*%
G04 APERTURE END LIST*
D10*
D11*
X159400000Y-171900000D02*
X159400000Y-203900000D01*
X267400000Y-203900000D01*
X267400000Y-171900000D01*
X159400000Y-171900000D01*
D10*
D11*
X10000000Y-10000000D02*
X10000000Y-205900000D01*
X269400000Y-205900000D01*
X269400000Y-10000000D01*
X10000000Y-10000000D01*
D10*
D11*
X12000000Y-12000000D02*
X12000000Y-203900000D01*
X267400000Y-203900000D01*
X267400000Y-12000000D01*
X12000000Y-12000000D01*
D10*
D11*
X60000000Y-12000000D02*
X60000000Y-10000000D01*
D10*
D11*
X110000000Y-12000000D02*
X110000000Y-10000000D01*
D10*
D11*
X160000000Y-12000000D02*
X160000000Y-10000000D01*
D10*
D11*
X210000000Y-12000000D02*
X210000000Y-10000000D01*
D10*
D11*
X260000000Y-12000000D02*
X260000000Y-10000000D01*
D10*
D11*
X36065476Y-11588095D02*
X35322619Y-11588095D01*
X35694047Y-11588095D02*
X35694047Y-10288095D01*
X35570238Y-10473809D01*
X35446428Y-10597619D01*
X35322619Y-10659523D01*
D10*
D11*
X85322619Y-10411904D02*
X85384523Y-10350000D01*
X85508333Y-10288095D01*
X85817857Y-10288095D01*
X85941666Y-10350000D01*
X86003571Y-10411904D01*
X86065476Y-10535714D01*
X86065476Y-10659523D01*
X86003571Y-10845238D01*
X85260714Y-11588095D01*
X86065476Y-11588095D01*
D10*
D11*
X135260714Y-10288095D02*
X136065476Y-10288095D01*
X135632142Y-10783333D01*
X135817857Y-10783333D01*
X135941666Y-10845238D01*
X136003571Y-10907142D01*
X136065476Y-11030952D01*
X136065476Y-11340476D01*
X136003571Y-11464285D01*
X135941666Y-11526190D01*
X135817857Y-11588095D01*
X135446428Y-11588095D01*
X135322619Y-11526190D01*
X135260714Y-11464285D01*
D10*
D11*
X185941666Y-10721428D02*
X185941666Y-11588095D01*
X185632142Y-10226190D02*
X185322619Y-11154761D01*
X186127380Y-11154761D01*
D10*
D11*
X236003571Y-10288095D02*
X235384523Y-10288095D01*
X235322619Y-10907142D01*
X235384523Y-10845238D01*
X235508333Y-10783333D01*
X235817857Y-10783333D01*
X235941666Y-10845238D01*
X236003571Y-10907142D01*
X236065476Y-11030952D01*
X236065476Y-11340476D01*
X236003571Y-11464285D01*
X235941666Y-11526190D01*
X235817857Y-11588095D01*
X235508333Y-11588095D01*
X235384523Y-11526190D01*
X235322619Y-11464285D01*
D10*
D11*
X60000000Y-203900000D02*
X60000000Y-205900000D01*
D10*
D11*
X110000000Y-203900000D02*
X110000000Y-205900000D01*
D10*
D11*
X160000000Y-203900000D02*
X160000000Y-205900000D01*
D10*
D11*
X210000000Y-203900000D02*
X210000000Y-205900000D01*
D10*
D11*
X260000000Y-203900000D02*
X260000000Y-205900000D01*
D10*
D11*
X36065476Y-205488095D02*
X35322619Y-205488095D01*
X35694047Y-205488095D02*
X35694047Y-204188095D01*
X35570238Y-204373809D01*
X35446428Y-204497619D01*
X35322619Y-204559523D01*
D10*
D11*
X85322619Y-204311904D02*
X85384523Y-204250000D01*
X85508333Y-204188095D01*
X85817857Y-204188095D01*
X85941666Y-204250000D01*
X86003571Y-204311904D01*
X86065476Y-204435714D01*
X86065476Y-204559523D01*
X86003571Y-204745238D01*
X85260714Y-205488095D01*
X86065476Y-205488095D01*
D10*
D11*
X135260714Y-204188095D02*
X136065476Y-204188095D01*
X135632142Y-204683333D01*
X135817857Y-204683333D01*
X135941666Y-204745238D01*
X136003571Y-204807142D01*
X136065476Y-204930952D01*
X136065476Y-205240476D01*
X136003571Y-205364285D01*
X135941666Y-205426190D01*
X135817857Y-205488095D01*
X135446428Y-205488095D01*
X135322619Y-205426190D01*
X135260714Y-205364285D01*
D10*
D11*
X185941666Y-204621428D02*
X185941666Y-205488095D01*
X185632142Y-204126190D02*
X185322619Y-205054761D01*
X186127380Y-205054761D01*
D10*
D11*
X236003571Y-204188095D02*
X235384523Y-204188095D01*
X235322619Y-204807142D01*
X235384523Y-204745238D01*
X235508333Y-204683333D01*
X235817857Y-204683333D01*
X235941666Y-204745238D01*
X236003571Y-204807142D01*
X236065476Y-204930952D01*
X236065476Y-205240476D01*
X236003571Y-205364285D01*
X235941666Y-205426190D01*
X235817857Y-205488095D01*
X235508333Y-205488095D01*
X235384523Y-205426190D01*
X235322619Y-205364285D01*
D10*
D11*
X10000000Y-60000000D02*
X12000000Y-60000000D01*
D10*
D11*
X10000000Y-110000000D02*
X12000000Y-110000000D01*
D10*
D11*
X10000000Y-160000000D02*
X12000000Y-160000000D01*
D10*
D11*
X10690476Y-35216666D02*
X11309523Y-35216666D01*
X10566666Y-35588095D02*
X11000000Y-34288095D01*
X11433333Y-35588095D01*
D10*
D11*
X11092857Y-84907142D02*
X11278571Y-84969047D01*
X11340476Y-85030952D01*
X11402380Y-85154761D01*
X11402380Y-85340476D01*
X11340476Y-85464285D01*
X11278571Y-85526190D01*
X11154761Y-85588095D01*
X10659523Y-85588095D01*
X10659523Y-84288095D01*
X11092857Y-84288095D01*
X11216666Y-84350000D01*
X11278571Y-84411904D01*
X11340476Y-84535714D01*
X11340476Y-84659523D01*
X11278571Y-84783333D01*
X11216666Y-84845238D01*
X11092857Y-84907142D01*
X10659523Y-84907142D01*
D10*
D11*
X11402380Y-135464285D02*
X11340476Y-135526190D01*
X11154761Y-135588095D01*
X11030952Y-135588095D01*
X10845238Y-135526190D01*
X10721428Y-135402380D01*
X10659523Y-135278571D01*
X10597619Y-135030952D01*
X10597619Y-134845238D01*
X10659523Y-134597619D01*
X10721428Y-134473809D01*
X10845238Y-134350000D01*
X11030952Y-134288095D01*
X11154761Y-134288095D01*
X11340476Y-134350000D01*
X11402380Y-134411904D01*
D10*
D11*
X10659523Y-185588095D02*
X10659523Y-184288095D01*
X10969047Y-184288095D01*
X11154761Y-184350000D01*
X11278571Y-184473809D01*
X11340476Y-184597619D01*
X11402380Y-184845238D01*
X11402380Y-185030952D01*
X11340476Y-185278571D01*
X11278571Y-185402380D01*
X11154761Y-185526190D01*
X10969047Y-185588095D01*
X10659523Y-185588095D01*
D10*
D11*
X269400000Y-60000000D02*
X267400000Y-60000000D01*
D10*
D11*
X269400000Y-110000000D02*
X267400000Y-110000000D01*
D10*
D11*
X269400000Y-160000000D02*
X267400000Y-160000000D01*
D10*
D11*
X268090476Y-35216666D02*
X268709523Y-35216666D01*
X267966666Y-35588095D02*
X268400000Y-34288095D01*
X268833333Y-35588095D01*
D10*
D11*
X268492857Y-84907142D02*
X268678571Y-84969047D01*
X268740476Y-85030952D01*
X268802380Y-85154761D01*
X268802380Y-85340476D01*
X268740476Y-85464285D01*
X268678571Y-85526190D01*
X268554761Y-85588095D01*
X268059523Y-85588095D01*
X268059523Y-84288095D01*
X268492857Y-84288095D01*
X268616666Y-84350000D01*
X268678571Y-84411904D01*
X268740476Y-84535714D01*
X268740476Y-84659523D01*
X268678571Y-84783333D01*
X268616666Y-84845238D01*
X268492857Y-84907142D01*
X268059523Y-84907142D01*
D10*
D11*
X268802380Y-135464285D02*
X268740476Y-135526190D01*
X268554761Y-135588095D01*
X268430952Y-135588095D01*
X268245238Y-135526190D01*
X268121428Y-135402380D01*
X268059523Y-135278571D01*
X267997619Y-135030952D01*
X267997619Y-134845238D01*
X268059523Y-134597619D01*
X268121428Y-134473809D01*
X268245238Y-134350000D01*
X268430952Y-134288095D01*
X268554761Y-134288095D01*
X268740476Y-134350000D01*
X268802380Y-134411904D01*
D10*
D11*
X268059523Y-185588095D02*
X268059523Y-184288095D01*
X268369047Y-184288095D01*
X268554761Y-184350000D01*
X268678571Y-184473809D01*
X268740476Y-184597619D01*
X268802380Y-184845238D01*
X268802380Y-185030952D01*
X268740476Y-185278571D01*
X268678571Y-185402380D01*
X268554761Y-185526190D01*
X268369047Y-185588095D01*
X268059523Y-185588095D01*
D10*
D11*
X182832142Y-199678571D02*
X182832142Y-198178571D01*
X183189285Y-198178571D01*
X183403571Y-198250000D01*
X183546428Y-198392857D01*
X183617857Y-198535714D01*
X183689285Y-198821428D01*
X183689285Y-199035714D01*
X183617857Y-199321428D01*
X183546428Y-199464285D01*
X183403571Y-199607142D01*
X183189285Y-199678571D01*
X182832142Y-199678571D01*
X184975000Y-199678571D02*
X184975000Y-198892857D01*
X184903571Y-198750000D01*
X184760714Y-198678571D01*
X184475000Y-198678571D01*
X184332142Y-198750000D01*
X184975000Y-199607142D02*
X184832142Y-199678571D01*
X184475000Y-199678571D01*
X184332142Y-199607142D01*
X184260714Y-199464285D01*
X184260714Y-199321428D01*
X184332142Y-199178571D01*
X184475000Y-199107142D01*
X184832142Y-199107142D01*
X184975000Y-199035714D01*
X185475000Y-198678571D02*
X186046428Y-198678571D01*
X185689285Y-198178571D02*
X185689285Y-199464285D01*
X185760714Y-199607142D01*
X185903571Y-199678571D01*
X186046428Y-199678571D01*
X187117857Y-199607142D02*
X186975000Y-199678571D01*
X186689285Y-199678571D01*
X186546428Y-199607142D01*
X186475000Y-199464285D01*
X186475000Y-198892857D01*
X186546428Y-198750000D01*
X186689285Y-198678571D01*
X186975000Y-198678571D01*
X187117857Y-198750000D01*
X187189285Y-198892857D01*
X187189285Y-199035714D01*
X186475000Y-199178571D01*
X187832142Y-199535714D02*
X187903571Y-199607142D01*
X187832142Y-199678571D01*
X187760714Y-199607142D01*
X187832142Y-199535714D01*
X187832142Y-199678571D01*
X187832142Y-198750000D02*
X187903571Y-198821428D01*
X187832142Y-198892857D01*
X187760714Y-198821428D01*
X187832142Y-198750000D01*
X187832142Y-198892857D01*
X189617857Y-198321428D02*
X189689285Y-198250000D01*
X189832142Y-198178571D01*
X190189285Y-198178571D01*
X190332142Y-198250000D01*
X190403571Y-198321428D01*
X190475000Y-198464285D01*
X190475000Y-198607142D01*
X190403571Y-198821428D01*
X189546428Y-199678571D01*
X190475000Y-199678571D01*
X191403571Y-198178571D02*
X191546428Y-198178571D01*
X191689285Y-198250000D01*
X191760714Y-198321428D01*
X191832142Y-198464285D01*
X191903571Y-198750000D01*
X191903571Y-199107142D01*
X191832142Y-199392857D01*
X191760714Y-199535714D01*
X191689285Y-199607142D01*
X191546428Y-199678571D01*
X191403571Y-199678571D01*
X191260714Y-199607142D01*
X191189285Y-199535714D01*
X191117857Y-199392857D01*
X191046428Y-199107142D01*
X191046428Y-198750000D01*
X191117857Y-198464285D01*
X191189285Y-198321428D01*
X191260714Y-198250000D01*
X191403571Y-198178571D01*
X193332142Y-199678571D02*
X192475000Y-199678571D01*
X192903571Y-199678571D02*
X192903571Y-198178571D01*
X192760714Y-198392857D01*
X192617857Y-198535714D01*
X192475000Y-198607142D01*
X194046428Y-199678571D02*
X194332142Y-199678571D01*
X194475000Y-199607142D01*
X194546428Y-199535714D01*
X194689285Y-199321428D01*
X194760714Y-199035714D01*
X194760714Y-198464285D01*
X194689285Y-198321428D01*
X194617857Y-198250000D01*
X194475000Y-198178571D01*
X194189285Y-198178571D01*
X194046428Y-198250000D01*
X193975000Y-198321428D01*
X193903571Y-198464285D01*
X193903571Y-198821428D01*
X193975000Y-198964285D01*
X194046428Y-199035714D01*
X194189285Y-199107142D01*
X194475000Y-199107142D01*
X194617857Y-199035714D01*
X194689285Y-198964285D01*
X194760714Y-198821428D01*
X195403571Y-199107142D02*
X196546428Y-199107142D01*
X197546428Y-198178571D02*
X197689285Y-198178571D01*
X197832142Y-198250000D01*
X197903571Y-198321428D01*
X197975000Y-198464285D01*
X198046428Y-198750000D01*
X198046428Y-199107142D01*
X197975000Y-199392857D01*
X197903571Y-199535714D01*
X197832142Y-199607142D01*
X197689285Y-199678571D01*
X197546428Y-199678571D01*
X197403571Y-199607142D01*
X197332142Y-199535714D01*
X197260714Y-199392857D01*
X197189285Y-199107142D01*
X197189285Y-198750000D01*
X197260714Y-198464285D01*
X197332142Y-198321428D01*
X197403571Y-198250000D01*
X197546428Y-198178571D01*
X198546428Y-198178571D02*
X199475000Y-198178571D01*
X198975000Y-198750000D01*
X199189285Y-198750000D01*
X199332142Y-198821428D01*
X199403571Y-198892857D01*
X199475000Y-199035714D01*
X199475000Y-199392857D01*
X199403571Y-199535714D01*
X199332142Y-199607142D01*
X199189285Y-199678571D01*
X198760714Y-199678571D01*
X198617857Y-199607142D01*
X198546428Y-199535714D01*
X200117857Y-199107142D02*
X201260714Y-199107142D01*
X201903571Y-198321428D02*
X201975000Y-198250000D01*
X202117857Y-198178571D01*
X202475000Y-198178571D01*
X202617857Y-198250000D01*
X202689285Y-198321428D01*
X202760714Y-198464285D01*
X202760714Y-198607142D01*
X202689285Y-198821428D01*
X201832142Y-199678571D01*
X202760714Y-199678571D01*
X203260714Y-198178571D02*
X204189285Y-198178571D01*
X203689285Y-198750000D01*
X203903571Y-198750000D01*
X204046428Y-198821428D01*
X204117857Y-198892857D01*
X204189285Y-199035714D01*
X204189285Y-199392857D01*
X204117857Y-199535714D01*
X204046428Y-199607142D01*
X203903571Y-199678571D01*
X203475000Y-199678571D01*
X203332142Y-199607142D01*
X203260714Y-199535714D01*
D10*
D11*
X159400000Y-200400000D02*
X267400000Y-200400000D01*
D10*
D11*
X160832142Y-202478571D02*
X160832142Y-200978571D01*
X161689285Y-202478571D02*
X161046428Y-201621428D01*
X161689285Y-200978571D02*
X160832142Y-201835714D01*
X162332142Y-202478571D02*
X162332142Y-201478571D01*
X162332142Y-200978571D02*
X162260714Y-201050000D01*
X162332142Y-201121428D01*
X162403571Y-201050000D01*
X162332142Y-200978571D01*
X162332142Y-201121428D01*
X163903571Y-202335714D02*
X163832142Y-202407142D01*
X163617857Y-202478571D01*
X163475000Y-202478571D01*
X163260714Y-202407142D01*
X163117857Y-202264285D01*
X163046428Y-202121428D01*
X162975000Y-201835714D01*
X162975000Y-201621428D01*
X163046428Y-201335714D01*
X163117857Y-201192857D01*
X163260714Y-201050000D01*
X163475000Y-200978571D01*
X163617857Y-200978571D01*
X163832142Y-201050000D01*
X163903571Y-201121428D01*
X165189285Y-202478571D02*
X165189285Y-201692857D01*
X165117857Y-201550000D01*
X164975000Y-201478571D01*
X164689285Y-201478571D01*
X164546428Y-201550000D01*
X165189285Y-202407142D02*
X165046428Y-202478571D01*
X164689285Y-202478571D01*
X164546428Y-202407142D01*
X164475000Y-202264285D01*
X164475000Y-202121428D01*
X164546428Y-201978571D01*
X164689285Y-201907142D01*
X165046428Y-201907142D01*
X165189285Y-201835714D01*
X166546428Y-202478571D02*
X166546428Y-200978571D01*
X166546428Y-202407142D02*
X166403571Y-202478571D01*
X166117857Y-202478571D01*
X165975000Y-202407142D01*
X165903571Y-202335714D01*
X165832142Y-202192857D01*
X165832142Y-201764285D01*
X165903571Y-201621428D01*
X165975000Y-201550000D01*
X166117857Y-201478571D01*
X166403571Y-201478571D01*
X166546428Y-201550000D01*
X168403571Y-201692857D02*
X168903571Y-201692857D01*
X169117857Y-202478571D02*
X168403571Y-202478571D01*
X168403571Y-200978571D01*
X169117857Y-200978571D01*
X169760714Y-202335714D02*
X169832142Y-202407142D01*
X169760714Y-202478571D01*
X169689285Y-202407142D01*
X169760714Y-202335714D01*
X169760714Y-202478571D01*
X170475000Y-202478571D02*
X170475000Y-200978571D01*
X170832142Y-200978571D01*
X171046428Y-201050000D01*
X171189285Y-201192857D01*
X171260714Y-201335714D01*
X171332142Y-201621428D01*
X171332142Y-201835714D01*
X171260714Y-202121428D01*
X171189285Y-202264285D01*
X171046428Y-202407142D01*
X170832142Y-202478571D01*
X170475000Y-202478571D01*
X171975000Y-202335714D02*
X172046428Y-202407142D01*
X171975000Y-202478571D01*
X171903571Y-202407142D01*
X171975000Y-202335714D01*
X171975000Y-202478571D01*
X172617857Y-202050000D02*
X173332142Y-202050000D01*
X172475000Y-202478571D02*
X172975000Y-200978571D01*
X173475000Y-202478571D01*
X173975000Y-202335714D02*
X174046428Y-202407142D01*
X173975000Y-202478571D01*
X173903571Y-202407142D01*
X173975000Y-202335714D01*
X173975000Y-202478571D01*
X176975000Y-202478571D02*
X176975000Y-200978571D01*
X177117857Y-201907142D02*
X177546428Y-202478571D01*
X177546428Y-201478571D02*
X176975000Y-202050000D01*
X178189285Y-202478571D02*
X178189285Y-201478571D01*
X178189285Y-200978571D02*
X178117857Y-201050000D01*
X178189285Y-201121428D01*
X178260714Y-201050000D01*
X178189285Y-200978571D01*
X178189285Y-201121428D01*
X179546428Y-202407142D02*
X179403571Y-202478571D01*
X179117857Y-202478571D01*
X178975000Y-202407142D01*
X178903571Y-202335714D01*
X178832142Y-202192857D01*
X178832142Y-201764285D01*
X178903571Y-201621428D01*
X178975000Y-201550000D01*
X179117857Y-201478571D01*
X179403571Y-201478571D01*
X179546428Y-201550000D01*
X180832142Y-202478571D02*
X180832142Y-201692857D01*
X180760714Y-201550000D01*
X180617857Y-201478571D01*
X180332142Y-201478571D01*
X180189285Y-201550000D01*
X180832142Y-202407142D02*
X180689285Y-202478571D01*
X180332142Y-202478571D01*
X180189285Y-202407142D01*
X180117857Y-202264285D01*
X180117857Y-202121428D01*
X180189285Y-201978571D01*
X180332142Y-201907142D01*
X180689285Y-201907142D01*
X180832142Y-201835714D01*
X182189285Y-202478571D02*
X182189285Y-200978571D01*
X182189285Y-202407142D02*
X182046428Y-202478571D01*
X181760714Y-202478571D01*
X181617857Y-202407142D01*
X181546428Y-202335714D01*
X181475000Y-202192857D01*
X181475000Y-201764285D01*
X181546428Y-201621428D01*
X181617857Y-201550000D01*
X181760714Y-201478571D01*
X182046428Y-201478571D01*
X182189285Y-201550000D01*
X184475000Y-203050000D02*
X184403571Y-202978571D01*
X184260714Y-202764285D01*
X184189285Y-202621428D01*
X184117857Y-202407142D01*
X184046428Y-202050000D01*
X184046428Y-201764285D01*
X184117857Y-201407142D01*
X184189285Y-201192857D01*
X184260714Y-201050000D01*
X184403571Y-200835714D01*
X184475000Y-200764285D01*
X185760714Y-200978571D02*
X185046428Y-200978571D01*
X184975000Y-201692857D01*
X185046428Y-201621428D01*
X185189285Y-201550000D01*
X185546428Y-201550000D01*
X185689285Y-201621428D01*
X185760714Y-201692857D01*
X185832142Y-201835714D01*
X185832142Y-202192857D01*
X185760714Y-202335714D01*
X185689285Y-202407142D01*
X185546428Y-202478571D01*
X185189285Y-202478571D01*
X185046428Y-202407142D01*
X184975000Y-202335714D01*
X186475000Y-202335714D02*
X186546428Y-202407142D01*
X186475000Y-202478571D01*
X186403571Y-202407142D01*
X186475000Y-202335714D01*
X186475000Y-202478571D01*
X187975000Y-202478571D02*
X187117857Y-202478571D01*
X187546428Y-202478571D02*
X187546428Y-200978571D01*
X187403571Y-201192857D01*
X187260714Y-201335714D01*
X187117857Y-201407142D01*
X188617857Y-202335714D02*
X188689285Y-202407142D01*
X188617857Y-202478571D01*
X188546428Y-202407142D01*
X188617857Y-202335714D01*
X188617857Y-202478571D01*
X189617857Y-200978571D02*
X189760714Y-200978571D01*
X189903571Y-201050000D01*
X189975000Y-201121428D01*
X190046428Y-201264285D01*
X190117857Y-201550000D01*
X190117857Y-201907142D01*
X190046428Y-202192857D01*
X189975000Y-202335714D01*
X189903571Y-202407142D01*
X189760714Y-202478571D01*
X189617857Y-202478571D01*
X189475000Y-202407142D01*
X189403571Y-202335714D01*
X189332142Y-202192857D01*
X189260714Y-201907142D01*
X189260714Y-201550000D01*
X189332142Y-201264285D01*
X189403571Y-201121428D01*
X189475000Y-201050000D01*
X189617857Y-200978571D01*
X190617857Y-203050000D02*
X190689285Y-202978571D01*
X190832142Y-202764285D01*
X190903571Y-202621428D01*
X190975000Y-202407142D01*
X191046428Y-202050000D01*
X191046428Y-201764285D01*
X190975000Y-201407142D01*
X190903571Y-201192857D01*
X190832142Y-201050000D01*
X190689285Y-200835714D01*
X190617857Y-200764285D01*
X191760714Y-201907142D02*
X192903571Y-201907142D01*
X194403571Y-202478571D02*
X193546428Y-202478571D01*
X193975000Y-202478571D02*
X193975000Y-200978571D01*
X193832142Y-201192857D01*
X193689285Y-201335714D01*
X193546428Y-201407142D01*
D10*
D11*
X159400000Y-197400000D02*
X267400000Y-197400000D01*
D10*
D12*
X246809285Y-199678571D02*
X246309285Y-198964285D01*
X245952142Y-199678571D02*
X245952142Y-198178571D01*
X246523571Y-198178571D01*
X246666428Y-198250000D01*
X246737857Y-198321428D01*
X246809285Y-198464285D01*
X246809285Y-198678571D01*
X246737857Y-198821428D01*
X246666428Y-198892857D01*
X246523571Y-198964285D01*
X245952142Y-198964285D01*
X248023571Y-199607142D02*
X247880714Y-199678571D01*
X247595000Y-199678571D01*
X247452142Y-199607142D01*
X247380714Y-199464285D01*
X247380714Y-198892857D01*
X247452142Y-198750000D01*
X247595000Y-198678571D01*
X247880714Y-198678571D01*
X248023571Y-198750000D01*
X248095000Y-198892857D01*
X248095000Y-199035714D01*
X247380714Y-199178571D01*
X248595000Y-198678571D02*
X248952142Y-199678571D01*
X249309285Y-198678571D01*
X249880714Y-199535714D02*
X249952142Y-199607142D01*
X249880714Y-199678571D01*
X249809285Y-199607142D01*
X249880714Y-199535714D01*
X249880714Y-199678571D01*
X249880714Y-198750000D02*
X249952142Y-198821428D01*
X249880714Y-198892857D01*
X249809285Y-198821428D01*
X249880714Y-198750000D01*
X249880714Y-198892857D01*
X252023571Y-198178571D02*
X252166428Y-198178571D01*
X252309285Y-198250000D01*
X252380714Y-198321428D01*
X252452142Y-198464285D01*
X252523571Y-198750000D01*
X252523571Y-199107142D01*
X252452142Y-199392857D01*
X252380714Y-199535714D01*
X252309285Y-199607142D01*
X252166428Y-199678571D01*
X252023571Y-199678571D01*
X251880714Y-199607142D01*
X251809285Y-199535714D01*
X251737857Y-199392857D01*
X251666428Y-199107142D01*
X251666428Y-198750000D01*
X251737857Y-198464285D01*
X251809285Y-198321428D01*
X251880714Y-198250000D01*
X252023571Y-198178571D01*
X253166428Y-199535714D02*
X253237857Y-199607142D01*
X253166428Y-199678571D01*
X253095000Y-199607142D01*
X253166428Y-199535714D01*
X253166428Y-199678571D01*
X254523571Y-198678571D02*
X254523571Y-199678571D01*
X254166428Y-198107142D02*
X253809285Y-199178571D01*
X254737857Y-199178571D01*
D10*
D11*
X160760714Y-199607142D02*
X160975000Y-199678571D01*
X161332142Y-199678571D01*
X161475000Y-199607142D01*
X161546428Y-199535714D01*
X161617857Y-199392857D01*
X161617857Y-199250000D01*
X161546428Y-199107142D01*
X161475000Y-199035714D01*
X161332142Y-198964285D01*
X161046428Y-198892857D01*
X160903571Y-198821428D01*
X160832142Y-198750000D01*
X160760714Y-198607142D01*
X160760714Y-198464285D01*
X160832142Y-198321428D01*
X160903571Y-198250000D01*
X161046428Y-198178571D01*
X161403571Y-198178571D01*
X161617857Y-198250000D01*
X162260714Y-199678571D02*
X162260714Y-198678571D01*
X162260714Y-198178571D02*
X162189285Y-198250000D01*
X162260714Y-198321428D01*
X162332142Y-198250000D01*
X162260714Y-198178571D01*
X162260714Y-198321428D01*
X162832142Y-198678571D02*
X163617857Y-198678571D01*
X162832142Y-199678571D01*
X163617857Y-199678571D01*
X164760714Y-199607142D02*
X164617857Y-199678571D01*
X164332142Y-199678571D01*
X164189285Y-199607142D01*
X164117857Y-199464285D01*
X164117857Y-198892857D01*
X164189285Y-198750000D01*
X164332142Y-198678571D01*
X164617857Y-198678571D01*
X164760714Y-198750000D01*
X164832142Y-198892857D01*
X164832142Y-199035714D01*
X164117857Y-199178571D01*
X165475000Y-199535714D02*
X165546428Y-199607142D01*
X165475000Y-199678571D01*
X165403571Y-199607142D01*
X165475000Y-199535714D01*
X165475000Y-199678571D01*
X165475000Y-198750000D02*
X165546428Y-198821428D01*
X165475000Y-198892857D01*
X165403571Y-198821428D01*
X165475000Y-198750000D01*
X165475000Y-198892857D01*
X167260714Y-199250000D02*
X167975000Y-199250000D01*
X167117857Y-199678571D02*
X167617857Y-198178571D01*
X168117857Y-199678571D01*
D10*
D11*
X245832142Y-202478571D02*
X245832142Y-200978571D01*
X247189285Y-202478571D02*
X247189285Y-200978571D01*
X247189285Y-202407142D02*
X247046428Y-202478571D01*
X246760714Y-202478571D01*
X246617857Y-202407142D01*
X246546428Y-202335714D01*
X246475000Y-202192857D01*
X246475000Y-201764285D01*
X246546428Y-201621428D01*
X246617857Y-201550000D01*
X246760714Y-201478571D01*
X247046428Y-201478571D01*
X247189285Y-201550000D01*
X247903571Y-202335714D02*
X247975000Y-202407142D01*
X247903571Y-202478571D01*
X247832142Y-202407142D01*
X247903571Y-202335714D01*
X247903571Y-202478571D01*
X247903571Y-201550000D02*
X247975000Y-201621428D01*
X247903571Y-201692857D01*
X247832142Y-201621428D01*
X247903571Y-201550000D01*
X247903571Y-201692857D01*
X250546428Y-202478571D02*
X249689285Y-202478571D01*
X250117857Y-202478571D02*
X250117857Y-200978571D01*
X249975000Y-201192857D01*
X249832142Y-201335714D01*
X249689285Y-201407142D01*
X252260714Y-200907142D02*
X250975000Y-202835714D01*
X253546428Y-202478571D02*
X252689285Y-202478571D01*
X253117857Y-202478571D02*
X253117857Y-200978571D01*
X252975000Y-201192857D01*
X252832142Y-201335714D01*
X252689285Y-201407142D01*
D10*
D11*
X159400000Y-193400000D02*
X267400000Y-193400000D01*
D10*
D13*
X161112380Y-194104761D02*
X162255238Y-194104761D01*
X161433809Y-196104761D02*
X161683809Y-194104761D01*
X162671904Y-196104761D02*
X162838571Y-194771428D01*
X162921904Y-194104761D02*
X162814761Y-194200000D01*
X162898095Y-194295238D01*
X163005238Y-194200000D01*
X162921904Y-194104761D01*
X162898095Y-194295238D01*
X163505238Y-194771428D02*
X164267142Y-194771428D01*
X163874285Y-194104761D02*
X163660000Y-195819047D01*
X163731428Y-196009523D01*
X163910000Y-196104761D01*
X164100476Y-196104761D01*
X165052857Y-196104761D02*
X164874285Y-196009523D01*
X164802857Y-195819047D01*
X165017142Y-194104761D01*
X166588571Y-196009523D02*
X166386190Y-196104761D01*
X166005238Y-196104761D01*
X165826666Y-196009523D01*
X165755238Y-195819047D01*
X165850476Y-195057142D01*
X165969523Y-194866666D01*
X166171904Y-194771428D01*
X166552857Y-194771428D01*
X166731428Y-194866666D01*
X166802857Y-195057142D01*
X166779047Y-195247619D01*
X165802857Y-195438095D01*
X167552857Y-195914285D02*
X167636190Y-196009523D01*
X167529047Y-196104761D01*
X167445714Y-196009523D01*
X167552857Y-195914285D01*
X167529047Y-196104761D01*
X167683809Y-194866666D02*
X167767142Y-194961904D01*
X167660000Y-195057142D01*
X167576666Y-194961904D01*
X167683809Y-194866666D01*
X167660000Y-195057142D01*
X169969523Y-194104761D02*
X171112380Y-194104761D01*
X170290952Y-196104761D02*
X170540952Y-194104761D01*
X171529047Y-196104761D02*
X171695714Y-194771428D01*
X171648095Y-195152380D02*
X171767142Y-194961904D01*
X171874285Y-194866666D01*
X172076666Y-194771428D01*
X172267142Y-194771428D01*
X172767142Y-196104761D02*
X172933809Y-194771428D01*
X173017142Y-194104761D02*
X172910000Y-194200000D01*
X172993333Y-194295238D01*
X173100476Y-194200000D01*
X173017142Y-194104761D01*
X172993333Y-194295238D01*
X173886190Y-194771428D02*
X173636190Y-196771428D01*
X173874285Y-194866666D02*
X174076666Y-194771428D01*
X174457619Y-194771428D01*
X174636190Y-194866666D01*
X174719523Y-194961904D01*
X174790952Y-195152380D01*
X174719523Y-195723809D01*
X174600476Y-195914285D01*
X174493333Y-196009523D01*
X174290952Y-196104761D01*
X173910000Y-196104761D01*
X173731428Y-196009523D01*
X175814761Y-196104761D02*
X175636190Y-196009523D01*
X175564761Y-195819047D01*
X175779047Y-194104761D01*
X177350476Y-196009523D02*
X177148095Y-196104761D01*
X176767142Y-196104761D01*
X176588571Y-196009523D01*
X176517142Y-195819047D01*
X176612380Y-195057142D01*
X176731428Y-194866666D01*
X176933809Y-194771428D01*
X177314761Y-194771428D01*
X177493333Y-194866666D01*
X177564761Y-195057142D01*
X177540952Y-195247619D01*
X176564761Y-195438095D01*
X180612380Y-195057142D02*
X180886190Y-195152380D01*
X180969523Y-195247619D01*
X181040952Y-195438095D01*
X181005238Y-195723809D01*
X180886190Y-195914285D01*
X180779047Y-196009523D01*
X180576666Y-196104761D01*
X179814761Y-196104761D01*
X180064761Y-194104761D01*
X180731428Y-194104761D01*
X180910000Y-194200000D01*
X180993333Y-194295238D01*
X181064761Y-194485714D01*
X181040952Y-194676190D01*
X180921904Y-194866666D01*
X180814761Y-194961904D01*
X180612380Y-195057142D01*
X179945714Y-195057142D01*
X181790952Y-194771428D02*
X182100476Y-196104761D01*
X182743333Y-194771428D02*
X182100476Y-196104761D01*
X181850476Y-196580952D01*
X181743333Y-196676190D01*
X181540952Y-196771428D01*
X183505238Y-194771428D02*
X183255238Y-196771428D01*
X183493333Y-194866666D02*
X183695714Y-194771428D01*
X184076666Y-194771428D01*
X184255238Y-194866666D01*
X184338571Y-194961904D01*
X184410000Y-195152380D01*
X184338571Y-195723809D01*
X184219523Y-195914285D01*
X184112380Y-196009523D01*
X183910000Y-196104761D01*
X183529047Y-196104761D01*
X183350476Y-196009523D01*
X186005238Y-196104761D02*
X186136190Y-195057142D01*
X186064761Y-194866666D01*
X185886190Y-194771428D01*
X185505238Y-194771428D01*
X185302857Y-194866666D01*
X186017142Y-196009523D02*
X185814761Y-196104761D01*
X185338571Y-196104761D01*
X185160000Y-196009523D01*
X185088571Y-195819047D01*
X185112380Y-195628571D01*
X185231428Y-195438095D01*
X185433809Y-195342857D01*
X185910000Y-195342857D01*
X186112380Y-195247619D01*
X186874285Y-196009523D02*
X187052857Y-196104761D01*
X187433809Y-196104761D01*
X187636190Y-196009523D01*
X187755238Y-195819047D01*
X187767142Y-195723809D01*
X187695714Y-195533333D01*
X187517142Y-195438095D01*
X187231428Y-195438095D01*
X187052857Y-195342857D01*
X186981428Y-195152380D01*
X186993333Y-195057142D01*
X187112380Y-194866666D01*
X187314761Y-194771428D01*
X187600476Y-194771428D01*
X187779047Y-194866666D01*
X188493333Y-196009523D02*
X188671904Y-196104761D01*
X189052857Y-196104761D01*
X189255238Y-196009523D01*
X189374285Y-195819047D01*
X189386190Y-195723809D01*
X189314761Y-195533333D01*
X189136190Y-195438095D01*
X188850476Y-195438095D01*
X188671904Y-195342857D01*
X188600476Y-195152380D01*
X188612380Y-195057142D01*
X188731428Y-194866666D01*
X188933809Y-194771428D01*
X189219523Y-194771428D01*
X189398095Y-194866666D01*
X191695714Y-195533333D02*
X192648095Y-195533333D01*
X191433809Y-196104761D02*
X192350476Y-194104761D01*
X192767142Y-196104761D01*
X193433809Y-196104761D02*
X193683809Y-194104761D01*
X195017142Y-194104761D02*
X195398095Y-194104761D01*
X195576666Y-194200000D01*
X195743333Y-194390476D01*
X195790952Y-194771428D01*
X195707619Y-195438095D01*
X195564761Y-195819047D01*
X195350476Y-196009523D01*
X195148095Y-196104761D01*
X194767142Y-196104761D01*
X194588571Y-196009523D01*
X194421904Y-195819047D01*
X194374285Y-195438095D01*
X194457619Y-194771428D01*
X194600476Y-194390476D01*
X194814761Y-194200000D01*
X195017142Y-194104761D01*
D10*
D11*
X161332142Y-191492857D02*
X160832142Y-191492857D01*
X160832142Y-192278571D02*
X160832142Y-190778571D01*
X161546428Y-190778571D01*
X162117857Y-192278571D02*
X162117857Y-191278571D01*
X162117857Y-190778571D02*
X162046428Y-190850000D01*
X162117857Y-190921428D01*
X162189285Y-190850000D01*
X162117857Y-190778571D01*
X162117857Y-190921428D01*
X163046428Y-192278571D02*
X162903571Y-192207142D01*
X162832142Y-192064285D01*
X162832142Y-190778571D01*
X164189285Y-192207142D02*
X164046428Y-192278571D01*
X163760714Y-192278571D01*
X163617857Y-192207142D01*
X163546428Y-192064285D01*
X163546428Y-191492857D01*
X163617857Y-191350000D01*
X163760714Y-191278571D01*
X164046428Y-191278571D01*
X164189285Y-191350000D01*
X164260714Y-191492857D01*
X164260714Y-191635714D01*
X163546428Y-191778571D01*
X164903571Y-192135714D02*
X164975000Y-192207142D01*
X164903571Y-192278571D01*
X164832142Y-192207142D01*
X164903571Y-192135714D01*
X164903571Y-192278571D01*
X164903571Y-191350000D02*
X164975000Y-191421428D01*
X164903571Y-191492857D01*
X164832142Y-191421428D01*
X164903571Y-191350000D01*
X164903571Y-191492857D01*
X166546428Y-191278571D02*
X167117857Y-191278571D01*
X166760714Y-190778571D02*
X166760714Y-192064285D01*
X166832142Y-192207142D01*
X166975000Y-192278571D01*
X167117857Y-192278571D01*
X167617857Y-192278571D02*
X167617857Y-191278571D01*
X167617857Y-191564285D02*
X167689285Y-191421428D01*
X167760714Y-191350000D01*
X167903571Y-191278571D01*
X168046428Y-191278571D01*
X168546428Y-192278571D02*
X168546428Y-191278571D01*
X168546428Y-190778571D02*
X168475000Y-190850000D01*
X168546428Y-190921428D01*
X168617857Y-190850000D01*
X168546428Y-190778571D01*
X168546428Y-190921428D01*
X169260714Y-191278571D02*
X169260714Y-192778571D01*
X169260714Y-191350000D02*
X169403571Y-191278571D01*
X169689285Y-191278571D01*
X169832142Y-191350000D01*
X169903571Y-191421428D01*
X169975000Y-191564285D01*
X169975000Y-191992857D01*
X169903571Y-192135714D01*
X169832142Y-192207142D01*
X169689285Y-192278571D01*
X169403571Y-192278571D01*
X169260714Y-192207142D01*
X170832142Y-192278571D02*
X170689285Y-192207142D01*
X170617857Y-192064285D01*
X170617857Y-190778571D01*
X171975000Y-192207142D02*
X171832142Y-192278571D01*
X171546428Y-192278571D01*
X171403571Y-192207142D01*
X171332142Y-192064285D01*
X171332142Y-191492857D01*
X171403571Y-191350000D01*
X171546428Y-191278571D01*
X171832142Y-191278571D01*
X171975000Y-191350000D01*
X172046428Y-191492857D01*
X172046428Y-191635714D01*
X171332142Y-191778571D01*
X172689285Y-191707142D02*
X173832142Y-191707142D01*
X174546428Y-192278571D02*
X174546428Y-190778571D01*
X174546428Y-191350000D02*
X174689285Y-191278571D01*
X174975000Y-191278571D01*
X175117857Y-191350000D01*
X175189285Y-191421428D01*
X175260714Y-191564285D01*
X175260714Y-191992857D01*
X175189285Y-192135714D01*
X175117857Y-192207142D01*
X174975000Y-192278571D01*
X174689285Y-192278571D01*
X174546428Y-192207142D01*
X175760714Y-191278571D02*
X176117857Y-192278571D01*
X176475000Y-191278571D02*
X176117857Y-192278571D01*
X175975000Y-192635714D01*
X175903571Y-192707142D01*
X175760714Y-192778571D01*
X177046428Y-191278571D02*
X177046428Y-192778571D01*
X177046428Y-191350000D02*
X177189285Y-191278571D01*
X177475000Y-191278571D01*
X177617857Y-191350000D01*
X177689285Y-191421428D01*
X177760714Y-191564285D01*
X177760714Y-191992857D01*
X177689285Y-192135714D01*
X177617857Y-192207142D01*
X177475000Y-192278571D01*
X177189285Y-192278571D01*
X177046428Y-192207142D01*
X179046428Y-192278571D02*
X179046428Y-191492857D01*
X178975000Y-191350000D01*
X178832142Y-191278571D01*
X178546428Y-191278571D01*
X178403571Y-191350000D01*
X179046428Y-192207142D02*
X178903571Y-192278571D01*
X178546428Y-192278571D01*
X178403571Y-192207142D01*
X178332142Y-192064285D01*
X178332142Y-191921428D01*
X178403571Y-191778571D01*
X178546428Y-191707142D01*
X178903571Y-191707142D01*
X179046428Y-191635714D01*
X179689285Y-192207142D02*
X179832142Y-192278571D01*
X180117857Y-192278571D01*
X180260714Y-192207142D01*
X180332142Y-192064285D01*
X180332142Y-191992857D01*
X180260714Y-191850000D01*
X180117857Y-191778571D01*
X179903571Y-191778571D01*
X179760714Y-191707142D01*
X179689285Y-191564285D01*
X179689285Y-191492857D01*
X179760714Y-191350000D01*
X179903571Y-191278571D01*
X180117857Y-191278571D01*
X180260714Y-191350000D01*
X180903571Y-192207142D02*
X181046428Y-192278571D01*
X181332142Y-192278571D01*
X181475000Y-192207142D01*
X181546428Y-192064285D01*
X181546428Y-191992857D01*
X181475000Y-191850000D01*
X181332142Y-191778571D01*
X181117857Y-191778571D01*
X180975000Y-191707142D01*
X180903571Y-191564285D01*
X180903571Y-191492857D01*
X180975000Y-191350000D01*
X181117857Y-191278571D01*
X181332142Y-191278571D01*
X181475000Y-191350000D01*
X182189285Y-191707142D02*
X183332142Y-191707142D01*
X184689285Y-192278571D02*
X184689285Y-191492857D01*
X184617857Y-191350000D01*
X184475000Y-191278571D01*
X184189285Y-191278571D01*
X184046428Y-191350000D01*
X184689285Y-192207142D02*
X184546428Y-192278571D01*
X184189285Y-192278571D01*
X184046428Y-192207142D01*
X183975000Y-192064285D01*
X183975000Y-191921428D01*
X184046428Y-191778571D01*
X184189285Y-191707142D01*
X184546428Y-191707142D01*
X184689285Y-191635714D01*
X185403571Y-192278571D02*
X185403571Y-191278571D01*
X185403571Y-190778571D02*
X185332142Y-190850000D01*
X185403571Y-190921428D01*
X185475000Y-190850000D01*
X185403571Y-190778571D01*
X185403571Y-190921428D01*
X186332142Y-192278571D02*
X186189285Y-192207142D01*
X186117857Y-192135714D01*
X186046428Y-191992857D01*
X186046428Y-191564285D01*
X186117857Y-191421428D01*
X186189285Y-191350000D01*
X186332142Y-191278571D01*
X186546428Y-191278571D01*
X186689285Y-191350000D01*
X186760714Y-191421428D01*
X186832142Y-191564285D01*
X186832142Y-191992857D01*
X186760714Y-192135714D01*
X186689285Y-192207142D01*
X186546428Y-192278571D01*
X186332142Y-192278571D01*
X187475000Y-192135714D02*
X187546428Y-192207142D01*
X187475000Y-192278571D01*
X187403571Y-192207142D01*
X187475000Y-192135714D01*
X187475000Y-192278571D01*
X188189285Y-192278571D02*
X188189285Y-190778571D01*
X188332142Y-191707142D02*
X188760714Y-192278571D01*
X188760714Y-191278571D02*
X188189285Y-191850000D01*
X189403571Y-192278571D02*
X189403571Y-191278571D01*
X189403571Y-190778571D02*
X189332142Y-190850000D01*
X189403571Y-190921428D01*
X189475000Y-190850000D01*
X189403571Y-190778571D01*
X189403571Y-190921428D01*
X190760714Y-192207142D02*
X190617857Y-192278571D01*
X190332142Y-192278571D01*
X190189285Y-192207142D01*
X190117857Y-192135714D01*
X190046428Y-191992857D01*
X190046428Y-191564285D01*
X190117857Y-191421428D01*
X190189285Y-191350000D01*
X190332142Y-191278571D01*
X190617857Y-191278571D01*
X190760714Y-191350000D01*
X192046428Y-192278571D02*
X192046428Y-191492857D01*
X191975000Y-191350000D01*
X191832142Y-191278571D01*
X191546428Y-191278571D01*
X191403571Y-191350000D01*
X192046428Y-192207142D02*
X191903571Y-192278571D01*
X191546428Y-192278571D01*
X191403571Y-192207142D01*
X191332142Y-192064285D01*
X191332142Y-191921428D01*
X191403571Y-191778571D01*
X191546428Y-191707142D01*
X191903571Y-191707142D01*
X192046428Y-191635714D01*
X193403571Y-192278571D02*
X193403571Y-190778571D01*
X193403571Y-192207142D02*
X193260714Y-192278571D01*
X192975000Y-192278571D01*
X192832142Y-192207142D01*
X192760714Y-192135714D01*
X192689285Y-191992857D01*
X192689285Y-191564285D01*
X192760714Y-191421428D01*
X192832142Y-191350000D01*
X192975000Y-191278571D01*
X193260714Y-191278571D01*
X193403571Y-191350000D01*
X193760714Y-192421428D02*
X194903571Y-192421428D01*
X195260714Y-191278571D02*
X195260714Y-192778571D01*
X195260714Y-191350000D02*
X195403571Y-191278571D01*
X195689285Y-191278571D01*
X195832142Y-191350000D01*
X195903571Y-191421428D01*
X195975000Y-191564285D01*
X195975000Y-191992857D01*
X195903571Y-192135714D01*
X195832142Y-192207142D01*
X195689285Y-192278571D01*
X195403571Y-192278571D01*
X195260714Y-192207142D01*
X197260714Y-192207142D02*
X197117857Y-192278571D01*
X196832142Y-192278571D01*
X196689285Y-192207142D01*
X196617857Y-192135714D01*
X196546428Y-191992857D01*
X196546428Y-191564285D01*
X196617857Y-191421428D01*
X196689285Y-191350000D01*
X196832142Y-191278571D01*
X197117857Y-191278571D01*
X197260714Y-191350000D01*
X197903571Y-192278571D02*
X197903571Y-190778571D01*
X197903571Y-191350000D02*
X198046428Y-191278571D01*
X198332142Y-191278571D01*
X198475000Y-191350000D01*
X198546428Y-191421428D01*
X198617857Y-191564285D01*
X198617857Y-191992857D01*
X198546428Y-192135714D01*
X198475000Y-192207142D01*
X198332142Y-192278571D01*
X198046428Y-192278571D01*
X197903571Y-192207142D01*
D10*
D11*
X159400000Y-187400000D02*
X267400000Y-187400000D01*
D10*
D11*
X160760714Y-189507142D02*
X160975000Y-189578571D01*
X161332142Y-189578571D01*
X161475000Y-189507142D01*
X161546428Y-189435714D01*
X161617857Y-189292857D01*
X161617857Y-189150000D01*
X161546428Y-189007142D01*
X161475000Y-188935714D01*
X161332142Y-188864285D01*
X161046428Y-188792857D01*
X160903571Y-188721428D01*
X160832142Y-188650000D01*
X160760714Y-188507142D01*
X160760714Y-188364285D01*
X160832142Y-188221428D01*
X160903571Y-188150000D01*
X161046428Y-188078571D01*
X161403571Y-188078571D01*
X161617857Y-188150000D01*
X162260714Y-189578571D02*
X162260714Y-188078571D01*
X162903571Y-189578571D02*
X162903571Y-188792857D01*
X162832142Y-188650000D01*
X162689285Y-188578571D01*
X162475000Y-188578571D01*
X162332142Y-188650000D01*
X162260714Y-188721428D01*
X164189285Y-189507142D02*
X164046428Y-189578571D01*
X163760714Y-189578571D01*
X163617857Y-189507142D01*
X163546428Y-189364285D01*
X163546428Y-188792857D01*
X163617857Y-188650000D01*
X163760714Y-188578571D01*
X164046428Y-188578571D01*
X164189285Y-188650000D01*
X164260714Y-188792857D01*
X164260714Y-188935714D01*
X163546428Y-189078571D01*
X165475000Y-189507142D02*
X165332142Y-189578571D01*
X165046428Y-189578571D01*
X164903571Y-189507142D01*
X164832142Y-189364285D01*
X164832142Y-188792857D01*
X164903571Y-188650000D01*
X165046428Y-188578571D01*
X165332142Y-188578571D01*
X165475000Y-188650000D01*
X165546428Y-188792857D01*
X165546428Y-188935714D01*
X164832142Y-189078571D01*
X165975000Y-188578571D02*
X166546428Y-188578571D01*
X166189285Y-188078571D02*
X166189285Y-189364285D01*
X166260714Y-189507142D01*
X166403571Y-189578571D01*
X166546428Y-189578571D01*
X167046428Y-189435714D02*
X167117857Y-189507142D01*
X167046428Y-189578571D01*
X166975000Y-189507142D01*
X167046428Y-189435714D01*
X167046428Y-189578571D01*
X167046428Y-188650000D02*
X167117857Y-188721428D01*
X167046428Y-188792857D01*
X166975000Y-188721428D01*
X167046428Y-188650000D01*
X167046428Y-188792857D01*
D10*
D11*
X160832142Y-183578571D02*
X160832142Y-182078571D01*
X161475000Y-183578571D02*
X161475000Y-182792857D01*
X161403571Y-182650000D01*
X161260714Y-182578571D01*
X161046428Y-182578571D01*
X160903571Y-182650000D01*
X160832142Y-182721428D01*
X161975000Y-182578571D02*
X162546428Y-182578571D01*
X162189285Y-182078571D02*
X162189285Y-183364285D01*
X162260714Y-183507142D01*
X162403571Y-183578571D01*
X162546428Y-183578571D01*
X162832142Y-182578571D02*
X163403571Y-182578571D01*
X163046428Y-182078571D02*
X163046428Y-183364285D01*
X163117857Y-183507142D01*
X163260714Y-183578571D01*
X163403571Y-183578571D01*
X163903571Y-182578571D02*
X163903571Y-184078571D01*
X163903571Y-182650000D02*
X164046428Y-182578571D01*
X164332142Y-182578571D01*
X164475000Y-182650000D01*
X164546428Y-182721428D01*
X164617857Y-182864285D01*
X164617857Y-183292857D01*
X164546428Y-183435714D01*
X164475000Y-183507142D01*
X164332142Y-183578571D01*
X164046428Y-183578571D01*
X163903571Y-183507142D01*
X165189285Y-183507142D02*
X165332142Y-183578571D01*
X165617857Y-183578571D01*
X165760714Y-183507142D01*
X165832142Y-183364285D01*
X165832142Y-183292857D01*
X165760714Y-183150000D01*
X165617857Y-183078571D01*
X165403571Y-183078571D01*
X165260714Y-183007142D01*
X165189285Y-182864285D01*
X165189285Y-182792857D01*
X165260714Y-182650000D01*
X165403571Y-182578571D01*
X165617857Y-182578571D01*
X165760714Y-182650000D01*
X166475000Y-183435714D02*
X166546428Y-183507142D01*
X166475000Y-183578571D01*
X166403571Y-183507142D01*
X166475000Y-183435714D01*
X166475000Y-183578571D01*
X166475000Y-182650000D02*
X166546428Y-182721428D01*
X166475000Y-182792857D01*
X166403571Y-182721428D01*
X166475000Y-182650000D01*
X166475000Y-182792857D01*
X168260714Y-182007142D02*
X166975000Y-183935714D01*
X169832142Y-182007142D02*
X168546428Y-183935714D01*
X170975000Y-182578571D02*
X170975000Y-183792857D01*
X170903571Y-183935714D01*
X170832142Y-184007142D01*
X170689285Y-184078571D01*
X170475000Y-184078571D01*
X170332142Y-184007142D01*
X170975000Y-183507142D02*
X170832142Y-183578571D01*
X170546428Y-183578571D01*
X170403571Y-183507142D01*
X170332142Y-183435714D01*
X170260714Y-183292857D01*
X170260714Y-182864285D01*
X170332142Y-182721428D01*
X170403571Y-182650000D01*
X170546428Y-182578571D01*
X170832142Y-182578571D01*
X170975000Y-182650000D01*
X171689285Y-183578571D02*
X171689285Y-182578571D01*
X171689285Y-182078571D02*
X171617857Y-182150000D01*
X171689285Y-182221428D01*
X171760714Y-182150000D01*
X171689285Y-182078571D01*
X171689285Y-182221428D01*
X172189285Y-182578571D02*
X172760714Y-182578571D01*
X172403571Y-182078571D02*
X172403571Y-183364285D01*
X172475000Y-183507142D01*
X172617857Y-183578571D01*
X172760714Y-183578571D01*
X173260714Y-183578571D02*
X173260714Y-182078571D01*
X173903571Y-183578571D02*
X173903571Y-182792857D01*
X173832142Y-182650000D01*
X173689285Y-182578571D01*
X173475000Y-182578571D01*
X173332142Y-182650000D01*
X173260714Y-182721428D01*
X175260714Y-182578571D02*
X175260714Y-183578571D01*
X174617857Y-182578571D02*
X174617857Y-183364285D01*
X174689285Y-183507142D01*
X174832142Y-183578571D01*
X175046428Y-183578571D01*
X175189285Y-183507142D01*
X175260714Y-183435714D01*
X175975000Y-183578571D02*
X175975000Y-182078571D01*
X175975000Y-182650000D02*
X176117857Y-182578571D01*
X176403571Y-182578571D01*
X176546428Y-182650000D01*
X176617857Y-182721428D01*
X176689285Y-182864285D01*
X176689285Y-183292857D01*
X176617857Y-183435714D01*
X176546428Y-183507142D01*
X176403571Y-183578571D01*
X176117857Y-183578571D01*
X175975000Y-183507142D01*
X177332142Y-183435714D02*
X177403571Y-183507142D01*
X177332142Y-183578571D01*
X177260714Y-183507142D01*
X177332142Y-183435714D01*
X177332142Y-183578571D01*
X178689285Y-183507142D02*
X178546428Y-183578571D01*
X178260714Y-183578571D01*
X178117857Y-183507142D01*
X178046428Y-183435714D01*
X177975000Y-183292857D01*
X177975000Y-182864285D01*
X178046428Y-182721428D01*
X178117857Y-182650000D01*
X178260714Y-182578571D01*
X178546428Y-182578571D01*
X178689285Y-182650000D01*
X179546428Y-183578571D02*
X179403571Y-183507142D01*
X179332142Y-183435714D01*
X179260714Y-183292857D01*
X179260714Y-182864285D01*
X179332142Y-182721428D01*
X179403571Y-182650000D01*
X179546428Y-182578571D01*
X179760714Y-182578571D01*
X179903571Y-182650000D01*
X179975000Y-182721428D01*
X180046428Y-182864285D01*
X180046428Y-183292857D01*
X179975000Y-183435714D01*
X179903571Y-183507142D01*
X179760714Y-183578571D01*
X179546428Y-183578571D01*
X180689285Y-183578571D02*
X180689285Y-182578571D01*
X180689285Y-182721428D02*
X180760714Y-182650000D01*
X180903571Y-182578571D01*
X181117857Y-182578571D01*
X181260714Y-182650000D01*
X181332142Y-182792857D01*
X181332142Y-183578571D01*
X181332142Y-182792857D02*
X181403571Y-182650000D01*
X181546428Y-182578571D01*
X181760714Y-182578571D01*
X181903571Y-182650000D01*
X181975000Y-182792857D01*
X181975000Y-183578571D01*
X183760714Y-182007142D02*
X182475000Y-183935714D01*
X184260714Y-183578571D02*
X184260714Y-182578571D01*
X184260714Y-182864285D02*
X184332142Y-182721428D01*
X184403571Y-182650000D01*
X184546428Y-182578571D01*
X184689285Y-182578571D01*
X185832142Y-183578571D02*
X185832142Y-182792857D01*
X185760714Y-182650000D01*
X185617857Y-182578571D01*
X185332142Y-182578571D01*
X185189285Y-182650000D01*
X185832142Y-183507142D02*
X185689285Y-183578571D01*
X185332142Y-183578571D01*
X185189285Y-183507142D01*
X185117857Y-183364285D01*
X185117857Y-183221428D01*
X185189285Y-183078571D01*
X185332142Y-183007142D01*
X185689285Y-183007142D01*
X185832142Y-182935714D01*
X186546428Y-182578571D02*
X186546428Y-183578571D01*
X186546428Y-182721428D02*
X186617857Y-182650000D01*
X186760714Y-182578571D01*
X186975000Y-182578571D01*
X187117857Y-182650000D01*
X187189285Y-182792857D01*
X187189285Y-183578571D01*
X188546428Y-183578571D02*
X188546428Y-182078571D01*
X188546428Y-183507142D02*
X188403571Y-183578571D01*
X188117857Y-183578571D01*
X187975000Y-183507142D01*
X187903571Y-183435714D01*
X187832142Y-183292857D01*
X187832142Y-182864285D01*
X187903571Y-182721428D01*
X187975000Y-182650000D01*
X188117857Y-182578571D01*
X188403571Y-182578571D01*
X188546428Y-182650000D01*
X189117857Y-182578571D02*
X189475000Y-183578571D01*
X189832142Y-182578571D02*
X189475000Y-183578571D01*
X189332142Y-183935714D01*
X189260714Y-184007142D01*
X189117857Y-184078571D01*
X190403571Y-183578571D02*
X190403571Y-182078571D01*
X190403571Y-182650000D02*
X190546428Y-182578571D01*
X190832142Y-182578571D01*
X190975000Y-182650000D01*
X191046428Y-182721428D01*
X191117857Y-182864285D01*
X191117857Y-183292857D01*
X191046428Y-183435714D01*
X190975000Y-183507142D01*
X190832142Y-183578571D01*
X190546428Y-183578571D01*
X190403571Y-183507142D01*
X192332142Y-183507142D02*
X192189285Y-183578571D01*
X191903571Y-183578571D01*
X191760714Y-183507142D01*
X191689285Y-183364285D01*
X191689285Y-182792857D01*
X191760714Y-182650000D01*
X191903571Y-182578571D01*
X192189285Y-182578571D01*
X192332142Y-182650000D01*
X192403571Y-182792857D01*
X192403571Y-182935714D01*
X191689285Y-183078571D01*
X193689285Y-183507142D02*
X193546428Y-183578571D01*
X193260714Y-183578571D01*
X193117857Y-183507142D01*
X193046428Y-183435714D01*
X192975000Y-183292857D01*
X192975000Y-182864285D01*
X193046428Y-182721428D01*
X193117857Y-182650000D01*
X193260714Y-182578571D01*
X193546428Y-182578571D01*
X193689285Y-182650000D01*
X194332142Y-183578571D02*
X194332142Y-182078571D01*
X194475000Y-183007142D02*
X194903571Y-183578571D01*
X194903571Y-182578571D02*
X194332142Y-183150000D01*
X196117857Y-183507142D02*
X195975000Y-183578571D01*
X195689285Y-183578571D01*
X195546428Y-183507142D01*
X195475000Y-183364285D01*
X195475000Y-182792857D01*
X195546428Y-182650000D01*
X195689285Y-182578571D01*
X195975000Y-182578571D01*
X196117857Y-182650000D01*
X196189285Y-182792857D01*
X196189285Y-182935714D01*
X195475000Y-183078571D01*
X196832142Y-183578571D02*
X196832142Y-182578571D01*
X196832142Y-182721428D02*
X196903571Y-182650000D01*
X197046428Y-182578571D01*
X197260714Y-182578571D01*
X197403571Y-182650000D01*
X197475000Y-182792857D01*
X197475000Y-183578571D01*
X197475000Y-182792857D02*
X197546428Y-182650000D01*
X197689285Y-182578571D01*
X197903571Y-182578571D01*
X198046428Y-182650000D01*
X198117857Y-182792857D01*
X198117857Y-183578571D01*
X199403571Y-183507142D02*
X199260714Y-183578571D01*
X198975000Y-183578571D01*
X198832142Y-183507142D01*
X198760714Y-183364285D01*
X198760714Y-182792857D01*
X198832142Y-182650000D01*
X198975000Y-182578571D01*
X199260714Y-182578571D01*
X199403571Y-182650000D01*
X199475000Y-182792857D01*
X199475000Y-182935714D01*
X198760714Y-183078571D01*
X199975000Y-182578571D02*
X200332142Y-183578571D01*
X200689285Y-182578571D02*
X200332142Y-183578571D01*
X200189285Y-183935714D01*
X200117857Y-184007142D01*
X199975000Y-184078571D01*
X201832142Y-183507142D02*
X201689285Y-183578571D01*
X201403571Y-183578571D01*
X201260714Y-183507142D01*
X201189285Y-183364285D01*
X201189285Y-182792857D01*
X201260714Y-182650000D01*
X201403571Y-182578571D01*
X201689285Y-182578571D01*
X201832142Y-182650000D01*
X201903571Y-182792857D01*
X201903571Y-182935714D01*
X201189285Y-183078571D01*
X202546428Y-183578571D02*
X202546428Y-182578571D01*
X202546428Y-182864285D02*
X202617857Y-182721428D01*
X202689285Y-182650000D01*
X202832142Y-182578571D01*
X202975000Y-182578571D01*
X204546428Y-182007142D02*
X203260714Y-183935714D01*
X204832142Y-182578571D02*
X205403571Y-182578571D01*
X205046428Y-182078571D02*
X205046428Y-183364285D01*
X205117857Y-183507142D01*
X205260714Y-183578571D01*
X205403571Y-183578571D01*
X205903571Y-183578571D02*
X205903571Y-182578571D01*
X205903571Y-182864285D02*
X205975000Y-182721428D01*
X206046428Y-182650000D01*
X206189285Y-182578571D01*
X206332142Y-182578571D01*
X206832142Y-183578571D02*
X206832142Y-182578571D01*
X206832142Y-182078571D02*
X206760714Y-182150000D01*
X206832142Y-182221428D01*
X206903571Y-182150000D01*
X206832142Y-182078571D01*
X206832142Y-182221428D01*
X207546428Y-182578571D02*
X207546428Y-184078571D01*
X207546428Y-182650000D02*
X207689285Y-182578571D01*
X207975000Y-182578571D01*
X208117857Y-182650000D01*
X208189285Y-182721428D01*
X208260714Y-182864285D01*
X208260714Y-183292857D01*
X208189285Y-183435714D01*
X208117857Y-183507142D01*
X207975000Y-183578571D01*
X207689285Y-183578571D01*
X207546428Y-183507142D01*
X209117857Y-183578571D02*
X208975000Y-183507142D01*
X208903571Y-183364285D01*
X208903571Y-182078571D01*
X210260714Y-183507142D02*
X210117857Y-183578571D01*
X209832142Y-183578571D01*
X209689285Y-183507142D01*
X209617857Y-183364285D01*
X209617857Y-182792857D01*
X209689285Y-182650000D01*
X209832142Y-182578571D01*
X210117857Y-182578571D01*
X210260714Y-182650000D01*
X210332142Y-182792857D01*
X210332142Y-182935714D01*
X209617857Y-183078571D01*
X210975000Y-183007142D02*
X212117857Y-183007142D01*
X212832142Y-183578571D02*
X212832142Y-182078571D01*
X212832142Y-182650000D02*
X212975000Y-182578571D01*
X213260714Y-182578571D01*
X213403571Y-182650000D01*
X213475000Y-182721428D01*
X213546428Y-182864285D01*
X213546428Y-183292857D01*
X213475000Y-183435714D01*
X213403571Y-183507142D01*
X213260714Y-183578571D01*
X212975000Y-183578571D01*
X212832142Y-183507142D01*
X214046428Y-182578571D02*
X214403571Y-183578571D01*
X214760714Y-182578571D02*
X214403571Y-183578571D01*
X214260714Y-183935714D01*
X214189285Y-184007142D01*
X214046428Y-184078571D01*
X215332142Y-182578571D02*
X215332142Y-184078571D01*
X215332142Y-182650000D02*
X215475000Y-182578571D01*
X215760714Y-182578571D01*
X215903571Y-182650000D01*
X215975000Y-182721428D01*
X216046428Y-182864285D01*
X216046428Y-183292857D01*
X215975000Y-183435714D01*
X215903571Y-183507142D01*
X215760714Y-183578571D01*
X215475000Y-183578571D01*
X215332142Y-183507142D01*
X217332142Y-183578571D02*
X217332142Y-182792857D01*
X217260714Y-182650000D01*
X217117857Y-182578571D01*
X216832142Y-182578571D01*
X216689285Y-182650000D01*
X217332142Y-183507142D02*
X217189285Y-183578571D01*
X216832142Y-183578571D01*
X216689285Y-183507142D01*
X216617857Y-183364285D01*
X216617857Y-183221428D01*
X216689285Y-183078571D01*
X216832142Y-183007142D01*
X217189285Y-183007142D01*
X217332142Y-182935714D01*
X217975000Y-183507142D02*
X218117857Y-183578571D01*
X218403571Y-183578571D01*
X218546428Y-183507142D01*
X218617857Y-183364285D01*
X218617857Y-183292857D01*
X218546428Y-183150000D01*
X218403571Y-183078571D01*
X218189285Y-183078571D01*
X218046428Y-183007142D01*
X217975000Y-182864285D01*
X217975000Y-182792857D01*
X218046428Y-182650000D01*
X218189285Y-182578571D01*
X218403571Y-182578571D01*
X218546428Y-182650000D01*
X219189285Y-183507142D02*
X219332142Y-183578571D01*
X219617857Y-183578571D01*
X219760714Y-183507142D01*
X219832142Y-183364285D01*
X219832142Y-183292857D01*
X219760714Y-183150000D01*
X219617857Y-183078571D01*
X219403571Y-183078571D01*
X219260714Y-183007142D01*
X219189285Y-182864285D01*
X219189285Y-182792857D01*
X219260714Y-182650000D01*
X219403571Y-182578571D01*
X219617857Y-182578571D01*
X219760714Y-182650000D01*
X220475000Y-183007142D02*
X221617857Y-183007142D01*
X222332142Y-183578571D02*
X222332142Y-182078571D01*
X222475000Y-183007142D02*
X222903571Y-183578571D01*
X222903571Y-182578571D02*
X222332142Y-183150000D01*
X223546428Y-183578571D02*
X223546428Y-182578571D01*
X223546428Y-182078571D02*
X223475000Y-182150000D01*
X223546428Y-182221428D01*
X223617857Y-182150000D01*
X223546428Y-182078571D01*
X223546428Y-182221428D01*
X224903571Y-183507142D02*
X224760714Y-183578571D01*
X224475000Y-183578571D01*
X224332142Y-183507142D01*
X224260714Y-183435714D01*
X224189285Y-183292857D01*
X224189285Y-182864285D01*
X224260714Y-182721428D01*
X224332142Y-182650000D01*
X224475000Y-182578571D01*
X224760714Y-182578571D01*
X224903571Y-182650000D01*
X226189285Y-183578571D02*
X226189285Y-182792857D01*
X226117857Y-182650000D01*
X225975000Y-182578571D01*
X225689285Y-182578571D01*
X225546428Y-182650000D01*
X226189285Y-183507142D02*
X226046428Y-183578571D01*
X225689285Y-183578571D01*
X225546428Y-183507142D01*
X225475000Y-183364285D01*
X225475000Y-183221428D01*
X225546428Y-183078571D01*
X225689285Y-183007142D01*
X226046428Y-183007142D01*
X226189285Y-182935714D01*
X227546428Y-183578571D02*
X227546428Y-182078571D01*
X227546428Y-183507142D02*
X227403571Y-183578571D01*
X227117857Y-183578571D01*
X226975000Y-183507142D01*
X226903571Y-183435714D01*
X226832142Y-183292857D01*
X226832142Y-182864285D01*
X226903571Y-182721428D01*
X226975000Y-182650000D01*
X227117857Y-182578571D01*
X227403571Y-182578571D01*
X227546428Y-182650000D01*
D10*
D11*
X161546428Y-180578571D02*
X160832142Y-180578571D01*
X160832142Y-179078571D01*
X162046428Y-180578571D02*
X162046428Y-179578571D01*
X162046428Y-179078571D02*
X161975000Y-179150000D01*
X162046428Y-179221428D01*
X162117857Y-179150000D01*
X162046428Y-179078571D01*
X162046428Y-179221428D01*
X163403571Y-180507142D02*
X163260714Y-180578571D01*
X162975000Y-180578571D01*
X162832142Y-180507142D01*
X162760714Y-180435714D01*
X162689285Y-180292857D01*
X162689285Y-179864285D01*
X162760714Y-179721428D01*
X162832142Y-179650000D01*
X162975000Y-179578571D01*
X163260714Y-179578571D01*
X163403571Y-179650000D01*
X164617857Y-180507142D02*
X164475000Y-180578571D01*
X164189285Y-180578571D01*
X164046428Y-180507142D01*
X163975000Y-180364285D01*
X163975000Y-179792857D01*
X164046428Y-179650000D01*
X164189285Y-179578571D01*
X164475000Y-179578571D01*
X164617857Y-179650000D01*
X164689285Y-179792857D01*
X164689285Y-179935714D01*
X163975000Y-180078571D01*
X165332142Y-179578571D02*
X165332142Y-180578571D01*
X165332142Y-179721428D02*
X165403571Y-179650000D01*
X165546428Y-179578571D01*
X165760714Y-179578571D01*
X165903571Y-179650000D01*
X165975000Y-179792857D01*
X165975000Y-180578571D01*
X166617857Y-180507142D02*
X166760714Y-180578571D01*
X167046428Y-180578571D01*
X167189285Y-180507142D01*
X167260714Y-180364285D01*
X167260714Y-180292857D01*
X167189285Y-180150000D01*
X167046428Y-180078571D01*
X166832142Y-180078571D01*
X166689285Y-180007142D01*
X166617857Y-179864285D01*
X166617857Y-179792857D01*
X166689285Y-179650000D01*
X166832142Y-179578571D01*
X167046428Y-179578571D01*
X167189285Y-179650000D01*
X168475000Y-180507142D02*
X168332142Y-180578571D01*
X168046428Y-180578571D01*
X167903571Y-180507142D01*
X167832142Y-180364285D01*
X167832142Y-179792857D01*
X167903571Y-179650000D01*
X168046428Y-179578571D01*
X168332142Y-179578571D01*
X168475000Y-179650000D01*
X168546428Y-179792857D01*
X168546428Y-179935714D01*
X167832142Y-180078571D01*
X169832142Y-180578571D02*
X169832142Y-179078571D01*
X169832142Y-180507142D02*
X169689285Y-180578571D01*
X169403571Y-180578571D01*
X169260714Y-180507142D01*
X169189285Y-180435714D01*
X169117857Y-180292857D01*
X169117857Y-179864285D01*
X169189285Y-179721428D01*
X169260714Y-179650000D01*
X169403571Y-179578571D01*
X169689285Y-179578571D01*
X169832142Y-179650000D01*
X172332142Y-179578571D02*
X172332142Y-180578571D01*
X171689285Y-179578571D02*
X171689285Y-180364285D01*
X171760714Y-180507142D01*
X171903571Y-180578571D01*
X172117857Y-180578571D01*
X172260714Y-180507142D01*
X172332142Y-180435714D01*
X173046428Y-179578571D02*
X173046428Y-180578571D01*
X173046428Y-179721428D02*
X173117857Y-179650000D01*
X173260714Y-179578571D01*
X173475000Y-179578571D01*
X173617857Y-179650000D01*
X173689285Y-179792857D01*
X173689285Y-180578571D01*
X175046428Y-180578571D02*
X175046428Y-179078571D01*
X175046428Y-180507142D02*
X174903571Y-180578571D01*
X174617857Y-180578571D01*
X174475000Y-180507142D01*
X174403571Y-180435714D01*
X174332142Y-180292857D01*
X174332142Y-179864285D01*
X174403571Y-179721428D01*
X174475000Y-179650000D01*
X174617857Y-179578571D01*
X174903571Y-179578571D01*
X175046428Y-179650000D01*
X176332142Y-180507142D02*
X176189285Y-180578571D01*
X175903571Y-180578571D01*
X175760714Y-180507142D01*
X175689285Y-180364285D01*
X175689285Y-179792857D01*
X175760714Y-179650000D01*
X175903571Y-179578571D01*
X176189285Y-179578571D01*
X176332142Y-179650000D01*
X176403571Y-179792857D01*
X176403571Y-179935714D01*
X175689285Y-180078571D01*
X177046428Y-180578571D02*
X177046428Y-179578571D01*
X177046428Y-179864285D02*
X177117857Y-179721428D01*
X177189285Y-179650000D01*
X177332142Y-179578571D01*
X177475000Y-179578571D01*
X179975000Y-180435714D02*
X179903571Y-180507142D01*
X179689285Y-180578571D01*
X179546428Y-180578571D01*
X179332142Y-180507142D01*
X179189285Y-180364285D01*
X179117857Y-180221428D01*
X179046428Y-179935714D01*
X179046428Y-179721428D01*
X179117857Y-179435714D01*
X179189285Y-179292857D01*
X179332142Y-179150000D01*
X179546428Y-179078571D01*
X179689285Y-179078571D01*
X179903571Y-179150000D01*
X179975000Y-179221428D01*
X180617857Y-179792857D02*
X181117857Y-179792857D01*
X181332142Y-180578571D02*
X180617857Y-180578571D01*
X180617857Y-179078571D01*
X181332142Y-179078571D01*
X182832142Y-180578571D02*
X182332142Y-179864285D01*
X181975000Y-180578571D02*
X181975000Y-179078571D01*
X182546428Y-179078571D01*
X182689285Y-179150000D01*
X182760714Y-179221428D01*
X182832142Y-179364285D01*
X182832142Y-179578571D01*
X182760714Y-179721428D01*
X182689285Y-179792857D01*
X182546428Y-179864285D01*
X181975000Y-179864285D01*
X183475000Y-180578571D02*
X183475000Y-179078571D01*
X184332142Y-180578571D01*
X184332142Y-179078571D01*
X186475000Y-179078571D02*
X186760714Y-179078571D01*
X186903571Y-179150000D01*
X187046428Y-179292857D01*
X187117857Y-179578571D01*
X187117857Y-180078571D01*
X187046428Y-180364285D01*
X186903571Y-180507142D01*
X186760714Y-180578571D01*
X186475000Y-180578571D01*
X186332142Y-180507142D01*
X186189285Y-180364285D01*
X186117857Y-180078571D01*
X186117857Y-179578571D01*
X186189285Y-179292857D01*
X186332142Y-179150000D01*
X186475000Y-179078571D01*
X187760714Y-180578571D02*
X187760714Y-179078571D01*
X187760714Y-179792857D02*
X188617857Y-179792857D01*
X188617857Y-180578571D02*
X188617857Y-179078571D01*
X190046428Y-180578571D02*
X189332142Y-180578571D01*
X189332142Y-179078571D01*
X191546428Y-179578571D02*
X191903571Y-180578571D01*
X192260714Y-179578571D01*
X192832142Y-180435714D02*
X192903571Y-180507142D01*
X192832142Y-180578571D01*
X192760714Y-180507142D01*
X192832142Y-180435714D01*
X192832142Y-180578571D01*
X194332142Y-180578571D02*
X193475000Y-180578571D01*
X193903571Y-180578571D02*
X193903571Y-179078571D01*
X193760714Y-179292857D01*
X193617857Y-179435714D01*
X193475000Y-179507142D01*
X194975000Y-180435714D02*
X195046428Y-180507142D01*
X194975000Y-180578571D01*
X194903571Y-180507142D01*
X194975000Y-180435714D01*
X194975000Y-180578571D01*
X195617857Y-179221428D02*
X195689285Y-179150000D01*
X195832142Y-179078571D01*
X196189285Y-179078571D01*
X196332142Y-179150000D01*
X196403571Y-179221428D01*
X196475000Y-179364285D01*
X196475000Y-179507142D01*
X196403571Y-179721428D01*
X195546428Y-180578571D01*
X196475000Y-180578571D01*
D10*
D11*
X179400000Y-197400000D02*
X179400000Y-200400000D01*
D10*
D11*
X243400000Y-197400000D02*
X243400000Y-203900000D01*
D14*
X158500000Y-62000000D02*
X125500000Y-62000000D01*
D15*
X152117666Y-111902166D02*
X152541000Y-111902166D01*
X152541000Y-111013166D01*
X151821333Y-111902166D02*
X151821333Y-111309500D01*
X151821333Y-111013166D02*
X151863666Y-111055500D01*
X151821333Y-111097833D01*
X151779000Y-111055500D01*
X151821333Y-111013166D01*
X151821333Y-111097833D01*
X151017000Y-111859833D02*
X151101666Y-111902166D01*
X151271000Y-111902166D01*
X151355666Y-111859833D01*
X151398000Y-111817500D01*
X151440333Y-111732833D01*
X151440333Y-111478833D01*
X151398000Y-111394166D01*
X151355666Y-111351833D01*
X151271000Y-111309500D01*
X151101666Y-111309500D01*
X151017000Y-111351833D01*
X150297333Y-111859833D02*
X150382000Y-111902166D01*
X150551333Y-111902166D01*
X150636000Y-111859833D01*
X150678333Y-111775166D01*
X150678333Y-111436500D01*
X150636000Y-111351833D01*
X150551333Y-111309500D01*
X150382000Y-111309500D01*
X150297333Y-111351833D01*
X150255000Y-111436500D01*
X150255000Y-111521166D01*
X150678333Y-111605833D01*
X149874000Y-111309500D02*
X149874000Y-111902166D01*
X149874000Y-111394166D02*
X149831666Y-111351833D01*
X149747000Y-111309500D01*
X149620000Y-111309500D01*
X149535333Y-111351833D01*
X149493000Y-111436500D01*
X149493000Y-111902166D01*
X149112000Y-111859833D02*
X149027333Y-111902166D01*
X148858000Y-111902166D01*
X148773333Y-111859833D01*
X148731000Y-111775166D01*
X148731000Y-111732833D01*
X148773333Y-111648166D01*
X148858000Y-111605833D01*
X148985000Y-111605833D01*
X149069666Y-111563500D01*
X149112000Y-111478833D01*
X149112000Y-111436500D01*
X149069666Y-111351833D01*
X148985000Y-111309500D01*
X148858000Y-111309500D01*
X148773333Y-111351833D01*
X148011333Y-111859833D02*
X148096000Y-111902166D01*
X148265333Y-111902166D01*
X148350000Y-111859833D01*
X148392333Y-111775166D01*
X148392333Y-111436500D01*
X148350000Y-111351833D01*
X148265333Y-111309500D01*
X148096000Y-111309500D01*
X148011333Y-111351833D01*
X147969000Y-111436500D01*
X147969000Y-111521166D01*
X148392333Y-111605833D01*
X147207000Y-111902166D02*
X147207000Y-111013166D01*
X147207000Y-111859833D02*
X147291666Y-111902166D01*
X147461000Y-111902166D01*
X147545666Y-111859833D01*
X147588000Y-111817500D01*
X147630333Y-111732833D01*
X147630333Y-111478833D01*
X147588000Y-111394166D01*
X147545666Y-111351833D01*
X147461000Y-111309500D01*
X147291666Y-111309500D01*
X147207000Y-111351833D01*
X145725333Y-111309500D02*
X145725333Y-111902166D01*
X146106333Y-111309500D02*
X146106333Y-111775166D01*
X146064000Y-111859833D01*
X145979333Y-111902166D01*
X145852333Y-111902166D01*
X145767666Y-111859833D01*
X145725333Y-111817500D01*
X145302000Y-111309500D02*
X145302000Y-111902166D01*
X145302000Y-111394166D02*
X145259666Y-111351833D01*
X145175000Y-111309500D01*
X145048000Y-111309500D01*
X144963333Y-111351833D01*
X144921000Y-111436500D01*
X144921000Y-111902166D01*
X144116666Y-111902166D02*
X144116666Y-111013166D01*
X144116666Y-111859833D02*
X144201333Y-111902166D01*
X144370666Y-111902166D01*
X144455333Y-111859833D01*
X144497666Y-111817500D01*
X144540000Y-111732833D01*
X144540000Y-111478833D01*
X144497666Y-111394166D01*
X144455333Y-111351833D01*
X144370666Y-111309500D01*
X144201333Y-111309500D01*
X144116666Y-111351833D01*
X143354666Y-111859833D02*
X143439333Y-111902166D01*
X143608666Y-111902166D01*
X143693333Y-111859833D01*
X143735666Y-111775166D01*
X143735666Y-111436500D01*
X143693333Y-111351833D01*
X143608666Y-111309500D01*
X143439333Y-111309500D01*
X143354666Y-111351833D01*
X143312333Y-111436500D01*
X143312333Y-111521166D01*
X143735666Y-111605833D01*
X142931333Y-111902166D02*
X142931333Y-111309500D01*
X142931333Y-111478833D02*
X142889000Y-111394166D01*
X142846666Y-111351833D01*
X142762000Y-111309500D01*
X142677333Y-111309500D01*
X141195666Y-111817500D02*
X141238000Y-111859833D01*
X141365000Y-111902166D01*
X141449666Y-111902166D01*
X141576666Y-111859833D01*
X141661333Y-111775166D01*
X141703666Y-111690500D01*
X141746000Y-111521166D01*
X141746000Y-111394166D01*
X141703666Y-111224833D01*
X141661333Y-111140166D01*
X141576666Y-111055500D01*
X141449666Y-111013166D01*
X141365000Y-111013166D01*
X141238000Y-111055500D01*
X141195666Y-111097833D01*
X140814666Y-111436500D02*
X140518333Y-111436500D01*
X140391333Y-111902166D02*
X140814666Y-111902166D01*
X140814666Y-111013166D01*
X140391333Y-111013166D01*
X139502333Y-111902166D02*
X139798666Y-111478833D01*
X140010333Y-111902166D02*
X140010333Y-111013166D01*
X139671666Y-111013166D01*
X139587000Y-111055500D01*
X139544666Y-111097833D01*
X139502333Y-111182500D01*
X139502333Y-111309500D01*
X139544666Y-111394166D01*
X139587000Y-111436500D01*
X139671666Y-111478833D01*
X140010333Y-111478833D01*
X139121333Y-111902166D02*
X139121333Y-111013166D01*
X138613333Y-111902166D01*
X138613333Y-111013166D01*
X137343333Y-111013166D02*
X137174000Y-111013166D01*
X137089333Y-111055500D01*
X137004666Y-111140166D01*
X136962333Y-111309500D01*
X136962333Y-111605833D01*
X137004666Y-111775166D01*
X137089333Y-111859833D01*
X137174000Y-111902166D01*
X137343333Y-111902166D01*
X137428000Y-111859833D01*
X137512666Y-111775166D01*
X137555000Y-111605833D01*
X137555000Y-111309500D01*
X137512666Y-111140166D01*
X137428000Y-111055500D01*
X137343333Y-111013166D01*
X136581333Y-111902166D02*
X136581333Y-111013166D01*
X136581333Y-111436500D02*
X136073333Y-111436500D01*
X136073333Y-111902166D02*
X136073333Y-111013166D01*
X135226666Y-111902166D02*
X135650000Y-111902166D01*
X135650000Y-111013166D01*
X134337666Y-111309500D02*
X134125999Y-111902166D01*
X133914333Y-111309500D01*
X133575666Y-111817500D02*
X133533333Y-111859833D01*
X133575666Y-111902166D01*
X133617999Y-111859833D01*
X133575666Y-111817500D01*
X133575666Y-111902166D01*
X132686666Y-111902166D02*
X133194666Y-111902166D01*
X132940666Y-111902166D02*
X132940666Y-111013166D01*
X133025333Y-111140166D01*
X133109999Y-111224833D01*
X133194666Y-111267166D01*
X132305666Y-111817500D02*
X132263333Y-111859833D01*
X132305666Y-111902166D01*
X132347999Y-111859833D01*
X132305666Y-111817500D01*
X132305666Y-111902166D01*
X131924666Y-111097833D02*
X131882333Y-111055500D01*
X131797666Y-111013166D01*
X131585999Y-111013166D01*
X131501333Y-111055500D01*
X131458999Y-111097833D01*
X131416666Y-111182500D01*
X131416666Y-111267166D01*
X131458999Y-111394166D01*
X131966999Y-111902166D01*
X131416666Y-111902166D01*
X154890500Y-113883816D02*
X154890500Y-112994816D01*
X154509500Y-113883816D02*
X154509500Y-113418150D01*
X154551833Y-113333483D01*
X154636500Y-113291150D01*
X154763500Y-113291150D01*
X154848166Y-113333483D01*
X154890500Y-113375816D01*
X154213166Y-113291150D02*
X153874500Y-113291150D01*
X154086166Y-112994816D02*
X154086166Y-113756816D01*
X154043833Y-113841483D01*
X153959166Y-113883816D01*
X153874500Y-113883816D01*
X153705166Y-113291150D02*
X153366500Y-113291150D01*
X153578166Y-112994816D02*
X153578166Y-113756816D01*
X153535833Y-113841483D01*
X153451166Y-113883816D01*
X153366500Y-113883816D01*
X153070166Y-113291150D02*
X153070166Y-114180150D01*
X153070166Y-113333483D02*
X152985500Y-113291150D01*
X152816166Y-113291150D01*
X152731500Y-113333483D01*
X152689166Y-113375816D01*
X152646833Y-113460483D01*
X152646833Y-113714483D01*
X152689166Y-113799150D01*
X152731500Y-113841483D01*
X152816166Y-113883816D01*
X152985500Y-113883816D01*
X153070166Y-113841483D01*
X152308166Y-113841483D02*
X152223500Y-113883816D01*
X152054166Y-113883816D01*
X151969500Y-113841483D01*
X151927166Y-113756816D01*
X151927166Y-113714483D01*
X151969500Y-113629816D01*
X152054166Y-113587483D01*
X152181166Y-113587483D01*
X152265833Y-113545150D01*
X152308166Y-113460483D01*
X152308166Y-113418150D01*
X152265833Y-113333483D01*
X152181166Y-113291150D01*
X152054166Y-113291150D01*
X151969500Y-113333483D01*
X151546166Y-113799150D02*
X151503833Y-113841483D01*
X151546166Y-113883816D01*
X151588500Y-113841483D01*
X151546166Y-113799150D01*
X151546166Y-113883816D01*
X151546166Y-113333483D02*
X151503833Y-113375816D01*
X151546166Y-113418150D01*
X151588500Y-113375816D01*
X151546166Y-113333483D01*
X151546166Y-113418150D01*
X150487833Y-112952483D02*
X151249833Y-114095483D01*
X149556500Y-112952483D02*
X150318500Y-114095483D01*
X148879166Y-113291150D02*
X148879166Y-114010816D01*
X148921500Y-114095483D01*
X148963833Y-114137816D01*
X149048500Y-114180150D01*
X149175500Y-114180150D01*
X149260166Y-114137816D01*
X148879166Y-113841483D02*
X148963833Y-113883816D01*
X149133166Y-113883816D01*
X149217833Y-113841483D01*
X149260166Y-113799150D01*
X149302500Y-113714483D01*
X149302500Y-113460483D01*
X149260166Y-113375816D01*
X149217833Y-113333483D01*
X149133166Y-113291150D01*
X148963833Y-113291150D01*
X148879166Y-113333483D01*
X148455833Y-113883816D02*
X148455833Y-113291150D01*
X148455833Y-112994816D02*
X148498166Y-113037150D01*
X148455833Y-113079483D01*
X148413500Y-113037150D01*
X148455833Y-112994816D01*
X148455833Y-113079483D01*
X148159500Y-113291150D02*
X147820833Y-113291150D01*
X148032500Y-112994816D02*
X148032500Y-113756816D01*
X147990166Y-113841483D01*
X147905500Y-113883816D01*
X147820833Y-113883816D01*
X147524500Y-113883816D02*
X147524500Y-112994816D01*
X147143500Y-113883816D02*
X147143500Y-113418150D01*
X147185833Y-113333483D01*
X147270500Y-113291150D01*
X147397500Y-113291150D01*
X147482166Y-113333483D01*
X147524500Y-113375816D01*
X146339166Y-113291150D02*
X146339166Y-113883816D01*
X146720166Y-113291150D02*
X146720166Y-113756816D01*
X146677833Y-113841483D01*
X146593166Y-113883816D01*
X146466166Y-113883816D01*
X146381500Y-113841483D01*
X146339166Y-113799150D01*
X145915833Y-113883816D02*
X145915833Y-112994816D01*
X145915833Y-113333483D02*
X145831166Y-113291150D01*
X145661833Y-113291150D01*
X145577166Y-113333483D01*
X145534833Y-113375816D01*
X145492500Y-113460483D01*
X145492500Y-113714483D01*
X145534833Y-113799150D01*
X145577166Y-113841483D01*
X145661833Y-113883816D01*
X145831166Y-113883816D01*
X145915833Y-113841483D01*
X145111500Y-113799150D02*
X145069166Y-113841483D01*
X145111500Y-113883816D01*
X145153833Y-113841483D01*
X145111500Y-113799150D01*
X145111500Y-113883816D01*
X144307166Y-113841483D02*
X144391833Y-113883816D01*
X144561166Y-113883816D01*
X144645833Y-113841483D01*
X144688166Y-113799150D01*
X144730500Y-113714483D01*
X144730500Y-113460483D01*
X144688166Y-113375816D01*
X144645833Y-113333483D01*
X144561166Y-113291150D01*
X144391833Y-113291150D01*
X144307166Y-113333483D01*
X143799166Y-113883816D02*
X143883833Y-113841483D01*
X143926166Y-113799150D01*
X143968500Y-113714483D01*
X143968500Y-113460483D01*
X143926166Y-113375816D01*
X143883833Y-113333483D01*
X143799166Y-113291150D01*
X143672166Y-113291150D01*
X143587500Y-113333483D01*
X143545166Y-113375816D01*
X143502833Y-113460483D01*
X143502833Y-113714483D01*
X143545166Y-113799150D01*
X143587500Y-113841483D01*
X143672166Y-113883816D01*
X143799166Y-113883816D01*
X143121833Y-113883816D02*
X143121833Y-113291150D01*
X143121833Y-113375816D02*
X143079500Y-113333483D01*
X142994833Y-113291150D01*
X142867833Y-113291150D01*
X142783166Y-113333483D01*
X142740833Y-113418150D01*
X142740833Y-113883816D01*
X142740833Y-113418150D02*
X142698500Y-113333483D01*
X142613833Y-113291150D01*
X142486833Y-113291150D01*
X142402166Y-113333483D01*
X142359833Y-113418150D01*
X142359833Y-113883816D01*
X141301500Y-112952483D02*
X142063500Y-114095483D01*
X141005166Y-113883816D02*
X141005166Y-113291150D01*
X141005166Y-113460483D02*
X140962833Y-113375816D01*
X140920500Y-113333483D01*
X140835833Y-113291150D01*
X140751166Y-113291150D01*
X140073833Y-113883816D02*
X140073833Y-113418150D01*
X140116166Y-113333483D01*
X140200833Y-113291150D01*
X140370166Y-113291150D01*
X140454833Y-113333483D01*
X140073833Y-113841483D02*
X140158500Y-113883816D01*
X140370166Y-113883816D01*
X140454833Y-113841483D01*
X140497166Y-113756816D01*
X140497166Y-113672150D01*
X140454833Y-113587483D01*
X140370166Y-113545150D01*
X140158500Y-113545150D01*
X140073833Y-113502816D01*
X139650500Y-113291150D02*
X139650500Y-113883816D01*
X139650500Y-113375816D02*
X139608166Y-113333483D01*
X139523500Y-113291150D01*
X139396500Y-113291150D01*
X139311833Y-113333483D01*
X139269500Y-113418150D01*
X139269500Y-113883816D01*
X138465166Y-113883816D02*
X138465166Y-112994816D01*
X138465166Y-113841483D02*
X138549833Y-113883816D01*
X138719166Y-113883816D01*
X138803833Y-113841483D01*
X138846166Y-113799150D01*
X138888500Y-113714483D01*
X138888500Y-113460483D01*
X138846166Y-113375816D01*
X138803833Y-113333483D01*
X138719166Y-113291150D01*
X138549833Y-113291150D01*
X138465166Y-113333483D01*
X138126500Y-113291150D02*
X137914833Y-113883816D01*
X137703166Y-113291150D02*
X137914833Y-113883816D01*
X137999500Y-114095483D01*
X138041833Y-114137816D01*
X138126500Y-114180150D01*
X137364500Y-113883816D02*
X137364500Y-112994816D01*
X137364500Y-113333483D02*
X137279833Y-113291150D01*
X137110500Y-113291150D01*
X137025833Y-113333483D01*
X136983500Y-113375816D01*
X136941166Y-113460483D01*
X136941166Y-113714483D01*
X136983500Y-113799150D01*
X137025833Y-113841483D01*
X137110500Y-113883816D01*
X137279833Y-113883816D01*
X137364500Y-113841483D01*
X136221500Y-113841483D02*
X136306166Y-113883816D01*
X136475500Y-113883816D01*
X136560166Y-113841483D01*
X136602500Y-113756816D01*
X136602500Y-113418150D01*
X136560166Y-113333483D01*
X136475500Y-113291150D01*
X136306166Y-113291150D01*
X136221500Y-113333483D01*
X136179166Y-113418150D01*
X136179166Y-113502816D01*
X136602500Y-113587483D01*
X135417166Y-113841483D02*
X135501833Y-113883816D01*
X135671166Y-113883816D01*
X135755833Y-113841483D01*
X135798166Y-113799150D01*
X135840500Y-113714483D01*
X135840500Y-113460483D01*
X135798166Y-113375816D01*
X135755833Y-113333483D01*
X135671166Y-113291150D01*
X135501833Y-113291150D01*
X135417166Y-113333483D01*
X135036166Y-113883816D02*
X135036166Y-112994816D01*
X134951500Y-113545150D02*
X134697500Y-113883816D01*
X134697500Y-113291150D02*
X135036166Y-113629816D01*
X133977833Y-113841483D02*
X134062500Y-113883816D01*
X134231833Y-113883816D01*
X134316500Y-113841483D01*
X134358833Y-113756816D01*
X134358833Y-113418150D01*
X134316500Y-113333483D01*
X134231833Y-113291150D01*
X134062500Y-113291150D01*
X133977833Y-113333483D01*
X133935500Y-113418150D01*
X133935500Y-113502816D01*
X134358833Y-113587483D01*
X133554500Y-113883816D02*
X133554500Y-113291150D01*
X133554500Y-113375816D02*
X133512166Y-113333483D01*
X133427500Y-113291150D01*
X133300500Y-113291150D01*
X133215833Y-113333483D01*
X133173500Y-113418150D01*
X133173500Y-113883816D01*
X133173500Y-113418150D02*
X133131166Y-113333483D01*
X133046500Y-113291150D01*
X132919500Y-113291150D01*
X132834833Y-113333483D01*
X132792500Y-113418150D01*
X132792500Y-113883816D01*
X132030500Y-113841483D02*
X132115166Y-113883816D01*
X132284500Y-113883816D01*
X132369166Y-113841483D01*
X132411500Y-113756816D01*
X132411500Y-113418150D01*
X132369166Y-113333483D01*
X132284500Y-113291150D01*
X132115166Y-113291150D01*
X132030500Y-113333483D01*
X131988166Y-113418150D01*
X131988166Y-113502816D01*
X132411500Y-113587483D01*
X131691833Y-113291150D02*
X131480166Y-113883816D01*
X131268500Y-113291150D02*
X131480166Y-113883816D01*
X131564833Y-114095483D01*
X131607166Y-114137816D01*
X131691833Y-114180150D01*
X130591166Y-113841483D02*
X130675833Y-113883816D01*
X130845166Y-113883816D01*
X130929833Y-113841483D01*
X130972166Y-113756816D01*
X130972166Y-113418150D01*
X130929833Y-113333483D01*
X130845166Y-113291150D01*
X130675833Y-113291150D01*
X130591166Y-113333483D01*
X130548833Y-113418150D01*
X130548833Y-113502816D01*
X130972166Y-113587483D01*
X130167833Y-113883816D02*
X130167833Y-113291150D01*
X130167833Y-113460483D02*
X130125500Y-113375816D01*
X130083166Y-113333483D01*
X129998500Y-113291150D01*
X129913833Y-113291150D01*
X128982500Y-112952483D02*
X129744500Y-114095483D01*
X148794500Y-114827850D02*
X148455833Y-114827850D01*
X148667500Y-114531516D02*
X148667500Y-115293516D01*
X148625166Y-115378183D01*
X148540500Y-115420516D01*
X148455833Y-115420516D01*
X148159500Y-115420516D02*
X148159500Y-114827850D01*
X148159500Y-114997183D02*
X148117166Y-114912516D01*
X148074833Y-114870183D01*
X147990166Y-114827850D01*
X147905500Y-114827850D01*
X147609166Y-115420516D02*
X147609166Y-114827850D01*
X147609166Y-114531516D02*
X147651500Y-114573850D01*
X147609166Y-114616183D01*
X147566833Y-114573850D01*
X147609166Y-114531516D01*
X147609166Y-114616183D01*
X147185833Y-114827850D02*
X147185833Y-115716850D01*
X147185833Y-114870183D02*
X147101166Y-114827850D01*
X146931833Y-114827850D01*
X146847166Y-114870183D01*
X146804833Y-114912516D01*
X146762500Y-114997183D01*
X146762500Y-115251183D01*
X146804833Y-115335850D01*
X146847166Y-115378183D01*
X146931833Y-115420516D01*
X147101166Y-115420516D01*
X147185833Y-115378183D01*
X146254500Y-115420516D02*
X146339166Y-115378183D01*
X146381500Y-115293516D01*
X146381500Y-114531516D01*
X145577166Y-115378183D02*
X145661833Y-115420516D01*
X145831166Y-115420516D01*
X145915833Y-115378183D01*
X145958166Y-115293516D01*
X145958166Y-114954850D01*
X145915833Y-114870183D01*
X145831166Y-114827850D01*
X145661833Y-114827850D01*
X145577166Y-114870183D01*
X145534833Y-114954850D01*
X145534833Y-115039516D01*
X145958166Y-115124183D01*
X145153833Y-115081850D02*
X144476500Y-115081850D01*
X144053166Y-115420516D02*
X144053166Y-114531516D01*
X144053166Y-114870183D02*
X143968500Y-114827850D01*
X143799166Y-114827850D01*
X143714500Y-114870183D01*
X143672166Y-114912516D01*
X143629833Y-114997183D01*
X143629833Y-115251183D01*
X143672166Y-115335850D01*
X143714500Y-115378183D01*
X143799166Y-115420516D01*
X143968500Y-115420516D01*
X144053166Y-115378183D01*
X143333500Y-114827850D02*
X143121833Y-115420516D01*
X142910166Y-114827850D02*
X143121833Y-115420516D01*
X143206500Y-115632183D01*
X143248833Y-115674516D01*
X143333500Y-115716850D01*
X142571500Y-114827850D02*
X142571500Y-115716850D01*
X142571500Y-114870183D02*
X142486833Y-114827850D01*
X142317500Y-114827850D01*
X142232833Y-114870183D01*
X142190500Y-114912516D01*
X142148166Y-114997183D01*
X142148166Y-115251183D01*
X142190500Y-115335850D01*
X142232833Y-115378183D01*
X142317500Y-115420516D01*
X142486833Y-115420516D01*
X142571500Y-115378183D01*
X141386166Y-115420516D02*
X141386166Y-114954850D01*
X141428500Y-114870183D01*
X141513166Y-114827850D01*
X141682500Y-114827850D01*
X141767166Y-114870183D01*
X141386166Y-115378183D02*
X141470833Y-115420516D01*
X141682500Y-115420516D01*
X141767166Y-115378183D01*
X141809500Y-115293516D01*
X141809500Y-115208850D01*
X141767166Y-115124183D01*
X141682500Y-115081850D01*
X141470833Y-115081850D01*
X141386166Y-115039516D01*
X141005166Y-115378183D02*
X140920500Y-115420516D01*
X140751166Y-115420516D01*
X140666500Y-115378183D01*
X140624166Y-115293516D01*
X140624166Y-115251183D01*
X140666500Y-115166516D01*
X140751166Y-115124183D01*
X140878166Y-115124183D01*
X140962833Y-115081850D01*
X141005166Y-114997183D01*
X141005166Y-114954850D01*
X140962833Y-114870183D01*
X140878166Y-114827850D01*
X140751166Y-114827850D01*
X140666500Y-114870183D01*
X140285500Y-115378183D02*
X140200833Y-115420516D01*
X140031500Y-115420516D01*
X139946833Y-115378183D01*
X139904500Y-115293516D01*
X139904500Y-115251183D01*
X139946833Y-115166516D01*
X140031500Y-115124183D01*
X140158500Y-115124183D01*
X140243166Y-115081850D01*
X140285500Y-114997183D01*
X140285500Y-114954850D01*
X140243166Y-114870183D01*
X140158500Y-114827850D01*
X140031500Y-114827850D01*
X139946833Y-114870183D01*
X139523500Y-115081850D02*
X138846166Y-115081850D01*
X138422833Y-115420516D02*
X138422833Y-114531516D01*
X138338166Y-115081850D02*
X138084166Y-115420516D01*
X138084166Y-114827850D02*
X138422833Y-115166516D01*
X137703166Y-115420516D02*
X137703166Y-114827850D01*
X137703166Y-114531516D02*
X137745500Y-114573850D01*
X137703166Y-114616183D01*
X137660833Y-114573850D01*
X137703166Y-114531516D01*
X137703166Y-114616183D01*
X136898833Y-115378183D02*
X136983500Y-115420516D01*
X137152833Y-115420516D01*
X137237500Y-115378183D01*
X137279833Y-115335850D01*
X137322166Y-115251183D01*
X137322166Y-114997183D01*
X137279833Y-114912516D01*
X137237500Y-114870183D01*
X137152833Y-114827850D01*
X136983500Y-114827850D01*
X136898833Y-114870183D01*
X136136833Y-115420516D02*
X136136833Y-114954850D01*
X136179166Y-114870183D01*
X136263833Y-114827850D01*
X136433166Y-114827850D01*
X136517833Y-114870183D01*
X136136833Y-115378183D02*
X136221500Y-115420516D01*
X136433166Y-115420516D01*
X136517833Y-115378183D01*
X136560166Y-115293516D01*
X136560166Y-115208850D01*
X136517833Y-115124183D01*
X136433166Y-115081850D01*
X136221500Y-115081850D01*
X136136833Y-115039516D01*
X135332500Y-115420516D02*
X135332500Y-114531516D01*
X135332500Y-115378183D02*
X135417166Y-115420516D01*
X135586500Y-115420516D01*
X135671166Y-115378183D01*
X135713500Y-115335850D01*
X135755833Y-115251183D01*
X135755833Y-114997183D01*
X135713500Y-114912516D01*
X135671166Y-114870183D01*
X135586500Y-114827850D01*
X135417166Y-114827850D01*
X135332500Y-114870183D01*
X142146333Y-79383816D02*
X142146333Y-78791150D01*
X142146333Y-78494816D02*
X142188666Y-78537150D01*
X142146333Y-78579483D01*
X142104000Y-78537150D01*
X142146333Y-78494816D01*
X142146333Y-78579483D01*
X141723000Y-78791150D02*
X141723000Y-79383816D01*
X141723000Y-78875816D02*
X141680666Y-78833483D01*
X141596000Y-78791150D01*
X141469000Y-78791150D01*
X141384333Y-78833483D01*
X141342000Y-78918150D01*
X141342000Y-79383816D01*
X140961000Y-79341483D02*
X140876333Y-79383816D01*
X140707000Y-79383816D01*
X140622333Y-79341483D01*
X140580000Y-79256816D01*
X140580000Y-79214483D01*
X140622333Y-79129816D01*
X140707000Y-79087483D01*
X140834000Y-79087483D01*
X140918666Y-79045150D01*
X140961000Y-78960483D01*
X140961000Y-78918150D01*
X140918666Y-78833483D01*
X140834000Y-78791150D01*
X140707000Y-78791150D01*
X140622333Y-78833483D01*
X140326000Y-78791150D02*
X139987333Y-78791150D01*
X140199000Y-78494816D02*
X140199000Y-79256816D01*
X140156666Y-79341483D01*
X140072000Y-79383816D01*
X139987333Y-79383816D01*
X139310000Y-79383816D02*
X139310000Y-78918150D01*
X139352333Y-78833483D01*
X139437000Y-78791150D01*
X139606333Y-78791150D01*
X139691000Y-78833483D01*
X139310000Y-79341483D02*
X139394666Y-79383816D01*
X139606333Y-79383816D01*
X139691000Y-79341483D01*
X139733333Y-79256816D01*
X139733333Y-79172150D01*
X139691000Y-79087483D01*
X139606333Y-79045150D01*
X139394666Y-79045150D01*
X139310000Y-79002816D01*
X138759666Y-79383816D02*
X138844333Y-79341483D01*
X138886666Y-79256816D01*
X138886666Y-78494816D01*
X138294000Y-79383816D02*
X138378666Y-79341483D01*
X138421000Y-79256816D01*
X138421000Y-78494816D01*
X137278000Y-79383816D02*
X137278000Y-78494816D01*
X136981666Y-79129816D01*
X136685333Y-78494816D01*
X136685333Y-79383816D01*
X136262000Y-79383816D02*
X136262000Y-78494816D01*
X136050333Y-78494816D01*
X135923333Y-78537150D01*
X135838666Y-78621816D01*
X135796333Y-78706483D01*
X135754000Y-78875816D01*
X135754000Y-79002816D01*
X135796333Y-79172150D01*
X135838666Y-79256816D01*
X135923333Y-79341483D01*
X136050333Y-79383816D01*
X136262000Y-79383816D01*
X135373000Y-79045150D02*
X134695666Y-79045150D01*
X134230000Y-79383816D02*
X134060666Y-79383816D01*
X133976000Y-79341483D01*
X133933666Y-79299150D01*
X133849000Y-79172150D01*
X133806666Y-79002816D01*
X133806666Y-78664150D01*
X133849000Y-78579483D01*
X133891333Y-78537150D01*
X133976000Y-78494816D01*
X134145333Y-78494816D01*
X134230000Y-78537150D01*
X134272333Y-78579483D01*
X134314666Y-78664150D01*
X134314666Y-78875816D01*
X134272333Y-78960483D01*
X134230000Y-79002816D01*
X134145333Y-79045150D01*
X133976000Y-79045150D01*
X133891333Y-79002816D01*
X133849000Y-78960483D01*
X133806666Y-78875816D01*
X133256333Y-78494816D02*
X133171666Y-78494816D01*
X133087000Y-78537150D01*
X133044666Y-78579483D01*
X133002333Y-78664150D01*
X132960000Y-78833483D01*
X132960000Y-79045150D01*
X133002333Y-79214483D01*
X133044666Y-79299150D01*
X133087000Y-79341483D01*
X133171666Y-79383816D01*
X133256333Y-79383816D01*
X133341000Y-79341483D01*
X133383333Y-79299150D01*
X133425666Y-79214483D01*
X133468000Y-79045150D01*
X133468000Y-78833483D01*
X133425666Y-78664150D01*
X133383333Y-78579483D01*
X133341000Y-78537150D01*
X133256333Y-78494816D01*
X132621333Y-79341483D02*
X132494333Y-79383816D01*
X132282666Y-79383816D01*
X132198000Y-79341483D01*
X132155666Y-79299150D01*
X132113333Y-79214483D01*
X132113333Y-79129816D01*
X132155666Y-79045150D01*
X132198000Y-79002816D01*
X132282666Y-78960483D01*
X132452000Y-78918150D01*
X132536666Y-78875816D01*
X132579000Y-78833483D01*
X132621333Y-78748816D01*
X132621333Y-78664150D01*
X132579000Y-78579483D01*
X132536666Y-78537150D01*
X132452000Y-78494816D01*
X132240333Y-78494816D01*
X132113333Y-78537150D01*
X131732333Y-79383816D02*
X131732333Y-78494816D01*
X131436000Y-79129816D01*
X131139666Y-78494816D01*
X131139666Y-79383816D01*
X129912000Y-79383816D02*
X129996666Y-79341483D01*
X130039000Y-79299150D01*
X130081333Y-79214483D01*
X130081333Y-78960483D01*
X130039000Y-78875816D01*
X129996666Y-78833483D01*
X129912000Y-78791150D01*
X129785000Y-78791150D01*
X129700333Y-78833483D01*
X129658000Y-78875816D01*
X129615666Y-78960483D01*
X129615666Y-79214483D01*
X129658000Y-79299150D01*
X129700333Y-79341483D01*
X129785000Y-79383816D01*
X129912000Y-79383816D01*
X129234666Y-78791150D02*
X129234666Y-79383816D01*
X129234666Y-78875816D02*
X129192333Y-78833483D01*
X129107666Y-78791150D01*
X128980666Y-78791150D01*
X128896000Y-78833483D01*
X128853666Y-78918150D01*
X128853666Y-79383816D01*
X141003333Y-80327850D02*
X140664666Y-80327850D01*
X140876333Y-80031516D02*
X140876333Y-80793516D01*
X140834000Y-80878183D01*
X140749333Y-80920516D01*
X140664666Y-80920516D01*
X140368333Y-80920516D02*
X140368333Y-80031516D01*
X139987333Y-80920516D02*
X139987333Y-80454850D01*
X140029666Y-80370183D01*
X140114333Y-80327850D01*
X140241333Y-80327850D01*
X140326000Y-80370183D01*
X140368333Y-80412516D01*
X139564000Y-80920516D02*
X139564000Y-80327850D01*
X139564000Y-80031516D02*
X139606333Y-80073850D01*
X139564000Y-80116183D01*
X139521666Y-80073850D01*
X139564000Y-80031516D01*
X139564000Y-80116183D01*
X139183000Y-80878183D02*
X139098333Y-80920516D01*
X138929000Y-80920516D01*
X138844333Y-80878183D01*
X138802000Y-80793516D01*
X138802000Y-80751183D01*
X138844333Y-80666516D01*
X138929000Y-80624183D01*
X139056000Y-80624183D01*
X139140666Y-80581850D01*
X139183000Y-80497183D01*
X139183000Y-80454850D01*
X139140666Y-80370183D01*
X139056000Y-80327850D01*
X138929000Y-80327850D01*
X138844333Y-80370183D01*
X137786000Y-80878183D02*
X137701333Y-80920516D01*
X137532000Y-80920516D01*
X137447333Y-80878183D01*
X137405000Y-80793516D01*
X137405000Y-80751183D01*
X137447333Y-80666516D01*
X137532000Y-80624183D01*
X137659000Y-80624183D01*
X137743666Y-80581850D01*
X137786000Y-80497183D01*
X137786000Y-80454850D01*
X137743666Y-80370183D01*
X137659000Y-80327850D01*
X137532000Y-80327850D01*
X137447333Y-80370183D01*
X137024000Y-80920516D02*
X137024000Y-80327850D01*
X137024000Y-80031516D02*
X137066333Y-80073850D01*
X137024000Y-80116183D01*
X136981666Y-80073850D01*
X137024000Y-80031516D01*
X137024000Y-80116183D01*
X136219666Y-80920516D02*
X136219666Y-80031516D01*
X136219666Y-80878183D02*
X136304333Y-80920516D01*
X136473666Y-80920516D01*
X136558333Y-80878183D01*
X136600666Y-80835850D01*
X136643000Y-80751183D01*
X136643000Y-80497183D01*
X136600666Y-80412516D01*
X136558333Y-80370183D01*
X136473666Y-80327850D01*
X136304333Y-80327850D01*
X136219666Y-80370183D01*
X135457666Y-80878183D02*
X135542333Y-80920516D01*
X135711666Y-80920516D01*
X135796333Y-80878183D01*
X135838666Y-80793516D01*
X135838666Y-80454850D01*
X135796333Y-80370183D01*
X135711666Y-80327850D01*
X135542333Y-80327850D01*
X135457666Y-80370183D01*
X135415333Y-80454850D01*
X135415333Y-80539516D01*
X135838666Y-80624183D01*
X134230000Y-80920516D02*
X134314666Y-80878183D01*
X134357000Y-80835850D01*
X134399333Y-80751183D01*
X134399333Y-80497183D01*
X134357000Y-80412516D01*
X134314666Y-80370183D01*
X134230000Y-80327850D01*
X134103000Y-80327850D01*
X134018333Y-80370183D01*
X133976000Y-80412516D01*
X133933666Y-80497183D01*
X133933666Y-80751183D01*
X133976000Y-80835850D01*
X134018333Y-80878183D01*
X134103000Y-80920516D01*
X134230000Y-80920516D01*
X133679666Y-80327850D02*
X133341000Y-80327850D01*
X133552666Y-80920516D02*
X133552666Y-80158516D01*
X133510333Y-80073850D01*
X133425666Y-80031516D01*
X133341000Y-80031516D01*
X132367333Y-80920516D02*
X132367333Y-80031516D01*
X132028666Y-80031516D01*
X131944000Y-80073850D01*
X131901666Y-80116183D01*
X131859333Y-80200850D01*
X131859333Y-80327850D01*
X131901666Y-80412516D01*
X131944000Y-80454850D01*
X132028666Y-80497183D01*
X132367333Y-80497183D01*
X130970333Y-80835850D02*
X131012666Y-80878183D01*
X131139666Y-80920516D01*
X131224333Y-80920516D01*
X131351333Y-80878183D01*
X131436000Y-80793516D01*
X131478333Y-80708850D01*
X131520666Y-80539516D01*
X131520666Y-80412516D01*
X131478333Y-80243183D01*
X131436000Y-80158516D01*
X131351333Y-80073850D01*
X131224333Y-80031516D01*
X131139666Y-80031516D01*
X131012666Y-80073850D01*
X130970333Y-80116183D01*
X130293000Y-80454850D02*
X130166000Y-80497183D01*
X130123666Y-80539516D01*
X130081333Y-80624183D01*
X130081333Y-80751183D01*
X130123666Y-80835850D01*
X130166000Y-80878183D01*
X130250666Y-80920516D01*
X130589333Y-80920516D01*
X130589333Y-80031516D01*
X130293000Y-80031516D01*
X130208333Y-80073850D01*
X130166000Y-80116183D01*
X130123666Y-80200850D01*
X130123666Y-80285516D01*
X130166000Y-80370183D01*
X130208333Y-80412516D01*
X130293000Y-80454850D01*
X130589333Y-80454850D01*
X158500000Y-62000000D02*
X158500000Y-118000000D01*
X125500000Y-118000000D02*
X125500000Y-62000000D01*
X125500000Y-118000000D02*
X158500000Y-118000000D01*
D16*
X127600000Y-75250000D02*
X127600000Y-69350000D01*
X127600000Y-62050000D02*
X127600000Y-65750000D01*
X142400000Y-75250000D02*
X142400000Y-69350000D01*
X142400000Y-62050000D02*
X142400000Y-65750000D01*
X127600000Y-75250000D02*
X142400000Y-75250000D01*
X142400000Y-62040000D02*
X127600000Y-62040000D01*
D17*
G36*
X143995256Y-108521918D02*
G01*
X143939799Y-108549568D01*
X143890852Y-108600480D01*
X143877371Y-108619338D01*
X143862686Y-108644015D01*
X143853158Y-108670816D01*
X143847707Y-108706587D01*
X143845253Y-108758169D01*
X143844714Y-108826267D01*
X143847148Y-108919588D01*
X143855606Y-108989657D01*
X143871826Y-109041931D01*
X143897546Y-109081869D01*
X143934503Y-109114929D01*
X143937218Y-109116886D01*
X143973640Y-109136908D01*
X144017498Y-109146815D01*
X144073276Y-109149257D01*
X144163952Y-109149257D01*
X144163990Y-109237283D01*
X144164834Y-109286308D01*
X144169976Y-109315065D01*
X144183413Y-109332311D01*
X144209142Y-109346808D01*
X144215321Y-109349769D01*
X144244236Y-109363648D01*
X144266624Y-109372414D01*
X144283271Y-109373171D01*
X144294964Y-109363023D01*
X144302490Y-109339073D01*
X144306634Y-109298426D01*
X144308185Y-109238186D01*
X144307929Y-109155455D01*
X144306651Y-109047339D01*
X144306252Y-109015000D01*
X144304815Y-108903524D01*
X144303528Y-108830603D01*
X144164029Y-108830603D01*
X144163245Y-108892499D01*
X144159760Y-108932997D01*
X144151876Y-108959708D01*
X144137895Y-108980244D01*
X144128403Y-108990260D01*
X144089596Y-109019567D01*
X144055237Y-109021952D01*
X144019784Y-108997750D01*
X144018886Y-108996857D01*
X144004461Y-108978153D01*
X143995687Y-108952732D01*
X143991261Y-108913584D01*
X143989882Y-108853697D01*
X143989857Y-108840430D01*
X143993188Y-108757901D01*
X144004031Y-108700691D01*
X144023660Y-108665766D01*
X144053350Y-108650094D01*
X144070509Y-108648514D01*
X144111234Y-108655926D01*
X144139168Y-108680330D01*
X144155983Y-108724980D01*
X144163350Y-108793130D01*
X144164029Y-108830603D01*
X144303528Y-108830603D01*
X144303292Y-108817245D01*
X144301323Y-108752333D01*
X144298550Y-108704958D01*
X144294612Y-108671290D01*
X144289151Y-108647498D01*
X144281808Y-108629753D01*
X144272223Y-108614224D01*
X144268113Y-108608381D01*
X144213595Y-108553185D01*
X144144664Y-108521890D01*
X144064928Y-108513165D01*
X143995256Y-108521918D01*
X143995256Y-108521918D01*
G37*
X143995256Y-108521918D02*
X143939799Y-108549568D01*
X143890852Y-108600480D01*
X143877371Y-108619338D01*
X143862686Y-108644015D01*
X143853158Y-108670816D01*
X143847707Y-108706587D01*
X143845253Y-108758169D01*
X143844714Y-108826267D01*
X143847148Y-108919588D01*
X143855606Y-108989657D01*
X143871826Y-109041931D01*
X143897546Y-109081869D01*
X143934503Y-109114929D01*
X143937218Y-109116886D01*
X143973640Y-109136908D01*
X144017498Y-109146815D01*
X144073276Y-109149257D01*
X144163952Y-109149257D01*
X144163990Y-109237283D01*
X144164834Y-109286308D01*
X144169976Y-109315065D01*
X144183413Y-109332311D01*
X144209142Y-109346808D01*
X144215321Y-109349769D01*
X144244236Y-109363648D01*
X144266624Y-109372414D01*
X144283271Y-109373171D01*
X144294964Y-109363023D01*
X144302490Y-109339073D01*
X144306634Y-109298426D01*
X144308185Y-109238186D01*
X144307929Y-109155455D01*
X144306651Y-109047339D01*
X144306252Y-109015000D01*
X144304815Y-108903524D01*
X144303528Y-108830603D01*
X144164029Y-108830603D01*
X144163245Y-108892499D01*
X144159760Y-108932997D01*
X144151876Y-108959708D01*
X144137895Y-108980244D01*
X144128403Y-108990260D01*
X144089596Y-109019567D01*
X144055237Y-109021952D01*
X144019784Y-108997750D01*
X144018886Y-108996857D01*
X144004461Y-108978153D01*
X143995687Y-108952732D01*
X143991261Y-108913584D01*
X143989882Y-108853697D01*
X143989857Y-108840430D01*
X143993188Y-108757901D01*
X144004031Y-108700691D01*
X144023660Y-108665766D01*
X144053350Y-108650094D01*
X144070509Y-108648514D01*
X144111234Y-108655926D01*
X144139168Y-108680330D01*
X144155983Y-108724980D01*
X144163350Y-108793130D01*
X144164029Y-108830603D01*
X144303528Y-108830603D01*
X144303292Y-108817245D01*
X144301323Y-108752333D01*
X144298550Y-108704958D01*
X144294612Y-108671290D01*
X144289151Y-108647498D01*
X144281808Y-108629753D01*
X144272223Y-108614224D01*
X144268113Y-108608381D01*
X144213595Y-108553185D01*
X144144664Y-108521890D01*
X144064928Y-108513165D01*
X143995256Y-108521918D01*
G36*
X142878907Y-108529780D02*
G01*
X142832328Y-108556723D01*
X142799943Y-108583466D01*
X142776258Y-108611484D01*
X142759941Y-108645748D01*
X142749661Y-108691227D01*
X142744086Y-108752892D01*
X142741884Y-108835711D01*
X142741629Y-108895246D01*
X142741629Y-109114391D01*
X142803314Y-109142044D01*
X142865000Y-109169697D01*
X142872257Y-108929670D01*
X142875256Y-108840028D01*
X142878402Y-108774962D01*
X142882299Y-108730026D01*
X142887553Y-108700770D01*
X142894769Y-108682748D01*
X142904550Y-108671511D01*
X142907688Y-108669079D01*
X142955239Y-108650083D01*
X143003303Y-108657600D01*
X143031914Y-108677543D01*
X143043553Y-108691675D01*
X143051609Y-108710220D01*
X143056729Y-108738334D01*
X143059559Y-108781173D01*
X143060744Y-108843895D01*
X143060943Y-108909261D01*
X143060982Y-108991268D01*
X143062386Y-109049316D01*
X143067086Y-109088465D01*
X143077013Y-109113780D01*
X143094097Y-109130323D01*
X143120268Y-109143156D01*
X143155225Y-109156491D01*
X143193404Y-109171007D01*
X143188859Y-108913389D01*
X143187029Y-108820519D01*
X143184888Y-108751889D01*
X143181819Y-108702711D01*
X143177206Y-108668198D01*
X143170432Y-108643562D01*
X143160881Y-108624016D01*
X143149366Y-108606770D01*
X143093810Y-108551680D01*
X143026020Y-108519822D01*
X142952287Y-108512191D01*
X142878907Y-108529780D01*
X142878907Y-108529780D01*
G37*
X142878907Y-108529780D02*
X142832328Y-108556723D01*
X142799943Y-108583466D01*
X142776258Y-108611484D01*
X142759941Y-108645748D01*
X142749661Y-108691227D01*
X142744086Y-108752892D01*
X142741884Y-108835711D01*
X142741629Y-108895246D01*
X142741629Y-109114391D01*
X142803314Y-109142044D01*
X142865000Y-109169697D01*
X142872257Y-108929670D01*
X142875256Y-108840028D01*
X142878402Y-108774962D01*
X142882299Y-108730026D01*
X142887553Y-108700770D01*
X142894769Y-108682748D01*
X142904550Y-108671511D01*
X142907688Y-108669079D01*
X142955239Y-108650083D01*
X143003303Y-108657600D01*
X143031914Y-108677543D01*
X143043553Y-108691675D01*
X143051609Y-108710220D01*
X143056729Y-108738334D01*
X143059559Y-108781173D01*
X143060744Y-108843895D01*
X143060943Y-108909261D01*
X143060982Y-108991268D01*
X143062386Y-109049316D01*
X143067086Y-109088465D01*
X143077013Y-109113780D01*
X143094097Y-109130323D01*
X143120268Y-109143156D01*
X143155225Y-109156491D01*
X143193404Y-109171007D01*
X143188859Y-108913389D01*
X143187029Y-108820519D01*
X143184888Y-108751889D01*
X143181819Y-108702711D01*
X143177206Y-108668198D01*
X143170432Y-108643562D01*
X143160881Y-108624016D01*
X143149366Y-108606770D01*
X143093810Y-108551680D01*
X143026020Y-108519822D01*
X142952287Y-108512191D01*
X142878907Y-108529780D01*
G36*
X144553885Y-108523962D02*
G01*
X144485855Y-108559733D01*
X144435649Y-108617301D01*
X144417815Y-108654312D01*
X144403937Y-108709882D01*
X144396833Y-108780096D01*
X144396160Y-108856727D01*
X144401573Y-108931552D01*
X144412730Y-108996342D01*
X144429286Y-109042873D01*
X144434374Y-109050887D01*
X144494645Y-109110707D01*
X144566231Y-109146535D01*
X144643908Y-109157020D01*
X144722452Y-109140810D01*
X144744311Y-109131092D01*
X144786878Y-109101143D01*
X144824237Y-109061433D01*
X144827768Y-109056397D01*
X144842119Y-109032124D01*
X144851606Y-109006178D01*
X144857210Y-108972022D01*
X144859914Y-108923119D01*
X144860701Y-108852935D01*
X144860714Y-108837200D01*
X144860678Y-108832192D01*
X144715571Y-108832192D01*
X144714727Y-108898430D01*
X144711404Y-108942386D01*
X144704417Y-108970779D01*
X144692584Y-108990325D01*
X144686543Y-108996857D01*
X144651814Y-109021680D01*
X144618097Y-109020548D01*
X144584005Y-108999016D01*
X144563671Y-108976029D01*
X144551629Y-108942478D01*
X144544866Y-108889569D01*
X144544402Y-108883399D01*
X144543248Y-108787513D01*
X144555312Y-108716299D01*
X144580430Y-108670194D01*
X144618440Y-108649635D01*
X144632008Y-108648514D01*
X144667636Y-108654152D01*
X144692006Y-108673686D01*
X144706907Y-108711042D01*
X144714125Y-108770150D01*
X144715571Y-108832192D01*
X144860678Y-108832192D01*
X144860174Y-108762413D01*
X144857904Y-108710159D01*
X144852932Y-108673949D01*
X144844287Y-108647299D01*
X144830995Y-108623722D01*
X144828057Y-108619338D01*
X144778687Y-108560249D01*
X144724891Y-108525947D01*
X144659398Y-108512331D01*
X144637158Y-108511665D01*
X144553885Y-108523962D01*
X144553885Y-108523962D01*
G37*
X144553885Y-108523962D02*
X144485855Y-108559733D01*
X144435649Y-108617301D01*
X144417815Y-108654312D01*
X144403937Y-108709882D01*
X144396833Y-108780096D01*
X144396160Y-108856727D01*
X144401573Y-108931552D01*
X144412730Y-108996342D01*
X144429286Y-109042873D01*
X144434374Y-109050887D01*
X144494645Y-109110707D01*
X144566231Y-109146535D01*
X144643908Y-109157020D01*
X144722452Y-109140810D01*
X144744311Y-109131092D01*
X144786878Y-109101143D01*
X144824237Y-109061433D01*
X144827768Y-109056397D01*
X144842119Y-109032124D01*
X144851606Y-109006178D01*
X144857210Y-108972022D01*
X144859914Y-108923119D01*
X144860701Y-108852935D01*
X144860714Y-108837200D01*
X144860678Y-108832192D01*
X144715571Y-108832192D01*
X144714727Y-108898430D01*
X144711404Y-108942386D01*
X144704417Y-108970779D01*
X144692584Y-108990325D01*
X144686543Y-108996857D01*
X144651814Y-109021680D01*
X144618097Y-109020548D01*
X144584005Y-108999016D01*
X144563671Y-108976029D01*
X144551629Y-108942478D01*
X144544866Y-108889569D01*
X144544402Y-108883399D01*
X144543248Y-108787513D01*
X144555312Y-108716299D01*
X144580430Y-108670194D01*
X144618440Y-108649635D01*
X144632008Y-108648514D01*
X144667636Y-108654152D01*
X144692006Y-108673686D01*
X144706907Y-108711042D01*
X144714125Y-108770150D01*
X144715571Y-108832192D01*
X144860678Y-108832192D01*
X144860174Y-108762413D01*
X144857904Y-108710159D01*
X144852932Y-108673949D01*
X144844287Y-108647299D01*
X144830995Y-108623722D01*
X144828057Y-108619338D01*
X144778687Y-108560249D01*
X144724891Y-108525947D01*
X144659398Y-108512331D01*
X144637158Y-108511665D01*
X144553885Y-108523962D01*
G36*
X143426697Y-108533239D02*
G01*
X143369473Y-108571735D01*
X143325251Y-108627335D01*
X143298833Y-108698086D01*
X143293490Y-108750162D01*
X143294097Y-108771893D01*
X143299178Y-108788531D01*
X143313145Y-108803437D01*
X143340411Y-108819973D01*
X143385388Y-108841498D01*
X143452489Y-108871374D01*
X143452829Y-108871524D01*
X143514593Y-108899813D01*
X143565241Y-108924933D01*
X143599596Y-108944179D01*
X143612482Y-108954848D01*
X143612486Y-108954934D01*
X143601128Y-108978166D01*
X143574569Y-109003774D01*
X143544077Y-109022221D01*
X143528630Y-109025886D01*
X143486485Y-109013212D01*
X143450192Y-108981471D01*
X143432483Y-108946572D01*
X143415448Y-108920845D01*
X143382078Y-108891546D01*
X143342851Y-108866235D01*
X143308244Y-108852471D01*
X143301007Y-108851714D01*
X143292861Y-108864160D01*
X143292370Y-108895972D01*
X143298357Y-108938866D01*
X143309643Y-108984558D01*
X143325050Y-109024761D01*
X143325829Y-109026322D01*
X143372196Y-109091062D01*
X143432289Y-109135097D01*
X143500535Y-109156711D01*
X143571362Y-109154185D01*
X143639196Y-109125804D01*
X143642212Y-109123808D01*
X143695573Y-109075448D01*
X143730660Y-109012352D01*
X143750078Y-108929387D01*
X143752684Y-108906078D01*
X143757299Y-108796055D01*
X143751767Y-108744748D01*
X143612486Y-108744748D01*
X143610676Y-108776753D01*
X143600778Y-108786093D01*
X143576102Y-108779105D01*
X143537205Y-108762587D01*
X143493725Y-108741881D01*
X143492644Y-108741333D01*
X143455791Y-108721949D01*
X143441000Y-108709013D01*
X143444647Y-108695451D01*
X143460005Y-108677632D01*
X143499077Y-108651845D01*
X143541154Y-108649950D01*
X143578897Y-108668717D01*
X143604966Y-108704915D01*
X143612486Y-108744748D01*
X143751767Y-108744748D01*
X143747806Y-108708027D01*
X143723450Y-108638212D01*
X143689544Y-108589302D01*
X143628347Y-108539878D01*
X143560937Y-108515359D01*
X143492120Y-108513797D01*
X143426697Y-108533239D01*
X143426697Y-108533239D01*
G37*
X143426697Y-108533239D02*
X143369473Y-108571735D01*
X143325251Y-108627335D01*
X143298833Y-108698086D01*
X143293490Y-108750162D01*
X143294097Y-108771893D01*
X143299178Y-108788531D01*
X143313145Y-108803437D01*
X143340411Y-108819973D01*
X143385388Y-108841498D01*
X143452489Y-108871374D01*
X143452829Y-108871524D01*
X143514593Y-108899813D01*
X143565241Y-108924933D01*
X143599596Y-108944179D01*
X143612482Y-108954848D01*
X143612486Y-108954934D01*
X143601128Y-108978166D01*
X143574569Y-109003774D01*
X143544077Y-109022221D01*
X143528630Y-109025886D01*
X143486485Y-109013212D01*
X143450192Y-108981471D01*
X143432483Y-108946572D01*
X143415448Y-108920845D01*
X143382078Y-108891546D01*
X143342851Y-108866235D01*
X143308244Y-108852471D01*
X143301007Y-108851714D01*
X143292861Y-108864160D01*
X143292370Y-108895972D01*
X143298357Y-108938866D01*
X143309643Y-108984558D01*
X143325050Y-109024761D01*
X143325829Y-109026322D01*
X143372196Y-109091062D01*
X143432289Y-109135097D01*
X143500535Y-109156711D01*
X143571362Y-109154185D01*
X143639196Y-109125804D01*
X143642212Y-109123808D01*
X143695573Y-109075448D01*
X143730660Y-109012352D01*
X143750078Y-108929387D01*
X143752684Y-108906078D01*
X143757299Y-108796055D01*
X143751767Y-108744748D01*
X143612486Y-108744748D01*
X143610676Y-108776753D01*
X143600778Y-108786093D01*
X143576102Y-108779105D01*
X143537205Y-108762587D01*
X143493725Y-108741881D01*
X143492644Y-108741333D01*
X143455791Y-108721949D01*
X143441000Y-108709013D01*
X143444647Y-108695451D01*
X143460005Y-108677632D01*
X143499077Y-108651845D01*
X143541154Y-108649950D01*
X143578897Y-108668717D01*
X143604966Y-108704915D01*
X143612486Y-108744748D01*
X143751767Y-108744748D01*
X143747806Y-108708027D01*
X143723450Y-108638212D01*
X143689544Y-108589302D01*
X143628347Y-108539878D01*
X143560937Y-108515359D01*
X143492120Y-108513797D01*
X143426697Y-108533239D01*
G36*
X142219114Y-108453289D02*
G01*
X142214861Y-108512613D01*
X142209975Y-108547572D01*
X142203205Y-108562820D01*
X142193298Y-108563015D01*
X142190086Y-108561195D01*
X142147356Y-108548015D01*
X142091773Y-108548785D01*
X142035263Y-108562333D01*
X141999918Y-108579861D01*
X141963679Y-108607861D01*
X141937187Y-108639549D01*
X141919001Y-108679813D01*
X141907678Y-108733543D01*
X141901778Y-108805626D01*
X141899857Y-108900951D01*
X141899823Y-108919237D01*
X141899800Y-109124646D01*
X141945509Y-109140580D01*
X141977973Y-109151420D01*
X141995785Y-109156468D01*
X141996309Y-109156514D01*
X141998063Y-109142828D01*
X141999556Y-109105076D01*
X142000674Y-109048224D01*
X142001303Y-108977234D01*
X142001400Y-108934073D01*
X142001602Y-108848973D01*
X142002642Y-108787981D01*
X142005169Y-108746177D01*
X142009836Y-108718642D01*
X142017293Y-108700456D01*
X142028189Y-108686698D01*
X142034993Y-108680073D01*
X142081728Y-108653375D01*
X142132728Y-108651375D01*
X142178999Y-108673955D01*
X142187556Y-108682107D01*
X142200107Y-108697436D01*
X142208812Y-108715618D01*
X142214369Y-108741909D01*
X142217474Y-108781562D01*
X142218824Y-108839832D01*
X142219114Y-108920173D01*
X142219114Y-109124646D01*
X142264823Y-109140580D01*
X142297287Y-109151420D01*
X142315099Y-109156468D01*
X142315623Y-109156514D01*
X142316963Y-109142623D01*
X142318172Y-109103439D01*
X142319199Y-109042700D01*
X142319998Y-108964141D01*
X142320519Y-108871498D01*
X142320714Y-108768509D01*
X142320714Y-108371342D01*
X142273543Y-108351444D01*
X142226371Y-108331547D01*
X142219114Y-108453289D01*
X142219114Y-108453289D01*
G37*
X142219114Y-108453289D02*
X142214861Y-108512613D01*
X142209975Y-108547572D01*
X142203205Y-108562820D01*
X142193298Y-108563015D01*
X142190086Y-108561195D01*
X142147356Y-108548015D01*
X142091773Y-108548785D01*
X142035263Y-108562333D01*
X141999918Y-108579861D01*
X141963679Y-108607861D01*
X141937187Y-108639549D01*
X141919001Y-108679813D01*
X141907678Y-108733543D01*
X141901778Y-108805626D01*
X141899857Y-108900951D01*
X141899823Y-108919237D01*
X141899800Y-109124646D01*
X141945509Y-109140580D01*
X141977973Y-109151420D01*
X141995785Y-109156468D01*
X141996309Y-109156514D01*
X141998063Y-109142828D01*
X141999556Y-109105076D01*
X142000674Y-109048224D01*
X142001303Y-108977234D01*
X142001400Y-108934073D01*
X142001602Y-108848973D01*
X142002642Y-108787981D01*
X142005169Y-108746177D01*
X142009836Y-108718642D01*
X142017293Y-108700456D01*
X142028189Y-108686698D01*
X142034993Y-108680073D01*
X142081728Y-108653375D01*
X142132728Y-108651375D01*
X142178999Y-108673955D01*
X142187556Y-108682107D01*
X142200107Y-108697436D01*
X142208812Y-108715618D01*
X142214369Y-108741909D01*
X142217474Y-108781562D01*
X142218824Y-108839832D01*
X142219114Y-108920173D01*
X142219114Y-109124646D01*
X142264823Y-109140580D01*
X142297287Y-109151420D01*
X142315099Y-109156468D01*
X142315623Y-109156514D01*
X142316963Y-109142623D01*
X142318172Y-109103439D01*
X142319199Y-109042700D01*
X142319998Y-108964141D01*
X142320519Y-108871498D01*
X142320714Y-108768509D01*
X142320714Y-108371342D01*
X142273543Y-108351444D01*
X142226371Y-108331547D01*
X142219114Y-108453289D01*
G36*
X141555256Y-108552968D02*
G01*
X141498384Y-108574087D01*
X141497733Y-108574493D01*
X141462560Y-108600380D01*
X141436593Y-108630633D01*
X141418330Y-108670058D01*
X141406268Y-108723462D01*
X141398904Y-108795651D01*
X141394736Y-108891432D01*
X141394371Y-108905078D01*
X141389124Y-109110842D01*
X141433284Y-109133678D01*
X141465237Y-109149110D01*
X141484530Y-109156423D01*
X141485422Y-109156514D01*
X141488761Y-109143022D01*
X141491413Y-109106626D01*
X141493044Y-109053452D01*
X141493400Y-109010393D01*
X141493408Y-108940641D01*
X141496597Y-108896837D01*
X141507712Y-108875944D01*
X141531499Y-108874925D01*
X141572704Y-108890741D01*
X141634914Y-108919815D01*
X141680659Y-108943963D01*
X141704187Y-108964913D01*
X141711104Y-108987747D01*
X141711114Y-108988877D01*
X141699701Y-109028212D01*
X141665908Y-109049462D01*
X141614191Y-109052539D01*
X141576939Y-109052006D01*
X141557297Y-109062735D01*
X141545048Y-109088505D01*
X141537998Y-109121337D01*
X141548158Y-109139966D01*
X141551983Y-109142632D01*
X141587999Y-109153340D01*
X141638434Y-109154856D01*
X141690374Y-109147759D01*
X141727178Y-109134788D01*
X141778062Y-109091585D01*
X141806986Y-109031446D01*
X141812714Y-108984462D01*
X141808343Y-108942082D01*
X141792525Y-108907488D01*
X141761203Y-108876763D01*
X141710322Y-108845990D01*
X141635824Y-108811252D01*
X141631286Y-108809288D01*
X141564179Y-108778287D01*
X141522768Y-108752862D01*
X141505019Y-108730014D01*
X141508893Y-108706745D01*
X141532357Y-108680056D01*
X141539373Y-108673914D01*
X141586370Y-108650100D01*
X141635067Y-108651103D01*
X141677478Y-108674451D01*
X141705616Y-108717675D01*
X141708231Y-108726160D01*
X141733692Y-108767308D01*
X141765999Y-108787128D01*
X141812714Y-108806770D01*
X141812714Y-108755950D01*
X141798504Y-108682082D01*
X141756325Y-108614327D01*
X141734376Y-108591661D01*
X141684483Y-108562569D01*
X141621033Y-108549400D01*
X141555256Y-108552968D01*
X141555256Y-108552968D01*
G37*
X141555256Y-108552968D02*
X141498384Y-108574087D01*
X141497733Y-108574493D01*
X141462560Y-108600380D01*
X141436593Y-108630633D01*
X141418330Y-108670058D01*
X141406268Y-108723462D01*
X141398904Y-108795651D01*
X141394736Y-108891432D01*
X141394371Y-108905078D01*
X141389124Y-109110842D01*
X141433284Y-109133678D01*
X141465237Y-109149110D01*
X141484530Y-109156423D01*
X141485422Y-109156514D01*
X141488761Y-109143022D01*
X141491413Y-109106626D01*
X141493044Y-109053452D01*
X141493400Y-109010393D01*
X141493408Y-108940641D01*
X141496597Y-108896837D01*
X141507712Y-108875944D01*
X141531499Y-108874925D01*
X141572704Y-108890741D01*
X141634914Y-108919815D01*
X141680659Y-108943963D01*
X141704187Y-108964913D01*
X141711104Y-108987747D01*
X141711114Y-108988877D01*
X141699701Y-109028212D01*
X141665908Y-109049462D01*
X141614191Y-109052539D01*
X141576939Y-109052006D01*
X141557297Y-109062735D01*
X141545048Y-109088505D01*
X141537998Y-109121337D01*
X141548158Y-109139966D01*
X141551983Y-109142632D01*
X141587999Y-109153340D01*
X141638434Y-109154856D01*
X141690374Y-109147759D01*
X141727178Y-109134788D01*
X141778062Y-109091585D01*
X141806986Y-109031446D01*
X141812714Y-108984462D01*
X141808343Y-108942082D01*
X141792525Y-108907488D01*
X141761203Y-108876763D01*
X141710322Y-108845990D01*
X141635824Y-108811252D01*
X141631286Y-108809288D01*
X141564179Y-108778287D01*
X141522768Y-108752862D01*
X141505019Y-108730014D01*
X141508893Y-108706745D01*
X141532357Y-108680056D01*
X141539373Y-108673914D01*
X141586370Y-108650100D01*
X141635067Y-108651103D01*
X141677478Y-108674451D01*
X141705616Y-108717675D01*
X141708231Y-108726160D01*
X141733692Y-108767308D01*
X141765999Y-108787128D01*
X141812714Y-108806770D01*
X141812714Y-108755950D01*
X141798504Y-108682082D01*
X141756325Y-108614327D01*
X141734376Y-108591661D01*
X141684483Y-108562569D01*
X141621033Y-108549400D01*
X141555256Y-108552968D01*
G36*
X141065074Y-108551755D02*
G01*
X140999142Y-108576084D01*
X140945727Y-108619117D01*
X140924836Y-108649409D01*
X140902061Y-108704994D01*
X140902534Y-108745186D01*
X140926438Y-108772217D01*
X140935283Y-108776813D01*
X140973470Y-108791144D01*
X140992972Y-108787472D01*
X140999578Y-108763407D01*
X140999914Y-108750114D01*
X141012008Y-108701210D01*
X141043529Y-108666999D01*
X141087341Y-108650476D01*
X141136305Y-108654634D01*
X141176106Y-108676227D01*
X141189550Y-108688544D01*
X141199079Y-108703487D01*
X141205515Y-108726075D01*
X141209683Y-108761328D01*
X141212403Y-108814266D01*
X141214498Y-108889907D01*
X141215040Y-108913857D01*
X141217019Y-108995790D01*
X141219269Y-109053455D01*
X141222643Y-109091608D01*
X141227994Y-109115004D01*
X141236176Y-109128398D01*
X141248041Y-109136545D01*
X141255638Y-109140144D01*
X141287898Y-109152452D01*
X141306889Y-109156514D01*
X141313164Y-109142948D01*
X141316994Y-109101934D01*
X141318400Y-109032999D01*
X141317402Y-108935669D01*
X141317092Y-108920657D01*
X141314899Y-108831859D01*
X141312307Y-108767019D01*
X141308618Y-108721067D01*
X141303136Y-108688935D01*
X141295165Y-108665553D01*
X141284007Y-108645852D01*
X141278170Y-108637410D01*
X141244704Y-108600057D01*
X141207273Y-108571003D01*
X141202691Y-108568467D01*
X141135574Y-108548443D01*
X141065074Y-108551755D01*
X141065074Y-108551755D01*
G37*
X141065074Y-108551755D02*
X140999142Y-108576084D01*
X140945727Y-108619117D01*
X140924836Y-108649409D01*
X140902061Y-108704994D01*
X140902534Y-108745186D01*
X140926438Y-108772217D01*
X140935283Y-108776813D01*
X140973470Y-108791144D01*
X140992972Y-108787472D01*
X140999578Y-108763407D01*
X140999914Y-108750114D01*
X141012008Y-108701210D01*
X141043529Y-108666999D01*
X141087341Y-108650476D01*
X141136305Y-108654634D01*
X141176106Y-108676227D01*
X141189550Y-108688544D01*
X141199079Y-108703487D01*
X141205515Y-108726075D01*
X141209683Y-108761328D01*
X141212403Y-108814266D01*
X141214498Y-108889907D01*
X141215040Y-108913857D01*
X141217019Y-108995790D01*
X141219269Y-109053455D01*
X141222643Y-109091608D01*
X141227994Y-109115004D01*
X141236176Y-109128398D01*
X141248041Y-109136545D01*
X141255638Y-109140144D01*
X141287898Y-109152452D01*
X141306889Y-109156514D01*
X141313164Y-109142948D01*
X141316994Y-109101934D01*
X141318400Y-109032999D01*
X141317402Y-108935669D01*
X141317092Y-108920657D01*
X141314899Y-108831859D01*
X141312307Y-108767019D01*
X141308618Y-108721067D01*
X141303136Y-108688935D01*
X141295165Y-108665553D01*
X141284007Y-108645852D01*
X141278170Y-108637410D01*
X141244704Y-108600057D01*
X141207273Y-108571003D01*
X141202691Y-108568467D01*
X141135574Y-108548443D01*
X141065074Y-108551755D01*
G36*
X140404883Y-108667358D02*
G01*
X140405067Y-108775837D01*
X140405781Y-108859287D01*
X140407325Y-108921704D01*
X140409999Y-108967085D01*
X140414106Y-108999429D01*
X140419945Y-109022733D01*
X140427818Y-109040995D01*
X140433779Y-109051418D01*
X140483145Y-109107945D01*
X140545736Y-109143377D01*
X140614987Y-109156090D01*
X140684332Y-109144463D01*
X140725625Y-109123568D01*
X140768975Y-109087422D01*
X140798519Y-109043276D01*
X140816345Y-108985462D01*
X140824537Y-108908313D01*
X140825698Y-108851714D01*
X140825542Y-108847647D01*
X140724143Y-108847647D01*
X140723524Y-108912550D01*
X140720686Y-108955514D01*
X140714160Y-108983622D01*
X140702477Y-109003953D01*
X140688517Y-109019288D01*
X140641635Y-109048890D01*
X140591299Y-109051419D01*
X140543724Y-109026705D01*
X140540021Y-109023356D01*
X140524217Y-109005935D01*
X140514307Y-108985209D01*
X140508942Y-108954362D01*
X140506772Y-108906577D01*
X140506429Y-108853748D01*
X140507173Y-108787381D01*
X140510252Y-108743106D01*
X140516939Y-108714009D01*
X140528504Y-108693173D01*
X140537987Y-108682107D01*
X140582040Y-108654198D01*
X140632776Y-108650843D01*
X140681204Y-108672159D01*
X140690550Y-108680073D01*
X140706460Y-108697647D01*
X140716390Y-108718587D01*
X140721722Y-108749782D01*
X140723837Y-108798122D01*
X140724143Y-108847647D01*
X140825542Y-108847647D01*
X140822190Y-108760568D01*
X140810274Y-108692086D01*
X140787865Y-108640600D01*
X140752876Y-108600443D01*
X140725625Y-108579861D01*
X140676093Y-108557625D01*
X140618684Y-108547304D01*
X140565318Y-108550067D01*
X140535457Y-108561212D01*
X140523739Y-108564383D01*
X140515963Y-108552557D01*
X140510535Y-108520866D01*
X140506429Y-108472593D01*
X140501933Y-108418829D01*
X140495687Y-108386482D01*
X140484324Y-108367985D01*
X140464472Y-108355770D01*
X140452000Y-108350362D01*
X140404829Y-108330601D01*
X140404883Y-108667358D01*
X140404883Y-108667358D01*
G37*
X140404883Y-108667358D02*
X140405067Y-108775837D01*
X140405781Y-108859287D01*
X140407325Y-108921704D01*
X140409999Y-108967085D01*
X140414106Y-108999429D01*
X140419945Y-109022733D01*
X140427818Y-109040995D01*
X140433779Y-109051418D01*
X140483145Y-109107945D01*
X140545736Y-109143377D01*
X140614987Y-109156090D01*
X140684332Y-109144463D01*
X140725625Y-109123568D01*
X140768975Y-109087422D01*
X140798519Y-109043276D01*
X140816345Y-108985462D01*
X140824537Y-108908313D01*
X140825698Y-108851714D01*
X140825542Y-108847647D01*
X140724143Y-108847647D01*
X140723524Y-108912550D01*
X140720686Y-108955514D01*
X140714160Y-108983622D01*
X140702477Y-109003953D01*
X140688517Y-109019288D01*
X140641635Y-109048890D01*
X140591299Y-109051419D01*
X140543724Y-109026705D01*
X140540021Y-109023356D01*
X140524217Y-109005935D01*
X140514307Y-108985209D01*
X140508942Y-108954362D01*
X140506772Y-108906577D01*
X140506429Y-108853748D01*
X140507173Y-108787381D01*
X140510252Y-108743106D01*
X140516939Y-108714009D01*
X140528504Y-108693173D01*
X140537987Y-108682107D01*
X140582040Y-108654198D01*
X140632776Y-108650843D01*
X140681204Y-108672159D01*
X140690550Y-108680073D01*
X140706460Y-108697647D01*
X140716390Y-108718587D01*
X140721722Y-108749782D01*
X140723837Y-108798122D01*
X140724143Y-108847647D01*
X140825542Y-108847647D01*
X140822190Y-108760568D01*
X140810274Y-108692086D01*
X140787865Y-108640600D01*
X140752876Y-108600443D01*
X140725625Y-108579861D01*
X140676093Y-108557625D01*
X140618684Y-108547304D01*
X140565318Y-108550067D01*
X140535457Y-108561212D01*
X140523739Y-108564383D01*
X140515963Y-108552557D01*
X140510535Y-108520866D01*
X140506429Y-108472593D01*
X140501933Y-108418829D01*
X140495687Y-108386482D01*
X140484324Y-108367985D01*
X140464472Y-108355770D01*
X140452000Y-108350362D01*
X140404829Y-108330601D01*
X140404883Y-108667358D01*
G36*
X139815167Y-108560663D02*
G01*
X139812952Y-108598850D01*
X139811216Y-108656886D01*
X139810101Y-108730180D01*
X139809743Y-108807055D01*
X139809743Y-109067196D01*
X139855674Y-109113127D01*
X139887325Y-109141429D01*
X139915110Y-109152893D01*
X139953085Y-109152168D01*
X139968160Y-109150321D01*
X140015274Y-109144948D01*
X140054244Y-109141869D01*
X140063743Y-109141585D01*
X140095767Y-109143445D01*
X140141568Y-109148114D01*
X140159326Y-109150321D01*
X140202943Y-109153735D01*
X140232255Y-109146320D01*
X140261320Y-109123427D01*
X140271812Y-109113127D01*
X140317743Y-109067196D01*
X140317743Y-108580602D01*
X140280774Y-108563758D01*
X140248941Y-108551282D01*
X140230317Y-108546914D01*
X140225542Y-108560718D01*
X140221079Y-108599286D01*
X140217225Y-108658356D01*
X140214278Y-108733663D01*
X140212857Y-108797286D01*
X140208886Y-109047657D01*
X140174241Y-109052556D01*
X140142732Y-109049131D01*
X140127292Y-109038041D01*
X140122977Y-109017308D01*
X140119292Y-108973145D01*
X140116531Y-108911146D01*
X140114988Y-108836909D01*
X140114765Y-108798706D01*
X140114543Y-108578783D01*
X140068834Y-108562849D01*
X140036482Y-108552015D01*
X140018885Y-108546962D01*
X140018377Y-108546914D01*
X140016612Y-108560648D01*
X140014671Y-108598730D01*
X140012718Y-108656482D01*
X140010916Y-108729227D01*
X140009657Y-108797286D01*
X140005686Y-109047657D01*
X139918600Y-109047657D01*
X139914604Y-108819240D01*
X139910608Y-108590822D01*
X139868153Y-108568868D01*
X139836808Y-108553793D01*
X139818256Y-108546951D01*
X139817721Y-108546914D01*
X139815167Y-108560663D01*
X139815167Y-108560663D01*
G37*
X139815167Y-108560663D02*
X139812952Y-108598850D01*
X139811216Y-108656886D01*
X139810101Y-108730180D01*
X139809743Y-108807055D01*
X139809743Y-109067196D01*
X139855674Y-109113127D01*
X139887325Y-109141429D01*
X139915110Y-109152893D01*
X139953085Y-109152168D01*
X139968160Y-109150321D01*
X140015274Y-109144948D01*
X140054244Y-109141869D01*
X140063743Y-109141585D01*
X140095767Y-109143445D01*
X140141568Y-109148114D01*
X140159326Y-109150321D01*
X140202943Y-109153735D01*
X140232255Y-109146320D01*
X140261320Y-109123427D01*
X140271812Y-109113127D01*
X140317743Y-109067196D01*
X140317743Y-108580602D01*
X140280774Y-108563758D01*
X140248941Y-108551282D01*
X140230317Y-108546914D01*
X140225542Y-108560718D01*
X140221079Y-108599286D01*
X140217225Y-108658356D01*
X140214278Y-108733663D01*
X140212857Y-108797286D01*
X140208886Y-109047657D01*
X140174241Y-109052556D01*
X140142732Y-109049131D01*
X140127292Y-109038041D01*
X140122977Y-109017308D01*
X140119292Y-108973145D01*
X140116531Y-108911146D01*
X140114988Y-108836909D01*
X140114765Y-108798706D01*
X140114543Y-108578783D01*
X140068834Y-108562849D01*
X140036482Y-108552015D01*
X140018885Y-108546962D01*
X140018377Y-108546914D01*
X140016612Y-108560648D01*
X140014671Y-108598730D01*
X140012718Y-108656482D01*
X140010916Y-108729227D01*
X140009657Y-108797286D01*
X140005686Y-109047657D01*
X139918600Y-109047657D01*
X139914604Y-108819240D01*
X139910608Y-108590822D01*
X139868153Y-108568868D01*
X139836808Y-108553793D01*
X139818256Y-108546951D01*
X139817721Y-108546914D01*
X139815167Y-108560663D01*
G36*
X139450124Y-108558335D02*
G01*
X139408333Y-108577344D01*
X139375531Y-108600378D01*
X139351497Y-108626133D01*
X139334903Y-108659358D01*
X139324423Y-108704800D01*
X139318729Y-108767207D01*
X139316493Y-108851327D01*
X139316257Y-108906721D01*
X139316257Y-109122826D01*
X139353226Y-109139670D01*
X139382344Y-109151981D01*
X139396769Y-109156514D01*
X139399528Y-109143025D01*
X139401718Y-109106653D01*
X139403058Y-109053542D01*
X139403343Y-109011372D01*
X139404566Y-108950447D01*
X139407864Y-108902115D01*
X139412679Y-108872518D01*
X139416504Y-108866229D01*
X139442217Y-108872652D01*
X139482582Y-108889125D01*
X139529321Y-108911458D01*
X139574155Y-108935457D01*
X139608807Y-108956930D01*
X139624998Y-108971685D01*
X139625062Y-108971845D01*
X139623670Y-108999152D01*
X139611182Y-109025219D01*
X139589257Y-109046392D01*
X139557257Y-109053474D01*
X139529908Y-109052649D01*
X139491174Y-109052042D01*
X139470842Y-109061116D01*
X139458631Y-109085092D01*
X139457091Y-109089613D01*
X139451797Y-109123806D01*
X139465953Y-109144568D01*
X139502852Y-109154462D01*
X139542711Y-109156292D01*
X139614438Y-109142727D01*
X139651568Y-109123355D01*
X139697424Y-109077845D01*
X139721744Y-109021983D01*
X139723927Y-108962957D01*
X139703371Y-108907953D01*
X139672451Y-108873486D01*
X139641580Y-108854189D01*
X139593058Y-108829759D01*
X139536515Y-108804985D01*
X139527090Y-108801199D01*
X139464981Y-108773791D01*
X139429178Y-108749634D01*
X139417663Y-108725619D01*
X139428420Y-108698635D01*
X139446886Y-108677543D01*
X139490531Y-108651572D01*
X139538554Y-108649624D01*
X139582594Y-108669637D01*
X139614291Y-108709551D01*
X139618451Y-108719848D01*
X139642673Y-108757724D01*
X139678035Y-108785842D01*
X139722657Y-108808917D01*
X139722657Y-108743485D01*
X139720031Y-108703506D01*
X139708770Y-108671997D01*
X139683801Y-108638378D01*
X139659831Y-108612484D01*
X139622559Y-108575817D01*
X139593599Y-108556121D01*
X139562495Y-108548220D01*
X139527287Y-108546914D01*
X139450124Y-108558335D01*
X139450124Y-108558335D01*
G37*
X139450124Y-108558335D02*
X139408333Y-108577344D01*
X139375531Y-108600378D01*
X139351497Y-108626133D01*
X139334903Y-108659358D01*
X139324423Y-108704800D01*
X139318729Y-108767207D01*
X139316493Y-108851327D01*
X139316257Y-108906721D01*
X139316257Y-109122826D01*
X139353226Y-109139670D01*
X139382344Y-109151981D01*
X139396769Y-109156514D01*
X139399528Y-109143025D01*
X139401718Y-109106653D01*
X139403058Y-109053542D01*
X139403343Y-109011372D01*
X139404566Y-108950447D01*
X139407864Y-108902115D01*
X139412679Y-108872518D01*
X139416504Y-108866229D01*
X139442217Y-108872652D01*
X139482582Y-108889125D01*
X139529321Y-108911458D01*
X139574155Y-108935457D01*
X139608807Y-108956930D01*
X139624998Y-108971685D01*
X139625062Y-108971845D01*
X139623670Y-108999152D01*
X139611182Y-109025219D01*
X139589257Y-109046392D01*
X139557257Y-109053474D01*
X139529908Y-109052649D01*
X139491174Y-109052042D01*
X139470842Y-109061116D01*
X139458631Y-109085092D01*
X139457091Y-109089613D01*
X139451797Y-109123806D01*
X139465953Y-109144568D01*
X139502852Y-109154462D01*
X139542711Y-109156292D01*
X139614438Y-109142727D01*
X139651568Y-109123355D01*
X139697424Y-109077845D01*
X139721744Y-109021983D01*
X139723927Y-108962957D01*
X139703371Y-108907953D01*
X139672451Y-108873486D01*
X139641580Y-108854189D01*
X139593058Y-108829759D01*
X139536515Y-108804985D01*
X139527090Y-108801199D01*
X139464981Y-108773791D01*
X139429178Y-108749634D01*
X139417663Y-108725619D01*
X139428420Y-108698635D01*
X139446886Y-108677543D01*
X139490531Y-108651572D01*
X139538554Y-108649624D01*
X139582594Y-108669637D01*
X139614291Y-108709551D01*
X139618451Y-108719848D01*
X139642673Y-108757724D01*
X139678035Y-108785842D01*
X139722657Y-108808917D01*
X139722657Y-108743485D01*
X139720031Y-108703506D01*
X139708770Y-108671997D01*
X139683801Y-108638378D01*
X139659831Y-108612484D01*
X139622559Y-108575817D01*
X139593599Y-108556121D01*
X139562495Y-108548220D01*
X139527287Y-108546914D01*
X139450124Y-108558335D01*
G36*
X138942400Y-108560752D02*
G01*
X138925052Y-108568334D01*
X138883644Y-108601128D01*
X138848235Y-108648547D01*
X138826336Y-108699151D01*
X138822771Y-108724098D01*
X138834721Y-108758927D01*
X138860933Y-108777357D01*
X138889036Y-108788516D01*
X138901905Y-108790572D01*
X138908171Y-108775649D01*
X138920544Y-108743175D01*
X138925972Y-108728502D01*
X138956410Y-108677744D01*
X139000480Y-108652427D01*
X139056990Y-108653206D01*
X139061175Y-108654203D01*
X139091345Y-108668507D01*
X139113524Y-108696393D01*
X139128673Y-108741287D01*
X139137750Y-108806615D01*
X139141714Y-108895804D01*
X139142086Y-108943261D01*
X139142270Y-109018071D01*
X139143478Y-109069069D01*
X139146691Y-109101471D01*
X139152891Y-109120495D01*
X139163060Y-109131356D01*
X139178181Y-109139272D01*
X139179054Y-109139670D01*
X139208172Y-109151981D01*
X139222597Y-109156514D01*
X139224814Y-109142809D01*
X139226711Y-109104925D01*
X139228153Y-109047715D01*
X139229002Y-108976027D01*
X139229171Y-108923565D01*
X139228308Y-108822047D01*
X139224930Y-108745032D01*
X139217858Y-108688023D01*
X139205912Y-108646526D01*
X139187910Y-108616043D01*
X139162673Y-108592080D01*
X139137753Y-108575355D01*
X139077829Y-108553097D01*
X139008089Y-108548076D01*
X138942400Y-108560752D01*
X138942400Y-108560752D01*
G37*
X138942400Y-108560752D02*
X138925052Y-108568334D01*
X138883644Y-108601128D01*
X138848235Y-108648547D01*
X138826336Y-108699151D01*
X138822771Y-108724098D01*
X138834721Y-108758927D01*
X138860933Y-108777357D01*
X138889036Y-108788516D01*
X138901905Y-108790572D01*
X138908171Y-108775649D01*
X138920544Y-108743175D01*
X138925972Y-108728502D01*
X138956410Y-108677744D01*
X139000480Y-108652427D01*
X139056990Y-108653206D01*
X139061175Y-108654203D01*
X139091345Y-108668507D01*
X139113524Y-108696393D01*
X139128673Y-108741287D01*
X139137750Y-108806615D01*
X139141714Y-108895804D01*
X139142086Y-108943261D01*
X139142270Y-109018071D01*
X139143478Y-109069069D01*
X139146691Y-109101471D01*
X139152891Y-109120495D01*
X139163060Y-109131356D01*
X139178181Y-109139272D01*
X139179054Y-109139670D01*
X139208172Y-109151981D01*
X139222597Y-109156514D01*
X139224814Y-109142809D01*
X139226711Y-109104925D01*
X139228153Y-109047715D01*
X139229002Y-108976027D01*
X139229171Y-108923565D01*
X139228308Y-108822047D01*
X139224930Y-108745032D01*
X139217858Y-108688023D01*
X139205912Y-108646526D01*
X139187910Y-108616043D01*
X139162673Y-108592080D01*
X139137753Y-108575355D01*
X139077829Y-108553097D01*
X139008089Y-108548076D01*
X138942400Y-108560752D01*
G36*
X138441405Y-108568966D02*
G01*
X138383979Y-108606497D01*
X138356281Y-108640096D01*
X138334338Y-108701064D01*
X138332595Y-108749308D01*
X138336543Y-108813816D01*
X138485314Y-108878934D01*
X138557651Y-108912202D01*
X138604916Y-108938964D01*
X138629493Y-108962144D01*
X138633763Y-108984667D01*
X138620111Y-109009455D01*
X138605057Y-109025886D01*
X138561254Y-109052235D01*
X138513611Y-109054081D01*
X138469855Y-109033546D01*
X138437711Y-108992752D01*
X138431962Y-108978347D01*
X138404424Y-108933356D01*
X138372742Y-108914182D01*
X138329286Y-108897779D01*
X138329286Y-108959966D01*
X138333128Y-109002283D01*
X138348177Y-109037969D01*
X138379720Y-109078943D01*
X138384408Y-109084267D01*
X138419494Y-109120720D01*
X138449653Y-109140283D01*
X138487385Y-109149283D01*
X138518665Y-109152230D01*
X138574615Y-109152965D01*
X138614445Y-109143660D01*
X138639292Y-109129846D01*
X138678344Y-109099467D01*
X138705375Y-109066613D01*
X138722483Y-109025294D01*
X138731762Y-108969521D01*
X138735307Y-108893305D01*
X138735590Y-108854622D01*
X138734628Y-108808247D01*
X138646993Y-108808247D01*
X138645977Y-108833126D01*
X138643444Y-108837200D01*
X138626726Y-108831665D01*
X138590751Y-108817017D01*
X138542669Y-108796190D01*
X138532614Y-108791714D01*
X138471848Y-108760814D01*
X138438368Y-108733657D01*
X138431010Y-108708220D01*
X138448609Y-108682481D01*
X138463144Y-108671109D01*
X138515590Y-108648364D01*
X138564678Y-108652122D01*
X138605773Y-108679884D01*
X138634242Y-108729152D01*
X138643369Y-108768257D01*
X138646993Y-108808247D01*
X138734628Y-108808247D01*
X138733715Y-108764249D01*
X138726804Y-108697384D01*
X138713116Y-108648695D01*
X138690904Y-108612849D01*
X138658426Y-108584513D01*
X138644267Y-108575355D01*
X138579947Y-108551507D01*
X138509527Y-108550006D01*
X138441405Y-108568966D01*
X138441405Y-108568966D01*
G37*
X138441405Y-108568966D02*
X138383979Y-108606497D01*
X138356281Y-108640096D01*
X138334338Y-108701064D01*
X138332595Y-108749308D01*
X138336543Y-108813816D01*
X138485314Y-108878934D01*
X138557651Y-108912202D01*
X138604916Y-108938964D01*
X138629493Y-108962144D01*
X138633763Y-108984667D01*
X138620111Y-109009455D01*
X138605057Y-109025886D01*
X138561254Y-109052235D01*
X138513611Y-109054081D01*
X138469855Y-109033546D01*
X138437711Y-108992752D01*
X138431962Y-108978347D01*
X138404424Y-108933356D01*
X138372742Y-108914182D01*
X138329286Y-108897779D01*
X138329286Y-108959966D01*
X138333128Y-109002283D01*
X138348177Y-109037969D01*
X138379720Y-109078943D01*
X138384408Y-109084267D01*
X138419494Y-109120720D01*
X138449653Y-109140283D01*
X138487385Y-109149283D01*
X138518665Y-109152230D01*
X138574615Y-109152965D01*
X138614445Y-109143660D01*
X138639292Y-109129846D01*
X138678344Y-109099467D01*
X138705375Y-109066613D01*
X138722483Y-109025294D01*
X138731762Y-108969521D01*
X138735307Y-108893305D01*
X138735590Y-108854622D01*
X138734628Y-108808247D01*
X138646993Y-108808247D01*
X138645977Y-108833126D01*
X138643444Y-108837200D01*
X138626726Y-108831665D01*
X138590751Y-108817017D01*
X138542669Y-108796190D01*
X138532614Y-108791714D01*
X138471848Y-108760814D01*
X138438368Y-108733657D01*
X138431010Y-108708220D01*
X138448609Y-108682481D01*
X138463144Y-108671109D01*
X138515590Y-108648364D01*
X138564678Y-108652122D01*
X138605773Y-108679884D01*
X138634242Y-108729152D01*
X138643369Y-108768257D01*
X138646993Y-108808247D01*
X138734628Y-108808247D01*
X138733715Y-108764249D01*
X138726804Y-108697384D01*
X138713116Y-108648695D01*
X138690904Y-108612849D01*
X138658426Y-108584513D01*
X138644267Y-108575355D01*
X138579947Y-108551507D01*
X138509527Y-108550006D01*
X138441405Y-108568966D01*
G36*
X141491090Y-103844348D02*
G01*
X141412546Y-103844778D01*
X141355702Y-103845942D01*
X141316895Y-103848207D01*
X141292462Y-103851940D01*
X141278738Y-103857506D01*
X141272060Y-103865273D01*
X141268764Y-103875605D01*
X141268444Y-103876943D01*
X141263438Y-103901079D01*
X141254171Y-103948701D01*
X141241608Y-104014741D01*
X141226713Y-104094128D01*
X141210449Y-104181796D01*
X141209881Y-104184875D01*
X141193590Y-104270789D01*
X141178348Y-104346696D01*
X141165139Y-104408045D01*
X141154946Y-104450282D01*
X141148752Y-104468855D01*
X141148457Y-104469184D01*
X141130212Y-104478253D01*
X141092595Y-104493367D01*
X141043729Y-104511262D01*
X141043457Y-104511358D01*
X140981907Y-104534493D01*
X140909343Y-104563965D01*
X140840943Y-104593597D01*
X140837706Y-104595062D01*
X140726298Y-104645626D01*
X140479601Y-104477160D01*
X140403923Y-104425803D01*
X140335369Y-104379889D01*
X140277912Y-104342030D01*
X140235524Y-104314837D01*
X140212175Y-104300921D01*
X140209958Y-104299889D01*
X140192990Y-104304484D01*
X140161299Y-104326655D01*
X140113648Y-104367447D01*
X140048802Y-104427905D01*
X139982603Y-104492227D01*
X139918786Y-104555612D01*
X139861671Y-104613451D01*
X139814695Y-104662175D01*
X139781297Y-104698210D01*
X139764915Y-104717984D01*
X139764306Y-104719002D01*
X139762495Y-104732572D01*
X139769317Y-104754733D01*
X139786460Y-104788478D01*
X139815607Y-104836800D01*
X139858445Y-104902692D01*
X139915552Y-104987517D01*
X139966234Y-105062177D01*
X140011539Y-105129140D01*
X140048850Y-105184516D01*
X140075548Y-105224420D01*
X140089015Y-105244962D01*
X140089863Y-105246356D01*
X140088219Y-105266038D01*
X140075755Y-105304293D01*
X140054952Y-105353889D01*
X140047538Y-105369728D01*
X140015186Y-105440290D01*
X139980672Y-105520353D01*
X139952635Y-105589629D01*
X139932432Y-105641045D01*
X139916385Y-105680119D01*
X139907112Y-105700541D01*
X139905959Y-105702114D01*
X139888904Y-105704721D01*
X139848702Y-105711863D01*
X139790698Y-105722523D01*
X139720237Y-105735685D01*
X139642665Y-105750333D01*
X139563328Y-105765449D01*
X139487569Y-105780018D01*
X139420736Y-105793022D01*
X139368172Y-105803445D01*
X139335224Y-105810270D01*
X139327143Y-105812199D01*
X139318795Y-105816962D01*
X139312494Y-105827718D01*
X139307955Y-105848098D01*
X139304896Y-105881734D01*
X139303033Y-105932255D01*
X139302082Y-106003292D01*
X139301760Y-106098476D01*
X139301743Y-106137492D01*
X139301743Y-106454799D01*
X139377943Y-106469839D01*
X139420337Y-106477995D01*
X139483600Y-106489899D01*
X139560038Y-106504116D01*
X139641957Y-106519210D01*
X139664600Y-106523355D01*
X139740194Y-106538053D01*
X139806047Y-106552505D01*
X139856634Y-106565375D01*
X139886426Y-106575322D01*
X139891388Y-106578287D01*
X139903574Y-106599283D01*
X139921047Y-106639967D01*
X139940423Y-106692322D01*
X139944266Y-106703600D01*
X139969661Y-106773523D01*
X140001183Y-106852418D01*
X140032031Y-106923266D01*
X140032183Y-106923595D01*
X140083553Y-107034733D01*
X139914601Y-107283253D01*
X139745648Y-107531772D01*
X139962571Y-107749058D01*
X140028181Y-107813726D01*
X140088021Y-107870733D01*
X140138733Y-107917033D01*
X140176954Y-107949584D01*
X140199325Y-107965343D01*
X140202534Y-107966343D01*
X140221374Y-107958469D01*
X140259820Y-107936578D01*
X140313670Y-107903267D01*
X140378724Y-107861131D01*
X140449060Y-107813943D01*
X140520445Y-107765810D01*
X140584092Y-107723928D01*
X140635959Y-107690871D01*
X140672005Y-107669218D01*
X140688133Y-107661543D01*
X140707811Y-107668037D01*
X140745125Y-107685150D01*
X140792379Y-107709326D01*
X140797388Y-107712013D01*
X140861023Y-107743927D01*
X140904659Y-107759579D01*
X140931798Y-107759745D01*
X140945943Y-107745204D01*
X140946025Y-107745000D01*
X140953095Y-107727779D01*
X140969958Y-107686899D01*
X140995305Y-107625525D01*
X141027829Y-107546819D01*
X141066222Y-107453947D01*
X141109178Y-107350072D01*
X141150778Y-107249502D01*
X141196496Y-107138516D01*
X141238474Y-107035703D01*
X141275452Y-106944215D01*
X141306173Y-106867201D01*
X141329378Y-106807815D01*
X141343810Y-106769209D01*
X141348257Y-106754800D01*
X141337104Y-106738272D01*
X141307931Y-106711930D01*
X141269029Y-106682887D01*
X141158243Y-106591039D01*
X141071649Y-106485759D01*
X141010284Y-106369266D01*
X140975185Y-106243776D01*
X140967392Y-106111507D01*
X140973057Y-106050457D01*
X141003922Y-105923795D01*
X141057080Y-105811941D01*
X141129233Y-105716001D01*
X141217083Y-105637076D01*
X141317335Y-105576270D01*
X141426690Y-105534687D01*
X141541853Y-105513428D01*
X141659525Y-105513599D01*
X141776410Y-105536301D01*
X141889211Y-105582638D01*
X141994631Y-105653713D01*
X142038632Y-105693911D01*
X142123021Y-105797129D01*
X142181778Y-105909925D01*
X142215296Y-106029010D01*
X142223965Y-106151095D01*
X142208177Y-106272893D01*
X142168322Y-106391116D01*
X142104793Y-106502475D01*
X142017979Y-106603684D01*
X141920971Y-106682887D01*
X141880563Y-106713162D01*
X141852018Y-106739219D01*
X141841743Y-106754825D01*
X141847123Y-106771843D01*
X141862425Y-106812500D01*
X141886388Y-106873642D01*
X141917756Y-106952119D01*
X141955268Y-107044780D01*
X141997667Y-107148472D01*
X142039337Y-107249526D01*
X142085310Y-107360607D01*
X142127893Y-107463541D01*
X142165779Y-107555165D01*
X142197660Y-107632316D01*
X142222229Y-107691831D01*
X142238180Y-107730544D01*
X142244090Y-107745000D01*
X142258052Y-107759685D01*
X142285060Y-107759642D01*
X142328587Y-107744099D01*
X142392110Y-107712284D01*
X142392612Y-107712013D01*
X142440440Y-107687323D01*
X142479103Y-107669338D01*
X142500905Y-107661614D01*
X142501867Y-107661543D01*
X142518279Y-107669378D01*
X142554513Y-107691165D01*
X142606526Y-107724328D01*
X142670275Y-107766291D01*
X142740940Y-107813943D01*
X142812884Y-107862191D01*
X142877726Y-107904151D01*
X142931265Y-107937227D01*
X142969303Y-107958821D01*
X142987467Y-107966343D01*
X143004192Y-107956457D01*
X143037820Y-107928826D01*
X143084990Y-107886495D01*
X143142342Y-107832505D01*
X143206516Y-107769899D01*
X143227503Y-107748983D01*
X143444501Y-107531623D01*
X143279332Y-107289220D01*
X143229136Y-107214781D01*
X143185081Y-107147972D01*
X143149638Y-107092665D01*
X143125281Y-107052729D01*
X143114478Y-107032036D01*
X143114162Y-107030563D01*
X143119857Y-107011058D01*
X143135174Y-106971822D01*
X143157463Y-106919430D01*
X143173107Y-106884355D01*
X143202359Y-106817201D01*
X143229906Y-106749358D01*
X143251263Y-106692034D01*
X143257065Y-106674572D01*
X143273548Y-106627938D01*
X143289660Y-106591905D01*
X143298510Y-106578287D01*
X143318040Y-106569952D01*
X143360666Y-106558137D01*
X143420855Y-106544181D01*
X143493078Y-106529422D01*
X143525400Y-106523355D01*
X143607478Y-106508273D01*
X143686205Y-106493669D01*
X143753891Y-106480980D01*
X143802840Y-106471642D01*
X143812057Y-106469839D01*
X143888257Y-106454799D01*
X143888257Y-106137492D01*
X143888086Y-106033154D01*
X143887384Y-105954213D01*
X143885866Y-105897038D01*
X143883251Y-105857999D01*
X143879254Y-105833465D01*
X143873591Y-105819805D01*
X143865980Y-105813389D01*
X143862857Y-105812199D01*
X143844022Y-105807980D01*
X143802412Y-105799562D01*
X143743370Y-105787961D01*
X143672243Y-105774195D01*
X143594375Y-105759280D01*
X143515113Y-105744232D01*
X143439802Y-105730069D01*
X143373787Y-105717806D01*
X143322413Y-105708461D01*
X143291025Y-105703050D01*
X143284041Y-105702114D01*
X143277715Y-105689596D01*
X143263710Y-105656246D01*
X143244645Y-105608377D01*
X143237366Y-105589629D01*
X143208004Y-105517195D01*
X143173429Y-105437170D01*
X143142463Y-105369728D01*
X143119677Y-105318159D01*
X143104518Y-105275785D01*
X143099458Y-105249834D01*
X143100264Y-105246356D01*
X143110959Y-105229936D01*
X143135380Y-105193417D01*
X143170905Y-105140687D01*
X143214913Y-105075635D01*
X143264783Y-105002151D01*
X143274644Y-104987645D01*
X143332508Y-104901704D01*
X143375044Y-104836261D01*
X143403946Y-104788304D01*
X143420910Y-104754820D01*
X143427633Y-104732795D01*
X143425810Y-104719217D01*
X143425764Y-104719131D01*
X143411414Y-104701297D01*
X143379677Y-104666817D01*
X143333990Y-104619268D01*
X143277796Y-104562222D01*
X143214532Y-104499255D01*
X143207398Y-104492227D01*
X143127670Y-104415020D01*
X143066143Y-104358330D01*
X143021579Y-104321110D01*
X142992743Y-104302315D01*
X142980042Y-104299889D01*
X142961506Y-104310471D01*
X142923039Y-104334916D01*
X142868614Y-104370612D01*
X142802202Y-104414947D01*
X142727775Y-104465311D01*
X142710399Y-104477160D01*
X142463703Y-104645626D01*
X142352294Y-104595062D01*
X142284543Y-104565595D01*
X142211817Y-104535959D01*
X142149297Y-104512330D01*
X142146543Y-104511358D01*
X142097640Y-104493457D01*
X142059943Y-104478320D01*
X142041575Y-104469210D01*
X142041544Y-104469184D01*
X142035715Y-104452717D01*
X142025808Y-104412219D01*
X142012805Y-104352242D01*
X141997691Y-104277340D01*
X141981448Y-104192064D01*
X141980119Y-104184875D01*
X141963825Y-104097014D01*
X141948867Y-104017260D01*
X141936209Y-103950681D01*
X141926814Y-103902347D01*
X141921646Y-103877325D01*
X141921556Y-103876943D01*
X141918411Y-103866299D01*
X141912296Y-103858262D01*
X141899547Y-103852467D01*
X141876500Y-103848547D01*
X141839491Y-103846135D01*
X141784856Y-103844865D01*
X141708933Y-103844371D01*
X141608056Y-103844286D01*
X141595000Y-103844286D01*
X141491090Y-103844348D01*
X141491090Y-103844348D01*
G37*
X141491090Y-103844348D02*
X141412546Y-103844778D01*
X141355702Y-103845942D01*
X141316895Y-103848207D01*
X141292462Y-103851940D01*
X141278738Y-103857506D01*
X141272060Y-103865273D01*
X141268764Y-103875605D01*
X141268444Y-103876943D01*
X141263438Y-103901079D01*
X141254171Y-103948701D01*
X141241608Y-104014741D01*
X141226713Y-104094128D01*
X141210449Y-104181796D01*
X141209881Y-104184875D01*
X141193590Y-104270789D01*
X141178348Y-104346696D01*
X141165139Y-104408045D01*
X141154946Y-104450282D01*
X141148752Y-104468855D01*
X141148457Y-104469184D01*
X141130212Y-104478253D01*
X141092595Y-104493367D01*
X141043729Y-104511262D01*
X141043457Y-104511358D01*
X140981907Y-104534493D01*
X140909343Y-104563965D01*
X140840943Y-104593597D01*
X140837706Y-104595062D01*
X140726298Y-104645626D01*
X140479601Y-104477160D01*
X140403923Y-104425803D01*
X140335369Y-104379889D01*
X140277912Y-104342030D01*
X140235524Y-104314837D01*
X140212175Y-104300921D01*
X140209958Y-104299889D01*
X140192990Y-104304484D01*
X140161299Y-104326655D01*
X140113648Y-104367447D01*
X140048802Y-104427905D01*
X139982603Y-104492227D01*
X139918786Y-104555612D01*
X139861671Y-104613451D01*
X139814695Y-104662175D01*
X139781297Y-104698210D01*
X139764915Y-104717984D01*
X139764306Y-104719002D01*
X139762495Y-104732572D01*
X139769317Y-104754733D01*
X139786460Y-104788478D01*
X139815607Y-104836800D01*
X139858445Y-104902692D01*
X139915552Y-104987517D01*
X139966234Y-105062177D01*
X140011539Y-105129140D01*
X140048850Y-105184516D01*
X140075548Y-105224420D01*
X140089015Y-105244962D01*
X140089863Y-105246356D01*
X140088219Y-105266038D01*
X140075755Y-105304293D01*
X140054952Y-105353889D01*
X140047538Y-105369728D01*
X140015186Y-105440290D01*
X139980672Y-105520353D01*
X139952635Y-105589629D01*
X139932432Y-105641045D01*
X139916385Y-105680119D01*
X139907112Y-105700541D01*
X139905959Y-105702114D01*
X139888904Y-105704721D01*
X139848702Y-105711863D01*
X139790698Y-105722523D01*
X139720237Y-105735685D01*
X139642665Y-105750333D01*
X139563328Y-105765449D01*
X139487569Y-105780018D01*
X139420736Y-105793022D01*
X139368172Y-105803445D01*
X139335224Y-105810270D01*
X139327143Y-105812199D01*
X139318795Y-105816962D01*
X139312494Y-105827718D01*
X139307955Y-105848098D01*
X139304896Y-105881734D01*
X139303033Y-105932255D01*
X139302082Y-106003292D01*
X139301760Y-106098476D01*
X139301743Y-106137492D01*
X139301743Y-106454799D01*
X139377943Y-106469839D01*
X139420337Y-106477995D01*
X139483600Y-106489899D01*
X139560038Y-106504116D01*
X139641957Y-106519210D01*
X139664600Y-106523355D01*
X139740194Y-106538053D01*
X139806047Y-106552505D01*
X139856634Y-106565375D01*
X139886426Y-106575322D01*
X139891388Y-106578287D01*
X139903574Y-106599283D01*
X139921047Y-106639967D01*
X139940423Y-106692322D01*
X139944266Y-106703600D01*
X139969661Y-106773523D01*
X140001183Y-106852418D01*
X140032031Y-106923266D01*
X140032183Y-106923595D01*
X140083553Y-107034733D01*
X139914601Y-107283253D01*
X139745648Y-107531772D01*
X139962571Y-107749058D01*
X140028181Y-107813726D01*
X140088021Y-107870733D01*
X140138733Y-107917033D01*
X140176954Y-107949584D01*
X140199325Y-107965343D01*
X140202534Y-107966343D01*
X140221374Y-107958469D01*
X140259820Y-107936578D01*
X140313670Y-107903267D01*
X140378724Y-107861131D01*
X140449060Y-107813943D01*
X140520445Y-107765810D01*
X140584092Y-107723928D01*
X140635959Y-107690871D01*
X140672005Y-107669218D01*
X140688133Y-107661543D01*
X140707811Y-107668037D01*
X140745125Y-107685150D01*
X140792379Y-107709326D01*
X140797388Y-107712013D01*
X140861023Y-107743927D01*
X140904659Y-107759579D01*
X140931798Y-107759745D01*
X140945943Y-107745204D01*
X140946025Y-107745000D01*
X140953095Y-107727779D01*
X140969958Y-107686899D01*
X140995305Y-107625525D01*
X141027829Y-107546819D01*
X141066222Y-107453947D01*
X141109178Y-107350072D01*
X141150778Y-107249502D01*
X141196496Y-107138516D01*
X141238474Y-107035703D01*
X141275452Y-106944215D01*
X141306173Y-106867201D01*
X141329378Y-106807815D01*
X141343810Y-106769209D01*
X141348257Y-106754800D01*
X141337104Y-106738272D01*
X141307931Y-106711930D01*
X141269029Y-106682887D01*
X141158243Y-106591039D01*
X141071649Y-106485759D01*
X141010284Y-106369266D01*
X140975185Y-106243776D01*
X140967392Y-106111507D01*
X140973057Y-106050457D01*
X141003922Y-105923795D01*
X141057080Y-105811941D01*
X141129233Y-105716001D01*
X141217083Y-105637076D01*
X141317335Y-105576270D01*
X141426690Y-105534687D01*
X141541853Y-105513428D01*
X141659525Y-105513599D01*
X141776410Y-105536301D01*
X141889211Y-105582638D01*
X141994631Y-105653713D01*
X142038632Y-105693911D01*
X142123021Y-105797129D01*
X142181778Y-105909925D01*
X142215296Y-106029010D01*
X142223965Y-106151095D01*
X142208177Y-106272893D01*
X142168322Y-106391116D01*
X142104793Y-106502475D01*
X142017979Y-106603684D01*
X141920971Y-106682887D01*
X141880563Y-106713162D01*
X141852018Y-106739219D01*
X141841743Y-106754825D01*
X141847123Y-106771843D01*
X141862425Y-106812500D01*
X141886388Y-106873642D01*
X141917756Y-106952119D01*
X141955268Y-107044780D01*
X141997667Y-107148472D01*
X142039337Y-107249526D01*
X142085310Y-107360607D01*
X142127893Y-107463541D01*
X142165779Y-107555165D01*
X142197660Y-107632316D01*
X142222229Y-107691831D01*
X142238180Y-107730544D01*
X142244090Y-107745000D01*
X142258052Y-107759685D01*
X142285060Y-107759642D01*
X142328587Y-107744099D01*
X142392110Y-107712284D01*
X142392612Y-107712013D01*
X142440440Y-107687323D01*
X142479103Y-107669338D01*
X142500905Y-107661614D01*
X142501867Y-107661543D01*
X142518279Y-107669378D01*
X142554513Y-107691165D01*
X142606526Y-107724328D01*
X142670275Y-107766291D01*
X142740940Y-107813943D01*
X142812884Y-107862191D01*
X142877726Y-107904151D01*
X142931265Y-107937227D01*
X142969303Y-107958821D01*
X142987467Y-107966343D01*
X143004192Y-107956457D01*
X143037820Y-107928826D01*
X143084990Y-107886495D01*
X143142342Y-107832505D01*
X143206516Y-107769899D01*
X143227503Y-107748983D01*
X143444501Y-107531623D01*
X143279332Y-107289220D01*
X143229136Y-107214781D01*
X143185081Y-107147972D01*
X143149638Y-107092665D01*
X143125281Y-107052729D01*
X143114478Y-107032036D01*
X143114162Y-107030563D01*
X143119857Y-107011058D01*
X143135174Y-106971822D01*
X143157463Y-106919430D01*
X143173107Y-106884355D01*
X143202359Y-106817201D01*
X143229906Y-106749358D01*
X143251263Y-106692034D01*
X143257065Y-106674572D01*
X143273548Y-106627938D01*
X143289660Y-106591905D01*
X143298510Y-106578287D01*
X143318040Y-106569952D01*
X143360666Y-106558137D01*
X143420855Y-106544181D01*
X143493078Y-106529422D01*
X143525400Y-106523355D01*
X143607478Y-106508273D01*
X143686205Y-106493669D01*
X143753891Y-106480980D01*
X143802840Y-106471642D01*
X143812057Y-106469839D01*
X143888257Y-106454799D01*
X143888257Y-106137492D01*
X143888086Y-106033154D01*
X143887384Y-105954213D01*
X143885866Y-105897038D01*
X143883251Y-105857999D01*
X143879254Y-105833465D01*
X143873591Y-105819805D01*
X143865980Y-105813389D01*
X143862857Y-105812199D01*
X143844022Y-105807980D01*
X143802412Y-105799562D01*
X143743370Y-105787961D01*
X143672243Y-105774195D01*
X143594375Y-105759280D01*
X143515113Y-105744232D01*
X143439802Y-105730069D01*
X143373787Y-105717806D01*
X143322413Y-105708461D01*
X143291025Y-105703050D01*
X143284041Y-105702114D01*
X143277715Y-105689596D01*
X143263710Y-105656246D01*
X143244645Y-105608377D01*
X143237366Y-105589629D01*
X143208004Y-105517195D01*
X143173429Y-105437170D01*
X143142463Y-105369728D01*
X143119677Y-105318159D01*
X143104518Y-105275785D01*
X143099458Y-105249834D01*
X143100264Y-105246356D01*
X143110959Y-105229936D01*
X143135380Y-105193417D01*
X143170905Y-105140687D01*
X143214913Y-105075635D01*
X143264783Y-105002151D01*
X143274644Y-104987645D01*
X143332508Y-104901704D01*
X143375044Y-104836261D01*
X143403946Y-104788304D01*
X143420910Y-104754820D01*
X143427633Y-104732795D01*
X143425810Y-104719217D01*
X143425764Y-104719131D01*
X143411414Y-104701297D01*
X143379677Y-104666817D01*
X143333990Y-104619268D01*
X143277796Y-104562222D01*
X143214532Y-104499255D01*
X143207398Y-104492227D01*
X143127670Y-104415020D01*
X143066143Y-104358330D01*
X143021579Y-104321110D01*
X142992743Y-104302315D01*
X142980042Y-104299889D01*
X142961506Y-104310471D01*
X142923039Y-104334916D01*
X142868614Y-104370612D01*
X142802202Y-104414947D01*
X142727775Y-104465311D01*
X142710399Y-104477160D01*
X142463703Y-104645626D01*
X142352294Y-104595062D01*
X142284543Y-104565595D01*
X142211817Y-104535959D01*
X142149297Y-104512330D01*
X142146543Y-104511358D01*
X142097640Y-104493457D01*
X142059943Y-104478320D01*
X142041575Y-104469210D01*
X142041544Y-104469184D01*
X142035715Y-104452717D01*
X142025808Y-104412219D01*
X142012805Y-104352242D01*
X141997691Y-104277340D01*
X141981448Y-104192064D01*
X141980119Y-104184875D01*
X141963825Y-104097014D01*
X141948867Y-104017260D01*
X141936209Y-103950681D01*
X141926814Y-103902347D01*
X141921646Y-103877325D01*
X141921556Y-103876943D01*
X141918411Y-103866299D01*
X141912296Y-103858262D01*
X141899547Y-103852467D01*
X141876500Y-103848547D01*
X141839491Y-103846135D01*
X141784856Y-103844865D01*
X141708933Y-103844371D01*
X141608056Y-103844286D01*
X141595000Y-103844286D01*
X141491090Y-103844348D01*
D18*
X142702308Y-76877028D02*
X142702308Y-75875088D01*
X142368328Y-76590760D01*
X142034348Y-75875088D01*
X142034348Y-76877028D01*
X141557234Y-76877028D02*
X141557234Y-75875088D01*
X141318677Y-75875088D01*
X141175542Y-75922800D01*
X141080120Y-76018222D01*
X141032408Y-76113645D01*
X140984697Y-76304491D01*
X140984697Y-76447625D01*
X141032408Y-76638471D01*
X141080120Y-76733894D01*
X141175542Y-76829317D01*
X141318677Y-76877028D01*
X141557234Y-76877028D01*
X140555294Y-76495337D02*
X139791911Y-76495337D01*
X139267085Y-76877028D02*
X139076240Y-76877028D01*
X138980817Y-76829317D01*
X138933105Y-76781605D01*
X138837682Y-76638471D01*
X138789971Y-76447625D01*
X138789971Y-76065934D01*
X138837682Y-75970511D01*
X138885394Y-75922800D01*
X138980817Y-75875088D01*
X139171662Y-75875088D01*
X139267085Y-75922800D01*
X139314797Y-75970511D01*
X139362508Y-76065934D01*
X139362508Y-76304491D01*
X139314797Y-76399914D01*
X139267085Y-76447625D01*
X139171662Y-76495337D01*
X138980817Y-76495337D01*
X138885394Y-76447625D01*
X138837682Y-76399914D01*
X138789971Y-76304491D01*
X138169722Y-75875088D02*
X138074300Y-75875088D01*
X137978877Y-75922800D01*
X137931165Y-75970511D01*
X137883454Y-76065934D01*
X137835742Y-76256780D01*
X137835742Y-76495337D01*
X137883454Y-76686182D01*
X137931165Y-76781605D01*
X137978877Y-76829317D01*
X138074300Y-76877028D01*
X138169722Y-76877028D01*
X138265145Y-76829317D01*
X138312857Y-76781605D01*
X138360568Y-76686182D01*
X138408280Y-76495337D01*
X138408280Y-76256780D01*
X138360568Y-76065934D01*
X138312857Y-75970511D01*
X138265145Y-75922800D01*
X138169722Y-75875088D01*
X137454051Y-76829317D02*
X137310917Y-76877028D01*
X137072360Y-76877028D01*
X136976937Y-76829317D01*
X136929225Y-76781605D01*
X136881514Y-76686182D01*
X136881514Y-76590760D01*
X136929225Y-76495337D01*
X136976937Y-76447625D01*
X137072360Y-76399914D01*
X137263205Y-76352202D01*
X137358628Y-76304491D01*
X137406340Y-76256780D01*
X137454051Y-76161357D01*
X137454051Y-76065934D01*
X137406340Y-75970511D01*
X137358628Y-75922800D01*
X137263205Y-75875088D01*
X137024648Y-75875088D01*
X136881514Y-75922800D01*
X136452111Y-76877028D02*
X136452111Y-75875088D01*
X136118131Y-76590760D01*
X135784151Y-75875088D01*
X135784151Y-76877028D01*
M02*
