G04 #@! TF.GenerationSoftware,KiCad,Pcbnew,(5.1.0)-1*
G04 #@! TF.CreationDate,2019-03-23T07:31:29-07:00*
G04 #@! TF.ProjectId,triple-bypass-aio,74726970-6c65-42d6-9279-706173732d61,0.4*
G04 #@! TF.SameCoordinates,Original*
G04 #@! TF.FileFunction,Legend,Top*
G04 #@! TF.FilePolarity,Positive*
%FSLAX46Y46*%
G04 Gerber Fmt 4.6, Leading zero omitted, Abs format (unit mm)*
G04 Created by KiCad (PCBNEW (5.1.0)-1) date 2019-03-23 07:31:29*
%MOMM*%
%LPD*%
G04 APERTURE LIST*
%ADD10C,0.100000*%
%ADD11C,0.150000*%
%ADD12C,0.300000*%
%ADD13C,0.400000*%
%ADD14C,0.250000*%
%ADD15C,0.200000*%
%ADD16C,0.312500*%
%ADD17C,0.203200*%
%ADD18C,0.120000*%
G04 APERTURE END LIST*
D10*
D11*
X159400000Y-171900000D02*
X159400000Y-203900000D01*
X267400000Y-203900000D01*
X267400000Y-171900000D01*
X159400000Y-171900000D01*
D10*
D11*
X10000000Y-10000000D02*
X10000000Y-205900000D01*
X269400000Y-205900000D01*
X269400000Y-10000000D01*
X10000000Y-10000000D01*
D10*
D11*
X12000000Y-12000000D02*
X12000000Y-203900000D01*
X267400000Y-203900000D01*
X267400000Y-12000000D01*
X12000000Y-12000000D01*
D10*
D11*
X60000000Y-12000000D02*
X60000000Y-10000000D01*
D10*
D11*
X110000000Y-12000000D02*
X110000000Y-10000000D01*
D10*
D11*
X160000000Y-12000000D02*
X160000000Y-10000000D01*
D10*
D11*
X210000000Y-12000000D02*
X210000000Y-10000000D01*
D10*
D11*
X260000000Y-12000000D02*
X260000000Y-10000000D01*
D10*
D11*
X36065476Y-11588095D02*
X35322619Y-11588095D01*
X35694047Y-11588095D02*
X35694047Y-10288095D01*
X35570238Y-10473809D01*
X35446428Y-10597619D01*
X35322619Y-10659523D01*
D10*
D11*
X85322619Y-10411904D02*
X85384523Y-10350000D01*
X85508333Y-10288095D01*
X85817857Y-10288095D01*
X85941666Y-10350000D01*
X86003571Y-10411904D01*
X86065476Y-10535714D01*
X86065476Y-10659523D01*
X86003571Y-10845238D01*
X85260714Y-11588095D01*
X86065476Y-11588095D01*
D10*
D11*
X135260714Y-10288095D02*
X136065476Y-10288095D01*
X135632142Y-10783333D01*
X135817857Y-10783333D01*
X135941666Y-10845238D01*
X136003571Y-10907142D01*
X136065476Y-11030952D01*
X136065476Y-11340476D01*
X136003571Y-11464285D01*
X135941666Y-11526190D01*
X135817857Y-11588095D01*
X135446428Y-11588095D01*
X135322619Y-11526190D01*
X135260714Y-11464285D01*
D10*
D11*
X185941666Y-10721428D02*
X185941666Y-11588095D01*
X185632142Y-10226190D02*
X185322619Y-11154761D01*
X186127380Y-11154761D01*
D10*
D11*
X236003571Y-10288095D02*
X235384523Y-10288095D01*
X235322619Y-10907142D01*
X235384523Y-10845238D01*
X235508333Y-10783333D01*
X235817857Y-10783333D01*
X235941666Y-10845238D01*
X236003571Y-10907142D01*
X236065476Y-11030952D01*
X236065476Y-11340476D01*
X236003571Y-11464285D01*
X235941666Y-11526190D01*
X235817857Y-11588095D01*
X235508333Y-11588095D01*
X235384523Y-11526190D01*
X235322619Y-11464285D01*
D10*
D11*
X60000000Y-203900000D02*
X60000000Y-205900000D01*
D10*
D11*
X110000000Y-203900000D02*
X110000000Y-205900000D01*
D10*
D11*
X160000000Y-203900000D02*
X160000000Y-205900000D01*
D10*
D11*
X210000000Y-203900000D02*
X210000000Y-205900000D01*
D10*
D11*
X260000000Y-203900000D02*
X260000000Y-205900000D01*
D10*
D11*
X36065476Y-205488095D02*
X35322619Y-205488095D01*
X35694047Y-205488095D02*
X35694047Y-204188095D01*
X35570238Y-204373809D01*
X35446428Y-204497619D01*
X35322619Y-204559523D01*
D10*
D11*
X85322619Y-204311904D02*
X85384523Y-204250000D01*
X85508333Y-204188095D01*
X85817857Y-204188095D01*
X85941666Y-204250000D01*
X86003571Y-204311904D01*
X86065476Y-204435714D01*
X86065476Y-204559523D01*
X86003571Y-204745238D01*
X85260714Y-205488095D01*
X86065476Y-205488095D01*
D10*
D11*
X135260714Y-204188095D02*
X136065476Y-204188095D01*
X135632142Y-204683333D01*
X135817857Y-204683333D01*
X135941666Y-204745238D01*
X136003571Y-204807142D01*
X136065476Y-204930952D01*
X136065476Y-205240476D01*
X136003571Y-205364285D01*
X135941666Y-205426190D01*
X135817857Y-205488095D01*
X135446428Y-205488095D01*
X135322619Y-205426190D01*
X135260714Y-205364285D01*
D10*
D11*
X185941666Y-204621428D02*
X185941666Y-205488095D01*
X185632142Y-204126190D02*
X185322619Y-205054761D01*
X186127380Y-205054761D01*
D10*
D11*
X236003571Y-204188095D02*
X235384523Y-204188095D01*
X235322619Y-204807142D01*
X235384523Y-204745238D01*
X235508333Y-204683333D01*
X235817857Y-204683333D01*
X235941666Y-204745238D01*
X236003571Y-204807142D01*
X236065476Y-204930952D01*
X236065476Y-205240476D01*
X236003571Y-205364285D01*
X235941666Y-205426190D01*
X235817857Y-205488095D01*
X235508333Y-205488095D01*
X235384523Y-205426190D01*
X235322619Y-205364285D01*
D10*
D11*
X10000000Y-60000000D02*
X12000000Y-60000000D01*
D10*
D11*
X10000000Y-110000000D02*
X12000000Y-110000000D01*
D10*
D11*
X10000000Y-160000000D02*
X12000000Y-160000000D01*
D10*
D11*
X10690476Y-35216666D02*
X11309523Y-35216666D01*
X10566666Y-35588095D02*
X11000000Y-34288095D01*
X11433333Y-35588095D01*
D10*
D11*
X11092857Y-84907142D02*
X11278571Y-84969047D01*
X11340476Y-85030952D01*
X11402380Y-85154761D01*
X11402380Y-85340476D01*
X11340476Y-85464285D01*
X11278571Y-85526190D01*
X11154761Y-85588095D01*
X10659523Y-85588095D01*
X10659523Y-84288095D01*
X11092857Y-84288095D01*
X11216666Y-84350000D01*
X11278571Y-84411904D01*
X11340476Y-84535714D01*
X11340476Y-84659523D01*
X11278571Y-84783333D01*
X11216666Y-84845238D01*
X11092857Y-84907142D01*
X10659523Y-84907142D01*
D10*
D11*
X11402380Y-135464285D02*
X11340476Y-135526190D01*
X11154761Y-135588095D01*
X11030952Y-135588095D01*
X10845238Y-135526190D01*
X10721428Y-135402380D01*
X10659523Y-135278571D01*
X10597619Y-135030952D01*
X10597619Y-134845238D01*
X10659523Y-134597619D01*
X10721428Y-134473809D01*
X10845238Y-134350000D01*
X11030952Y-134288095D01*
X11154761Y-134288095D01*
X11340476Y-134350000D01*
X11402380Y-134411904D01*
D10*
D11*
X10659523Y-185588095D02*
X10659523Y-184288095D01*
X10969047Y-184288095D01*
X11154761Y-184350000D01*
X11278571Y-184473809D01*
X11340476Y-184597619D01*
X11402380Y-184845238D01*
X11402380Y-185030952D01*
X11340476Y-185278571D01*
X11278571Y-185402380D01*
X11154761Y-185526190D01*
X10969047Y-185588095D01*
X10659523Y-185588095D01*
D10*
D11*
X269400000Y-60000000D02*
X267400000Y-60000000D01*
D10*
D11*
X269400000Y-110000000D02*
X267400000Y-110000000D01*
D10*
D11*
X269400000Y-160000000D02*
X267400000Y-160000000D01*
D10*
D11*
X268090476Y-35216666D02*
X268709523Y-35216666D01*
X267966666Y-35588095D02*
X268400000Y-34288095D01*
X268833333Y-35588095D01*
D10*
D11*
X268492857Y-84907142D02*
X268678571Y-84969047D01*
X268740476Y-85030952D01*
X268802380Y-85154761D01*
X268802380Y-85340476D01*
X268740476Y-85464285D01*
X268678571Y-85526190D01*
X268554761Y-85588095D01*
X268059523Y-85588095D01*
X268059523Y-84288095D01*
X268492857Y-84288095D01*
X268616666Y-84350000D01*
X268678571Y-84411904D01*
X268740476Y-84535714D01*
X268740476Y-84659523D01*
X268678571Y-84783333D01*
X268616666Y-84845238D01*
X268492857Y-84907142D01*
X268059523Y-84907142D01*
D10*
D11*
X268802380Y-135464285D02*
X268740476Y-135526190D01*
X268554761Y-135588095D01*
X268430952Y-135588095D01*
X268245238Y-135526190D01*
X268121428Y-135402380D01*
X268059523Y-135278571D01*
X267997619Y-135030952D01*
X267997619Y-134845238D01*
X268059523Y-134597619D01*
X268121428Y-134473809D01*
X268245238Y-134350000D01*
X268430952Y-134288095D01*
X268554761Y-134288095D01*
X268740476Y-134350000D01*
X268802380Y-134411904D01*
D10*
D11*
X268059523Y-185588095D02*
X268059523Y-184288095D01*
X268369047Y-184288095D01*
X268554761Y-184350000D01*
X268678571Y-184473809D01*
X268740476Y-184597619D01*
X268802380Y-184845238D01*
X268802380Y-185030952D01*
X268740476Y-185278571D01*
X268678571Y-185402380D01*
X268554761Y-185526190D01*
X268369047Y-185588095D01*
X268059523Y-185588095D01*
D10*
D11*
X182832142Y-199678571D02*
X182832142Y-198178571D01*
X183189285Y-198178571D01*
X183403571Y-198250000D01*
X183546428Y-198392857D01*
X183617857Y-198535714D01*
X183689285Y-198821428D01*
X183689285Y-199035714D01*
X183617857Y-199321428D01*
X183546428Y-199464285D01*
X183403571Y-199607142D01*
X183189285Y-199678571D01*
X182832142Y-199678571D01*
X184975000Y-199678571D02*
X184975000Y-198892857D01*
X184903571Y-198750000D01*
X184760714Y-198678571D01*
X184475000Y-198678571D01*
X184332142Y-198750000D01*
X184975000Y-199607142D02*
X184832142Y-199678571D01*
X184475000Y-199678571D01*
X184332142Y-199607142D01*
X184260714Y-199464285D01*
X184260714Y-199321428D01*
X184332142Y-199178571D01*
X184475000Y-199107142D01*
X184832142Y-199107142D01*
X184975000Y-199035714D01*
X185475000Y-198678571D02*
X186046428Y-198678571D01*
X185689285Y-198178571D02*
X185689285Y-199464285D01*
X185760714Y-199607142D01*
X185903571Y-199678571D01*
X186046428Y-199678571D01*
X187117857Y-199607142D02*
X186975000Y-199678571D01*
X186689285Y-199678571D01*
X186546428Y-199607142D01*
X186475000Y-199464285D01*
X186475000Y-198892857D01*
X186546428Y-198750000D01*
X186689285Y-198678571D01*
X186975000Y-198678571D01*
X187117857Y-198750000D01*
X187189285Y-198892857D01*
X187189285Y-199035714D01*
X186475000Y-199178571D01*
X187832142Y-199535714D02*
X187903571Y-199607142D01*
X187832142Y-199678571D01*
X187760714Y-199607142D01*
X187832142Y-199535714D01*
X187832142Y-199678571D01*
X187832142Y-198750000D02*
X187903571Y-198821428D01*
X187832142Y-198892857D01*
X187760714Y-198821428D01*
X187832142Y-198750000D01*
X187832142Y-198892857D01*
X189617857Y-198321428D02*
X189689285Y-198250000D01*
X189832142Y-198178571D01*
X190189285Y-198178571D01*
X190332142Y-198250000D01*
X190403571Y-198321428D01*
X190475000Y-198464285D01*
X190475000Y-198607142D01*
X190403571Y-198821428D01*
X189546428Y-199678571D01*
X190475000Y-199678571D01*
X191403571Y-198178571D02*
X191546428Y-198178571D01*
X191689285Y-198250000D01*
X191760714Y-198321428D01*
X191832142Y-198464285D01*
X191903571Y-198750000D01*
X191903571Y-199107142D01*
X191832142Y-199392857D01*
X191760714Y-199535714D01*
X191689285Y-199607142D01*
X191546428Y-199678571D01*
X191403571Y-199678571D01*
X191260714Y-199607142D01*
X191189285Y-199535714D01*
X191117857Y-199392857D01*
X191046428Y-199107142D01*
X191046428Y-198750000D01*
X191117857Y-198464285D01*
X191189285Y-198321428D01*
X191260714Y-198250000D01*
X191403571Y-198178571D01*
X193332142Y-199678571D02*
X192475000Y-199678571D01*
X192903571Y-199678571D02*
X192903571Y-198178571D01*
X192760714Y-198392857D01*
X192617857Y-198535714D01*
X192475000Y-198607142D01*
X194046428Y-199678571D02*
X194332142Y-199678571D01*
X194475000Y-199607142D01*
X194546428Y-199535714D01*
X194689285Y-199321428D01*
X194760714Y-199035714D01*
X194760714Y-198464285D01*
X194689285Y-198321428D01*
X194617857Y-198250000D01*
X194475000Y-198178571D01*
X194189285Y-198178571D01*
X194046428Y-198250000D01*
X193975000Y-198321428D01*
X193903571Y-198464285D01*
X193903571Y-198821428D01*
X193975000Y-198964285D01*
X194046428Y-199035714D01*
X194189285Y-199107142D01*
X194475000Y-199107142D01*
X194617857Y-199035714D01*
X194689285Y-198964285D01*
X194760714Y-198821428D01*
X195403571Y-199107142D02*
X196546428Y-199107142D01*
X197546428Y-198178571D02*
X197689285Y-198178571D01*
X197832142Y-198250000D01*
X197903571Y-198321428D01*
X197975000Y-198464285D01*
X198046428Y-198750000D01*
X198046428Y-199107142D01*
X197975000Y-199392857D01*
X197903571Y-199535714D01*
X197832142Y-199607142D01*
X197689285Y-199678571D01*
X197546428Y-199678571D01*
X197403571Y-199607142D01*
X197332142Y-199535714D01*
X197260714Y-199392857D01*
X197189285Y-199107142D01*
X197189285Y-198750000D01*
X197260714Y-198464285D01*
X197332142Y-198321428D01*
X197403571Y-198250000D01*
X197546428Y-198178571D01*
X198546428Y-198178571D02*
X199475000Y-198178571D01*
X198975000Y-198750000D01*
X199189285Y-198750000D01*
X199332142Y-198821428D01*
X199403571Y-198892857D01*
X199475000Y-199035714D01*
X199475000Y-199392857D01*
X199403571Y-199535714D01*
X199332142Y-199607142D01*
X199189285Y-199678571D01*
X198760714Y-199678571D01*
X198617857Y-199607142D01*
X198546428Y-199535714D01*
X200117857Y-199107142D02*
X201260714Y-199107142D01*
X201903571Y-198321428D02*
X201975000Y-198250000D01*
X202117857Y-198178571D01*
X202475000Y-198178571D01*
X202617857Y-198250000D01*
X202689285Y-198321428D01*
X202760714Y-198464285D01*
X202760714Y-198607142D01*
X202689285Y-198821428D01*
X201832142Y-199678571D01*
X202760714Y-199678571D01*
X203260714Y-198178571D02*
X204189285Y-198178571D01*
X203689285Y-198750000D01*
X203903571Y-198750000D01*
X204046428Y-198821428D01*
X204117857Y-198892857D01*
X204189285Y-199035714D01*
X204189285Y-199392857D01*
X204117857Y-199535714D01*
X204046428Y-199607142D01*
X203903571Y-199678571D01*
X203475000Y-199678571D01*
X203332142Y-199607142D01*
X203260714Y-199535714D01*
D10*
D11*
X159400000Y-200400000D02*
X267400000Y-200400000D01*
D10*
D11*
X160832142Y-202478571D02*
X160832142Y-200978571D01*
X161689285Y-202478571D02*
X161046428Y-201621428D01*
X161689285Y-200978571D02*
X160832142Y-201835714D01*
X162332142Y-202478571D02*
X162332142Y-201478571D01*
X162332142Y-200978571D02*
X162260714Y-201050000D01*
X162332142Y-201121428D01*
X162403571Y-201050000D01*
X162332142Y-200978571D01*
X162332142Y-201121428D01*
X163903571Y-202335714D02*
X163832142Y-202407142D01*
X163617857Y-202478571D01*
X163475000Y-202478571D01*
X163260714Y-202407142D01*
X163117857Y-202264285D01*
X163046428Y-202121428D01*
X162975000Y-201835714D01*
X162975000Y-201621428D01*
X163046428Y-201335714D01*
X163117857Y-201192857D01*
X163260714Y-201050000D01*
X163475000Y-200978571D01*
X163617857Y-200978571D01*
X163832142Y-201050000D01*
X163903571Y-201121428D01*
X165189285Y-202478571D02*
X165189285Y-201692857D01*
X165117857Y-201550000D01*
X164975000Y-201478571D01*
X164689285Y-201478571D01*
X164546428Y-201550000D01*
X165189285Y-202407142D02*
X165046428Y-202478571D01*
X164689285Y-202478571D01*
X164546428Y-202407142D01*
X164475000Y-202264285D01*
X164475000Y-202121428D01*
X164546428Y-201978571D01*
X164689285Y-201907142D01*
X165046428Y-201907142D01*
X165189285Y-201835714D01*
X166546428Y-202478571D02*
X166546428Y-200978571D01*
X166546428Y-202407142D02*
X166403571Y-202478571D01*
X166117857Y-202478571D01*
X165975000Y-202407142D01*
X165903571Y-202335714D01*
X165832142Y-202192857D01*
X165832142Y-201764285D01*
X165903571Y-201621428D01*
X165975000Y-201550000D01*
X166117857Y-201478571D01*
X166403571Y-201478571D01*
X166546428Y-201550000D01*
X168403571Y-201692857D02*
X168903571Y-201692857D01*
X169117857Y-202478571D02*
X168403571Y-202478571D01*
X168403571Y-200978571D01*
X169117857Y-200978571D01*
X169760714Y-202335714D02*
X169832142Y-202407142D01*
X169760714Y-202478571D01*
X169689285Y-202407142D01*
X169760714Y-202335714D01*
X169760714Y-202478571D01*
X170475000Y-202478571D02*
X170475000Y-200978571D01*
X170832142Y-200978571D01*
X171046428Y-201050000D01*
X171189285Y-201192857D01*
X171260714Y-201335714D01*
X171332142Y-201621428D01*
X171332142Y-201835714D01*
X171260714Y-202121428D01*
X171189285Y-202264285D01*
X171046428Y-202407142D01*
X170832142Y-202478571D01*
X170475000Y-202478571D01*
X171975000Y-202335714D02*
X172046428Y-202407142D01*
X171975000Y-202478571D01*
X171903571Y-202407142D01*
X171975000Y-202335714D01*
X171975000Y-202478571D01*
X172617857Y-202050000D02*
X173332142Y-202050000D01*
X172475000Y-202478571D02*
X172975000Y-200978571D01*
X173475000Y-202478571D01*
X173975000Y-202335714D02*
X174046428Y-202407142D01*
X173975000Y-202478571D01*
X173903571Y-202407142D01*
X173975000Y-202335714D01*
X173975000Y-202478571D01*
X176975000Y-202478571D02*
X176975000Y-200978571D01*
X177117857Y-201907142D02*
X177546428Y-202478571D01*
X177546428Y-201478571D02*
X176975000Y-202050000D01*
X178189285Y-202478571D02*
X178189285Y-201478571D01*
X178189285Y-200978571D02*
X178117857Y-201050000D01*
X178189285Y-201121428D01*
X178260714Y-201050000D01*
X178189285Y-200978571D01*
X178189285Y-201121428D01*
X179546428Y-202407142D02*
X179403571Y-202478571D01*
X179117857Y-202478571D01*
X178975000Y-202407142D01*
X178903571Y-202335714D01*
X178832142Y-202192857D01*
X178832142Y-201764285D01*
X178903571Y-201621428D01*
X178975000Y-201550000D01*
X179117857Y-201478571D01*
X179403571Y-201478571D01*
X179546428Y-201550000D01*
X180832142Y-202478571D02*
X180832142Y-201692857D01*
X180760714Y-201550000D01*
X180617857Y-201478571D01*
X180332142Y-201478571D01*
X180189285Y-201550000D01*
X180832142Y-202407142D02*
X180689285Y-202478571D01*
X180332142Y-202478571D01*
X180189285Y-202407142D01*
X180117857Y-202264285D01*
X180117857Y-202121428D01*
X180189285Y-201978571D01*
X180332142Y-201907142D01*
X180689285Y-201907142D01*
X180832142Y-201835714D01*
X182189285Y-202478571D02*
X182189285Y-200978571D01*
X182189285Y-202407142D02*
X182046428Y-202478571D01*
X181760714Y-202478571D01*
X181617857Y-202407142D01*
X181546428Y-202335714D01*
X181475000Y-202192857D01*
X181475000Y-201764285D01*
X181546428Y-201621428D01*
X181617857Y-201550000D01*
X181760714Y-201478571D01*
X182046428Y-201478571D01*
X182189285Y-201550000D01*
X184475000Y-203050000D02*
X184403571Y-202978571D01*
X184260714Y-202764285D01*
X184189285Y-202621428D01*
X184117857Y-202407142D01*
X184046428Y-202050000D01*
X184046428Y-201764285D01*
X184117857Y-201407142D01*
X184189285Y-201192857D01*
X184260714Y-201050000D01*
X184403571Y-200835714D01*
X184475000Y-200764285D01*
X185760714Y-200978571D02*
X185046428Y-200978571D01*
X184975000Y-201692857D01*
X185046428Y-201621428D01*
X185189285Y-201550000D01*
X185546428Y-201550000D01*
X185689285Y-201621428D01*
X185760714Y-201692857D01*
X185832142Y-201835714D01*
X185832142Y-202192857D01*
X185760714Y-202335714D01*
X185689285Y-202407142D01*
X185546428Y-202478571D01*
X185189285Y-202478571D01*
X185046428Y-202407142D01*
X184975000Y-202335714D01*
X186475000Y-202335714D02*
X186546428Y-202407142D01*
X186475000Y-202478571D01*
X186403571Y-202407142D01*
X186475000Y-202335714D01*
X186475000Y-202478571D01*
X187975000Y-202478571D02*
X187117857Y-202478571D01*
X187546428Y-202478571D02*
X187546428Y-200978571D01*
X187403571Y-201192857D01*
X187260714Y-201335714D01*
X187117857Y-201407142D01*
X188617857Y-202335714D02*
X188689285Y-202407142D01*
X188617857Y-202478571D01*
X188546428Y-202407142D01*
X188617857Y-202335714D01*
X188617857Y-202478571D01*
X189617857Y-200978571D02*
X189760714Y-200978571D01*
X189903571Y-201050000D01*
X189975000Y-201121428D01*
X190046428Y-201264285D01*
X190117857Y-201550000D01*
X190117857Y-201907142D01*
X190046428Y-202192857D01*
X189975000Y-202335714D01*
X189903571Y-202407142D01*
X189760714Y-202478571D01*
X189617857Y-202478571D01*
X189475000Y-202407142D01*
X189403571Y-202335714D01*
X189332142Y-202192857D01*
X189260714Y-201907142D01*
X189260714Y-201550000D01*
X189332142Y-201264285D01*
X189403571Y-201121428D01*
X189475000Y-201050000D01*
X189617857Y-200978571D01*
X190617857Y-203050000D02*
X190689285Y-202978571D01*
X190832142Y-202764285D01*
X190903571Y-202621428D01*
X190975000Y-202407142D01*
X191046428Y-202050000D01*
X191046428Y-201764285D01*
X190975000Y-201407142D01*
X190903571Y-201192857D01*
X190832142Y-201050000D01*
X190689285Y-200835714D01*
X190617857Y-200764285D01*
X191760714Y-201907142D02*
X192903571Y-201907142D01*
X194403571Y-202478571D02*
X193546428Y-202478571D01*
X193975000Y-202478571D02*
X193975000Y-200978571D01*
X193832142Y-201192857D01*
X193689285Y-201335714D01*
X193546428Y-201407142D01*
D10*
D11*
X159400000Y-197400000D02*
X267400000Y-197400000D01*
D10*
D12*
X246809285Y-199678571D02*
X246309285Y-198964285D01*
X245952142Y-199678571D02*
X245952142Y-198178571D01*
X246523571Y-198178571D01*
X246666428Y-198250000D01*
X246737857Y-198321428D01*
X246809285Y-198464285D01*
X246809285Y-198678571D01*
X246737857Y-198821428D01*
X246666428Y-198892857D01*
X246523571Y-198964285D01*
X245952142Y-198964285D01*
X248023571Y-199607142D02*
X247880714Y-199678571D01*
X247595000Y-199678571D01*
X247452142Y-199607142D01*
X247380714Y-199464285D01*
X247380714Y-198892857D01*
X247452142Y-198750000D01*
X247595000Y-198678571D01*
X247880714Y-198678571D01*
X248023571Y-198750000D01*
X248095000Y-198892857D01*
X248095000Y-199035714D01*
X247380714Y-199178571D01*
X248595000Y-198678571D02*
X248952142Y-199678571D01*
X249309285Y-198678571D01*
X249880714Y-199535714D02*
X249952142Y-199607142D01*
X249880714Y-199678571D01*
X249809285Y-199607142D01*
X249880714Y-199535714D01*
X249880714Y-199678571D01*
X249880714Y-198750000D02*
X249952142Y-198821428D01*
X249880714Y-198892857D01*
X249809285Y-198821428D01*
X249880714Y-198750000D01*
X249880714Y-198892857D01*
X252023571Y-198178571D02*
X252166428Y-198178571D01*
X252309285Y-198250000D01*
X252380714Y-198321428D01*
X252452142Y-198464285D01*
X252523571Y-198750000D01*
X252523571Y-199107142D01*
X252452142Y-199392857D01*
X252380714Y-199535714D01*
X252309285Y-199607142D01*
X252166428Y-199678571D01*
X252023571Y-199678571D01*
X251880714Y-199607142D01*
X251809285Y-199535714D01*
X251737857Y-199392857D01*
X251666428Y-199107142D01*
X251666428Y-198750000D01*
X251737857Y-198464285D01*
X251809285Y-198321428D01*
X251880714Y-198250000D01*
X252023571Y-198178571D01*
X253166428Y-199535714D02*
X253237857Y-199607142D01*
X253166428Y-199678571D01*
X253095000Y-199607142D01*
X253166428Y-199535714D01*
X253166428Y-199678571D01*
X254523571Y-198678571D02*
X254523571Y-199678571D01*
X254166428Y-198107142D02*
X253809285Y-199178571D01*
X254737857Y-199178571D01*
D10*
D11*
X160760714Y-199607142D02*
X160975000Y-199678571D01*
X161332142Y-199678571D01*
X161475000Y-199607142D01*
X161546428Y-199535714D01*
X161617857Y-199392857D01*
X161617857Y-199250000D01*
X161546428Y-199107142D01*
X161475000Y-199035714D01*
X161332142Y-198964285D01*
X161046428Y-198892857D01*
X160903571Y-198821428D01*
X160832142Y-198750000D01*
X160760714Y-198607142D01*
X160760714Y-198464285D01*
X160832142Y-198321428D01*
X160903571Y-198250000D01*
X161046428Y-198178571D01*
X161403571Y-198178571D01*
X161617857Y-198250000D01*
X162260714Y-199678571D02*
X162260714Y-198678571D01*
X162260714Y-198178571D02*
X162189285Y-198250000D01*
X162260714Y-198321428D01*
X162332142Y-198250000D01*
X162260714Y-198178571D01*
X162260714Y-198321428D01*
X162832142Y-198678571D02*
X163617857Y-198678571D01*
X162832142Y-199678571D01*
X163617857Y-199678571D01*
X164760714Y-199607142D02*
X164617857Y-199678571D01*
X164332142Y-199678571D01*
X164189285Y-199607142D01*
X164117857Y-199464285D01*
X164117857Y-198892857D01*
X164189285Y-198750000D01*
X164332142Y-198678571D01*
X164617857Y-198678571D01*
X164760714Y-198750000D01*
X164832142Y-198892857D01*
X164832142Y-199035714D01*
X164117857Y-199178571D01*
X165475000Y-199535714D02*
X165546428Y-199607142D01*
X165475000Y-199678571D01*
X165403571Y-199607142D01*
X165475000Y-199535714D01*
X165475000Y-199678571D01*
X165475000Y-198750000D02*
X165546428Y-198821428D01*
X165475000Y-198892857D01*
X165403571Y-198821428D01*
X165475000Y-198750000D01*
X165475000Y-198892857D01*
X167260714Y-199250000D02*
X167975000Y-199250000D01*
X167117857Y-199678571D02*
X167617857Y-198178571D01*
X168117857Y-199678571D01*
D10*
D11*
X245832142Y-202478571D02*
X245832142Y-200978571D01*
X247189285Y-202478571D02*
X247189285Y-200978571D01*
X247189285Y-202407142D02*
X247046428Y-202478571D01*
X246760714Y-202478571D01*
X246617857Y-202407142D01*
X246546428Y-202335714D01*
X246475000Y-202192857D01*
X246475000Y-201764285D01*
X246546428Y-201621428D01*
X246617857Y-201550000D01*
X246760714Y-201478571D01*
X247046428Y-201478571D01*
X247189285Y-201550000D01*
X247903571Y-202335714D02*
X247975000Y-202407142D01*
X247903571Y-202478571D01*
X247832142Y-202407142D01*
X247903571Y-202335714D01*
X247903571Y-202478571D01*
X247903571Y-201550000D02*
X247975000Y-201621428D01*
X247903571Y-201692857D01*
X247832142Y-201621428D01*
X247903571Y-201550000D01*
X247903571Y-201692857D01*
X250546428Y-202478571D02*
X249689285Y-202478571D01*
X250117857Y-202478571D02*
X250117857Y-200978571D01*
X249975000Y-201192857D01*
X249832142Y-201335714D01*
X249689285Y-201407142D01*
X252260714Y-200907142D02*
X250975000Y-202835714D01*
X253546428Y-202478571D02*
X252689285Y-202478571D01*
X253117857Y-202478571D02*
X253117857Y-200978571D01*
X252975000Y-201192857D01*
X252832142Y-201335714D01*
X252689285Y-201407142D01*
D10*
D11*
X159400000Y-193400000D02*
X267400000Y-193400000D01*
D10*
D13*
X161112380Y-194104761D02*
X162255238Y-194104761D01*
X161433809Y-196104761D02*
X161683809Y-194104761D01*
X162671904Y-196104761D02*
X162838571Y-194771428D01*
X162921904Y-194104761D02*
X162814761Y-194200000D01*
X162898095Y-194295238D01*
X163005238Y-194200000D01*
X162921904Y-194104761D01*
X162898095Y-194295238D01*
X163505238Y-194771428D02*
X164267142Y-194771428D01*
X163874285Y-194104761D02*
X163660000Y-195819047D01*
X163731428Y-196009523D01*
X163910000Y-196104761D01*
X164100476Y-196104761D01*
X165052857Y-196104761D02*
X164874285Y-196009523D01*
X164802857Y-195819047D01*
X165017142Y-194104761D01*
X166588571Y-196009523D02*
X166386190Y-196104761D01*
X166005238Y-196104761D01*
X165826666Y-196009523D01*
X165755238Y-195819047D01*
X165850476Y-195057142D01*
X165969523Y-194866666D01*
X166171904Y-194771428D01*
X166552857Y-194771428D01*
X166731428Y-194866666D01*
X166802857Y-195057142D01*
X166779047Y-195247619D01*
X165802857Y-195438095D01*
X167552857Y-195914285D02*
X167636190Y-196009523D01*
X167529047Y-196104761D01*
X167445714Y-196009523D01*
X167552857Y-195914285D01*
X167529047Y-196104761D01*
X167683809Y-194866666D02*
X167767142Y-194961904D01*
X167660000Y-195057142D01*
X167576666Y-194961904D01*
X167683809Y-194866666D01*
X167660000Y-195057142D01*
X169969523Y-194104761D02*
X171112380Y-194104761D01*
X170290952Y-196104761D02*
X170540952Y-194104761D01*
X171529047Y-196104761D02*
X171695714Y-194771428D01*
X171648095Y-195152380D02*
X171767142Y-194961904D01*
X171874285Y-194866666D01*
X172076666Y-194771428D01*
X172267142Y-194771428D01*
X172767142Y-196104761D02*
X172933809Y-194771428D01*
X173017142Y-194104761D02*
X172910000Y-194200000D01*
X172993333Y-194295238D01*
X173100476Y-194200000D01*
X173017142Y-194104761D01*
X172993333Y-194295238D01*
X173886190Y-194771428D02*
X173636190Y-196771428D01*
X173874285Y-194866666D02*
X174076666Y-194771428D01*
X174457619Y-194771428D01*
X174636190Y-194866666D01*
X174719523Y-194961904D01*
X174790952Y-195152380D01*
X174719523Y-195723809D01*
X174600476Y-195914285D01*
X174493333Y-196009523D01*
X174290952Y-196104761D01*
X173910000Y-196104761D01*
X173731428Y-196009523D01*
X175814761Y-196104761D02*
X175636190Y-196009523D01*
X175564761Y-195819047D01*
X175779047Y-194104761D01*
X177350476Y-196009523D02*
X177148095Y-196104761D01*
X176767142Y-196104761D01*
X176588571Y-196009523D01*
X176517142Y-195819047D01*
X176612380Y-195057142D01*
X176731428Y-194866666D01*
X176933809Y-194771428D01*
X177314761Y-194771428D01*
X177493333Y-194866666D01*
X177564761Y-195057142D01*
X177540952Y-195247619D01*
X176564761Y-195438095D01*
X180612380Y-195057142D02*
X180886190Y-195152380D01*
X180969523Y-195247619D01*
X181040952Y-195438095D01*
X181005238Y-195723809D01*
X180886190Y-195914285D01*
X180779047Y-196009523D01*
X180576666Y-196104761D01*
X179814761Y-196104761D01*
X180064761Y-194104761D01*
X180731428Y-194104761D01*
X180910000Y-194200000D01*
X180993333Y-194295238D01*
X181064761Y-194485714D01*
X181040952Y-194676190D01*
X180921904Y-194866666D01*
X180814761Y-194961904D01*
X180612380Y-195057142D01*
X179945714Y-195057142D01*
X181790952Y-194771428D02*
X182100476Y-196104761D01*
X182743333Y-194771428D02*
X182100476Y-196104761D01*
X181850476Y-196580952D01*
X181743333Y-196676190D01*
X181540952Y-196771428D01*
X183505238Y-194771428D02*
X183255238Y-196771428D01*
X183493333Y-194866666D02*
X183695714Y-194771428D01*
X184076666Y-194771428D01*
X184255238Y-194866666D01*
X184338571Y-194961904D01*
X184410000Y-195152380D01*
X184338571Y-195723809D01*
X184219523Y-195914285D01*
X184112380Y-196009523D01*
X183910000Y-196104761D01*
X183529047Y-196104761D01*
X183350476Y-196009523D01*
X186005238Y-196104761D02*
X186136190Y-195057142D01*
X186064761Y-194866666D01*
X185886190Y-194771428D01*
X185505238Y-194771428D01*
X185302857Y-194866666D01*
X186017142Y-196009523D02*
X185814761Y-196104761D01*
X185338571Y-196104761D01*
X185160000Y-196009523D01*
X185088571Y-195819047D01*
X185112380Y-195628571D01*
X185231428Y-195438095D01*
X185433809Y-195342857D01*
X185910000Y-195342857D01*
X186112380Y-195247619D01*
X186874285Y-196009523D02*
X187052857Y-196104761D01*
X187433809Y-196104761D01*
X187636190Y-196009523D01*
X187755238Y-195819047D01*
X187767142Y-195723809D01*
X187695714Y-195533333D01*
X187517142Y-195438095D01*
X187231428Y-195438095D01*
X187052857Y-195342857D01*
X186981428Y-195152380D01*
X186993333Y-195057142D01*
X187112380Y-194866666D01*
X187314761Y-194771428D01*
X187600476Y-194771428D01*
X187779047Y-194866666D01*
X188493333Y-196009523D02*
X188671904Y-196104761D01*
X189052857Y-196104761D01*
X189255238Y-196009523D01*
X189374285Y-195819047D01*
X189386190Y-195723809D01*
X189314761Y-195533333D01*
X189136190Y-195438095D01*
X188850476Y-195438095D01*
X188671904Y-195342857D01*
X188600476Y-195152380D01*
X188612380Y-195057142D01*
X188731428Y-194866666D01*
X188933809Y-194771428D01*
X189219523Y-194771428D01*
X189398095Y-194866666D01*
X191695714Y-195533333D02*
X192648095Y-195533333D01*
X191433809Y-196104761D02*
X192350476Y-194104761D01*
X192767142Y-196104761D01*
X193433809Y-196104761D02*
X193683809Y-194104761D01*
X195017142Y-194104761D02*
X195398095Y-194104761D01*
X195576666Y-194200000D01*
X195743333Y-194390476D01*
X195790952Y-194771428D01*
X195707619Y-195438095D01*
X195564761Y-195819047D01*
X195350476Y-196009523D01*
X195148095Y-196104761D01*
X194767142Y-196104761D01*
X194588571Y-196009523D01*
X194421904Y-195819047D01*
X194374285Y-195438095D01*
X194457619Y-194771428D01*
X194600476Y-194390476D01*
X194814761Y-194200000D01*
X195017142Y-194104761D01*
D10*
D11*
X161332142Y-191492857D02*
X160832142Y-191492857D01*
X160832142Y-192278571D02*
X160832142Y-190778571D01*
X161546428Y-190778571D01*
X162117857Y-192278571D02*
X162117857Y-191278571D01*
X162117857Y-190778571D02*
X162046428Y-190850000D01*
X162117857Y-190921428D01*
X162189285Y-190850000D01*
X162117857Y-190778571D01*
X162117857Y-190921428D01*
X163046428Y-192278571D02*
X162903571Y-192207142D01*
X162832142Y-192064285D01*
X162832142Y-190778571D01*
X164189285Y-192207142D02*
X164046428Y-192278571D01*
X163760714Y-192278571D01*
X163617857Y-192207142D01*
X163546428Y-192064285D01*
X163546428Y-191492857D01*
X163617857Y-191350000D01*
X163760714Y-191278571D01*
X164046428Y-191278571D01*
X164189285Y-191350000D01*
X164260714Y-191492857D01*
X164260714Y-191635714D01*
X163546428Y-191778571D01*
X164903571Y-192135714D02*
X164975000Y-192207142D01*
X164903571Y-192278571D01*
X164832142Y-192207142D01*
X164903571Y-192135714D01*
X164903571Y-192278571D01*
X164903571Y-191350000D02*
X164975000Y-191421428D01*
X164903571Y-191492857D01*
X164832142Y-191421428D01*
X164903571Y-191350000D01*
X164903571Y-191492857D01*
X166546428Y-191278571D02*
X167117857Y-191278571D01*
X166760714Y-190778571D02*
X166760714Y-192064285D01*
X166832142Y-192207142D01*
X166975000Y-192278571D01*
X167117857Y-192278571D01*
X167617857Y-192278571D02*
X167617857Y-191278571D01*
X167617857Y-191564285D02*
X167689285Y-191421428D01*
X167760714Y-191350000D01*
X167903571Y-191278571D01*
X168046428Y-191278571D01*
X168546428Y-192278571D02*
X168546428Y-191278571D01*
X168546428Y-190778571D02*
X168475000Y-190850000D01*
X168546428Y-190921428D01*
X168617857Y-190850000D01*
X168546428Y-190778571D01*
X168546428Y-190921428D01*
X169260714Y-191278571D02*
X169260714Y-192778571D01*
X169260714Y-191350000D02*
X169403571Y-191278571D01*
X169689285Y-191278571D01*
X169832142Y-191350000D01*
X169903571Y-191421428D01*
X169975000Y-191564285D01*
X169975000Y-191992857D01*
X169903571Y-192135714D01*
X169832142Y-192207142D01*
X169689285Y-192278571D01*
X169403571Y-192278571D01*
X169260714Y-192207142D01*
X170832142Y-192278571D02*
X170689285Y-192207142D01*
X170617857Y-192064285D01*
X170617857Y-190778571D01*
X171975000Y-192207142D02*
X171832142Y-192278571D01*
X171546428Y-192278571D01*
X171403571Y-192207142D01*
X171332142Y-192064285D01*
X171332142Y-191492857D01*
X171403571Y-191350000D01*
X171546428Y-191278571D01*
X171832142Y-191278571D01*
X171975000Y-191350000D01*
X172046428Y-191492857D01*
X172046428Y-191635714D01*
X171332142Y-191778571D01*
X172689285Y-191707142D02*
X173832142Y-191707142D01*
X174546428Y-192278571D02*
X174546428Y-190778571D01*
X174546428Y-191350000D02*
X174689285Y-191278571D01*
X174975000Y-191278571D01*
X175117857Y-191350000D01*
X175189285Y-191421428D01*
X175260714Y-191564285D01*
X175260714Y-191992857D01*
X175189285Y-192135714D01*
X175117857Y-192207142D01*
X174975000Y-192278571D01*
X174689285Y-192278571D01*
X174546428Y-192207142D01*
X175760714Y-191278571D02*
X176117857Y-192278571D01*
X176475000Y-191278571D02*
X176117857Y-192278571D01*
X175975000Y-192635714D01*
X175903571Y-192707142D01*
X175760714Y-192778571D01*
X177046428Y-191278571D02*
X177046428Y-192778571D01*
X177046428Y-191350000D02*
X177189285Y-191278571D01*
X177475000Y-191278571D01*
X177617857Y-191350000D01*
X177689285Y-191421428D01*
X177760714Y-191564285D01*
X177760714Y-191992857D01*
X177689285Y-192135714D01*
X177617857Y-192207142D01*
X177475000Y-192278571D01*
X177189285Y-192278571D01*
X177046428Y-192207142D01*
X179046428Y-192278571D02*
X179046428Y-191492857D01*
X178975000Y-191350000D01*
X178832142Y-191278571D01*
X178546428Y-191278571D01*
X178403571Y-191350000D01*
X179046428Y-192207142D02*
X178903571Y-192278571D01*
X178546428Y-192278571D01*
X178403571Y-192207142D01*
X178332142Y-192064285D01*
X178332142Y-191921428D01*
X178403571Y-191778571D01*
X178546428Y-191707142D01*
X178903571Y-191707142D01*
X179046428Y-191635714D01*
X179689285Y-192207142D02*
X179832142Y-192278571D01*
X180117857Y-192278571D01*
X180260714Y-192207142D01*
X180332142Y-192064285D01*
X180332142Y-191992857D01*
X180260714Y-191850000D01*
X180117857Y-191778571D01*
X179903571Y-191778571D01*
X179760714Y-191707142D01*
X179689285Y-191564285D01*
X179689285Y-191492857D01*
X179760714Y-191350000D01*
X179903571Y-191278571D01*
X180117857Y-191278571D01*
X180260714Y-191350000D01*
X180903571Y-192207142D02*
X181046428Y-192278571D01*
X181332142Y-192278571D01*
X181475000Y-192207142D01*
X181546428Y-192064285D01*
X181546428Y-191992857D01*
X181475000Y-191850000D01*
X181332142Y-191778571D01*
X181117857Y-191778571D01*
X180975000Y-191707142D01*
X180903571Y-191564285D01*
X180903571Y-191492857D01*
X180975000Y-191350000D01*
X181117857Y-191278571D01*
X181332142Y-191278571D01*
X181475000Y-191350000D01*
X182189285Y-191707142D02*
X183332142Y-191707142D01*
X184689285Y-192278571D02*
X184689285Y-191492857D01*
X184617857Y-191350000D01*
X184475000Y-191278571D01*
X184189285Y-191278571D01*
X184046428Y-191350000D01*
X184689285Y-192207142D02*
X184546428Y-192278571D01*
X184189285Y-192278571D01*
X184046428Y-192207142D01*
X183975000Y-192064285D01*
X183975000Y-191921428D01*
X184046428Y-191778571D01*
X184189285Y-191707142D01*
X184546428Y-191707142D01*
X184689285Y-191635714D01*
X185403571Y-192278571D02*
X185403571Y-191278571D01*
X185403571Y-190778571D02*
X185332142Y-190850000D01*
X185403571Y-190921428D01*
X185475000Y-190850000D01*
X185403571Y-190778571D01*
X185403571Y-190921428D01*
X186332142Y-192278571D02*
X186189285Y-192207142D01*
X186117857Y-192135714D01*
X186046428Y-191992857D01*
X186046428Y-191564285D01*
X186117857Y-191421428D01*
X186189285Y-191350000D01*
X186332142Y-191278571D01*
X186546428Y-191278571D01*
X186689285Y-191350000D01*
X186760714Y-191421428D01*
X186832142Y-191564285D01*
X186832142Y-191992857D01*
X186760714Y-192135714D01*
X186689285Y-192207142D01*
X186546428Y-192278571D01*
X186332142Y-192278571D01*
X187475000Y-192135714D02*
X187546428Y-192207142D01*
X187475000Y-192278571D01*
X187403571Y-192207142D01*
X187475000Y-192135714D01*
X187475000Y-192278571D01*
X188189285Y-192278571D02*
X188189285Y-190778571D01*
X188332142Y-191707142D02*
X188760714Y-192278571D01*
X188760714Y-191278571D02*
X188189285Y-191850000D01*
X189403571Y-192278571D02*
X189403571Y-191278571D01*
X189403571Y-190778571D02*
X189332142Y-190850000D01*
X189403571Y-190921428D01*
X189475000Y-190850000D01*
X189403571Y-190778571D01*
X189403571Y-190921428D01*
X190760714Y-192207142D02*
X190617857Y-192278571D01*
X190332142Y-192278571D01*
X190189285Y-192207142D01*
X190117857Y-192135714D01*
X190046428Y-191992857D01*
X190046428Y-191564285D01*
X190117857Y-191421428D01*
X190189285Y-191350000D01*
X190332142Y-191278571D01*
X190617857Y-191278571D01*
X190760714Y-191350000D01*
X192046428Y-192278571D02*
X192046428Y-191492857D01*
X191975000Y-191350000D01*
X191832142Y-191278571D01*
X191546428Y-191278571D01*
X191403571Y-191350000D01*
X192046428Y-192207142D02*
X191903571Y-192278571D01*
X191546428Y-192278571D01*
X191403571Y-192207142D01*
X191332142Y-192064285D01*
X191332142Y-191921428D01*
X191403571Y-191778571D01*
X191546428Y-191707142D01*
X191903571Y-191707142D01*
X192046428Y-191635714D01*
X193403571Y-192278571D02*
X193403571Y-190778571D01*
X193403571Y-192207142D02*
X193260714Y-192278571D01*
X192975000Y-192278571D01*
X192832142Y-192207142D01*
X192760714Y-192135714D01*
X192689285Y-191992857D01*
X192689285Y-191564285D01*
X192760714Y-191421428D01*
X192832142Y-191350000D01*
X192975000Y-191278571D01*
X193260714Y-191278571D01*
X193403571Y-191350000D01*
X193760714Y-192421428D02*
X194903571Y-192421428D01*
X195260714Y-191278571D02*
X195260714Y-192778571D01*
X195260714Y-191350000D02*
X195403571Y-191278571D01*
X195689285Y-191278571D01*
X195832142Y-191350000D01*
X195903571Y-191421428D01*
X195975000Y-191564285D01*
X195975000Y-191992857D01*
X195903571Y-192135714D01*
X195832142Y-192207142D01*
X195689285Y-192278571D01*
X195403571Y-192278571D01*
X195260714Y-192207142D01*
X197260714Y-192207142D02*
X197117857Y-192278571D01*
X196832142Y-192278571D01*
X196689285Y-192207142D01*
X196617857Y-192135714D01*
X196546428Y-191992857D01*
X196546428Y-191564285D01*
X196617857Y-191421428D01*
X196689285Y-191350000D01*
X196832142Y-191278571D01*
X197117857Y-191278571D01*
X197260714Y-191350000D01*
X197903571Y-192278571D02*
X197903571Y-190778571D01*
X197903571Y-191350000D02*
X198046428Y-191278571D01*
X198332142Y-191278571D01*
X198475000Y-191350000D01*
X198546428Y-191421428D01*
X198617857Y-191564285D01*
X198617857Y-191992857D01*
X198546428Y-192135714D01*
X198475000Y-192207142D01*
X198332142Y-192278571D01*
X198046428Y-192278571D01*
X197903571Y-192207142D01*
D10*
D11*
X159400000Y-187400000D02*
X267400000Y-187400000D01*
D10*
D11*
X160760714Y-189507142D02*
X160975000Y-189578571D01*
X161332142Y-189578571D01*
X161475000Y-189507142D01*
X161546428Y-189435714D01*
X161617857Y-189292857D01*
X161617857Y-189150000D01*
X161546428Y-189007142D01*
X161475000Y-188935714D01*
X161332142Y-188864285D01*
X161046428Y-188792857D01*
X160903571Y-188721428D01*
X160832142Y-188650000D01*
X160760714Y-188507142D01*
X160760714Y-188364285D01*
X160832142Y-188221428D01*
X160903571Y-188150000D01*
X161046428Y-188078571D01*
X161403571Y-188078571D01*
X161617857Y-188150000D01*
X162260714Y-189578571D02*
X162260714Y-188078571D01*
X162903571Y-189578571D02*
X162903571Y-188792857D01*
X162832142Y-188650000D01*
X162689285Y-188578571D01*
X162475000Y-188578571D01*
X162332142Y-188650000D01*
X162260714Y-188721428D01*
X164189285Y-189507142D02*
X164046428Y-189578571D01*
X163760714Y-189578571D01*
X163617857Y-189507142D01*
X163546428Y-189364285D01*
X163546428Y-188792857D01*
X163617857Y-188650000D01*
X163760714Y-188578571D01*
X164046428Y-188578571D01*
X164189285Y-188650000D01*
X164260714Y-188792857D01*
X164260714Y-188935714D01*
X163546428Y-189078571D01*
X165475000Y-189507142D02*
X165332142Y-189578571D01*
X165046428Y-189578571D01*
X164903571Y-189507142D01*
X164832142Y-189364285D01*
X164832142Y-188792857D01*
X164903571Y-188650000D01*
X165046428Y-188578571D01*
X165332142Y-188578571D01*
X165475000Y-188650000D01*
X165546428Y-188792857D01*
X165546428Y-188935714D01*
X164832142Y-189078571D01*
X165975000Y-188578571D02*
X166546428Y-188578571D01*
X166189285Y-188078571D02*
X166189285Y-189364285D01*
X166260714Y-189507142D01*
X166403571Y-189578571D01*
X166546428Y-189578571D01*
X167046428Y-189435714D02*
X167117857Y-189507142D01*
X167046428Y-189578571D01*
X166975000Y-189507142D01*
X167046428Y-189435714D01*
X167046428Y-189578571D01*
X167046428Y-188650000D02*
X167117857Y-188721428D01*
X167046428Y-188792857D01*
X166975000Y-188721428D01*
X167046428Y-188650000D01*
X167046428Y-188792857D01*
D10*
D11*
X160832142Y-183578571D02*
X160832142Y-182078571D01*
X161475000Y-183578571D02*
X161475000Y-182792857D01*
X161403571Y-182650000D01*
X161260714Y-182578571D01*
X161046428Y-182578571D01*
X160903571Y-182650000D01*
X160832142Y-182721428D01*
X161975000Y-182578571D02*
X162546428Y-182578571D01*
X162189285Y-182078571D02*
X162189285Y-183364285D01*
X162260714Y-183507142D01*
X162403571Y-183578571D01*
X162546428Y-183578571D01*
X162832142Y-182578571D02*
X163403571Y-182578571D01*
X163046428Y-182078571D02*
X163046428Y-183364285D01*
X163117857Y-183507142D01*
X163260714Y-183578571D01*
X163403571Y-183578571D01*
X163903571Y-182578571D02*
X163903571Y-184078571D01*
X163903571Y-182650000D02*
X164046428Y-182578571D01*
X164332142Y-182578571D01*
X164475000Y-182650000D01*
X164546428Y-182721428D01*
X164617857Y-182864285D01*
X164617857Y-183292857D01*
X164546428Y-183435714D01*
X164475000Y-183507142D01*
X164332142Y-183578571D01*
X164046428Y-183578571D01*
X163903571Y-183507142D01*
X165189285Y-183507142D02*
X165332142Y-183578571D01*
X165617857Y-183578571D01*
X165760714Y-183507142D01*
X165832142Y-183364285D01*
X165832142Y-183292857D01*
X165760714Y-183150000D01*
X165617857Y-183078571D01*
X165403571Y-183078571D01*
X165260714Y-183007142D01*
X165189285Y-182864285D01*
X165189285Y-182792857D01*
X165260714Y-182650000D01*
X165403571Y-182578571D01*
X165617857Y-182578571D01*
X165760714Y-182650000D01*
X166475000Y-183435714D02*
X166546428Y-183507142D01*
X166475000Y-183578571D01*
X166403571Y-183507142D01*
X166475000Y-183435714D01*
X166475000Y-183578571D01*
X166475000Y-182650000D02*
X166546428Y-182721428D01*
X166475000Y-182792857D01*
X166403571Y-182721428D01*
X166475000Y-182650000D01*
X166475000Y-182792857D01*
X168260714Y-182007142D02*
X166975000Y-183935714D01*
X169832142Y-182007142D02*
X168546428Y-183935714D01*
X170975000Y-182578571D02*
X170975000Y-183792857D01*
X170903571Y-183935714D01*
X170832142Y-184007142D01*
X170689285Y-184078571D01*
X170475000Y-184078571D01*
X170332142Y-184007142D01*
X170975000Y-183507142D02*
X170832142Y-183578571D01*
X170546428Y-183578571D01*
X170403571Y-183507142D01*
X170332142Y-183435714D01*
X170260714Y-183292857D01*
X170260714Y-182864285D01*
X170332142Y-182721428D01*
X170403571Y-182650000D01*
X170546428Y-182578571D01*
X170832142Y-182578571D01*
X170975000Y-182650000D01*
X171689285Y-183578571D02*
X171689285Y-182578571D01*
X171689285Y-182078571D02*
X171617857Y-182150000D01*
X171689285Y-182221428D01*
X171760714Y-182150000D01*
X171689285Y-182078571D01*
X171689285Y-182221428D01*
X172189285Y-182578571D02*
X172760714Y-182578571D01*
X172403571Y-182078571D02*
X172403571Y-183364285D01*
X172475000Y-183507142D01*
X172617857Y-183578571D01*
X172760714Y-183578571D01*
X173260714Y-183578571D02*
X173260714Y-182078571D01*
X173903571Y-183578571D02*
X173903571Y-182792857D01*
X173832142Y-182650000D01*
X173689285Y-182578571D01*
X173475000Y-182578571D01*
X173332142Y-182650000D01*
X173260714Y-182721428D01*
X175260714Y-182578571D02*
X175260714Y-183578571D01*
X174617857Y-182578571D02*
X174617857Y-183364285D01*
X174689285Y-183507142D01*
X174832142Y-183578571D01*
X175046428Y-183578571D01*
X175189285Y-183507142D01*
X175260714Y-183435714D01*
X175975000Y-183578571D02*
X175975000Y-182078571D01*
X175975000Y-182650000D02*
X176117857Y-182578571D01*
X176403571Y-182578571D01*
X176546428Y-182650000D01*
X176617857Y-182721428D01*
X176689285Y-182864285D01*
X176689285Y-183292857D01*
X176617857Y-183435714D01*
X176546428Y-183507142D01*
X176403571Y-183578571D01*
X176117857Y-183578571D01*
X175975000Y-183507142D01*
X177332142Y-183435714D02*
X177403571Y-183507142D01*
X177332142Y-183578571D01*
X177260714Y-183507142D01*
X177332142Y-183435714D01*
X177332142Y-183578571D01*
X178689285Y-183507142D02*
X178546428Y-183578571D01*
X178260714Y-183578571D01*
X178117857Y-183507142D01*
X178046428Y-183435714D01*
X177975000Y-183292857D01*
X177975000Y-182864285D01*
X178046428Y-182721428D01*
X178117857Y-182650000D01*
X178260714Y-182578571D01*
X178546428Y-182578571D01*
X178689285Y-182650000D01*
X179546428Y-183578571D02*
X179403571Y-183507142D01*
X179332142Y-183435714D01*
X179260714Y-183292857D01*
X179260714Y-182864285D01*
X179332142Y-182721428D01*
X179403571Y-182650000D01*
X179546428Y-182578571D01*
X179760714Y-182578571D01*
X179903571Y-182650000D01*
X179975000Y-182721428D01*
X180046428Y-182864285D01*
X180046428Y-183292857D01*
X179975000Y-183435714D01*
X179903571Y-183507142D01*
X179760714Y-183578571D01*
X179546428Y-183578571D01*
X180689285Y-183578571D02*
X180689285Y-182578571D01*
X180689285Y-182721428D02*
X180760714Y-182650000D01*
X180903571Y-182578571D01*
X181117857Y-182578571D01*
X181260714Y-182650000D01*
X181332142Y-182792857D01*
X181332142Y-183578571D01*
X181332142Y-182792857D02*
X181403571Y-182650000D01*
X181546428Y-182578571D01*
X181760714Y-182578571D01*
X181903571Y-182650000D01*
X181975000Y-182792857D01*
X181975000Y-183578571D01*
X183760714Y-182007142D02*
X182475000Y-183935714D01*
X184260714Y-183578571D02*
X184260714Y-182578571D01*
X184260714Y-182864285D02*
X184332142Y-182721428D01*
X184403571Y-182650000D01*
X184546428Y-182578571D01*
X184689285Y-182578571D01*
X185832142Y-183578571D02*
X185832142Y-182792857D01*
X185760714Y-182650000D01*
X185617857Y-182578571D01*
X185332142Y-182578571D01*
X185189285Y-182650000D01*
X185832142Y-183507142D02*
X185689285Y-183578571D01*
X185332142Y-183578571D01*
X185189285Y-183507142D01*
X185117857Y-183364285D01*
X185117857Y-183221428D01*
X185189285Y-183078571D01*
X185332142Y-183007142D01*
X185689285Y-183007142D01*
X185832142Y-182935714D01*
X186546428Y-182578571D02*
X186546428Y-183578571D01*
X186546428Y-182721428D02*
X186617857Y-182650000D01*
X186760714Y-182578571D01*
X186975000Y-182578571D01*
X187117857Y-182650000D01*
X187189285Y-182792857D01*
X187189285Y-183578571D01*
X188546428Y-183578571D02*
X188546428Y-182078571D01*
X188546428Y-183507142D02*
X188403571Y-183578571D01*
X188117857Y-183578571D01*
X187975000Y-183507142D01*
X187903571Y-183435714D01*
X187832142Y-183292857D01*
X187832142Y-182864285D01*
X187903571Y-182721428D01*
X187975000Y-182650000D01*
X188117857Y-182578571D01*
X188403571Y-182578571D01*
X188546428Y-182650000D01*
X189117857Y-182578571D02*
X189475000Y-183578571D01*
X189832142Y-182578571D02*
X189475000Y-183578571D01*
X189332142Y-183935714D01*
X189260714Y-184007142D01*
X189117857Y-184078571D01*
X190403571Y-183578571D02*
X190403571Y-182078571D01*
X190403571Y-182650000D02*
X190546428Y-182578571D01*
X190832142Y-182578571D01*
X190975000Y-182650000D01*
X191046428Y-182721428D01*
X191117857Y-182864285D01*
X191117857Y-183292857D01*
X191046428Y-183435714D01*
X190975000Y-183507142D01*
X190832142Y-183578571D01*
X190546428Y-183578571D01*
X190403571Y-183507142D01*
X192332142Y-183507142D02*
X192189285Y-183578571D01*
X191903571Y-183578571D01*
X191760714Y-183507142D01*
X191689285Y-183364285D01*
X191689285Y-182792857D01*
X191760714Y-182650000D01*
X191903571Y-182578571D01*
X192189285Y-182578571D01*
X192332142Y-182650000D01*
X192403571Y-182792857D01*
X192403571Y-182935714D01*
X191689285Y-183078571D01*
X193689285Y-183507142D02*
X193546428Y-183578571D01*
X193260714Y-183578571D01*
X193117857Y-183507142D01*
X193046428Y-183435714D01*
X192975000Y-183292857D01*
X192975000Y-182864285D01*
X193046428Y-182721428D01*
X193117857Y-182650000D01*
X193260714Y-182578571D01*
X193546428Y-182578571D01*
X193689285Y-182650000D01*
X194332142Y-183578571D02*
X194332142Y-182078571D01*
X194475000Y-183007142D02*
X194903571Y-183578571D01*
X194903571Y-182578571D02*
X194332142Y-183150000D01*
X196117857Y-183507142D02*
X195975000Y-183578571D01*
X195689285Y-183578571D01*
X195546428Y-183507142D01*
X195475000Y-183364285D01*
X195475000Y-182792857D01*
X195546428Y-182650000D01*
X195689285Y-182578571D01*
X195975000Y-182578571D01*
X196117857Y-182650000D01*
X196189285Y-182792857D01*
X196189285Y-182935714D01*
X195475000Y-183078571D01*
X196832142Y-183578571D02*
X196832142Y-182578571D01*
X196832142Y-182721428D02*
X196903571Y-182650000D01*
X197046428Y-182578571D01*
X197260714Y-182578571D01*
X197403571Y-182650000D01*
X197475000Y-182792857D01*
X197475000Y-183578571D01*
X197475000Y-182792857D02*
X197546428Y-182650000D01*
X197689285Y-182578571D01*
X197903571Y-182578571D01*
X198046428Y-182650000D01*
X198117857Y-182792857D01*
X198117857Y-183578571D01*
X199403571Y-183507142D02*
X199260714Y-183578571D01*
X198975000Y-183578571D01*
X198832142Y-183507142D01*
X198760714Y-183364285D01*
X198760714Y-182792857D01*
X198832142Y-182650000D01*
X198975000Y-182578571D01*
X199260714Y-182578571D01*
X199403571Y-182650000D01*
X199475000Y-182792857D01*
X199475000Y-182935714D01*
X198760714Y-183078571D01*
X199975000Y-182578571D02*
X200332142Y-183578571D01*
X200689285Y-182578571D02*
X200332142Y-183578571D01*
X200189285Y-183935714D01*
X200117857Y-184007142D01*
X199975000Y-184078571D01*
X201832142Y-183507142D02*
X201689285Y-183578571D01*
X201403571Y-183578571D01*
X201260714Y-183507142D01*
X201189285Y-183364285D01*
X201189285Y-182792857D01*
X201260714Y-182650000D01*
X201403571Y-182578571D01*
X201689285Y-182578571D01*
X201832142Y-182650000D01*
X201903571Y-182792857D01*
X201903571Y-182935714D01*
X201189285Y-183078571D01*
X202546428Y-183578571D02*
X202546428Y-182578571D01*
X202546428Y-182864285D02*
X202617857Y-182721428D01*
X202689285Y-182650000D01*
X202832142Y-182578571D01*
X202975000Y-182578571D01*
X204546428Y-182007142D02*
X203260714Y-183935714D01*
X204832142Y-182578571D02*
X205403571Y-182578571D01*
X205046428Y-182078571D02*
X205046428Y-183364285D01*
X205117857Y-183507142D01*
X205260714Y-183578571D01*
X205403571Y-183578571D01*
X205903571Y-183578571D02*
X205903571Y-182578571D01*
X205903571Y-182864285D02*
X205975000Y-182721428D01*
X206046428Y-182650000D01*
X206189285Y-182578571D01*
X206332142Y-182578571D01*
X206832142Y-183578571D02*
X206832142Y-182578571D01*
X206832142Y-182078571D02*
X206760714Y-182150000D01*
X206832142Y-182221428D01*
X206903571Y-182150000D01*
X206832142Y-182078571D01*
X206832142Y-182221428D01*
X207546428Y-182578571D02*
X207546428Y-184078571D01*
X207546428Y-182650000D02*
X207689285Y-182578571D01*
X207975000Y-182578571D01*
X208117857Y-182650000D01*
X208189285Y-182721428D01*
X208260714Y-182864285D01*
X208260714Y-183292857D01*
X208189285Y-183435714D01*
X208117857Y-183507142D01*
X207975000Y-183578571D01*
X207689285Y-183578571D01*
X207546428Y-183507142D01*
X209117857Y-183578571D02*
X208975000Y-183507142D01*
X208903571Y-183364285D01*
X208903571Y-182078571D01*
X210260714Y-183507142D02*
X210117857Y-183578571D01*
X209832142Y-183578571D01*
X209689285Y-183507142D01*
X209617857Y-183364285D01*
X209617857Y-182792857D01*
X209689285Y-182650000D01*
X209832142Y-182578571D01*
X210117857Y-182578571D01*
X210260714Y-182650000D01*
X210332142Y-182792857D01*
X210332142Y-182935714D01*
X209617857Y-183078571D01*
X210975000Y-183007142D02*
X212117857Y-183007142D01*
X212832142Y-183578571D02*
X212832142Y-182078571D01*
X212832142Y-182650000D02*
X212975000Y-182578571D01*
X213260714Y-182578571D01*
X213403571Y-182650000D01*
X213475000Y-182721428D01*
X213546428Y-182864285D01*
X213546428Y-183292857D01*
X213475000Y-183435714D01*
X213403571Y-183507142D01*
X213260714Y-183578571D01*
X212975000Y-183578571D01*
X212832142Y-183507142D01*
X214046428Y-182578571D02*
X214403571Y-183578571D01*
X214760714Y-182578571D02*
X214403571Y-183578571D01*
X214260714Y-183935714D01*
X214189285Y-184007142D01*
X214046428Y-184078571D01*
X215332142Y-182578571D02*
X215332142Y-184078571D01*
X215332142Y-182650000D02*
X215475000Y-182578571D01*
X215760714Y-182578571D01*
X215903571Y-182650000D01*
X215975000Y-182721428D01*
X216046428Y-182864285D01*
X216046428Y-183292857D01*
X215975000Y-183435714D01*
X215903571Y-183507142D01*
X215760714Y-183578571D01*
X215475000Y-183578571D01*
X215332142Y-183507142D01*
X217332142Y-183578571D02*
X217332142Y-182792857D01*
X217260714Y-182650000D01*
X217117857Y-182578571D01*
X216832142Y-182578571D01*
X216689285Y-182650000D01*
X217332142Y-183507142D02*
X217189285Y-183578571D01*
X216832142Y-183578571D01*
X216689285Y-183507142D01*
X216617857Y-183364285D01*
X216617857Y-183221428D01*
X216689285Y-183078571D01*
X216832142Y-183007142D01*
X217189285Y-183007142D01*
X217332142Y-182935714D01*
X217975000Y-183507142D02*
X218117857Y-183578571D01*
X218403571Y-183578571D01*
X218546428Y-183507142D01*
X218617857Y-183364285D01*
X218617857Y-183292857D01*
X218546428Y-183150000D01*
X218403571Y-183078571D01*
X218189285Y-183078571D01*
X218046428Y-183007142D01*
X217975000Y-182864285D01*
X217975000Y-182792857D01*
X218046428Y-182650000D01*
X218189285Y-182578571D01*
X218403571Y-182578571D01*
X218546428Y-182650000D01*
X219189285Y-183507142D02*
X219332142Y-183578571D01*
X219617857Y-183578571D01*
X219760714Y-183507142D01*
X219832142Y-183364285D01*
X219832142Y-183292857D01*
X219760714Y-183150000D01*
X219617857Y-183078571D01*
X219403571Y-183078571D01*
X219260714Y-183007142D01*
X219189285Y-182864285D01*
X219189285Y-182792857D01*
X219260714Y-182650000D01*
X219403571Y-182578571D01*
X219617857Y-182578571D01*
X219760714Y-182650000D01*
X220475000Y-183007142D02*
X221617857Y-183007142D01*
X222332142Y-183578571D02*
X222332142Y-182078571D01*
X222475000Y-183007142D02*
X222903571Y-183578571D01*
X222903571Y-182578571D02*
X222332142Y-183150000D01*
X223546428Y-183578571D02*
X223546428Y-182578571D01*
X223546428Y-182078571D02*
X223475000Y-182150000D01*
X223546428Y-182221428D01*
X223617857Y-182150000D01*
X223546428Y-182078571D01*
X223546428Y-182221428D01*
X224903571Y-183507142D02*
X224760714Y-183578571D01*
X224475000Y-183578571D01*
X224332142Y-183507142D01*
X224260714Y-183435714D01*
X224189285Y-183292857D01*
X224189285Y-182864285D01*
X224260714Y-182721428D01*
X224332142Y-182650000D01*
X224475000Y-182578571D01*
X224760714Y-182578571D01*
X224903571Y-182650000D01*
X226189285Y-183578571D02*
X226189285Y-182792857D01*
X226117857Y-182650000D01*
X225975000Y-182578571D01*
X225689285Y-182578571D01*
X225546428Y-182650000D01*
X226189285Y-183507142D02*
X226046428Y-183578571D01*
X225689285Y-183578571D01*
X225546428Y-183507142D01*
X225475000Y-183364285D01*
X225475000Y-183221428D01*
X225546428Y-183078571D01*
X225689285Y-183007142D01*
X226046428Y-183007142D01*
X226189285Y-182935714D01*
X227546428Y-183578571D02*
X227546428Y-182078571D01*
X227546428Y-183507142D02*
X227403571Y-183578571D01*
X227117857Y-183578571D01*
X226975000Y-183507142D01*
X226903571Y-183435714D01*
X226832142Y-183292857D01*
X226832142Y-182864285D01*
X226903571Y-182721428D01*
X226975000Y-182650000D01*
X227117857Y-182578571D01*
X227403571Y-182578571D01*
X227546428Y-182650000D01*
D10*
D11*
X161546428Y-180578571D02*
X160832142Y-180578571D01*
X160832142Y-179078571D01*
X162046428Y-180578571D02*
X162046428Y-179578571D01*
X162046428Y-179078571D02*
X161975000Y-179150000D01*
X162046428Y-179221428D01*
X162117857Y-179150000D01*
X162046428Y-179078571D01*
X162046428Y-179221428D01*
X163403571Y-180507142D02*
X163260714Y-180578571D01*
X162975000Y-180578571D01*
X162832142Y-180507142D01*
X162760714Y-180435714D01*
X162689285Y-180292857D01*
X162689285Y-179864285D01*
X162760714Y-179721428D01*
X162832142Y-179650000D01*
X162975000Y-179578571D01*
X163260714Y-179578571D01*
X163403571Y-179650000D01*
X164617857Y-180507142D02*
X164475000Y-180578571D01*
X164189285Y-180578571D01*
X164046428Y-180507142D01*
X163975000Y-180364285D01*
X163975000Y-179792857D01*
X164046428Y-179650000D01*
X164189285Y-179578571D01*
X164475000Y-179578571D01*
X164617857Y-179650000D01*
X164689285Y-179792857D01*
X164689285Y-179935714D01*
X163975000Y-180078571D01*
X165332142Y-179578571D02*
X165332142Y-180578571D01*
X165332142Y-179721428D02*
X165403571Y-179650000D01*
X165546428Y-179578571D01*
X165760714Y-179578571D01*
X165903571Y-179650000D01*
X165975000Y-179792857D01*
X165975000Y-180578571D01*
X166617857Y-180507142D02*
X166760714Y-180578571D01*
X167046428Y-180578571D01*
X167189285Y-180507142D01*
X167260714Y-180364285D01*
X167260714Y-180292857D01*
X167189285Y-180150000D01*
X167046428Y-180078571D01*
X166832142Y-180078571D01*
X166689285Y-180007142D01*
X166617857Y-179864285D01*
X166617857Y-179792857D01*
X166689285Y-179650000D01*
X166832142Y-179578571D01*
X167046428Y-179578571D01*
X167189285Y-179650000D01*
X168475000Y-180507142D02*
X168332142Y-180578571D01*
X168046428Y-180578571D01*
X167903571Y-180507142D01*
X167832142Y-180364285D01*
X167832142Y-179792857D01*
X167903571Y-179650000D01*
X168046428Y-179578571D01*
X168332142Y-179578571D01*
X168475000Y-179650000D01*
X168546428Y-179792857D01*
X168546428Y-179935714D01*
X167832142Y-180078571D01*
X169832142Y-180578571D02*
X169832142Y-179078571D01*
X169832142Y-180507142D02*
X169689285Y-180578571D01*
X169403571Y-180578571D01*
X169260714Y-180507142D01*
X169189285Y-180435714D01*
X169117857Y-180292857D01*
X169117857Y-179864285D01*
X169189285Y-179721428D01*
X169260714Y-179650000D01*
X169403571Y-179578571D01*
X169689285Y-179578571D01*
X169832142Y-179650000D01*
X172332142Y-179578571D02*
X172332142Y-180578571D01*
X171689285Y-179578571D02*
X171689285Y-180364285D01*
X171760714Y-180507142D01*
X171903571Y-180578571D01*
X172117857Y-180578571D01*
X172260714Y-180507142D01*
X172332142Y-180435714D01*
X173046428Y-179578571D02*
X173046428Y-180578571D01*
X173046428Y-179721428D02*
X173117857Y-179650000D01*
X173260714Y-179578571D01*
X173475000Y-179578571D01*
X173617857Y-179650000D01*
X173689285Y-179792857D01*
X173689285Y-180578571D01*
X175046428Y-180578571D02*
X175046428Y-179078571D01*
X175046428Y-180507142D02*
X174903571Y-180578571D01*
X174617857Y-180578571D01*
X174475000Y-180507142D01*
X174403571Y-180435714D01*
X174332142Y-180292857D01*
X174332142Y-179864285D01*
X174403571Y-179721428D01*
X174475000Y-179650000D01*
X174617857Y-179578571D01*
X174903571Y-179578571D01*
X175046428Y-179650000D01*
X176332142Y-180507142D02*
X176189285Y-180578571D01*
X175903571Y-180578571D01*
X175760714Y-180507142D01*
X175689285Y-180364285D01*
X175689285Y-179792857D01*
X175760714Y-179650000D01*
X175903571Y-179578571D01*
X176189285Y-179578571D01*
X176332142Y-179650000D01*
X176403571Y-179792857D01*
X176403571Y-179935714D01*
X175689285Y-180078571D01*
X177046428Y-180578571D02*
X177046428Y-179578571D01*
X177046428Y-179864285D02*
X177117857Y-179721428D01*
X177189285Y-179650000D01*
X177332142Y-179578571D01*
X177475000Y-179578571D01*
X179975000Y-180435714D02*
X179903571Y-180507142D01*
X179689285Y-180578571D01*
X179546428Y-180578571D01*
X179332142Y-180507142D01*
X179189285Y-180364285D01*
X179117857Y-180221428D01*
X179046428Y-179935714D01*
X179046428Y-179721428D01*
X179117857Y-179435714D01*
X179189285Y-179292857D01*
X179332142Y-179150000D01*
X179546428Y-179078571D01*
X179689285Y-179078571D01*
X179903571Y-179150000D01*
X179975000Y-179221428D01*
X180617857Y-179792857D02*
X181117857Y-179792857D01*
X181332142Y-180578571D02*
X180617857Y-180578571D01*
X180617857Y-179078571D01*
X181332142Y-179078571D01*
X182832142Y-180578571D02*
X182332142Y-179864285D01*
X181975000Y-180578571D02*
X181975000Y-179078571D01*
X182546428Y-179078571D01*
X182689285Y-179150000D01*
X182760714Y-179221428D01*
X182832142Y-179364285D01*
X182832142Y-179578571D01*
X182760714Y-179721428D01*
X182689285Y-179792857D01*
X182546428Y-179864285D01*
X181975000Y-179864285D01*
X183475000Y-180578571D02*
X183475000Y-179078571D01*
X184332142Y-180578571D01*
X184332142Y-179078571D01*
X186475000Y-179078571D02*
X186760714Y-179078571D01*
X186903571Y-179150000D01*
X187046428Y-179292857D01*
X187117857Y-179578571D01*
X187117857Y-180078571D01*
X187046428Y-180364285D01*
X186903571Y-180507142D01*
X186760714Y-180578571D01*
X186475000Y-180578571D01*
X186332142Y-180507142D01*
X186189285Y-180364285D01*
X186117857Y-180078571D01*
X186117857Y-179578571D01*
X186189285Y-179292857D01*
X186332142Y-179150000D01*
X186475000Y-179078571D01*
X187760714Y-180578571D02*
X187760714Y-179078571D01*
X187760714Y-179792857D02*
X188617857Y-179792857D01*
X188617857Y-180578571D02*
X188617857Y-179078571D01*
X190046428Y-180578571D02*
X189332142Y-180578571D01*
X189332142Y-179078571D01*
X191546428Y-179578571D02*
X191903571Y-180578571D01*
X192260714Y-179578571D01*
X192832142Y-180435714D02*
X192903571Y-180507142D01*
X192832142Y-180578571D01*
X192760714Y-180507142D01*
X192832142Y-180435714D01*
X192832142Y-180578571D01*
X194332142Y-180578571D02*
X193475000Y-180578571D01*
X193903571Y-180578571D02*
X193903571Y-179078571D01*
X193760714Y-179292857D01*
X193617857Y-179435714D01*
X193475000Y-179507142D01*
X194975000Y-180435714D02*
X195046428Y-180507142D01*
X194975000Y-180578571D01*
X194903571Y-180507142D01*
X194975000Y-180435714D01*
X194975000Y-180578571D01*
X195617857Y-179221428D02*
X195689285Y-179150000D01*
X195832142Y-179078571D01*
X196189285Y-179078571D01*
X196332142Y-179150000D01*
X196403571Y-179221428D01*
X196475000Y-179364285D01*
X196475000Y-179507142D01*
X196403571Y-179721428D01*
X195546428Y-180578571D01*
X196475000Y-180578571D01*
D10*
D11*
X179400000Y-197400000D02*
X179400000Y-200400000D01*
D10*
D11*
X243400000Y-197400000D02*
X243400000Y-203900000D01*
D14*
X151952380Y-64852157D02*
X151952380Y-64661681D01*
X152000000Y-64572395D01*
X152095238Y-64489062D01*
X152285714Y-64465252D01*
X152619047Y-64506919D01*
X152809523Y-64578348D01*
X152904761Y-64685491D01*
X152952380Y-64786681D01*
X152952380Y-64977157D01*
X152904761Y-65066443D01*
X152809523Y-65149776D01*
X152619047Y-65173586D01*
X152285714Y-65131919D01*
X152095238Y-65060491D01*
X152000000Y-64953348D01*
X151952380Y-64852157D01*
X152952380Y-64120014D02*
X151952380Y-63995014D01*
X152952380Y-63548586D01*
X151952380Y-63423586D01*
X157952380Y-67977157D02*
X157952380Y-68453348D01*
X156952380Y-68328348D01*
X157952380Y-67643824D02*
X156952380Y-67518824D01*
X156952380Y-67137872D01*
X157000000Y-67048586D01*
X157047619Y-67006919D01*
X157142857Y-66971205D01*
X157285714Y-66989062D01*
X157380952Y-67048586D01*
X157428571Y-67102157D01*
X157476190Y-67203348D01*
X157476190Y-67584300D01*
X157428571Y-66245014D02*
X157428571Y-66578348D01*
X157952380Y-66643824D02*
X156952380Y-66518824D01*
X156952380Y-66042633D01*
X136702380Y-79042633D02*
X136702380Y-78375967D01*
X137702380Y-78929538D01*
X136702380Y-77518824D02*
X136702380Y-77995014D01*
X137178571Y-78102157D01*
X137130952Y-78048586D01*
X137083333Y-77947395D01*
X137083333Y-77709300D01*
X137130952Y-77620014D01*
X137178571Y-77578348D01*
X137273809Y-77542633D01*
X137511904Y-77572395D01*
X137607142Y-77631919D01*
X137654761Y-77685491D01*
X137702380Y-77786681D01*
X137702380Y-78024776D01*
X137654761Y-78114062D01*
X137607142Y-78155729D01*
X137702380Y-76596205D02*
X137226190Y-76870014D01*
X137702380Y-77167633D02*
X136702380Y-77042633D01*
X136702380Y-76661681D01*
X136750000Y-76572395D01*
X136797619Y-76530729D01*
X136892857Y-76495014D01*
X137035714Y-76512872D01*
X137130952Y-76572395D01*
X137178571Y-76625967D01*
X137226190Y-76727157D01*
X137226190Y-77108110D01*
X136452380Y-84054538D02*
X136452380Y-83483110D01*
X137452380Y-83893824D02*
X136452380Y-83768824D01*
X136452380Y-83292633D02*
X136452380Y-82721205D01*
X137452380Y-83131919D02*
X136452380Y-83006919D01*
X137452380Y-82036681D02*
X137452380Y-82512872D01*
X136452380Y-82387872D01*
D12*
X130392857Y-75857142D02*
X130607142Y-75928571D01*
X130964285Y-75928571D01*
X131107142Y-75857142D01*
X131178571Y-75785714D01*
X131250000Y-75642857D01*
X131250000Y-75500000D01*
X131178571Y-75357142D01*
X131107142Y-75285714D01*
X130964285Y-75214285D01*
X130678571Y-75142857D01*
X130535714Y-75071428D01*
X130464285Y-75000000D01*
X130392857Y-74857142D01*
X130392857Y-74714285D01*
X130464285Y-74571428D01*
X130535714Y-74500000D01*
X130678571Y-74428571D01*
X131035714Y-74428571D01*
X131250000Y-74500000D01*
X132178571Y-75214285D02*
X132178571Y-75928571D01*
X131678571Y-74428571D02*
X132178571Y-75214285D01*
X132678571Y-74428571D01*
X133178571Y-75928571D02*
X133178571Y-74428571D01*
X134035714Y-75928571D01*
X134035714Y-74428571D01*
X135607142Y-75785714D02*
X135535714Y-75857142D01*
X135321428Y-75928571D01*
X135178571Y-75928571D01*
X134964285Y-75857142D01*
X134821428Y-75714285D01*
X134750000Y-75571428D01*
X134678571Y-75285714D01*
X134678571Y-75071428D01*
X134750000Y-74785714D01*
X134821428Y-74642857D01*
X134964285Y-74500000D01*
X135178571Y-74428571D01*
X135321428Y-74428571D01*
X135535714Y-74500000D01*
X135607142Y-74571428D01*
D15*
X158500000Y-62000000D02*
X125500000Y-62000000D01*
D14*
X157428571Y-72971205D02*
X157476190Y-72834300D01*
X157523809Y-72792633D01*
X157619047Y-72756919D01*
X157761904Y-72774776D01*
X157857142Y-72834300D01*
X157904761Y-72887872D01*
X157952380Y-72989062D01*
X157952380Y-73370014D01*
X156952380Y-73245014D01*
X156952380Y-72911681D01*
X157000000Y-72822395D01*
X157047619Y-72780729D01*
X157142857Y-72745014D01*
X157238095Y-72756919D01*
X157333333Y-72816443D01*
X157380952Y-72870014D01*
X157428571Y-72971205D01*
X157428571Y-73304538D01*
X157000000Y-76227157D02*
X156952380Y-76316443D01*
X156952380Y-76459300D01*
X157000000Y-76608110D01*
X157095238Y-76715252D01*
X157190476Y-76774776D01*
X157380952Y-76846205D01*
X157523809Y-76864062D01*
X157714285Y-76840252D01*
X157809523Y-76804538D01*
X157904761Y-76721205D01*
X157952380Y-76584300D01*
X157952380Y-76489062D01*
X157904761Y-76340252D01*
X157857142Y-76286681D01*
X157523809Y-76245014D01*
X157523809Y-76435491D01*
X157952380Y-79798586D02*
X157476190Y-80072395D01*
X157952380Y-80370014D02*
X156952380Y-80245014D01*
X156952380Y-79864062D01*
X157000000Y-79774776D01*
X157047619Y-79733110D01*
X157142857Y-79697395D01*
X157285714Y-79715252D01*
X157380952Y-79774776D01*
X157428571Y-79828348D01*
X157476190Y-79929538D01*
X157476190Y-80310491D01*
X157904761Y-85340252D02*
X157952380Y-85203348D01*
X157952380Y-84965252D01*
X157904761Y-84864062D01*
X157857142Y-84810491D01*
X157761904Y-84750967D01*
X157666666Y-84739062D01*
X157571428Y-84774776D01*
X157523809Y-84816443D01*
X157476190Y-84905729D01*
X157428571Y-85090252D01*
X157380952Y-85179538D01*
X157333333Y-85221205D01*
X157238095Y-85256919D01*
X157142857Y-85245014D01*
X157047619Y-85185491D01*
X157000000Y-85131919D01*
X156952380Y-85030729D01*
X156952380Y-84792633D01*
X157000000Y-84655729D01*
X157476190Y-84096205D02*
X157952380Y-84155729D01*
X156952380Y-84364062D02*
X157476190Y-84096205D01*
X156952380Y-83697395D01*
X157952380Y-83489062D02*
X156952380Y-83364062D01*
X157952380Y-82917633D01*
X156952380Y-82792633D01*
X157857142Y-81858110D02*
X157904761Y-81911681D01*
X157952380Y-82060491D01*
X157952380Y-82155729D01*
X157904761Y-82292633D01*
X157809523Y-82375967D01*
X157714285Y-82411681D01*
X157523809Y-82435491D01*
X157380952Y-82417633D01*
X157190476Y-82346205D01*
X157095238Y-82286681D01*
X157000000Y-82179538D01*
X156952380Y-82030729D01*
X156952380Y-81935491D01*
X157000000Y-81798586D01*
X157047619Y-81756919D01*
X131796651Y-87452380D02*
X131320461Y-87452380D01*
X131445461Y-86452380D01*
X132195461Y-86928571D02*
X132528794Y-86928571D01*
X132606175Y-87452380D02*
X132129985Y-87452380D01*
X132254985Y-86452380D01*
X132731175Y-86452380D01*
X133433556Y-86928571D02*
X133100223Y-86928571D01*
X133034747Y-87452380D02*
X133159747Y-86452380D01*
X133635937Y-86452380D01*
X133874032Y-86452380D02*
X134445461Y-86452380D01*
X134034747Y-87452380D02*
X134159747Y-86452380D01*
X134701413Y-87071428D02*
X135463318Y-87071428D01*
X136475223Y-87357142D02*
X136421651Y-87404761D01*
X136272842Y-87452380D01*
X136177604Y-87452380D01*
X136040699Y-87404761D01*
X135957366Y-87309523D01*
X135921651Y-87214285D01*
X135897842Y-87023809D01*
X135915699Y-86880952D01*
X135987127Y-86690476D01*
X136046651Y-86595238D01*
X136153794Y-86500000D01*
X136302604Y-86452380D01*
X136397842Y-86452380D01*
X136534747Y-86500000D01*
X136576413Y-86547619D01*
X136891889Y-87452380D02*
X137016889Y-86452380D01*
X136957366Y-86928571D02*
X137528794Y-86928571D01*
X137463318Y-87452380D02*
X137588318Y-86452380D01*
X146415699Y-87452380D02*
X146141889Y-86976190D01*
X145844270Y-87452380D02*
X145969270Y-86452380D01*
X146350223Y-86452380D01*
X146439508Y-86500000D01*
X146481175Y-86547619D01*
X146516889Y-86642857D01*
X146499032Y-86785714D01*
X146439508Y-86880952D01*
X146385937Y-86928571D01*
X146284747Y-86976190D01*
X145903794Y-86976190D01*
X146844270Y-87452380D02*
X146969270Y-86452380D01*
X147963318Y-86500000D02*
X147874032Y-86452380D01*
X147731175Y-86452380D01*
X147582366Y-86500000D01*
X147475223Y-86595238D01*
X147415699Y-86690476D01*
X147344270Y-86880952D01*
X147326413Y-87023809D01*
X147350223Y-87214285D01*
X147385937Y-87309523D01*
X147469270Y-87404761D01*
X147606175Y-87452380D01*
X147701413Y-87452380D01*
X147850223Y-87404761D01*
X147903794Y-87357142D01*
X147945461Y-87023809D01*
X147754985Y-87023809D01*
X148320461Y-87452380D02*
X148445461Y-86452380D01*
X148385937Y-86928571D02*
X148957366Y-86928571D01*
X148891889Y-87452380D02*
X149016889Y-86452380D01*
X149350223Y-86452380D02*
X149921651Y-86452380D01*
X149510937Y-87452380D02*
X149635937Y-86452380D01*
X150177604Y-87071428D02*
X150939508Y-87071428D01*
X151951413Y-87357142D02*
X151897842Y-87404761D01*
X151749032Y-87452380D01*
X151653794Y-87452380D01*
X151516889Y-87404761D01*
X151433556Y-87309523D01*
X151397842Y-87214285D01*
X151374032Y-87023809D01*
X151391889Y-86880952D01*
X151463318Y-86690476D01*
X151522842Y-86595238D01*
X151629985Y-86500000D01*
X151778794Y-86452380D01*
X151874032Y-86452380D01*
X152010937Y-86500000D01*
X152052604Y-86547619D01*
X152368080Y-87452380D02*
X152493080Y-86452380D01*
X152433556Y-86928571D02*
X153004985Y-86928571D01*
X152939508Y-87452380D02*
X153064508Y-86452380D01*
D15*
X138500000Y-86000000D02*
X126000000Y-86000000D01*
X138500000Y-84500000D02*
X138500000Y-86000000D01*
X145000000Y-84500000D02*
X138500000Y-84500000D01*
X145000000Y-86000000D02*
X145000000Y-84500000D01*
X158000000Y-86000000D02*
X145000000Y-86000000D01*
X140000000Y-107500000D02*
X140000000Y-108500000D01*
X144000000Y-107500000D02*
X140000000Y-107500000D01*
X144000000Y-108500000D02*
X144000000Y-107500000D01*
D14*
X142547619Y-103527976D02*
X142500000Y-103474404D01*
X142452380Y-103373214D01*
X142452380Y-103135119D01*
X142500000Y-103045833D01*
X142547619Y-103004166D01*
X142642857Y-102968452D01*
X142738095Y-102980357D01*
X142880952Y-103045833D01*
X143452380Y-103688690D01*
X143452380Y-103069642D01*
X143452380Y-102641071D02*
X142452380Y-102516071D01*
X143452380Y-102069642D02*
X142880952Y-102426785D01*
X142452380Y-101944642D02*
X143023809Y-102587500D01*
X142547619Y-101575595D02*
X142500000Y-101522023D01*
X142452380Y-101420833D01*
X142452380Y-101182738D01*
X142500000Y-101093452D01*
X142547619Y-101051785D01*
X142642857Y-101016071D01*
X142738095Y-101027976D01*
X142880952Y-101093452D01*
X143452380Y-101736309D01*
X143452380Y-101117261D01*
X140452380Y-103563690D02*
X140452380Y-102897023D01*
X141452380Y-103450595D01*
X140452380Y-102039880D02*
X140452380Y-102516071D01*
X140928571Y-102623214D01*
X140880952Y-102569642D01*
X140833333Y-102468452D01*
X140833333Y-102230357D01*
X140880952Y-102141071D01*
X140928571Y-102099404D01*
X141023809Y-102063690D01*
X141261904Y-102093452D01*
X141357142Y-102152976D01*
X141404761Y-102206547D01*
X141452380Y-102307738D01*
X141452380Y-102545833D01*
X141404761Y-102635119D01*
X141357142Y-102676785D01*
X140452380Y-101373214D02*
X140452380Y-101277976D01*
X140500000Y-101188690D01*
X140547619Y-101147023D01*
X140642857Y-101111309D01*
X140833333Y-101087500D01*
X141071428Y-101117261D01*
X141261904Y-101188690D01*
X141357142Y-101248214D01*
X141404761Y-101301785D01*
X141452380Y-101402976D01*
X141452380Y-101498214D01*
X141404761Y-101587500D01*
X141357142Y-101629166D01*
X141261904Y-101664880D01*
X141071428Y-101688690D01*
X140833333Y-101658928D01*
X140642857Y-101587500D01*
X140547619Y-101527976D01*
X140500000Y-101474404D01*
X140452380Y-101373214D01*
D15*
X144000000Y-108500000D02*
X158000000Y-108500000D01*
X126000000Y-108500000D02*
X140000000Y-108500000D01*
X158000000Y-99000000D02*
X126000000Y-99000000D01*
D14*
X151357142Y-104010119D02*
X151404761Y-104063690D01*
X151452380Y-104212500D01*
X151452380Y-104307738D01*
X151404761Y-104444642D01*
X151309523Y-104527976D01*
X151214285Y-104563690D01*
X151023809Y-104587500D01*
X150880952Y-104569642D01*
X150690476Y-104498214D01*
X150595238Y-104438690D01*
X150500000Y-104331547D01*
X150452380Y-104182738D01*
X150452380Y-104087500D01*
X150500000Y-103950595D01*
X150547619Y-103908928D01*
X151452380Y-103593452D02*
X150452380Y-103468452D01*
X150452380Y-103230357D01*
X150500000Y-103093452D01*
X150595238Y-103010119D01*
X150690476Y-102974404D01*
X150880952Y-102950595D01*
X151023809Y-102968452D01*
X151214285Y-103039880D01*
X151309523Y-103099404D01*
X151404761Y-103206547D01*
X151452380Y-103355357D01*
X151452380Y-103593452D01*
X150452380Y-102563690D02*
X150452380Y-101897023D01*
X151452380Y-102450595D01*
X150452380Y-101039880D02*
X150452380Y-101516071D01*
X150928571Y-101623214D01*
X150880952Y-101569642D01*
X150833333Y-101468452D01*
X150833333Y-101230357D01*
X150880952Y-101141071D01*
X150928571Y-101099404D01*
X151023809Y-101063690D01*
X151261904Y-101093452D01*
X151357142Y-101152976D01*
X151404761Y-101206547D01*
X151452380Y-101307738D01*
X151452380Y-101545833D01*
X151404761Y-101635119D01*
X151357142Y-101676785D01*
X154976190Y-104343452D02*
X155452380Y-104402976D01*
X154452380Y-104611309D02*
X154976190Y-104343452D01*
X154452380Y-103944642D01*
X155452380Y-103736309D02*
X154452380Y-103611309D01*
X155166666Y-103367261D01*
X154452380Y-102944642D01*
X155452380Y-103069642D01*
X154547619Y-102527976D02*
X154500000Y-102474404D01*
X154452380Y-102373214D01*
X154452380Y-102135119D01*
X154500000Y-102045833D01*
X154547619Y-102004166D01*
X154642857Y-101968452D01*
X154738095Y-101980357D01*
X154880952Y-102045833D01*
X155452380Y-102688690D01*
X155452380Y-102069642D01*
X155452380Y-101641071D02*
X154452380Y-101516071D01*
X155452380Y-101069642D02*
X154880952Y-101426785D01*
X154452380Y-100944642D02*
X155023809Y-101587500D01*
X154547619Y-100575595D02*
X154500000Y-100522023D01*
X154452380Y-100420833D01*
X154452380Y-100182738D01*
X154500000Y-100093452D01*
X154547619Y-100051785D01*
X154642857Y-100016071D01*
X154738095Y-100027976D01*
X154880952Y-100093452D01*
X155452380Y-100736309D01*
X155452380Y-100117261D01*
X146452380Y-104563690D02*
X146452380Y-103944642D01*
X146833333Y-104325595D01*
X146833333Y-104182738D01*
X146880952Y-104093452D01*
X146928571Y-104051785D01*
X147023809Y-104016071D01*
X147261904Y-104045833D01*
X147357142Y-104105357D01*
X147404761Y-104158928D01*
X147452380Y-104260119D01*
X147452380Y-104545833D01*
X147404761Y-104635119D01*
X147357142Y-104676785D01*
X146547619Y-103575595D02*
X146500000Y-103522023D01*
X146452380Y-103420833D01*
X146452380Y-103182738D01*
X146500000Y-103093452D01*
X146547619Y-103051785D01*
X146642857Y-103016071D01*
X146738095Y-103027976D01*
X146880952Y-103093452D01*
X147452380Y-103736309D01*
X147452380Y-103117261D01*
X146452380Y-102658928D02*
X147452380Y-102117261D01*
X146452380Y-101992261D02*
X147452380Y-102783928D01*
X146452380Y-101706547D02*
X146452380Y-101039880D01*
X147452380Y-101593452D01*
X146452380Y-100182738D02*
X146452380Y-100658928D01*
X146928571Y-100766071D01*
X146880952Y-100712500D01*
X146833333Y-100611309D01*
X146833333Y-100373214D01*
X146880952Y-100283928D01*
X146928571Y-100242261D01*
X147023809Y-100206547D01*
X147261904Y-100236309D01*
X147357142Y-100295833D01*
X147404761Y-100349404D01*
X147452380Y-100450595D01*
X147452380Y-100688690D01*
X147404761Y-100777976D01*
X147357142Y-100819642D01*
X157452380Y-108093452D02*
X156452380Y-107968452D01*
X156452380Y-107587500D01*
X156500000Y-107498214D01*
X156547619Y-107456547D01*
X156642857Y-107420833D01*
X156785714Y-107438690D01*
X156880952Y-107498214D01*
X156928571Y-107551785D01*
X156976190Y-107652976D01*
X156976190Y-108033928D01*
X156452380Y-106968452D02*
X157261904Y-107069642D01*
X157357142Y-107033928D01*
X157404761Y-106992261D01*
X157452380Y-106902976D01*
X157452380Y-106712500D01*
X157404761Y-106611309D01*
X157357142Y-106557738D01*
X157261904Y-106498214D01*
X156452380Y-106397023D01*
X157452380Y-105569642D02*
X157452380Y-106045833D01*
X156452380Y-105920833D01*
X157452380Y-104760119D02*
X157452380Y-105236309D01*
X156452380Y-105111309D01*
X157452380Y-104426785D02*
X156452380Y-104301785D01*
X156452380Y-104063690D01*
X156500000Y-103926785D01*
X156595238Y-103843452D01*
X156690476Y-103807738D01*
X156880952Y-103783928D01*
X157023809Y-103801785D01*
X157214285Y-103873214D01*
X157309523Y-103932738D01*
X157404761Y-104039880D01*
X157452380Y-104188690D01*
X157452380Y-104426785D01*
X156452380Y-103111309D02*
X156452380Y-102920833D01*
X156500000Y-102831547D01*
X156595238Y-102748214D01*
X156785714Y-102724404D01*
X157119047Y-102766071D01*
X157309523Y-102837500D01*
X157404761Y-102944642D01*
X157452380Y-103045833D01*
X157452380Y-103236309D01*
X157404761Y-103325595D01*
X157309523Y-103408928D01*
X157119047Y-103432738D01*
X156785714Y-103391071D01*
X156595238Y-103319642D01*
X156500000Y-103212500D01*
X156452380Y-103111309D01*
X156452380Y-102349404D02*
X157452380Y-102236309D01*
X156738095Y-101956547D01*
X157452380Y-101855357D01*
X156452380Y-101492261D01*
X157452380Y-101236309D02*
X156452380Y-101111309D01*
X157452380Y-100664880D01*
X156452380Y-100539880D01*
X157404761Y-100230357D02*
X157452380Y-100093452D01*
X157452380Y-99855357D01*
X157404761Y-99754166D01*
X157357142Y-99700595D01*
X157261904Y-99641071D01*
X157166666Y-99629166D01*
X157071428Y-99664880D01*
X157023809Y-99706547D01*
X156976190Y-99795833D01*
X156928571Y-99980357D01*
X156880952Y-100069642D01*
X156833333Y-100111309D01*
X156738095Y-100147023D01*
X156642857Y-100135119D01*
X156547619Y-100075595D01*
X156500000Y-100022023D01*
X156452380Y-99920833D01*
X156452380Y-99682738D01*
X156500000Y-99545833D01*
X127452380Y-108093452D02*
X126452380Y-107968452D01*
X126452380Y-107587500D01*
X126500000Y-107498214D01*
X126547619Y-107456547D01*
X126642857Y-107420833D01*
X126785714Y-107438690D01*
X126880952Y-107498214D01*
X126928571Y-107551785D01*
X126976190Y-107652976D01*
X126976190Y-108033928D01*
X126452380Y-106968452D02*
X127261904Y-107069642D01*
X127357142Y-107033928D01*
X127404761Y-106992261D01*
X127452380Y-106902976D01*
X127452380Y-106712500D01*
X127404761Y-106611309D01*
X127357142Y-106557738D01*
X127261904Y-106498214D01*
X126452380Y-106397023D01*
X127452380Y-105569642D02*
X127452380Y-106045833D01*
X126452380Y-105920833D01*
X127452380Y-104760119D02*
X127452380Y-105236309D01*
X126452380Y-105111309D01*
X127452380Y-104426785D02*
X126452380Y-104301785D01*
X126452380Y-104063690D01*
X126500000Y-103926785D01*
X126595238Y-103843452D01*
X126690476Y-103807738D01*
X126880952Y-103783928D01*
X127023809Y-103801785D01*
X127214285Y-103873214D01*
X127309523Y-103932738D01*
X127404761Y-104039880D01*
X127452380Y-104188690D01*
X127452380Y-104426785D01*
X126452380Y-103111309D02*
X126452380Y-102920833D01*
X126500000Y-102831547D01*
X126595238Y-102748214D01*
X126785714Y-102724404D01*
X127119047Y-102766071D01*
X127309523Y-102837500D01*
X127404761Y-102944642D01*
X127452380Y-103045833D01*
X127452380Y-103236309D01*
X127404761Y-103325595D01*
X127309523Y-103408928D01*
X127119047Y-103432738D01*
X126785714Y-103391071D01*
X126595238Y-103319642D01*
X126500000Y-103212500D01*
X126452380Y-103111309D01*
X126452380Y-102349404D02*
X127452380Y-102236309D01*
X126738095Y-101956547D01*
X127452380Y-101855357D01*
X126452380Y-101492261D01*
X127452380Y-101236309D02*
X126452380Y-101111309D01*
X127452380Y-100664880D01*
X126452380Y-100539880D01*
X127404761Y-100230357D02*
X127452380Y-100093452D01*
X127452380Y-99855357D01*
X127404761Y-99754166D01*
X127357142Y-99700595D01*
X127261904Y-99641071D01*
X127166666Y-99629166D01*
X127071428Y-99664880D01*
X127023809Y-99706547D01*
X126976190Y-99795833D01*
X126928571Y-99980357D01*
X126880952Y-100069642D01*
X126833333Y-100111309D01*
X126738095Y-100147023D01*
X126642857Y-100135119D01*
X126547619Y-100075595D01*
X126500000Y-100022023D01*
X126452380Y-99920833D01*
X126452380Y-99682738D01*
X126500000Y-99545833D01*
X136452380Y-104563690D02*
X136452380Y-103944642D01*
X136833333Y-104325595D01*
X136833333Y-104182738D01*
X136880952Y-104093452D01*
X136928571Y-104051785D01*
X137023809Y-104016071D01*
X137261904Y-104045833D01*
X137357142Y-104105357D01*
X137404761Y-104158928D01*
X137452380Y-104260119D01*
X137452380Y-104545833D01*
X137404761Y-104635119D01*
X137357142Y-104676785D01*
X136547619Y-103575595D02*
X136500000Y-103522023D01*
X136452380Y-103420833D01*
X136452380Y-103182738D01*
X136500000Y-103093452D01*
X136547619Y-103051785D01*
X136642857Y-103016071D01*
X136738095Y-103027976D01*
X136880952Y-103093452D01*
X137452380Y-103736309D01*
X137452380Y-103117261D01*
X136452380Y-102658928D02*
X137452380Y-102117261D01*
X136452380Y-101992261D02*
X137452380Y-102783928D01*
X136452380Y-101706547D02*
X136452380Y-101039880D01*
X137452380Y-101593452D01*
X136452380Y-100182738D02*
X136452380Y-100658928D01*
X136928571Y-100766071D01*
X136880952Y-100712500D01*
X136833333Y-100611309D01*
X136833333Y-100373214D01*
X136880952Y-100283928D01*
X136928571Y-100242261D01*
X137023809Y-100206547D01*
X137261904Y-100236309D01*
X137357142Y-100295833D01*
X137404761Y-100349404D01*
X137452380Y-100450595D01*
X137452380Y-100688690D01*
X137404761Y-100777976D01*
X137357142Y-100819642D01*
X128976190Y-104343452D02*
X129452380Y-104402976D01*
X128452380Y-104611309D02*
X128976190Y-104343452D01*
X128452380Y-103944642D01*
X129452380Y-103736309D02*
X128452380Y-103611309D01*
X129166666Y-103367261D01*
X128452380Y-102944642D01*
X129452380Y-103069642D01*
X128547619Y-102527976D02*
X128500000Y-102474404D01*
X128452380Y-102373214D01*
X128452380Y-102135119D01*
X128500000Y-102045833D01*
X128547619Y-102004166D01*
X128642857Y-101968452D01*
X128738095Y-101980357D01*
X128880952Y-102045833D01*
X129452380Y-102688690D01*
X129452380Y-102069642D01*
X129452380Y-101641071D02*
X128452380Y-101516071D01*
X129452380Y-101069642D02*
X128880952Y-101426785D01*
X128452380Y-100944642D02*
X129023809Y-101587500D01*
X128547619Y-100575595D02*
X128500000Y-100522023D01*
X128452380Y-100420833D01*
X128452380Y-100182738D01*
X128500000Y-100093452D01*
X128547619Y-100051785D01*
X128642857Y-100016071D01*
X128738095Y-100027976D01*
X128880952Y-100093452D01*
X129452380Y-100736309D01*
X129452380Y-100117261D01*
X133357142Y-104010119D02*
X133404761Y-104063690D01*
X133452380Y-104212500D01*
X133452380Y-104307738D01*
X133404761Y-104444642D01*
X133309523Y-104527976D01*
X133214285Y-104563690D01*
X133023809Y-104587500D01*
X132880952Y-104569642D01*
X132690476Y-104498214D01*
X132595238Y-104438690D01*
X132500000Y-104331547D01*
X132452380Y-104182738D01*
X132452380Y-104087500D01*
X132500000Y-103950595D01*
X132547619Y-103908928D01*
X133452380Y-103593452D02*
X132452380Y-103468452D01*
X132452380Y-103230357D01*
X132500000Y-103093452D01*
X132595238Y-103010119D01*
X132690476Y-102974404D01*
X132880952Y-102950595D01*
X133023809Y-102968452D01*
X133214285Y-103039880D01*
X133309523Y-103099404D01*
X133404761Y-103206547D01*
X133452380Y-103355357D01*
X133452380Y-103593452D01*
X132452380Y-102563690D02*
X132452380Y-101897023D01*
X133452380Y-102450595D01*
X132452380Y-101039880D02*
X132452380Y-101516071D01*
X132928571Y-101623214D01*
X132880952Y-101569642D01*
X132833333Y-101468452D01*
X132833333Y-101230357D01*
X132880952Y-101141071D01*
X132928571Y-101099404D01*
X133023809Y-101063690D01*
X133261904Y-101093452D01*
X133357142Y-101152976D01*
X133404761Y-101206547D01*
X133452380Y-101307738D01*
X133452380Y-101545833D01*
X133404761Y-101635119D01*
X133357142Y-101676785D01*
X140653794Y-100452380D02*
X140778794Y-99452380D01*
X141159747Y-99452380D01*
X141249032Y-99500000D01*
X141290699Y-99547619D01*
X141326413Y-99642857D01*
X141308556Y-99785714D01*
X141249032Y-99880952D01*
X141195461Y-99928571D01*
X141094270Y-99976190D01*
X140713318Y-99976190D01*
X141612127Y-100404761D02*
X141749032Y-100452380D01*
X141987127Y-100452380D01*
X142088318Y-100404761D01*
X142141889Y-100357142D01*
X142201413Y-100261904D01*
X142213318Y-100166666D01*
X142177604Y-100071428D01*
X142135937Y-100023809D01*
X142046651Y-99976190D01*
X141862127Y-99928571D01*
X141772842Y-99880952D01*
X141731175Y-99833333D01*
X141695461Y-99738095D01*
X141707366Y-99642857D01*
X141766889Y-99547619D01*
X141820461Y-99500000D01*
X141921651Y-99452380D01*
X142159747Y-99452380D01*
X142296651Y-99500000D01*
X143249032Y-99500000D02*
X143159747Y-99452380D01*
X143016889Y-99452380D01*
X142868080Y-99500000D01*
X142760937Y-99595238D01*
X142701413Y-99690476D01*
X142629985Y-99880952D01*
X142612127Y-100023809D01*
X142635937Y-100214285D01*
X142671651Y-100309523D01*
X142754985Y-100404761D01*
X142891889Y-100452380D01*
X142987127Y-100452380D01*
X143135937Y-100404761D01*
X143189508Y-100357142D01*
X143231175Y-100023809D01*
X143040699Y-100023809D01*
X154290699Y-87047619D02*
X154344270Y-87000000D01*
X154445461Y-86952380D01*
X154683556Y-86952380D01*
X154772842Y-87000000D01*
X154814508Y-87047619D01*
X154850223Y-87142857D01*
X154838318Y-87238095D01*
X154772842Y-87380952D01*
X154129985Y-87952380D01*
X154749032Y-87952380D01*
X155731175Y-86952380D02*
X155540699Y-86952380D01*
X155439508Y-87000000D01*
X155385937Y-87047619D01*
X155272842Y-87190476D01*
X155201413Y-87380952D01*
X155153794Y-87761904D01*
X155189508Y-87857142D01*
X155231175Y-87904761D01*
X155320461Y-87952380D01*
X155510937Y-87952380D01*
X155612127Y-87904761D01*
X155665699Y-87857142D01*
X155725223Y-87761904D01*
X155754985Y-87523809D01*
X155719270Y-87428571D01*
X155677604Y-87380952D01*
X155588318Y-87333333D01*
X155397842Y-87333333D01*
X155296651Y-87380952D01*
X155243080Y-87428571D01*
X155183556Y-87523809D01*
X156653794Y-87952380D02*
X156082366Y-87952380D01*
X156368080Y-87952380D02*
X156493080Y-86952380D01*
X156379985Y-87095238D01*
X156272842Y-87190476D01*
X156171651Y-87238095D01*
X157147842Y-87047619D02*
X157201413Y-87000000D01*
X157302604Y-86952380D01*
X157540699Y-86952380D01*
X157629985Y-87000000D01*
X157671651Y-87047619D01*
X157707366Y-87142857D01*
X157695461Y-87238095D01*
X157629985Y-87380952D01*
X156987127Y-87952380D01*
X157606175Y-87952380D01*
X154475223Y-95666666D02*
X154951413Y-95666666D01*
X154344270Y-95952380D02*
X154802604Y-94952380D01*
X155010937Y-95952380D01*
X155302604Y-95904761D02*
X155439508Y-95952380D01*
X155677604Y-95952380D01*
X155778794Y-95904761D01*
X155832366Y-95857142D01*
X155891889Y-95761904D01*
X155903794Y-95666666D01*
X155868080Y-95571428D01*
X155826413Y-95523809D01*
X155737127Y-95476190D01*
X155552604Y-95428571D01*
X155463318Y-95380952D01*
X155421651Y-95333333D01*
X155385937Y-95238095D01*
X155397842Y-95142857D01*
X155457366Y-95047619D01*
X155510937Y-95000000D01*
X155612127Y-94952380D01*
X155850223Y-94952380D01*
X155987127Y-95000000D01*
X156296651Y-95952380D02*
X156421651Y-94952380D01*
X157356175Y-95857142D02*
X157302604Y-95904761D01*
X157153794Y-95952380D01*
X157058556Y-95952380D01*
X156921651Y-95904761D01*
X156838318Y-95809523D01*
X156802604Y-95714285D01*
X156778794Y-95523809D01*
X156796651Y-95380952D01*
X156868080Y-95190476D01*
X156927604Y-95095238D01*
X157034747Y-95000000D01*
X157183556Y-94952380D01*
X157278794Y-94952380D01*
X157415699Y-95000000D01*
X157457366Y-95047619D01*
X154820461Y-91000000D02*
X154731175Y-90952380D01*
X154588318Y-90952380D01*
X154439508Y-91000000D01*
X154332366Y-91095238D01*
X154272842Y-91190476D01*
X154201413Y-91380952D01*
X154183556Y-91523809D01*
X154207366Y-91714285D01*
X154243080Y-91809523D01*
X154326413Y-91904761D01*
X154463318Y-91952380D01*
X154558556Y-91952380D01*
X154707366Y-91904761D01*
X154760937Y-91857142D01*
X154802604Y-91523809D01*
X154612127Y-91523809D01*
X155493080Y-90952380D02*
X155683556Y-90952380D01*
X155772842Y-91000000D01*
X155856175Y-91095238D01*
X155879985Y-91285714D01*
X155838318Y-91619047D01*
X155766889Y-91809523D01*
X155659747Y-91904761D01*
X155558556Y-91952380D01*
X155368080Y-91952380D01*
X155278794Y-91904761D01*
X155195461Y-91809523D01*
X155171651Y-91619047D01*
X155213318Y-91285714D01*
X155284747Y-91095238D01*
X155391889Y-91000000D01*
X155493080Y-90952380D01*
X156213318Y-91666666D02*
X156689508Y-91666666D01*
X156082366Y-91952380D02*
X156540699Y-90952380D01*
X156749032Y-91952380D01*
X157665699Y-91857142D02*
X157612127Y-91904761D01*
X157463318Y-91952380D01*
X157368080Y-91952380D01*
X157231175Y-91904761D01*
X157147842Y-91809523D01*
X157112127Y-91714285D01*
X157088318Y-91523809D01*
X157106175Y-91380952D01*
X157177604Y-91190476D01*
X157237127Y-91095238D01*
X157344270Y-91000000D01*
X157493080Y-90952380D01*
X157588318Y-90952380D01*
X157725223Y-91000000D01*
X157766889Y-91047619D01*
X126475223Y-95666666D02*
X126951413Y-95666666D01*
X126344270Y-95952380D02*
X126802604Y-94952380D01*
X127010937Y-95952380D01*
X127302604Y-95904761D02*
X127439508Y-95952380D01*
X127677604Y-95952380D01*
X127778794Y-95904761D01*
X127832366Y-95857142D01*
X127891889Y-95761904D01*
X127903794Y-95666666D01*
X127868080Y-95571428D01*
X127826413Y-95523809D01*
X127737127Y-95476190D01*
X127552604Y-95428571D01*
X127463318Y-95380952D01*
X127421651Y-95333333D01*
X127385937Y-95238095D01*
X127397842Y-95142857D01*
X127457366Y-95047619D01*
X127510937Y-95000000D01*
X127612127Y-94952380D01*
X127850223Y-94952380D01*
X127987127Y-95000000D01*
X128296651Y-95952380D02*
X128421651Y-94952380D01*
X129356175Y-95857142D02*
X129302604Y-95904761D01*
X129153794Y-95952380D01*
X129058556Y-95952380D01*
X128921651Y-95904761D01*
X128838318Y-95809523D01*
X128802604Y-95714285D01*
X128778794Y-95523809D01*
X128796651Y-95380952D01*
X128868080Y-95190476D01*
X128927604Y-95095238D01*
X129034747Y-95000000D01*
X129183556Y-94952380D01*
X129278794Y-94952380D01*
X129415699Y-95000000D01*
X129457366Y-95047619D01*
X126820461Y-91000000D02*
X126731175Y-90952380D01*
X126588318Y-90952380D01*
X126439508Y-91000000D01*
X126332366Y-91095238D01*
X126272842Y-91190476D01*
X126201413Y-91380952D01*
X126183556Y-91523809D01*
X126207366Y-91714285D01*
X126243080Y-91809523D01*
X126326413Y-91904761D01*
X126463318Y-91952380D01*
X126558556Y-91952380D01*
X126707366Y-91904761D01*
X126760937Y-91857142D01*
X126802604Y-91523809D01*
X126612127Y-91523809D01*
X127493080Y-90952380D02*
X127683556Y-90952380D01*
X127772842Y-91000000D01*
X127856175Y-91095238D01*
X127879985Y-91285714D01*
X127838318Y-91619047D01*
X127766889Y-91809523D01*
X127659747Y-91904761D01*
X127558556Y-91952380D01*
X127368080Y-91952380D01*
X127278794Y-91904761D01*
X127195461Y-91809523D01*
X127171651Y-91619047D01*
X127213318Y-91285714D01*
X127284747Y-91095238D01*
X127391889Y-91000000D01*
X127493080Y-90952380D01*
X128213318Y-91666666D02*
X128689508Y-91666666D01*
X128082366Y-91952380D02*
X128540699Y-90952380D01*
X128749032Y-91952380D01*
X129665699Y-91857142D02*
X129612127Y-91904761D01*
X129463318Y-91952380D01*
X129368080Y-91952380D01*
X129231175Y-91904761D01*
X129147842Y-91809523D01*
X129112127Y-91714285D01*
X129088318Y-91523809D01*
X129106175Y-91380952D01*
X129177604Y-91190476D01*
X129237127Y-91095238D01*
X129344270Y-91000000D01*
X129493080Y-90952380D01*
X129588318Y-90952380D01*
X129725223Y-91000000D01*
X129766889Y-91047619D01*
X126290699Y-87047619D02*
X126344270Y-87000000D01*
X126445461Y-86952380D01*
X126683556Y-86952380D01*
X126772842Y-87000000D01*
X126814508Y-87047619D01*
X126850223Y-87142857D01*
X126838318Y-87238095D01*
X126772842Y-87380952D01*
X126129985Y-87952380D01*
X126749032Y-87952380D01*
X127731175Y-86952380D02*
X127540699Y-86952380D01*
X127439508Y-87000000D01*
X127385937Y-87047619D01*
X127272842Y-87190476D01*
X127201413Y-87380952D01*
X127153794Y-87761904D01*
X127189508Y-87857142D01*
X127231175Y-87904761D01*
X127320461Y-87952380D01*
X127510937Y-87952380D01*
X127612127Y-87904761D01*
X127665699Y-87857142D01*
X127725223Y-87761904D01*
X127754985Y-87523809D01*
X127719270Y-87428571D01*
X127677604Y-87380952D01*
X127588318Y-87333333D01*
X127397842Y-87333333D01*
X127296651Y-87380952D01*
X127243080Y-87428571D01*
X127183556Y-87523809D01*
X128653794Y-87952380D02*
X128082366Y-87952380D01*
X128368080Y-87952380D02*
X128493080Y-86952380D01*
X128379985Y-87095238D01*
X128272842Y-87190476D01*
X128171651Y-87238095D01*
X129147842Y-87047619D02*
X129201413Y-87000000D01*
X129302604Y-86952380D01*
X129540699Y-86952380D01*
X129629985Y-87000000D01*
X129671651Y-87047619D01*
X129707366Y-87142857D01*
X129695461Y-87238095D01*
X129629985Y-87380952D01*
X128987127Y-87952380D01*
X129606175Y-87952380D01*
X151213318Y-117357142D02*
X151159747Y-117404761D01*
X151010937Y-117452380D01*
X150915699Y-117452380D01*
X150778794Y-117404761D01*
X150695461Y-117309523D01*
X150659747Y-117214285D01*
X150635937Y-117023809D01*
X150653794Y-116880952D01*
X150725223Y-116690476D01*
X150784747Y-116595238D01*
X150891889Y-116500000D01*
X151040699Y-116452380D01*
X151135937Y-116452380D01*
X151272842Y-116500000D01*
X151314508Y-116547619D01*
X151629985Y-117452380D02*
X151754985Y-116452380D01*
X151993080Y-116452380D01*
X152129985Y-116500000D01*
X152213318Y-116595238D01*
X152249032Y-116690476D01*
X152272842Y-116880952D01*
X152254985Y-117023809D01*
X152183556Y-117214285D01*
X152124032Y-117309523D01*
X152016889Y-117404761D01*
X151868080Y-117452380D01*
X151629985Y-117452380D01*
X153201413Y-117452380D02*
X152927604Y-116976190D01*
X152629985Y-117452380D02*
X152754985Y-116452380D01*
X153135937Y-116452380D01*
X153225223Y-116500000D01*
X153266889Y-116547619D01*
X153302604Y-116642857D01*
X153284747Y-116785714D01*
X153225223Y-116880952D01*
X153171651Y-116928571D01*
X153070461Y-116976190D01*
X152689508Y-116976190D01*
X134802604Y-116452380D02*
X135421651Y-116452380D01*
X135040699Y-116833333D01*
X135183556Y-116833333D01*
X135272842Y-116880952D01*
X135314508Y-116928571D01*
X135350223Y-117023809D01*
X135320461Y-117261904D01*
X135260937Y-117357142D01*
X135207366Y-117404761D01*
X135106175Y-117452380D01*
X134820461Y-117452380D01*
X134731175Y-117404761D01*
X134689508Y-117357142D01*
X135790699Y-116547619D02*
X135844270Y-116500000D01*
X135945461Y-116452380D01*
X136183556Y-116452380D01*
X136272842Y-116500000D01*
X136314508Y-116547619D01*
X136350223Y-116642857D01*
X136338318Y-116738095D01*
X136272842Y-116880952D01*
X135629985Y-117452380D01*
X136249032Y-117452380D01*
X137153794Y-117452380D02*
X136677604Y-117452380D01*
X136802604Y-116452380D01*
X126975223Y-116976190D02*
X126915699Y-117452380D01*
X126707366Y-116452380D02*
X126975223Y-116976190D01*
X127374032Y-116452380D01*
X127582366Y-117452380D02*
X127707366Y-116452380D01*
X127951413Y-117166666D01*
X128374032Y-116452380D01*
X128249032Y-117452380D01*
X129201413Y-117452380D02*
X128725223Y-117452380D01*
X128850223Y-116452380D01*
X154879985Y-116976190D02*
X154820461Y-117452380D01*
X154612127Y-116452380D02*
X154879985Y-116976190D01*
X155278794Y-116452380D01*
X155487127Y-117452380D02*
X155612127Y-116452380D01*
X155856175Y-117166666D01*
X156278794Y-116452380D01*
X156153794Y-117452380D01*
X157201413Y-117452380D02*
X156927604Y-116976190D01*
X156629985Y-117452380D02*
X156754985Y-116452380D01*
X157135937Y-116452380D01*
X157225223Y-116500000D01*
X157266889Y-116547619D01*
X157302604Y-116642857D01*
X157284747Y-116785714D01*
X157225223Y-116880952D01*
X157171651Y-116928571D01*
X157070461Y-116976190D01*
X156689508Y-116976190D01*
X146707366Y-116452380D02*
X147326413Y-116452380D01*
X146945461Y-116833333D01*
X147088318Y-116833333D01*
X147177604Y-116880952D01*
X147219270Y-116928571D01*
X147254985Y-117023809D01*
X147225223Y-117261904D01*
X147165699Y-117357142D01*
X147112127Y-117404761D01*
X147010937Y-117452380D01*
X146725223Y-117452380D01*
X146635937Y-117404761D01*
X146594270Y-117357142D01*
X147695461Y-116547619D02*
X147749032Y-116500000D01*
X147850223Y-116452380D01*
X148088318Y-116452380D01*
X148177604Y-116500000D01*
X148219270Y-116547619D01*
X148254985Y-116642857D01*
X148243080Y-116738095D01*
X148177604Y-116880952D01*
X147534747Y-117452380D01*
X148153794Y-117452380D01*
X149153794Y-117452380D02*
X148879985Y-116976190D01*
X148582366Y-117452380D02*
X148707366Y-116452380D01*
X149088318Y-116452380D01*
X149177604Y-116500000D01*
X149219270Y-116547619D01*
X149254985Y-116642857D01*
X149237127Y-116785714D01*
X149177604Y-116880952D01*
X149124032Y-116928571D01*
X149022842Y-116976190D01*
X148641889Y-116976190D01*
D16*
X126821428Y-63315476D02*
X127535714Y-63315476D01*
X127178571Y-64565476D02*
X127178571Y-63315476D01*
X128666666Y-64565476D02*
X128250000Y-63970238D01*
X127952380Y-64565476D02*
X127952380Y-63315476D01*
X128428571Y-63315476D01*
X128547619Y-63375000D01*
X128607142Y-63434523D01*
X128666666Y-63553571D01*
X128666666Y-63732142D01*
X128607142Y-63851190D01*
X128547619Y-63910714D01*
X128428571Y-63970238D01*
X127952380Y-63970238D01*
X129202380Y-64565476D02*
X129202380Y-63315476D01*
X129797619Y-64565476D02*
X129797619Y-63315476D01*
X130273809Y-63315476D01*
X130392857Y-63375000D01*
X130452380Y-63434523D01*
X130511904Y-63553571D01*
X130511904Y-63732142D01*
X130452380Y-63851190D01*
X130392857Y-63910714D01*
X130273809Y-63970238D01*
X129797619Y-63970238D01*
X131642857Y-64565476D02*
X131047619Y-64565476D01*
X131047619Y-63315476D01*
X132059523Y-63910714D02*
X132476190Y-63910714D01*
X132654761Y-64565476D02*
X132059523Y-64565476D01*
X132059523Y-63315476D01*
X132654761Y-63315476D01*
X134559523Y-63910714D02*
X134738095Y-63970238D01*
X134797619Y-64029761D01*
X134857142Y-64148809D01*
X134857142Y-64327380D01*
X134797619Y-64446428D01*
X134738095Y-64505952D01*
X134619047Y-64565476D01*
X134142857Y-64565476D01*
X134142857Y-63315476D01*
X134559523Y-63315476D01*
X134678571Y-63375000D01*
X134738095Y-63434523D01*
X134797619Y-63553571D01*
X134797619Y-63672619D01*
X134738095Y-63791666D01*
X134678571Y-63851190D01*
X134559523Y-63910714D01*
X134142857Y-63910714D01*
X135630952Y-63970238D02*
X135630952Y-64565476D01*
X135214285Y-63315476D02*
X135630952Y-63970238D01*
X136047619Y-63315476D01*
X136464285Y-64565476D02*
X136464285Y-63315476D01*
X136940476Y-63315476D01*
X137059523Y-63375000D01*
X137119047Y-63434523D01*
X137178571Y-63553571D01*
X137178571Y-63732142D01*
X137119047Y-63851190D01*
X137059523Y-63910714D01*
X136940476Y-63970238D01*
X136464285Y-63970238D01*
X137654761Y-64208333D02*
X138250000Y-64208333D01*
X137535714Y-64565476D02*
X137952380Y-63315476D01*
X138369047Y-64565476D01*
X138726190Y-64505952D02*
X138904761Y-64565476D01*
X139202380Y-64565476D01*
X139321428Y-64505952D01*
X139380952Y-64446428D01*
X139440476Y-64327380D01*
X139440476Y-64208333D01*
X139380952Y-64089285D01*
X139321428Y-64029761D01*
X139202380Y-63970238D01*
X138964285Y-63910714D01*
X138845238Y-63851190D01*
X138785714Y-63791666D01*
X138726190Y-63672619D01*
X138726190Y-63553571D01*
X138785714Y-63434523D01*
X138845238Y-63375000D01*
X138964285Y-63315476D01*
X139261904Y-63315476D01*
X139440476Y-63375000D01*
X139916666Y-64505952D02*
X140095238Y-64565476D01*
X140392857Y-64565476D01*
X140511904Y-64505952D01*
X140571428Y-64446428D01*
X140630952Y-64327380D01*
X140630952Y-64208333D01*
X140571428Y-64089285D01*
X140511904Y-64029761D01*
X140392857Y-63970238D01*
X140154761Y-63910714D01*
X140035714Y-63851190D01*
X139976190Y-63791666D01*
X139916666Y-63672619D01*
X139916666Y-63553571D01*
X139976190Y-63434523D01*
X140035714Y-63375000D01*
X140154761Y-63315476D01*
X140452380Y-63315476D01*
X140630952Y-63375000D01*
X142059523Y-64208333D02*
X142654761Y-64208333D01*
X141940476Y-64565476D02*
X142357142Y-63315476D01*
X142773809Y-64565476D01*
X143190476Y-64565476D02*
X143190476Y-63315476D01*
X144023809Y-63315476D02*
X144261904Y-63315476D01*
X144380952Y-63375000D01*
X144500000Y-63494047D01*
X144559523Y-63732142D01*
X144559523Y-64148809D01*
X144500000Y-64386904D01*
X144380952Y-64505952D01*
X144261904Y-64565476D01*
X144023809Y-64565476D01*
X143904761Y-64505952D01*
X143785714Y-64386904D01*
X143726190Y-64148809D01*
X143726190Y-63732142D01*
X143785714Y-63494047D01*
X143904761Y-63375000D01*
X144023809Y-63315476D01*
D15*
X137071428Y-66035714D02*
X137309523Y-66702380D01*
X137547619Y-66035714D01*
X138119047Y-65702380D02*
X138214285Y-65702380D01*
X138309523Y-65750000D01*
X138357142Y-65797619D01*
X138404761Y-65892857D01*
X138452380Y-66083333D01*
X138452380Y-66321428D01*
X138404761Y-66511904D01*
X138357142Y-66607142D01*
X138309523Y-66654761D01*
X138214285Y-66702380D01*
X138119047Y-66702380D01*
X138023809Y-66654761D01*
X137976190Y-66607142D01*
X137928571Y-66511904D01*
X137880952Y-66321428D01*
X137880952Y-66083333D01*
X137928571Y-65892857D01*
X137976190Y-65797619D01*
X138023809Y-65750000D01*
X138119047Y-65702380D01*
X138880952Y-66607142D02*
X138928571Y-66654761D01*
X138880952Y-66702380D01*
X138833333Y-66654761D01*
X138880952Y-66607142D01*
X138880952Y-66702380D01*
X139785714Y-66035714D02*
X139785714Y-66702380D01*
X139547619Y-65654761D02*
X139309523Y-66369047D01*
X139928571Y-66369047D01*
D12*
X127750000Y-76357142D02*
X127821428Y-76214285D01*
X127821428Y-76000000D01*
X127750000Y-75785714D01*
X127607142Y-75642857D01*
X127464285Y-75571428D01*
X127178571Y-75500000D01*
X126964285Y-75500000D01*
X126678571Y-75571428D01*
X126535714Y-75642857D01*
X126392857Y-75785714D01*
X126321428Y-76000000D01*
X126321428Y-76142857D01*
X126392857Y-76357142D01*
X126464285Y-76428571D01*
X126964285Y-76428571D01*
X126964285Y-76142857D01*
X126321428Y-77071428D02*
X127821428Y-77071428D01*
X126321428Y-77928571D01*
X127821428Y-77928571D01*
X126321428Y-78642857D02*
X127821428Y-78642857D01*
X127821428Y-79000000D01*
X127750000Y-79214285D01*
X127607142Y-79357142D01*
X127464285Y-79428571D01*
X127178571Y-79500000D01*
X126964285Y-79500000D01*
X126678571Y-79428571D01*
X126535714Y-79357142D01*
X126392857Y-79214285D01*
X126321428Y-79000000D01*
X126321428Y-78642857D01*
D14*
X140653794Y-117452380D02*
X140778794Y-116452380D01*
X141159747Y-116452380D01*
X141249032Y-116500000D01*
X141290699Y-116547619D01*
X141326413Y-116642857D01*
X141308556Y-116785714D01*
X141249032Y-116880952D01*
X141195461Y-116928571D01*
X141094270Y-116976190D01*
X140713318Y-116976190D01*
X141612127Y-117404761D02*
X141749032Y-117452380D01*
X141987127Y-117452380D01*
X142088318Y-117404761D01*
X142141889Y-117357142D01*
X142201413Y-117261904D01*
X142213318Y-117166666D01*
X142177604Y-117071428D01*
X142135937Y-117023809D01*
X142046651Y-116976190D01*
X141862127Y-116928571D01*
X141772842Y-116880952D01*
X141731175Y-116833333D01*
X141695461Y-116738095D01*
X141707366Y-116642857D01*
X141766889Y-116547619D01*
X141820461Y-116500000D01*
X141921651Y-116452380D01*
X142159747Y-116452380D01*
X142296651Y-116500000D01*
X143249032Y-116500000D02*
X143159747Y-116452380D01*
X143016889Y-116452380D01*
X142868080Y-116500000D01*
X142760937Y-116595238D01*
X142701413Y-116690476D01*
X142629985Y-116880952D01*
X142612127Y-117023809D01*
X142635937Y-117214285D01*
X142671651Y-117309523D01*
X142754985Y-117404761D01*
X142891889Y-117452380D01*
X142987127Y-117452380D01*
X143135937Y-117404761D01*
X143189508Y-117357142D01*
X143231175Y-117023809D01*
X143040699Y-117023809D01*
X131308556Y-117357142D02*
X131254985Y-117404761D01*
X131106175Y-117452380D01*
X131010937Y-117452380D01*
X130874032Y-117404761D01*
X130790699Y-117309523D01*
X130754985Y-117214285D01*
X130731175Y-117023809D01*
X130749032Y-116880952D01*
X130820461Y-116690476D01*
X130879985Y-116595238D01*
X130987127Y-116500000D01*
X131135937Y-116452380D01*
X131231175Y-116452380D01*
X131368080Y-116500000D01*
X131409747Y-116547619D01*
X131725223Y-117452380D02*
X131850223Y-116452380D01*
X132088318Y-116452380D01*
X132225223Y-116500000D01*
X132308556Y-116595238D01*
X132344270Y-116690476D01*
X132368080Y-116880952D01*
X132350223Y-117023809D01*
X132278794Y-117214285D01*
X132219270Y-117309523D01*
X132112127Y-117404761D01*
X131963318Y-117452380D01*
X131725223Y-117452380D01*
X133201413Y-117452380D02*
X132725223Y-117452380D01*
X132850223Y-116452380D01*
D12*
X127821428Y-83714285D02*
X127821428Y-83000000D01*
X127107142Y-82928571D01*
X127178571Y-83000000D01*
X127250000Y-83142857D01*
X127250000Y-83500000D01*
X127178571Y-83642857D01*
X127107142Y-83714285D01*
X126964285Y-83785714D01*
X126607142Y-83785714D01*
X126464285Y-83714285D01*
X126392857Y-83642857D01*
X126321428Y-83500000D01*
X126321428Y-83142857D01*
X126392857Y-83000000D01*
X126464285Y-82928571D01*
X127821428Y-84214285D02*
X126321428Y-84714285D01*
X127821428Y-85214285D01*
D17*
X158500000Y-62000000D02*
X158500000Y-118000000D01*
X125500000Y-118000000D02*
X125500000Y-62000000D01*
X125500000Y-118000000D02*
X158500000Y-118000000D01*
D11*
X143625000Y-95125000D02*
X143625000Y-95000000D01*
X140375000Y-95125000D02*
X140375000Y-94900000D01*
X140375000Y-91875000D02*
X140375000Y-92100000D01*
X143625000Y-91875000D02*
X143625000Y-92100000D01*
X143625000Y-95125000D02*
X140375000Y-95125000D01*
X143625000Y-91875000D02*
X140375000Y-91875000D01*
X143625000Y-95000000D02*
X144700000Y-95000000D01*
D18*
X142000000Y-104800000D02*
X142000000Y-106200000D01*
X141300000Y-106900000D02*
X140700000Y-106900000D01*
X140000000Y-106200000D02*
X140000000Y-104800000D01*
X140700000Y-104100000D02*
X141300000Y-104100000D01*
X141300000Y-104100000D02*
G75*
G02X142000000Y-104800000I0J-700000D01*
G01*
X140000000Y-104800000D02*
G75*
G02X140700000Y-104100000I700000J0D01*
G01*
X140700000Y-106900000D02*
G75*
G02X140000000Y-106200000I0J700000D01*
G01*
X142000000Y-106200000D02*
G75*
G02X141300000Y-106900000I-700000J0D01*
G01*
X144000000Y-106200000D02*
G75*
G02X143300000Y-106900000I-700000J0D01*
G01*
X142700000Y-106900000D02*
G75*
G02X142000000Y-106200000I0J700000D01*
G01*
X142000000Y-104800000D02*
G75*
G02X142700000Y-104100000I700000J0D01*
G01*
X143300000Y-104100000D02*
G75*
G02X144000000Y-104800000I0J-700000D01*
G01*
X142700000Y-104100000D02*
X143300000Y-104100000D01*
X142000000Y-106200000D02*
X142000000Y-104800000D01*
X143300000Y-106900000D02*
X142700000Y-106900000D01*
X144000000Y-104800000D02*
X144000000Y-106200000D01*
X152000000Y-107200000D02*
G75*
G02X151300000Y-107900000I-700000J0D01*
G01*
X150700000Y-107900000D02*
G75*
G02X150000000Y-107200000I0J700000D01*
G01*
X150000000Y-105800000D02*
G75*
G02X150700000Y-105100000I700000J0D01*
G01*
X151300000Y-105100000D02*
G75*
G02X152000000Y-105800000I0J-700000D01*
G01*
X150700000Y-105100000D02*
X151300000Y-105100000D01*
X150000000Y-107200000D02*
X150000000Y-105800000D01*
X151300000Y-107900000D02*
X150700000Y-107900000D01*
X152000000Y-105800000D02*
X152000000Y-107200000D01*
X126490000Y-111837221D02*
X126490000Y-112162779D01*
X127510000Y-111837221D02*
X127510000Y-112162779D01*
X128700000Y-90500000D02*
X127300000Y-90500000D01*
X126600000Y-89800000D02*
X126600000Y-89200000D01*
X127300000Y-88500000D02*
X128700000Y-88500000D01*
X129400000Y-89200000D02*
X129400000Y-89800000D01*
X129400000Y-89800000D02*
G75*
G02X128700000Y-90500000I-700000J0D01*
G01*
X128700000Y-88500000D02*
G75*
G02X129400000Y-89200000I0J-700000D01*
G01*
X126600000Y-89200000D02*
G75*
G02X127300000Y-88500000I700000J0D01*
G01*
X127300000Y-90500000D02*
G75*
G02X126600000Y-89800000I0J700000D01*
G01*
X155300000Y-92500000D02*
X156700000Y-92500000D01*
X157400000Y-93200000D02*
X157400000Y-93800000D01*
X156700000Y-94500000D02*
X155300000Y-94500000D01*
X154600000Y-93800000D02*
X154600000Y-93200000D01*
X154600000Y-93200000D02*
G75*
G02X155300000Y-92500000I700000J0D01*
G01*
X155300000Y-94500000D02*
G75*
G02X154600000Y-93800000I0J700000D01*
G01*
X157400000Y-93800000D02*
G75*
G02X156700000Y-94500000I-700000J0D01*
G01*
X156700000Y-92500000D02*
G75*
G02X157400000Y-93200000I0J-700000D01*
G01*
X156700000Y-88500000D02*
G75*
G02X157400000Y-89200000I0J-700000D01*
G01*
X157400000Y-89800000D02*
G75*
G02X156700000Y-90500000I-700000J0D01*
G01*
X155300000Y-90500000D02*
G75*
G02X154600000Y-89800000I0J700000D01*
G01*
X154600000Y-89200000D02*
G75*
G02X155300000Y-88500000I700000J0D01*
G01*
X154600000Y-89800000D02*
X154600000Y-89200000D01*
X156700000Y-90500000D02*
X155300000Y-90500000D01*
X157400000Y-89200000D02*
X157400000Y-89800000D01*
X155300000Y-88500000D02*
X156700000Y-88500000D01*
X128700000Y-98500000D02*
X127300000Y-98500000D01*
X126600000Y-97800000D02*
X126600000Y-97200000D01*
X127300000Y-96500000D02*
X128700000Y-96500000D01*
X129400000Y-97200000D02*
X129400000Y-97800000D01*
X129400000Y-97800000D02*
G75*
G02X128700000Y-98500000I-700000J0D01*
G01*
X128700000Y-96500000D02*
G75*
G02X129400000Y-97200000I0J-700000D01*
G01*
X126600000Y-97200000D02*
G75*
G02X127300000Y-96500000I700000J0D01*
G01*
X127300000Y-98500000D02*
G75*
G02X126600000Y-97800000I0J700000D01*
G01*
X127300000Y-94500000D02*
G75*
G02X126600000Y-93800000I0J700000D01*
G01*
X126600000Y-93200000D02*
G75*
G02X127300000Y-92500000I700000J0D01*
G01*
X128700000Y-92500000D02*
G75*
G02X129400000Y-93200000I0J-700000D01*
G01*
X129400000Y-93800000D02*
G75*
G02X128700000Y-94500000I-700000J0D01*
G01*
X129400000Y-93200000D02*
X129400000Y-93800000D01*
X127300000Y-92500000D02*
X128700000Y-92500000D01*
X126600000Y-93800000D02*
X126600000Y-93200000D01*
X128700000Y-94500000D02*
X127300000Y-94500000D01*
X134000000Y-105800000D02*
X134000000Y-107200000D01*
X133300000Y-107900000D02*
X132700000Y-107900000D01*
X132000000Y-107200000D02*
X132000000Y-105800000D01*
X132700000Y-105100000D02*
X133300000Y-105100000D01*
X133300000Y-105100000D02*
G75*
G02X134000000Y-105800000I0J-700000D01*
G01*
X132000000Y-105800000D02*
G75*
G02X132700000Y-105100000I700000J0D01*
G01*
X132700000Y-107900000D02*
G75*
G02X132000000Y-107200000I0J700000D01*
G01*
X134000000Y-107200000D02*
G75*
G02X133300000Y-107900000I-700000J0D01*
G01*
X156000000Y-107200000D02*
G75*
G02X155300000Y-107900000I-700000J0D01*
G01*
X154700000Y-107900000D02*
G75*
G02X154000000Y-107200000I0J700000D01*
G01*
X154000000Y-105800000D02*
G75*
G02X154700000Y-105100000I700000J0D01*
G01*
X155300000Y-105100000D02*
G75*
G02X156000000Y-105800000I0J-700000D01*
G01*
X154700000Y-105100000D02*
X155300000Y-105100000D01*
X154000000Y-107200000D02*
X154000000Y-105800000D01*
X155300000Y-107900000D02*
X154700000Y-107900000D01*
X156000000Y-105800000D02*
X156000000Y-107200000D01*
X130000000Y-105800000D02*
X130000000Y-107200000D01*
X129300000Y-107900000D02*
X128700000Y-107900000D01*
X128000000Y-107200000D02*
X128000000Y-105800000D01*
X128700000Y-105100000D02*
X129300000Y-105100000D01*
X129300000Y-105100000D02*
G75*
G02X130000000Y-105800000I0J-700000D01*
G01*
X128000000Y-105800000D02*
G75*
G02X128700000Y-105100000I700000J0D01*
G01*
X128700000Y-107900000D02*
G75*
G02X128000000Y-107200000I0J700000D01*
G01*
X130000000Y-107200000D02*
G75*
G02X129300000Y-107900000I-700000J0D01*
G01*
X156700000Y-96500000D02*
G75*
G02X157400000Y-97200000I0J-700000D01*
G01*
X157400000Y-97800000D02*
G75*
G02X156700000Y-98500000I-700000J0D01*
G01*
X155300000Y-98500000D02*
G75*
G02X154600000Y-97800000I0J700000D01*
G01*
X154600000Y-97200000D02*
G75*
G02X155300000Y-96500000I700000J0D01*
G01*
X154600000Y-97800000D02*
X154600000Y-97200000D01*
X156700000Y-98500000D02*
X155300000Y-98500000D01*
X157400000Y-97200000D02*
X157400000Y-97800000D01*
X155300000Y-96500000D02*
X156700000Y-96500000D01*
X148000000Y-105800000D02*
X148000000Y-107200000D01*
X147300000Y-107900000D02*
X146700000Y-107900000D01*
X146000000Y-107200000D02*
X146000000Y-105800000D01*
X146700000Y-105100000D02*
X147300000Y-105100000D01*
X147300000Y-105100000D02*
G75*
G02X148000000Y-105800000I0J-700000D01*
G01*
X146000000Y-105800000D02*
G75*
G02X146700000Y-105100000I700000J0D01*
G01*
X146700000Y-107900000D02*
G75*
G02X146000000Y-107200000I0J700000D01*
G01*
X148000000Y-107200000D02*
G75*
G02X147300000Y-107900000I-700000J0D01*
G01*
X138000000Y-107200000D02*
G75*
G02X137300000Y-107900000I-700000J0D01*
G01*
X136700000Y-107900000D02*
G75*
G02X136000000Y-107200000I0J700000D01*
G01*
X136000000Y-105800000D02*
G75*
G02X136700000Y-105100000I700000J0D01*
G01*
X137300000Y-105100000D02*
G75*
G02X138000000Y-105800000I0J-700000D01*
G01*
X136700000Y-105100000D02*
X137300000Y-105100000D01*
X136000000Y-107200000D02*
X136000000Y-105800000D01*
X137300000Y-107900000D02*
X136700000Y-107900000D01*
X138000000Y-105800000D02*
X138000000Y-107200000D01*
X139510000Y-106662779D02*
X139510000Y-106337221D01*
X138490000Y-106662779D02*
X138490000Y-106337221D01*
X135510000Y-112162779D02*
X135510000Y-111837221D01*
X134490000Y-112162779D02*
X134490000Y-111837221D01*
X147490000Y-65662779D02*
X147490000Y-65337221D01*
X148510000Y-65662779D02*
X148510000Y-65337221D01*
X140337221Y-96510000D02*
X140662779Y-96510000D01*
X140337221Y-95490000D02*
X140662779Y-95490000D01*
X140510000Y-89337221D02*
X140510000Y-89662779D01*
X139490000Y-89337221D02*
X139490000Y-89662779D01*
X137490000Y-93337221D02*
X137490000Y-93662779D01*
X138510000Y-93337221D02*
X138510000Y-93662779D01*
X144490000Y-112162779D02*
X144490000Y-111837221D01*
X145510000Y-112162779D02*
X145510000Y-111837221D01*
X139510000Y-112162779D02*
X139510000Y-111837221D01*
X138490000Y-112162779D02*
X138490000Y-111837221D01*
X149510000Y-112162779D02*
X149510000Y-111837221D01*
X148490000Y-112162779D02*
X148490000Y-111837221D01*
X152490000Y-112162779D02*
X152490000Y-111837221D01*
X153510000Y-112162779D02*
X153510000Y-111837221D01*
X131510000Y-112162779D02*
X131510000Y-111837221D01*
X130490000Y-112162779D02*
X130490000Y-111837221D01*
X157510000Y-111837221D02*
X157510000Y-112162779D01*
X156490000Y-111837221D02*
X156490000Y-112162779D01*
X146510000Y-93337221D02*
X146510000Y-93662779D01*
X145490000Y-93337221D02*
X145490000Y-93662779D01*
X152662779Y-90510000D02*
X152337221Y-90510000D01*
X152662779Y-89490000D02*
X152337221Y-89490000D01*
X152662779Y-93490000D02*
X152337221Y-93490000D01*
X152662779Y-94510000D02*
X152337221Y-94510000D01*
X152662779Y-98510000D02*
X152337221Y-98510000D01*
X152662779Y-97490000D02*
X152337221Y-97490000D01*
X144490000Y-106662779D02*
X144490000Y-106337221D01*
X145510000Y-106662779D02*
X145510000Y-106337221D01*
X135490000Y-93337221D02*
X135490000Y-93662779D01*
X136510000Y-93337221D02*
X136510000Y-93662779D01*
X148510000Y-93337221D02*
X148510000Y-93662779D01*
X147490000Y-93337221D02*
X147490000Y-93662779D01*
X144510000Y-89662779D02*
X144510000Y-89337221D01*
X143490000Y-89662779D02*
X143490000Y-89337221D01*
X133490000Y-93662779D02*
X133490000Y-93337221D01*
X134510000Y-93662779D02*
X134510000Y-93337221D01*
X150510000Y-93662779D02*
X150510000Y-93337221D01*
X149490000Y-93662779D02*
X149490000Y-93337221D01*
X153760000Y-83337221D02*
X153760000Y-83662779D01*
X152740000Y-83337221D02*
X152740000Y-83662779D01*
X149337221Y-83260000D02*
X149662779Y-83260000D01*
X149337221Y-82240000D02*
X149662779Y-82240000D01*
X152740000Y-80412779D02*
X152740000Y-80087221D01*
X153760000Y-80412779D02*
X153760000Y-80087221D01*
X153760000Y-76912779D02*
X153760000Y-76587221D01*
X152740000Y-76912779D02*
X152740000Y-76587221D01*
X152740000Y-73412779D02*
X152740000Y-73087221D01*
X153760000Y-73412779D02*
X153760000Y-73087221D01*
X141490000Y-89337221D02*
X141490000Y-89662779D01*
X142510000Y-89337221D02*
X142510000Y-89662779D01*
X149662779Y-85010000D02*
X149337221Y-85010000D01*
X149662779Y-83990000D02*
X149337221Y-83990000D01*
X150990000Y-76587221D02*
X150990000Y-76912779D01*
X152010000Y-76587221D02*
X152010000Y-76912779D01*
X142490000Y-112162779D02*
X142490000Y-111837221D01*
X143510000Y-112162779D02*
X143510000Y-111837221D01*
X150990000Y-73087221D02*
X150990000Y-73412779D01*
X152010000Y-73087221D02*
X152010000Y-73412779D01*
X151337221Y-68740000D02*
X151662779Y-68740000D01*
X151337221Y-69760000D02*
X151662779Y-69760000D01*
X142162779Y-74990000D02*
X141837221Y-74990000D01*
X142162779Y-76010000D02*
X141837221Y-76010000D01*
X140490000Y-112162779D02*
X140490000Y-111837221D01*
X141510000Y-112162779D02*
X141510000Y-111837221D01*
X149510000Y-106662779D02*
X149510000Y-106337221D01*
X148490000Y-106662779D02*
X148490000Y-106337221D01*
X134490000Y-106662779D02*
X134490000Y-106337221D01*
X135510000Y-106662779D02*
X135510000Y-106337221D01*
X153510000Y-106662779D02*
X153510000Y-106337221D01*
X152490000Y-106662779D02*
X152490000Y-106337221D01*
X130490000Y-106662779D02*
X130490000Y-106337221D01*
X131510000Y-106662779D02*
X131510000Y-106337221D01*
X137510000Y-112162779D02*
X137510000Y-111837221D01*
X136490000Y-112162779D02*
X136490000Y-111837221D01*
X150490000Y-112162779D02*
X150490000Y-111837221D01*
X151510000Y-112162779D02*
X151510000Y-111837221D01*
X133510000Y-112162779D02*
X133510000Y-111837221D01*
X132490000Y-112162779D02*
X132490000Y-111837221D01*
X154490000Y-112162779D02*
X154490000Y-111837221D01*
X155510000Y-112162779D02*
X155510000Y-111837221D01*
X129510000Y-112162779D02*
X129510000Y-111837221D01*
X128490000Y-112162779D02*
X128490000Y-111837221D01*
X131337221Y-97490000D02*
X131662779Y-97490000D01*
X131337221Y-98510000D02*
X131662779Y-98510000D01*
X131337221Y-90510000D02*
X131662779Y-90510000D01*
X131337221Y-89490000D02*
X131662779Y-89490000D01*
X131337221Y-93490000D02*
X131662779Y-93490000D01*
X131337221Y-94510000D02*
X131662779Y-94510000D01*
X147510000Y-112162779D02*
X147510000Y-111837221D01*
X146490000Y-112162779D02*
X146490000Y-111837221D01*
X152010000Y-80087221D02*
X152010000Y-80412779D01*
X150990000Y-80087221D02*
X150990000Y-80412779D01*
D11*
X134750000Y-82000000D02*
X134750000Y-79000000D01*
X134750000Y-84750000D02*
X134750000Y-84000000D01*
X131250000Y-84750000D02*
X134750000Y-84750000D01*
X134750000Y-76250000D02*
X134750000Y-77000000D01*
X131250000Y-76250000D02*
X134750000Y-76250000D01*
X131250000Y-79500000D02*
X131250000Y-76250000D01*
X131250000Y-84750000D02*
X131250000Y-81500000D01*
X153250000Y-71500000D02*
X153250000Y-68250000D01*
X153250000Y-66250000D02*
X153250000Y-63000000D01*
X153250000Y-63000000D02*
X156750000Y-63000000D01*
X156750000Y-63000000D02*
X156750000Y-63750000D01*
X153250000Y-71500000D02*
X156750000Y-71500000D01*
X156750000Y-71500000D02*
X156750000Y-70750000D01*
X156750000Y-68750000D02*
X156750000Y-65750000D01*
D18*
X138590000Y-77090000D02*
X138590000Y-79440000D01*
X138590000Y-83910000D02*
X138590000Y-81560000D01*
X144345563Y-83910000D02*
X138590000Y-83910000D01*
X144345563Y-77090000D02*
X138590000Y-77090000D01*
X145410000Y-78154437D02*
X145410000Y-79440000D01*
X145410000Y-82845563D02*
X145410000Y-81560000D01*
X145410000Y-82845563D02*
X144345563Y-83910000D01*
X145410000Y-78154437D02*
X144345563Y-77090000D01*
X146437500Y-82347500D02*
X145650000Y-82347500D01*
X146043750Y-82741250D02*
X146043750Y-81953750D01*
X146400000Y-91435000D02*
X150485000Y-91435000D01*
X150485000Y-91435000D02*
X150485000Y-89565000D01*
X150485000Y-89565000D02*
X146400000Y-89565000D01*
X151685000Y-68235000D02*
X151685000Y-64150000D01*
X149815000Y-68235000D02*
X151685000Y-68235000D01*
X149815000Y-64150000D02*
X149815000Y-68235000D01*
X137600000Y-89565000D02*
X133515000Y-89565000D01*
X133515000Y-89565000D02*
X133515000Y-91435000D01*
X133515000Y-91435000D02*
X137600000Y-91435000D01*
D11*
X144375000Y-73575000D02*
X144500000Y-73575000D01*
X144375000Y-68925000D02*
X144600000Y-68925000D01*
X149625000Y-68925000D02*
X149400000Y-68925000D01*
X149625000Y-73575000D02*
X149400000Y-73575000D01*
X144375000Y-73575000D02*
X144375000Y-68925000D01*
X149625000Y-73575000D02*
X149625000Y-68925000D01*
X144500000Y-73575000D02*
X144500000Y-74925000D01*
D18*
X131050000Y-114050000D02*
X132950000Y-114050000D01*
X132950000Y-114050000D02*
X132950000Y-115950000D01*
X132950000Y-115950000D02*
X131050000Y-115950000D01*
X131050000Y-115950000D02*
X131050000Y-114050000D01*
X156450000Y-72050000D02*
X156450000Y-73950000D01*
X154550000Y-72050000D02*
X156450000Y-72050000D01*
X154550000Y-73950000D02*
X154550000Y-72050000D01*
X156450000Y-73950000D02*
X154550000Y-73950000D01*
X156450000Y-77450000D02*
X154550000Y-77450000D01*
X154550000Y-77450000D02*
X154550000Y-75550000D01*
X154550000Y-75550000D02*
X156450000Y-75550000D01*
X156450000Y-75550000D02*
X156450000Y-77450000D01*
X156450000Y-79050000D02*
X156450000Y-80950000D01*
X154550000Y-79050000D02*
X156450000Y-79050000D01*
X154550000Y-80950000D02*
X154550000Y-79050000D01*
X156450000Y-80950000D02*
X154550000Y-80950000D01*
X128550000Y-83050000D02*
X130450000Y-83050000D01*
X130450000Y-83050000D02*
X130450000Y-84950000D01*
X130450000Y-84950000D02*
X128550000Y-84950000D01*
X128550000Y-84950000D02*
X128550000Y-83050000D01*
X128550000Y-78450000D02*
X128550000Y-76550000D01*
X130450000Y-78450000D02*
X128550000Y-78450000D01*
X130450000Y-76550000D02*
X130450000Y-78450000D01*
X128550000Y-76550000D02*
X130450000Y-76550000D01*
X141050000Y-114050000D02*
X142950000Y-114050000D01*
X142950000Y-114050000D02*
X142950000Y-115950000D01*
X142950000Y-115950000D02*
X141050000Y-115950000D01*
X141050000Y-115950000D02*
X141050000Y-114050000D01*
X156450000Y-82550000D02*
X156450000Y-84450000D01*
X154550000Y-82550000D02*
X156450000Y-82550000D01*
X154550000Y-84450000D02*
X154550000Y-82550000D01*
X156450000Y-84450000D02*
X154550000Y-84450000D01*
X127050000Y-114050000D02*
X128950000Y-114050000D01*
X128950000Y-114050000D02*
X128950000Y-115950000D01*
X128950000Y-115950000D02*
X127050000Y-115950000D01*
X127050000Y-115950000D02*
X127050000Y-114050000D01*
X155050000Y-115950000D02*
X155050000Y-114050000D01*
X156950000Y-115950000D02*
X155050000Y-115950000D01*
X156950000Y-114050000D02*
X156950000Y-115950000D01*
X155050000Y-114050000D02*
X156950000Y-114050000D01*
X135050000Y-114050000D02*
X136950000Y-114050000D01*
X136950000Y-114050000D02*
X136950000Y-115950000D01*
X136950000Y-115950000D02*
X135050000Y-115950000D01*
X135050000Y-115950000D02*
X135050000Y-114050000D01*
X151050000Y-115950000D02*
X151050000Y-114050000D01*
X152950000Y-115950000D02*
X151050000Y-115950000D01*
X152950000Y-114050000D02*
X152950000Y-115950000D01*
X151050000Y-114050000D02*
X152950000Y-114050000D01*
X147050000Y-114050000D02*
X148950000Y-114050000D01*
X148950000Y-114050000D02*
X148950000Y-115950000D01*
X148950000Y-115950000D02*
X147050000Y-115950000D01*
X147050000Y-115950000D02*
X147050000Y-114050000D01*
D15*
X142357142Y-95678571D02*
X142357142Y-96892857D01*
X142428571Y-97035714D01*
X142500000Y-97107142D01*
X142642857Y-97178571D01*
X142928571Y-97178571D01*
X143071428Y-97107142D01*
X143142857Y-97035714D01*
X143214285Y-96892857D01*
X143214285Y-95678571D01*
X144714285Y-97178571D02*
X143857142Y-97178571D01*
X144285714Y-97178571D02*
X144285714Y-95678571D01*
X144142857Y-95892857D01*
X144000000Y-96035714D01*
X143857142Y-96107142D01*
D11*
X127357142Y-109666666D02*
X127404761Y-109714285D01*
X127452380Y-109857142D01*
X127452380Y-109952380D01*
X127404761Y-110095238D01*
X127309523Y-110190476D01*
X127214285Y-110238095D01*
X127023809Y-110285714D01*
X126880952Y-110285714D01*
X126690476Y-110238095D01*
X126595238Y-110190476D01*
X126500000Y-110095238D01*
X126452380Y-109952380D01*
X126452380Y-109857142D01*
X126500000Y-109714285D01*
X126547619Y-109666666D01*
X127452380Y-108714285D02*
X127452380Y-109285714D01*
X127452380Y-109000000D02*
X126452380Y-109000000D01*
X126595238Y-109095238D01*
X126690476Y-109190476D01*
X126738095Y-109285714D01*
X139452380Y-104142857D02*
X138976190Y-104476190D01*
X139452380Y-104714285D02*
X138452380Y-104714285D01*
X138452380Y-104333333D01*
X138500000Y-104238095D01*
X138547619Y-104190476D01*
X138642857Y-104142857D01*
X138785714Y-104142857D01*
X138880952Y-104190476D01*
X138928571Y-104238095D01*
X138976190Y-104333333D01*
X138976190Y-104714285D01*
X139452380Y-103190476D02*
X139452380Y-103761904D01*
X139452380Y-103476190D02*
X138452380Y-103476190D01*
X138595238Y-103571428D01*
X138690476Y-103666666D01*
X138738095Y-103761904D01*
X139452380Y-102714285D02*
X139452380Y-102523809D01*
X139404761Y-102428571D01*
X139357142Y-102380952D01*
X139214285Y-102285714D01*
X139023809Y-102238095D01*
X138642857Y-102238095D01*
X138547619Y-102285714D01*
X138500000Y-102333333D01*
X138452380Y-102428571D01*
X138452380Y-102619047D01*
X138500000Y-102714285D01*
X138547619Y-102761904D01*
X138642857Y-102809523D01*
X138880952Y-102809523D01*
X138976190Y-102761904D01*
X139023809Y-102714285D01*
X139071428Y-102619047D01*
X139071428Y-102428571D01*
X139023809Y-102333333D01*
X138976190Y-102285714D01*
X138880952Y-102238095D01*
X135357142Y-109666666D02*
X135404761Y-109714285D01*
X135452380Y-109857142D01*
X135452380Y-109952380D01*
X135404761Y-110095238D01*
X135309523Y-110190476D01*
X135214285Y-110238095D01*
X135023809Y-110285714D01*
X134880952Y-110285714D01*
X134690476Y-110238095D01*
X134595238Y-110190476D01*
X134500000Y-110095238D01*
X134452380Y-109952380D01*
X134452380Y-109857142D01*
X134500000Y-109714285D01*
X134547619Y-109666666D01*
X134452380Y-108761904D02*
X134452380Y-109238095D01*
X134928571Y-109285714D01*
X134880952Y-109238095D01*
X134833333Y-109142857D01*
X134833333Y-108904761D01*
X134880952Y-108809523D01*
X134928571Y-108761904D01*
X135023809Y-108714285D01*
X135261904Y-108714285D01*
X135357142Y-108761904D01*
X135404761Y-108809523D01*
X135452380Y-108904761D01*
X135452380Y-109142857D01*
X135404761Y-109238095D01*
X135357142Y-109285714D01*
X146857142Y-66142857D02*
X146904761Y-66190476D01*
X146952380Y-66333333D01*
X146952380Y-66428571D01*
X146904761Y-66571428D01*
X146809523Y-66666666D01*
X146714285Y-66714285D01*
X146523809Y-66761904D01*
X146380952Y-66761904D01*
X146190476Y-66714285D01*
X146095238Y-66666666D01*
X146000000Y-66571428D01*
X145952380Y-66428571D01*
X145952380Y-66333333D01*
X146000000Y-66190476D01*
X146047619Y-66142857D01*
X146952380Y-65190476D02*
X146952380Y-65761904D01*
X146952380Y-65476190D02*
X145952380Y-65476190D01*
X146095238Y-65571428D01*
X146190476Y-65666666D01*
X146238095Y-65761904D01*
X145952380Y-64857142D02*
X145952380Y-64190476D01*
X146952380Y-64619047D01*
X139857142Y-97857142D02*
X139809523Y-97904761D01*
X139666666Y-97952380D01*
X139571428Y-97952380D01*
X139428571Y-97904761D01*
X139333333Y-97809523D01*
X139285714Y-97714285D01*
X139238095Y-97523809D01*
X139238095Y-97380952D01*
X139285714Y-97190476D01*
X139333333Y-97095238D01*
X139428571Y-97000000D01*
X139571428Y-96952380D01*
X139666666Y-96952380D01*
X139809523Y-97000000D01*
X139857142Y-97047619D01*
X140809523Y-97952380D02*
X140238095Y-97952380D01*
X140523809Y-97952380D02*
X140523809Y-96952380D01*
X140428571Y-97095238D01*
X140333333Y-97190476D01*
X140238095Y-97238095D01*
X141142857Y-96952380D02*
X141761904Y-96952380D01*
X141428571Y-97333333D01*
X141571428Y-97333333D01*
X141666666Y-97380952D01*
X141714285Y-97428571D01*
X141761904Y-97523809D01*
X141761904Y-97761904D01*
X141714285Y-97857142D01*
X141666666Y-97904761D01*
X141571428Y-97952380D01*
X141285714Y-97952380D01*
X141190476Y-97904761D01*
X141142857Y-97857142D01*
X140357142Y-87142857D02*
X140404761Y-87190476D01*
X140452380Y-87333333D01*
X140452380Y-87428571D01*
X140404761Y-87571428D01*
X140309523Y-87666666D01*
X140214285Y-87714285D01*
X140023809Y-87761904D01*
X139880952Y-87761904D01*
X139690476Y-87714285D01*
X139595238Y-87666666D01*
X139500000Y-87571428D01*
X139452380Y-87428571D01*
X139452380Y-87333333D01*
X139500000Y-87190476D01*
X139547619Y-87142857D01*
X140452380Y-86190476D02*
X140452380Y-86761904D01*
X140452380Y-86476190D02*
X139452380Y-86476190D01*
X139595238Y-86571428D01*
X139690476Y-86666666D01*
X139738095Y-86761904D01*
X139547619Y-85809523D02*
X139500000Y-85761904D01*
X139452380Y-85666666D01*
X139452380Y-85428571D01*
X139500000Y-85333333D01*
X139547619Y-85285714D01*
X139642857Y-85238095D01*
X139738095Y-85238095D01*
X139880952Y-85285714D01*
X140452380Y-85857142D01*
X140452380Y-85238095D01*
X138357142Y-97142857D02*
X138404761Y-97190476D01*
X138452380Y-97333333D01*
X138452380Y-97428571D01*
X138404761Y-97571428D01*
X138309523Y-97666666D01*
X138214285Y-97714285D01*
X138023809Y-97761904D01*
X137880952Y-97761904D01*
X137690476Y-97714285D01*
X137595238Y-97666666D01*
X137500000Y-97571428D01*
X137452380Y-97428571D01*
X137452380Y-97333333D01*
X137500000Y-97190476D01*
X137547619Y-97142857D01*
X138452380Y-96190476D02*
X138452380Y-96761904D01*
X138452380Y-96476190D02*
X137452380Y-96476190D01*
X137595238Y-96571428D01*
X137690476Y-96666666D01*
X137738095Y-96761904D01*
X137452380Y-95571428D02*
X137452380Y-95476190D01*
X137500000Y-95380952D01*
X137547619Y-95333333D01*
X137642857Y-95285714D01*
X137833333Y-95238095D01*
X138071428Y-95238095D01*
X138261904Y-95285714D01*
X138357142Y-95333333D01*
X138404761Y-95380952D01*
X138452380Y-95476190D01*
X138452380Y-95571428D01*
X138404761Y-95666666D01*
X138357142Y-95714285D01*
X138261904Y-95761904D01*
X138071428Y-95809523D01*
X137833333Y-95809523D01*
X137642857Y-95761904D01*
X137547619Y-95714285D01*
X137500000Y-95666666D01*
X137452380Y-95571428D01*
X145357142Y-109666666D02*
X145404761Y-109714285D01*
X145452380Y-109857142D01*
X145452380Y-109952380D01*
X145404761Y-110095238D01*
X145309523Y-110190476D01*
X145214285Y-110238095D01*
X145023809Y-110285714D01*
X144880952Y-110285714D01*
X144690476Y-110238095D01*
X144595238Y-110190476D01*
X144500000Y-110095238D01*
X144452380Y-109952380D01*
X144452380Y-109857142D01*
X144500000Y-109714285D01*
X144547619Y-109666666D01*
X145452380Y-109190476D02*
X145452380Y-109000000D01*
X145404761Y-108904761D01*
X145357142Y-108857142D01*
X145214285Y-108761904D01*
X145023809Y-108714285D01*
X144642857Y-108714285D01*
X144547619Y-108761904D01*
X144500000Y-108809523D01*
X144452380Y-108904761D01*
X144452380Y-109095238D01*
X144500000Y-109190476D01*
X144547619Y-109238095D01*
X144642857Y-109285714D01*
X144880952Y-109285714D01*
X144976190Y-109238095D01*
X145023809Y-109190476D01*
X145071428Y-109095238D01*
X145071428Y-108904761D01*
X145023809Y-108809523D01*
X144976190Y-108761904D01*
X144880952Y-108714285D01*
X139357142Y-109666666D02*
X139404761Y-109714285D01*
X139452380Y-109857142D01*
X139452380Y-109952380D01*
X139404761Y-110095238D01*
X139309523Y-110190476D01*
X139214285Y-110238095D01*
X139023809Y-110285714D01*
X138880952Y-110285714D01*
X138690476Y-110238095D01*
X138595238Y-110190476D01*
X138500000Y-110095238D01*
X138452380Y-109952380D01*
X138452380Y-109857142D01*
X138500000Y-109714285D01*
X138547619Y-109666666D01*
X138880952Y-109095238D02*
X138833333Y-109190476D01*
X138785714Y-109238095D01*
X138690476Y-109285714D01*
X138642857Y-109285714D01*
X138547619Y-109238095D01*
X138500000Y-109190476D01*
X138452380Y-109095238D01*
X138452380Y-108904761D01*
X138500000Y-108809523D01*
X138547619Y-108761904D01*
X138642857Y-108714285D01*
X138690476Y-108714285D01*
X138785714Y-108761904D01*
X138833333Y-108809523D01*
X138880952Y-108904761D01*
X138880952Y-109095238D01*
X138928571Y-109190476D01*
X138976190Y-109238095D01*
X139071428Y-109285714D01*
X139261904Y-109285714D01*
X139357142Y-109238095D01*
X139404761Y-109190476D01*
X139452380Y-109095238D01*
X139452380Y-108904761D01*
X139404761Y-108809523D01*
X139357142Y-108761904D01*
X139261904Y-108714285D01*
X139071428Y-108714285D01*
X138976190Y-108761904D01*
X138928571Y-108809523D01*
X138880952Y-108904761D01*
X149357142Y-109666666D02*
X149404761Y-109714285D01*
X149452380Y-109857142D01*
X149452380Y-109952380D01*
X149404761Y-110095238D01*
X149309523Y-110190476D01*
X149214285Y-110238095D01*
X149023809Y-110285714D01*
X148880952Y-110285714D01*
X148690476Y-110238095D01*
X148595238Y-110190476D01*
X148500000Y-110095238D01*
X148452380Y-109952380D01*
X148452380Y-109857142D01*
X148500000Y-109714285D01*
X148547619Y-109666666D01*
X148452380Y-108809523D02*
X148452380Y-109000000D01*
X148500000Y-109095238D01*
X148547619Y-109142857D01*
X148690476Y-109238095D01*
X148880952Y-109285714D01*
X149261904Y-109285714D01*
X149357142Y-109238095D01*
X149404761Y-109190476D01*
X149452380Y-109095238D01*
X149452380Y-108904761D01*
X149404761Y-108809523D01*
X149357142Y-108761904D01*
X149261904Y-108714285D01*
X149023809Y-108714285D01*
X148928571Y-108761904D01*
X148880952Y-108809523D01*
X148833333Y-108904761D01*
X148833333Y-109095238D01*
X148880952Y-109190476D01*
X148928571Y-109238095D01*
X149023809Y-109285714D01*
X153357142Y-109666666D02*
X153404761Y-109714285D01*
X153452380Y-109857142D01*
X153452380Y-109952380D01*
X153404761Y-110095238D01*
X153309523Y-110190476D01*
X153214285Y-110238095D01*
X153023809Y-110285714D01*
X152880952Y-110285714D01*
X152690476Y-110238095D01*
X152595238Y-110190476D01*
X152500000Y-110095238D01*
X152452380Y-109952380D01*
X152452380Y-109857142D01*
X152500000Y-109714285D01*
X152547619Y-109666666D01*
X152785714Y-108809523D02*
X153452380Y-108809523D01*
X152404761Y-109047619D02*
X153119047Y-109285714D01*
X153119047Y-108666666D01*
X131357142Y-109666666D02*
X131404761Y-109714285D01*
X131452380Y-109857142D01*
X131452380Y-109952380D01*
X131404761Y-110095238D01*
X131309523Y-110190476D01*
X131214285Y-110238095D01*
X131023809Y-110285714D01*
X130880952Y-110285714D01*
X130690476Y-110238095D01*
X130595238Y-110190476D01*
X130500000Y-110095238D01*
X130452380Y-109952380D01*
X130452380Y-109857142D01*
X130500000Y-109714285D01*
X130547619Y-109666666D01*
X130452380Y-109333333D02*
X130452380Y-108714285D01*
X130833333Y-109047619D01*
X130833333Y-108904761D01*
X130880952Y-108809523D01*
X130928571Y-108761904D01*
X131023809Y-108714285D01*
X131261904Y-108714285D01*
X131357142Y-108761904D01*
X131404761Y-108809523D01*
X131452380Y-108904761D01*
X131452380Y-109190476D01*
X131404761Y-109285714D01*
X131357142Y-109333333D01*
X157357142Y-109666666D02*
X157404761Y-109714285D01*
X157452380Y-109857142D01*
X157452380Y-109952380D01*
X157404761Y-110095238D01*
X157309523Y-110190476D01*
X157214285Y-110238095D01*
X157023809Y-110285714D01*
X156880952Y-110285714D01*
X156690476Y-110238095D01*
X156595238Y-110190476D01*
X156500000Y-110095238D01*
X156452380Y-109952380D01*
X156452380Y-109857142D01*
X156500000Y-109714285D01*
X156547619Y-109666666D01*
X156547619Y-109285714D02*
X156500000Y-109238095D01*
X156452380Y-109142857D01*
X156452380Y-108904761D01*
X156500000Y-108809523D01*
X156547619Y-108761904D01*
X156642857Y-108714285D01*
X156738095Y-108714285D01*
X156880952Y-108761904D01*
X157452380Y-109333333D01*
X157452380Y-108714285D01*
X146357142Y-97142857D02*
X146404761Y-97190476D01*
X146452380Y-97333333D01*
X146452380Y-97428571D01*
X146404761Y-97571428D01*
X146309523Y-97666666D01*
X146214285Y-97714285D01*
X146023809Y-97761904D01*
X145880952Y-97761904D01*
X145690476Y-97714285D01*
X145595238Y-97666666D01*
X145500000Y-97571428D01*
X145452380Y-97428571D01*
X145452380Y-97333333D01*
X145500000Y-97190476D01*
X145547619Y-97142857D01*
X146452380Y-96190476D02*
X146452380Y-96761904D01*
X146452380Y-96476190D02*
X145452380Y-96476190D01*
X145595238Y-96571428D01*
X145690476Y-96666666D01*
X145738095Y-96761904D01*
X146452380Y-95238095D02*
X146452380Y-95809523D01*
X146452380Y-95523809D02*
X145452380Y-95523809D01*
X145595238Y-95619047D01*
X145690476Y-95714285D01*
X145738095Y-95809523D01*
X151857142Y-88952380D02*
X151523809Y-88476190D01*
X151285714Y-88952380D02*
X151285714Y-87952380D01*
X151666666Y-87952380D01*
X151761904Y-88000000D01*
X151809523Y-88047619D01*
X151857142Y-88142857D01*
X151857142Y-88285714D01*
X151809523Y-88380952D01*
X151761904Y-88428571D01*
X151666666Y-88476190D01*
X151285714Y-88476190D01*
X152809523Y-88952380D02*
X152238095Y-88952380D01*
X152523809Y-88952380D02*
X152523809Y-87952380D01*
X152428571Y-88095238D01*
X152333333Y-88190476D01*
X152238095Y-88238095D01*
X153666666Y-87952380D02*
X153476190Y-87952380D01*
X153380952Y-88000000D01*
X153333333Y-88047619D01*
X153238095Y-88190476D01*
X153190476Y-88380952D01*
X153190476Y-88761904D01*
X153238095Y-88857142D01*
X153285714Y-88904761D01*
X153380952Y-88952380D01*
X153571428Y-88952380D01*
X153666666Y-88904761D01*
X153714285Y-88857142D01*
X153761904Y-88761904D01*
X153761904Y-88523809D01*
X153714285Y-88428571D01*
X153666666Y-88380952D01*
X153571428Y-88333333D01*
X153380952Y-88333333D01*
X153285714Y-88380952D01*
X153238095Y-88428571D01*
X153190476Y-88523809D01*
X151857142Y-92952380D02*
X151523809Y-92476190D01*
X151285714Y-92952380D02*
X151285714Y-91952380D01*
X151666666Y-91952380D01*
X151761904Y-92000000D01*
X151809523Y-92047619D01*
X151857142Y-92142857D01*
X151857142Y-92285714D01*
X151809523Y-92380952D01*
X151761904Y-92428571D01*
X151666666Y-92476190D01*
X151285714Y-92476190D01*
X152809523Y-92952380D02*
X152238095Y-92952380D01*
X152523809Y-92952380D02*
X152523809Y-91952380D01*
X152428571Y-92095238D01*
X152333333Y-92190476D01*
X152238095Y-92238095D01*
X153142857Y-91952380D02*
X153809523Y-91952380D01*
X153380952Y-92952380D01*
X151857142Y-96952380D02*
X151523809Y-96476190D01*
X151285714Y-96952380D02*
X151285714Y-95952380D01*
X151666666Y-95952380D01*
X151761904Y-96000000D01*
X151809523Y-96047619D01*
X151857142Y-96142857D01*
X151857142Y-96285714D01*
X151809523Y-96380952D01*
X151761904Y-96428571D01*
X151666666Y-96476190D01*
X151285714Y-96476190D01*
X152809523Y-96952380D02*
X152238095Y-96952380D01*
X152523809Y-96952380D02*
X152523809Y-95952380D01*
X152428571Y-96095238D01*
X152333333Y-96190476D01*
X152238095Y-96238095D01*
X153380952Y-96380952D02*
X153285714Y-96333333D01*
X153238095Y-96285714D01*
X153190476Y-96190476D01*
X153190476Y-96142857D01*
X153238095Y-96047619D01*
X153285714Y-96000000D01*
X153380952Y-95952380D01*
X153571428Y-95952380D01*
X153666666Y-96000000D01*
X153714285Y-96047619D01*
X153761904Y-96142857D01*
X153761904Y-96190476D01*
X153714285Y-96285714D01*
X153666666Y-96333333D01*
X153571428Y-96380952D01*
X153380952Y-96380952D01*
X153285714Y-96428571D01*
X153238095Y-96476190D01*
X153190476Y-96571428D01*
X153190476Y-96761904D01*
X153238095Y-96857142D01*
X153285714Y-96904761D01*
X153380952Y-96952380D01*
X153571428Y-96952380D01*
X153666666Y-96904761D01*
X153714285Y-96857142D01*
X153761904Y-96761904D01*
X153761904Y-96571428D01*
X153714285Y-96476190D01*
X153666666Y-96428571D01*
X153571428Y-96380952D01*
X145452380Y-104142857D02*
X144976190Y-104476190D01*
X145452380Y-104714285D02*
X144452380Y-104714285D01*
X144452380Y-104333333D01*
X144500000Y-104238095D01*
X144547619Y-104190476D01*
X144642857Y-104142857D01*
X144785714Y-104142857D01*
X144880952Y-104190476D01*
X144928571Y-104238095D01*
X144976190Y-104333333D01*
X144976190Y-104714285D01*
X144547619Y-103761904D02*
X144500000Y-103714285D01*
X144452380Y-103619047D01*
X144452380Y-103380952D01*
X144500000Y-103285714D01*
X144547619Y-103238095D01*
X144642857Y-103190476D01*
X144738095Y-103190476D01*
X144880952Y-103238095D01*
X145452380Y-103809523D01*
X145452380Y-103190476D01*
X144452380Y-102571428D02*
X144452380Y-102476190D01*
X144500000Y-102380952D01*
X144547619Y-102333333D01*
X144642857Y-102285714D01*
X144833333Y-102238095D01*
X145071428Y-102238095D01*
X145261904Y-102285714D01*
X145357142Y-102333333D01*
X145404761Y-102380952D01*
X145452380Y-102476190D01*
X145452380Y-102571428D01*
X145404761Y-102666666D01*
X145357142Y-102714285D01*
X145261904Y-102761904D01*
X145071428Y-102809523D01*
X144833333Y-102809523D01*
X144642857Y-102761904D01*
X144547619Y-102714285D01*
X144500000Y-102666666D01*
X144452380Y-102571428D01*
X136452380Y-97142857D02*
X135976190Y-97476190D01*
X136452380Y-97714285D02*
X135452380Y-97714285D01*
X135452380Y-97333333D01*
X135500000Y-97238095D01*
X135547619Y-97190476D01*
X135642857Y-97142857D01*
X135785714Y-97142857D01*
X135880952Y-97190476D01*
X135928571Y-97238095D01*
X135976190Y-97333333D01*
X135976190Y-97714285D01*
X135547619Y-96761904D02*
X135500000Y-96714285D01*
X135452380Y-96619047D01*
X135452380Y-96380952D01*
X135500000Y-96285714D01*
X135547619Y-96238095D01*
X135642857Y-96190476D01*
X135738095Y-96190476D01*
X135880952Y-96238095D01*
X136452380Y-96809523D01*
X136452380Y-96190476D01*
X136452380Y-95238095D02*
X136452380Y-95809523D01*
X136452380Y-95523809D02*
X135452380Y-95523809D01*
X135595238Y-95619047D01*
X135690476Y-95714285D01*
X135738095Y-95809523D01*
X148452380Y-97142857D02*
X147976190Y-97476190D01*
X148452380Y-97714285D02*
X147452380Y-97714285D01*
X147452380Y-97333333D01*
X147500000Y-97238095D01*
X147547619Y-97190476D01*
X147642857Y-97142857D01*
X147785714Y-97142857D01*
X147880952Y-97190476D01*
X147928571Y-97238095D01*
X147976190Y-97333333D01*
X147976190Y-97714285D01*
X147547619Y-96761904D02*
X147500000Y-96714285D01*
X147452380Y-96619047D01*
X147452380Y-96380952D01*
X147500000Y-96285714D01*
X147547619Y-96238095D01*
X147642857Y-96190476D01*
X147738095Y-96190476D01*
X147880952Y-96238095D01*
X148452380Y-96809523D01*
X148452380Y-96190476D01*
X147547619Y-95809523D02*
X147500000Y-95761904D01*
X147452380Y-95666666D01*
X147452380Y-95428571D01*
X147500000Y-95333333D01*
X147547619Y-95285714D01*
X147642857Y-95238095D01*
X147738095Y-95238095D01*
X147880952Y-95285714D01*
X148452380Y-95857142D01*
X148452380Y-95238095D01*
X144452380Y-87142857D02*
X143976190Y-87476190D01*
X144452380Y-87714285D02*
X143452380Y-87714285D01*
X143452380Y-87333333D01*
X143500000Y-87238095D01*
X143547619Y-87190476D01*
X143642857Y-87142857D01*
X143785714Y-87142857D01*
X143880952Y-87190476D01*
X143928571Y-87238095D01*
X143976190Y-87333333D01*
X143976190Y-87714285D01*
X143547619Y-86761904D02*
X143500000Y-86714285D01*
X143452380Y-86619047D01*
X143452380Y-86380952D01*
X143500000Y-86285714D01*
X143547619Y-86238095D01*
X143642857Y-86190476D01*
X143738095Y-86190476D01*
X143880952Y-86238095D01*
X144452380Y-86809523D01*
X144452380Y-86190476D01*
X143785714Y-85333333D02*
X144452380Y-85333333D01*
X143404761Y-85571428D02*
X144119047Y-85809523D01*
X144119047Y-85190476D01*
X134452380Y-97142857D02*
X133976190Y-97476190D01*
X134452380Y-97714285D02*
X133452380Y-97714285D01*
X133452380Y-97333333D01*
X133500000Y-97238095D01*
X133547619Y-97190476D01*
X133642857Y-97142857D01*
X133785714Y-97142857D01*
X133880952Y-97190476D01*
X133928571Y-97238095D01*
X133976190Y-97333333D01*
X133976190Y-97714285D01*
X133547619Y-96761904D02*
X133500000Y-96714285D01*
X133452380Y-96619047D01*
X133452380Y-96380952D01*
X133500000Y-96285714D01*
X133547619Y-96238095D01*
X133642857Y-96190476D01*
X133738095Y-96190476D01*
X133880952Y-96238095D01*
X134452380Y-96809523D01*
X134452380Y-96190476D01*
X133452380Y-95285714D02*
X133452380Y-95761904D01*
X133928571Y-95809523D01*
X133880952Y-95761904D01*
X133833333Y-95666666D01*
X133833333Y-95428571D01*
X133880952Y-95333333D01*
X133928571Y-95285714D01*
X134023809Y-95238095D01*
X134261904Y-95238095D01*
X134357142Y-95285714D01*
X134404761Y-95333333D01*
X134452380Y-95428571D01*
X134452380Y-95666666D01*
X134404761Y-95761904D01*
X134357142Y-95809523D01*
X150452380Y-97142857D02*
X149976190Y-97476190D01*
X150452380Y-97714285D02*
X149452380Y-97714285D01*
X149452380Y-97333333D01*
X149500000Y-97238095D01*
X149547619Y-97190476D01*
X149642857Y-97142857D01*
X149785714Y-97142857D01*
X149880952Y-97190476D01*
X149928571Y-97238095D01*
X149976190Y-97333333D01*
X149976190Y-97714285D01*
X149547619Y-96761904D02*
X149500000Y-96714285D01*
X149452380Y-96619047D01*
X149452380Y-96380952D01*
X149500000Y-96285714D01*
X149547619Y-96238095D01*
X149642857Y-96190476D01*
X149738095Y-96190476D01*
X149880952Y-96238095D01*
X150452380Y-96809523D01*
X150452380Y-96190476D01*
X149452380Y-95333333D02*
X149452380Y-95523809D01*
X149500000Y-95619047D01*
X149547619Y-95666666D01*
X149690476Y-95761904D01*
X149880952Y-95809523D01*
X150261904Y-95809523D01*
X150357142Y-95761904D01*
X150404761Y-95714285D01*
X150452380Y-95619047D01*
X150452380Y-95428571D01*
X150404761Y-95333333D01*
X150357142Y-95285714D01*
X150261904Y-95238095D01*
X150023809Y-95238095D01*
X149928571Y-95285714D01*
X149880952Y-95333333D01*
X149833333Y-95428571D01*
X149833333Y-95619047D01*
X149880952Y-95714285D01*
X149928571Y-95761904D01*
X150023809Y-95809523D01*
X152202380Y-84142857D02*
X151726190Y-84476190D01*
X152202380Y-84714285D02*
X151202380Y-84714285D01*
X151202380Y-84333333D01*
X151250000Y-84238095D01*
X151297619Y-84190476D01*
X151392857Y-84142857D01*
X151535714Y-84142857D01*
X151630952Y-84190476D01*
X151678571Y-84238095D01*
X151726190Y-84333333D01*
X151726190Y-84714285D01*
X151297619Y-83761904D02*
X151250000Y-83714285D01*
X151202380Y-83619047D01*
X151202380Y-83380952D01*
X151250000Y-83285714D01*
X151297619Y-83238095D01*
X151392857Y-83190476D01*
X151488095Y-83190476D01*
X151630952Y-83238095D01*
X152202380Y-83809523D01*
X152202380Y-83190476D01*
X151202380Y-82857142D02*
X151202380Y-82190476D01*
X152202380Y-82619047D01*
X146107142Y-84202380D02*
X145773809Y-83726190D01*
X145535714Y-84202380D02*
X145535714Y-83202380D01*
X145916666Y-83202380D01*
X146011904Y-83250000D01*
X146059523Y-83297619D01*
X146107142Y-83392857D01*
X146107142Y-83535714D01*
X146059523Y-83630952D01*
X146011904Y-83678571D01*
X145916666Y-83726190D01*
X145535714Y-83726190D01*
X146488095Y-83297619D02*
X146535714Y-83250000D01*
X146630952Y-83202380D01*
X146869047Y-83202380D01*
X146964285Y-83250000D01*
X147011904Y-83297619D01*
X147059523Y-83392857D01*
X147059523Y-83488095D01*
X147011904Y-83630952D01*
X146440476Y-84202380D01*
X147059523Y-84202380D01*
X147630952Y-83630952D02*
X147535714Y-83583333D01*
X147488095Y-83535714D01*
X147440476Y-83440476D01*
X147440476Y-83392857D01*
X147488095Y-83297619D01*
X147535714Y-83250000D01*
X147630952Y-83202380D01*
X147821428Y-83202380D01*
X147916666Y-83250000D01*
X147964285Y-83297619D01*
X148011904Y-83392857D01*
X148011904Y-83440476D01*
X147964285Y-83535714D01*
X147916666Y-83583333D01*
X147821428Y-83630952D01*
X147630952Y-83630952D01*
X147535714Y-83678571D01*
X147488095Y-83726190D01*
X147440476Y-83821428D01*
X147440476Y-84011904D01*
X147488095Y-84107142D01*
X147535714Y-84154761D01*
X147630952Y-84202380D01*
X147821428Y-84202380D01*
X147916666Y-84154761D01*
X147964285Y-84107142D01*
X148011904Y-84011904D01*
X148011904Y-83821428D01*
X147964285Y-83726190D01*
X147916666Y-83678571D01*
X147821428Y-83630952D01*
X150452380Y-80892857D02*
X149976190Y-81226190D01*
X150452380Y-81464285D02*
X149452380Y-81464285D01*
X149452380Y-81083333D01*
X149500000Y-80988095D01*
X149547619Y-80940476D01*
X149642857Y-80892857D01*
X149785714Y-80892857D01*
X149880952Y-80940476D01*
X149928571Y-80988095D01*
X149976190Y-81083333D01*
X149976190Y-81464285D01*
X149547619Y-80511904D02*
X149500000Y-80464285D01*
X149452380Y-80369047D01*
X149452380Y-80130952D01*
X149500000Y-80035714D01*
X149547619Y-79988095D01*
X149642857Y-79940476D01*
X149738095Y-79940476D01*
X149880952Y-79988095D01*
X150452380Y-80559523D01*
X150452380Y-79940476D01*
X150452380Y-79464285D02*
X150452380Y-79273809D01*
X150404761Y-79178571D01*
X150357142Y-79130952D01*
X150214285Y-79035714D01*
X150023809Y-78988095D01*
X149642857Y-78988095D01*
X149547619Y-79035714D01*
X149500000Y-79083333D01*
X149452380Y-79178571D01*
X149452380Y-79369047D01*
X149500000Y-79464285D01*
X149547619Y-79511904D01*
X149642857Y-79559523D01*
X149880952Y-79559523D01*
X149976190Y-79511904D01*
X150023809Y-79464285D01*
X150071428Y-79369047D01*
X150071428Y-79178571D01*
X150023809Y-79083333D01*
X149976190Y-79035714D01*
X149880952Y-78988095D01*
X150452380Y-77392857D02*
X149976190Y-77726190D01*
X150452380Y-77964285D02*
X149452380Y-77964285D01*
X149452380Y-77583333D01*
X149500000Y-77488095D01*
X149547619Y-77440476D01*
X149642857Y-77392857D01*
X149785714Y-77392857D01*
X149880952Y-77440476D01*
X149928571Y-77488095D01*
X149976190Y-77583333D01*
X149976190Y-77964285D01*
X149452380Y-77059523D02*
X149452380Y-76440476D01*
X149833333Y-76773809D01*
X149833333Y-76630952D01*
X149880952Y-76535714D01*
X149928571Y-76488095D01*
X150023809Y-76440476D01*
X150261904Y-76440476D01*
X150357142Y-76488095D01*
X150404761Y-76535714D01*
X150452380Y-76630952D01*
X150452380Y-76916666D01*
X150404761Y-77011904D01*
X150357142Y-77059523D01*
X149452380Y-75821428D02*
X149452380Y-75726190D01*
X149500000Y-75630952D01*
X149547619Y-75583333D01*
X149642857Y-75535714D01*
X149833333Y-75488095D01*
X150071428Y-75488095D01*
X150261904Y-75535714D01*
X150357142Y-75583333D01*
X150404761Y-75630952D01*
X150452380Y-75726190D01*
X150452380Y-75821428D01*
X150404761Y-75916666D01*
X150357142Y-75964285D01*
X150261904Y-76011904D01*
X150071428Y-76059523D01*
X149833333Y-76059523D01*
X149642857Y-76011904D01*
X149547619Y-75964285D01*
X149500000Y-75916666D01*
X149452380Y-75821428D01*
X149202380Y-71392857D02*
X148726190Y-71726190D01*
X149202380Y-71964285D02*
X148202380Y-71964285D01*
X148202380Y-71583333D01*
X148250000Y-71488095D01*
X148297619Y-71440476D01*
X148392857Y-71392857D01*
X148535714Y-71392857D01*
X148630952Y-71440476D01*
X148678571Y-71488095D01*
X148726190Y-71583333D01*
X148726190Y-71964285D01*
X148202380Y-71059523D02*
X148202380Y-70440476D01*
X148583333Y-70773809D01*
X148583333Y-70630952D01*
X148630952Y-70535714D01*
X148678571Y-70488095D01*
X148773809Y-70440476D01*
X149011904Y-70440476D01*
X149107142Y-70488095D01*
X149154761Y-70535714D01*
X149202380Y-70630952D01*
X149202380Y-70916666D01*
X149154761Y-71011904D01*
X149107142Y-71059523D01*
X149202380Y-69488095D02*
X149202380Y-70059523D01*
X149202380Y-69773809D02*
X148202380Y-69773809D01*
X148345238Y-69869047D01*
X148440476Y-69964285D01*
X148488095Y-70059523D01*
X142452380Y-87142857D02*
X141976190Y-87476190D01*
X142452380Y-87714285D02*
X141452380Y-87714285D01*
X141452380Y-87333333D01*
X141500000Y-87238095D01*
X141547619Y-87190476D01*
X141642857Y-87142857D01*
X141785714Y-87142857D01*
X141880952Y-87190476D01*
X141928571Y-87238095D01*
X141976190Y-87333333D01*
X141976190Y-87714285D01*
X141547619Y-86761904D02*
X141500000Y-86714285D01*
X141452380Y-86619047D01*
X141452380Y-86380952D01*
X141500000Y-86285714D01*
X141547619Y-86238095D01*
X141642857Y-86190476D01*
X141738095Y-86190476D01*
X141880952Y-86238095D01*
X142452380Y-86809523D01*
X142452380Y-86190476D01*
X141452380Y-85857142D02*
X141452380Y-85238095D01*
X141833333Y-85571428D01*
X141833333Y-85428571D01*
X141880952Y-85333333D01*
X141928571Y-85285714D01*
X142023809Y-85238095D01*
X142261904Y-85238095D01*
X142357142Y-85285714D01*
X142404761Y-85333333D01*
X142452380Y-85428571D01*
X142452380Y-85714285D01*
X142404761Y-85809523D01*
X142357142Y-85857142D01*
X146107142Y-85702380D02*
X145773809Y-85226190D01*
X145535714Y-85702380D02*
X145535714Y-84702380D01*
X145916666Y-84702380D01*
X146011904Y-84750000D01*
X146059523Y-84797619D01*
X146107142Y-84892857D01*
X146107142Y-85035714D01*
X146059523Y-85130952D01*
X146011904Y-85178571D01*
X145916666Y-85226190D01*
X145535714Y-85226190D01*
X146440476Y-84702380D02*
X147059523Y-84702380D01*
X146726190Y-85083333D01*
X146869047Y-85083333D01*
X146964285Y-85130952D01*
X147011904Y-85178571D01*
X147059523Y-85273809D01*
X147059523Y-85511904D01*
X147011904Y-85607142D01*
X146964285Y-85654761D01*
X146869047Y-85702380D01*
X146583333Y-85702380D01*
X146488095Y-85654761D01*
X146440476Y-85607142D01*
X147440476Y-84797619D02*
X147488095Y-84750000D01*
X147583333Y-84702380D01*
X147821428Y-84702380D01*
X147916666Y-84750000D01*
X147964285Y-84797619D01*
X148011904Y-84892857D01*
X148011904Y-84988095D01*
X147964285Y-85130952D01*
X147392857Y-85702380D01*
X148011904Y-85702380D01*
X148952380Y-77392857D02*
X148476190Y-77726190D01*
X148952380Y-77964285D02*
X147952380Y-77964285D01*
X147952380Y-77583333D01*
X148000000Y-77488095D01*
X148047619Y-77440476D01*
X148142857Y-77392857D01*
X148285714Y-77392857D01*
X148380952Y-77440476D01*
X148428571Y-77488095D01*
X148476190Y-77583333D01*
X148476190Y-77964285D01*
X147952380Y-77059523D02*
X147952380Y-76440476D01*
X148333333Y-76773809D01*
X148333333Y-76630952D01*
X148380952Y-76535714D01*
X148428571Y-76488095D01*
X148523809Y-76440476D01*
X148761904Y-76440476D01*
X148857142Y-76488095D01*
X148904761Y-76535714D01*
X148952380Y-76630952D01*
X148952380Y-76916666D01*
X148904761Y-77011904D01*
X148857142Y-77059523D01*
X148285714Y-75583333D02*
X148952380Y-75583333D01*
X147904761Y-75821428D02*
X148619047Y-76059523D01*
X148619047Y-75440476D01*
X143452380Y-109642857D02*
X142976190Y-109976190D01*
X143452380Y-110214285D02*
X142452380Y-110214285D01*
X142452380Y-109833333D01*
X142500000Y-109738095D01*
X142547619Y-109690476D01*
X142642857Y-109642857D01*
X142785714Y-109642857D01*
X142880952Y-109690476D01*
X142928571Y-109738095D01*
X142976190Y-109833333D01*
X142976190Y-110214285D01*
X143452380Y-108690476D02*
X143452380Y-109261904D01*
X143452380Y-108976190D02*
X142452380Y-108976190D01*
X142595238Y-109071428D01*
X142690476Y-109166666D01*
X142738095Y-109261904D01*
X142452380Y-107785714D02*
X142452380Y-108261904D01*
X142928571Y-108309523D01*
X142880952Y-108261904D01*
X142833333Y-108166666D01*
X142833333Y-107928571D01*
X142880952Y-107833333D01*
X142928571Y-107785714D01*
X143023809Y-107738095D01*
X143261904Y-107738095D01*
X143357142Y-107785714D01*
X143404761Y-107833333D01*
X143452380Y-107928571D01*
X143452380Y-108166666D01*
X143404761Y-108261904D01*
X143357142Y-108309523D01*
X147702380Y-71392857D02*
X147226190Y-71726190D01*
X147702380Y-71964285D02*
X146702380Y-71964285D01*
X146702380Y-71583333D01*
X146750000Y-71488095D01*
X146797619Y-71440476D01*
X146892857Y-71392857D01*
X147035714Y-71392857D01*
X147130952Y-71440476D01*
X147178571Y-71488095D01*
X147226190Y-71583333D01*
X147226190Y-71964285D01*
X146702380Y-71059523D02*
X146702380Y-70440476D01*
X147083333Y-70773809D01*
X147083333Y-70630952D01*
X147130952Y-70535714D01*
X147178571Y-70488095D01*
X147273809Y-70440476D01*
X147511904Y-70440476D01*
X147607142Y-70488095D01*
X147654761Y-70535714D01*
X147702380Y-70630952D01*
X147702380Y-70916666D01*
X147654761Y-71011904D01*
X147607142Y-71059523D01*
X146702380Y-69535714D02*
X146702380Y-70011904D01*
X147178571Y-70059523D01*
X147130952Y-70011904D01*
X147083333Y-69916666D01*
X147083333Y-69678571D01*
X147130952Y-69583333D01*
X147178571Y-69535714D01*
X147273809Y-69488095D01*
X147511904Y-69488095D01*
X147607142Y-69535714D01*
X147654761Y-69583333D01*
X147702380Y-69678571D01*
X147702380Y-69916666D01*
X147654761Y-70011904D01*
X147607142Y-70059523D01*
X150857142Y-71202380D02*
X150523809Y-70726190D01*
X150285714Y-71202380D02*
X150285714Y-70202380D01*
X150666666Y-70202380D01*
X150761904Y-70250000D01*
X150809523Y-70297619D01*
X150857142Y-70392857D01*
X150857142Y-70535714D01*
X150809523Y-70630952D01*
X150761904Y-70678571D01*
X150666666Y-70726190D01*
X150285714Y-70726190D01*
X151190476Y-70202380D02*
X151809523Y-70202380D01*
X151476190Y-70583333D01*
X151619047Y-70583333D01*
X151714285Y-70630952D01*
X151761904Y-70678571D01*
X151809523Y-70773809D01*
X151809523Y-71011904D01*
X151761904Y-71107142D01*
X151714285Y-71154761D01*
X151619047Y-71202380D01*
X151333333Y-71202380D01*
X151238095Y-71154761D01*
X151190476Y-71107142D01*
X152666666Y-70202380D02*
X152476190Y-70202380D01*
X152380952Y-70250000D01*
X152333333Y-70297619D01*
X152238095Y-70440476D01*
X152190476Y-70630952D01*
X152190476Y-71011904D01*
X152238095Y-71107142D01*
X152285714Y-71154761D01*
X152380952Y-71202380D01*
X152571428Y-71202380D01*
X152666666Y-71154761D01*
X152714285Y-71107142D01*
X152761904Y-71011904D01*
X152761904Y-70773809D01*
X152714285Y-70678571D01*
X152666666Y-70630952D01*
X152571428Y-70583333D01*
X152380952Y-70583333D01*
X152285714Y-70630952D01*
X152238095Y-70678571D01*
X152190476Y-70773809D01*
X141357142Y-74452380D02*
X141023809Y-73976190D01*
X140785714Y-74452380D02*
X140785714Y-73452380D01*
X141166666Y-73452380D01*
X141261904Y-73500000D01*
X141309523Y-73547619D01*
X141357142Y-73642857D01*
X141357142Y-73785714D01*
X141309523Y-73880952D01*
X141261904Y-73928571D01*
X141166666Y-73976190D01*
X140785714Y-73976190D01*
X141690476Y-73452380D02*
X142309523Y-73452380D01*
X141976190Y-73833333D01*
X142119047Y-73833333D01*
X142214285Y-73880952D01*
X142261904Y-73928571D01*
X142309523Y-74023809D01*
X142309523Y-74261904D01*
X142261904Y-74357142D01*
X142214285Y-74404761D01*
X142119047Y-74452380D01*
X141833333Y-74452380D01*
X141738095Y-74404761D01*
X141690476Y-74357142D01*
X142642857Y-73452380D02*
X143309523Y-73452380D01*
X142880952Y-74452380D01*
X141452380Y-109642857D02*
X140976190Y-109976190D01*
X141452380Y-110214285D02*
X140452380Y-110214285D01*
X140452380Y-109833333D01*
X140500000Y-109738095D01*
X140547619Y-109690476D01*
X140642857Y-109642857D01*
X140785714Y-109642857D01*
X140880952Y-109690476D01*
X140928571Y-109738095D01*
X140976190Y-109833333D01*
X140976190Y-110214285D01*
X141452380Y-108690476D02*
X141452380Y-109261904D01*
X141452380Y-108976190D02*
X140452380Y-108976190D01*
X140595238Y-109071428D01*
X140690476Y-109166666D01*
X140738095Y-109261904D01*
X140785714Y-107833333D02*
X141452380Y-107833333D01*
X140404761Y-108071428D02*
X141119047Y-108309523D01*
X141119047Y-107690476D01*
X149452380Y-104142857D02*
X148976190Y-104476190D01*
X149452380Y-104714285D02*
X148452380Y-104714285D01*
X148452380Y-104333333D01*
X148500000Y-104238095D01*
X148547619Y-104190476D01*
X148642857Y-104142857D01*
X148785714Y-104142857D01*
X148880952Y-104190476D01*
X148928571Y-104238095D01*
X148976190Y-104333333D01*
X148976190Y-104714285D01*
X149452380Y-103190476D02*
X149452380Y-103761904D01*
X149452380Y-103476190D02*
X148452380Y-103476190D01*
X148595238Y-103571428D01*
X148690476Y-103666666D01*
X148738095Y-103761904D01*
X148452380Y-102571428D02*
X148452380Y-102476190D01*
X148500000Y-102380952D01*
X148547619Y-102333333D01*
X148642857Y-102285714D01*
X148833333Y-102238095D01*
X149071428Y-102238095D01*
X149261904Y-102285714D01*
X149357142Y-102333333D01*
X149404761Y-102380952D01*
X149452380Y-102476190D01*
X149452380Y-102571428D01*
X149404761Y-102666666D01*
X149357142Y-102714285D01*
X149261904Y-102761904D01*
X149071428Y-102809523D01*
X148833333Y-102809523D01*
X148642857Y-102761904D01*
X148547619Y-102714285D01*
X148500000Y-102666666D01*
X148452380Y-102571428D01*
X135452380Y-104166666D02*
X134976190Y-104500000D01*
X135452380Y-104738095D02*
X134452380Y-104738095D01*
X134452380Y-104357142D01*
X134500000Y-104261904D01*
X134547619Y-104214285D01*
X134642857Y-104166666D01*
X134785714Y-104166666D01*
X134880952Y-104214285D01*
X134928571Y-104261904D01*
X134976190Y-104357142D01*
X134976190Y-104738095D01*
X135452380Y-103690476D02*
X135452380Y-103500000D01*
X135404761Y-103404761D01*
X135357142Y-103357142D01*
X135214285Y-103261904D01*
X135023809Y-103214285D01*
X134642857Y-103214285D01*
X134547619Y-103261904D01*
X134500000Y-103309523D01*
X134452380Y-103404761D01*
X134452380Y-103595238D01*
X134500000Y-103690476D01*
X134547619Y-103738095D01*
X134642857Y-103785714D01*
X134880952Y-103785714D01*
X134976190Y-103738095D01*
X135023809Y-103690476D01*
X135071428Y-103595238D01*
X135071428Y-103404761D01*
X135023809Y-103309523D01*
X134976190Y-103261904D01*
X134880952Y-103214285D01*
X153452380Y-104166666D02*
X152976190Y-104500000D01*
X153452380Y-104738095D02*
X152452380Y-104738095D01*
X152452380Y-104357142D01*
X152500000Y-104261904D01*
X152547619Y-104214285D01*
X152642857Y-104166666D01*
X152785714Y-104166666D01*
X152880952Y-104214285D01*
X152928571Y-104261904D01*
X152976190Y-104357142D01*
X152976190Y-104738095D01*
X152880952Y-103595238D02*
X152833333Y-103690476D01*
X152785714Y-103738095D01*
X152690476Y-103785714D01*
X152642857Y-103785714D01*
X152547619Y-103738095D01*
X152500000Y-103690476D01*
X152452380Y-103595238D01*
X152452380Y-103404761D01*
X152500000Y-103309523D01*
X152547619Y-103261904D01*
X152642857Y-103214285D01*
X152690476Y-103214285D01*
X152785714Y-103261904D01*
X152833333Y-103309523D01*
X152880952Y-103404761D01*
X152880952Y-103595238D01*
X152928571Y-103690476D01*
X152976190Y-103738095D01*
X153071428Y-103785714D01*
X153261904Y-103785714D01*
X153357142Y-103738095D01*
X153404761Y-103690476D01*
X153452380Y-103595238D01*
X153452380Y-103404761D01*
X153404761Y-103309523D01*
X153357142Y-103261904D01*
X153261904Y-103214285D01*
X153071428Y-103214285D01*
X152976190Y-103261904D01*
X152928571Y-103309523D01*
X152880952Y-103404761D01*
X131452380Y-104166666D02*
X130976190Y-104500000D01*
X131452380Y-104738095D02*
X130452380Y-104738095D01*
X130452380Y-104357142D01*
X130500000Y-104261904D01*
X130547619Y-104214285D01*
X130642857Y-104166666D01*
X130785714Y-104166666D01*
X130880952Y-104214285D01*
X130928571Y-104261904D01*
X130976190Y-104357142D01*
X130976190Y-104738095D01*
X130452380Y-103833333D02*
X130452380Y-103166666D01*
X131452380Y-103595238D01*
X137452380Y-109666666D02*
X136976190Y-110000000D01*
X137452380Y-110238095D02*
X136452380Y-110238095D01*
X136452380Y-109857142D01*
X136500000Y-109761904D01*
X136547619Y-109714285D01*
X136642857Y-109666666D01*
X136785714Y-109666666D01*
X136880952Y-109714285D01*
X136928571Y-109761904D01*
X136976190Y-109857142D01*
X136976190Y-110238095D01*
X136452380Y-108761904D02*
X136452380Y-109238095D01*
X136928571Y-109285714D01*
X136880952Y-109238095D01*
X136833333Y-109142857D01*
X136833333Y-108904761D01*
X136880952Y-108809523D01*
X136928571Y-108761904D01*
X137023809Y-108714285D01*
X137261904Y-108714285D01*
X137357142Y-108761904D01*
X137404761Y-108809523D01*
X137452380Y-108904761D01*
X137452380Y-109142857D01*
X137404761Y-109238095D01*
X137357142Y-109285714D01*
X151452380Y-109666666D02*
X150976190Y-110000000D01*
X151452380Y-110238095D02*
X150452380Y-110238095D01*
X150452380Y-109857142D01*
X150500000Y-109761904D01*
X150547619Y-109714285D01*
X150642857Y-109666666D01*
X150785714Y-109666666D01*
X150880952Y-109714285D01*
X150928571Y-109761904D01*
X150976190Y-109857142D01*
X150976190Y-110238095D01*
X150785714Y-108809523D02*
X151452380Y-108809523D01*
X150404761Y-109047619D02*
X151119047Y-109285714D01*
X151119047Y-108666666D01*
X133452380Y-109666666D02*
X132976190Y-110000000D01*
X133452380Y-110238095D02*
X132452380Y-110238095D01*
X132452380Y-109857142D01*
X132500000Y-109761904D01*
X132547619Y-109714285D01*
X132642857Y-109666666D01*
X132785714Y-109666666D01*
X132880952Y-109714285D01*
X132928571Y-109761904D01*
X132976190Y-109857142D01*
X132976190Y-110238095D01*
X132452380Y-109333333D02*
X132452380Y-108714285D01*
X132833333Y-109047619D01*
X132833333Y-108904761D01*
X132880952Y-108809523D01*
X132928571Y-108761904D01*
X133023809Y-108714285D01*
X133261904Y-108714285D01*
X133357142Y-108761904D01*
X133404761Y-108809523D01*
X133452380Y-108904761D01*
X133452380Y-109190476D01*
X133404761Y-109285714D01*
X133357142Y-109333333D01*
X155452380Y-109666666D02*
X154976190Y-110000000D01*
X155452380Y-110238095D02*
X154452380Y-110238095D01*
X154452380Y-109857142D01*
X154500000Y-109761904D01*
X154547619Y-109714285D01*
X154642857Y-109666666D01*
X154785714Y-109666666D01*
X154880952Y-109714285D01*
X154928571Y-109761904D01*
X154976190Y-109857142D01*
X154976190Y-110238095D01*
X154547619Y-109285714D02*
X154500000Y-109238095D01*
X154452380Y-109142857D01*
X154452380Y-108904761D01*
X154500000Y-108809523D01*
X154547619Y-108761904D01*
X154642857Y-108714285D01*
X154738095Y-108714285D01*
X154880952Y-108761904D01*
X155452380Y-109333333D01*
X155452380Y-108714285D01*
X129452380Y-109666666D02*
X128976190Y-110000000D01*
X129452380Y-110238095D02*
X128452380Y-110238095D01*
X128452380Y-109857142D01*
X128500000Y-109761904D01*
X128547619Y-109714285D01*
X128642857Y-109666666D01*
X128785714Y-109666666D01*
X128880952Y-109714285D01*
X128928571Y-109761904D01*
X128976190Y-109857142D01*
X128976190Y-110238095D01*
X129452380Y-108714285D02*
X129452380Y-109285714D01*
X129452380Y-109000000D02*
X128452380Y-109000000D01*
X128595238Y-109095238D01*
X128690476Y-109190476D01*
X128738095Y-109285714D01*
X130857142Y-96952380D02*
X130523809Y-96476190D01*
X130285714Y-96952380D02*
X130285714Y-95952380D01*
X130666666Y-95952380D01*
X130761904Y-96000000D01*
X130809523Y-96047619D01*
X130857142Y-96142857D01*
X130857142Y-96285714D01*
X130809523Y-96380952D01*
X130761904Y-96428571D01*
X130666666Y-96476190D01*
X130285714Y-96476190D01*
X131809523Y-96952380D02*
X131238095Y-96952380D01*
X131523809Y-96952380D02*
X131523809Y-95952380D01*
X131428571Y-96095238D01*
X131333333Y-96190476D01*
X131238095Y-96238095D01*
X132142857Y-95952380D02*
X132761904Y-95952380D01*
X132428571Y-96333333D01*
X132571428Y-96333333D01*
X132666666Y-96380952D01*
X132714285Y-96428571D01*
X132761904Y-96523809D01*
X132761904Y-96761904D01*
X132714285Y-96857142D01*
X132666666Y-96904761D01*
X132571428Y-96952380D01*
X132285714Y-96952380D01*
X132190476Y-96904761D01*
X132142857Y-96857142D01*
X130857142Y-88952380D02*
X130523809Y-88476190D01*
X130285714Y-88952380D02*
X130285714Y-87952380D01*
X130666666Y-87952380D01*
X130761904Y-88000000D01*
X130809523Y-88047619D01*
X130857142Y-88142857D01*
X130857142Y-88285714D01*
X130809523Y-88380952D01*
X130761904Y-88428571D01*
X130666666Y-88476190D01*
X130285714Y-88476190D01*
X131809523Y-88952380D02*
X131238095Y-88952380D01*
X131523809Y-88952380D02*
X131523809Y-87952380D01*
X131428571Y-88095238D01*
X131333333Y-88190476D01*
X131238095Y-88238095D01*
X132761904Y-88952380D02*
X132190476Y-88952380D01*
X132476190Y-88952380D02*
X132476190Y-87952380D01*
X132380952Y-88095238D01*
X132285714Y-88190476D01*
X132190476Y-88238095D01*
X130857142Y-92952380D02*
X130523809Y-92476190D01*
X130285714Y-92952380D02*
X130285714Y-91952380D01*
X130666666Y-91952380D01*
X130761904Y-92000000D01*
X130809523Y-92047619D01*
X130857142Y-92142857D01*
X130857142Y-92285714D01*
X130809523Y-92380952D01*
X130761904Y-92428571D01*
X130666666Y-92476190D01*
X130285714Y-92476190D01*
X131809523Y-92952380D02*
X131238095Y-92952380D01*
X131523809Y-92952380D02*
X131523809Y-91952380D01*
X131428571Y-92095238D01*
X131333333Y-92190476D01*
X131238095Y-92238095D01*
X132190476Y-92047619D02*
X132238095Y-92000000D01*
X132333333Y-91952380D01*
X132571428Y-91952380D01*
X132666666Y-92000000D01*
X132714285Y-92047619D01*
X132761904Y-92142857D01*
X132761904Y-92238095D01*
X132714285Y-92380952D01*
X132142857Y-92952380D01*
X132761904Y-92952380D01*
X147452380Y-109666666D02*
X146976190Y-110000000D01*
X147452380Y-110238095D02*
X146452380Y-110238095D01*
X146452380Y-109857142D01*
X146500000Y-109761904D01*
X146547619Y-109714285D01*
X146642857Y-109666666D01*
X146785714Y-109666666D01*
X146880952Y-109714285D01*
X146928571Y-109761904D01*
X146976190Y-109857142D01*
X146976190Y-110238095D01*
X146452380Y-108809523D02*
X146452380Y-109000000D01*
X146500000Y-109095238D01*
X146547619Y-109142857D01*
X146690476Y-109238095D01*
X146880952Y-109285714D01*
X147261904Y-109285714D01*
X147357142Y-109238095D01*
X147404761Y-109190476D01*
X147452380Y-109095238D01*
X147452380Y-108904761D01*
X147404761Y-108809523D01*
X147357142Y-108761904D01*
X147261904Y-108714285D01*
X147023809Y-108714285D01*
X146928571Y-108761904D01*
X146880952Y-108809523D01*
X146833333Y-108904761D01*
X146833333Y-109095238D01*
X146880952Y-109190476D01*
X146928571Y-109238095D01*
X147023809Y-109285714D01*
X148952380Y-80892857D02*
X148476190Y-81226190D01*
X148952380Y-81464285D02*
X147952380Y-81464285D01*
X147952380Y-81083333D01*
X148000000Y-80988095D01*
X148047619Y-80940476D01*
X148142857Y-80892857D01*
X148285714Y-80892857D01*
X148380952Y-80940476D01*
X148428571Y-80988095D01*
X148476190Y-81083333D01*
X148476190Y-81464285D01*
X147952380Y-80559523D02*
X147952380Y-79940476D01*
X148333333Y-80273809D01*
X148333333Y-80130952D01*
X148380952Y-80035714D01*
X148428571Y-79988095D01*
X148523809Y-79940476D01*
X148761904Y-79940476D01*
X148857142Y-79988095D01*
X148904761Y-80035714D01*
X148952380Y-80130952D01*
X148952380Y-80416666D01*
X148904761Y-80511904D01*
X148857142Y-80559523D01*
X147952380Y-79607142D02*
X147952380Y-78988095D01*
X148333333Y-79321428D01*
X148333333Y-79178571D01*
X148380952Y-79083333D01*
X148428571Y-79035714D01*
X148523809Y-78988095D01*
X148761904Y-78988095D01*
X148857142Y-79035714D01*
X148904761Y-79083333D01*
X148952380Y-79178571D01*
X148952380Y-79464285D01*
X148904761Y-79559523D01*
X148857142Y-79607142D01*
X133404761Y-82083333D02*
X133452380Y-81940476D01*
X133452380Y-81702380D01*
X133404761Y-81607142D01*
X133357142Y-81559523D01*
X133261904Y-81511904D01*
X133166666Y-81511904D01*
X133071428Y-81559523D01*
X133023809Y-81607142D01*
X132976190Y-81702380D01*
X132928571Y-81892857D01*
X132880952Y-81988095D01*
X132833333Y-82035714D01*
X132738095Y-82083333D01*
X132642857Y-82083333D01*
X132547619Y-82035714D01*
X132500000Y-81988095D01*
X132452380Y-81892857D01*
X132452380Y-81654761D01*
X132500000Y-81511904D01*
X132452380Y-81178571D02*
X133452380Y-80940476D01*
X132738095Y-80750000D01*
X133452380Y-80559523D01*
X132452380Y-80321428D01*
X132452380Y-80035714D02*
X132452380Y-79416666D01*
X132833333Y-79750000D01*
X132833333Y-79607142D01*
X132880952Y-79511904D01*
X132928571Y-79464285D01*
X133023809Y-79416666D01*
X133261904Y-79416666D01*
X133357142Y-79464285D01*
X133404761Y-79511904D01*
X133452380Y-79607142D01*
X133452380Y-79892857D01*
X133404761Y-79988095D01*
X133357142Y-80035714D01*
X156404761Y-68583333D02*
X156452380Y-68440476D01*
X156452380Y-68202380D01*
X156404761Y-68107142D01*
X156357142Y-68059523D01*
X156261904Y-68011904D01*
X156166666Y-68011904D01*
X156071428Y-68059523D01*
X156023809Y-68107142D01*
X155976190Y-68202380D01*
X155928571Y-68392857D01*
X155880952Y-68488095D01*
X155833333Y-68535714D01*
X155738095Y-68583333D01*
X155642857Y-68583333D01*
X155547619Y-68535714D01*
X155500000Y-68488095D01*
X155452380Y-68392857D01*
X155452380Y-68154761D01*
X155500000Y-68011904D01*
X155452380Y-67678571D02*
X156452380Y-67440476D01*
X155738095Y-67250000D01*
X156452380Y-67059523D01*
X155452380Y-66821428D01*
X155547619Y-66488095D02*
X155500000Y-66440476D01*
X155452380Y-66345238D01*
X155452380Y-66107142D01*
X155500000Y-66011904D01*
X155547619Y-65964285D01*
X155642857Y-65916666D01*
X155738095Y-65916666D01*
X155880952Y-65964285D01*
X156452380Y-66535714D01*
X156452380Y-65916666D01*
D15*
X144946428Y-76696428D02*
X144886904Y-76755952D01*
X144708333Y-76815476D01*
X144589285Y-76815476D01*
X144410714Y-76755952D01*
X144291666Y-76636904D01*
X144232142Y-76517857D01*
X144172619Y-76279761D01*
X144172619Y-76101190D01*
X144232142Y-75863095D01*
X144291666Y-75744047D01*
X144410714Y-75625000D01*
X144589285Y-75565476D01*
X144708333Y-75565476D01*
X144886904Y-75625000D01*
X144946428Y-75684523D01*
X146136904Y-76815476D02*
X145422619Y-76815476D01*
X145779761Y-76815476D02*
X145779761Y-75565476D01*
X145660714Y-75744047D01*
X145541666Y-75863095D01*
X145422619Y-75922619D01*
X146851190Y-76101190D02*
X146732142Y-76041666D01*
X146672619Y-75982142D01*
X146613095Y-75863095D01*
X146613095Y-75803571D01*
X146672619Y-75684523D01*
X146732142Y-75625000D01*
X146851190Y-75565476D01*
X147089285Y-75565476D01*
X147208333Y-75625000D01*
X147267857Y-75684523D01*
X147327380Y-75803571D01*
X147327380Y-75863095D01*
X147267857Y-75982142D01*
X147208333Y-76041666D01*
X147089285Y-76101190D01*
X146851190Y-76101190D01*
X146732142Y-76160714D01*
X146672619Y-76220238D01*
X146613095Y-76339285D01*
X146613095Y-76577380D01*
X146672619Y-76696428D01*
X146732142Y-76755952D01*
X146851190Y-76815476D01*
X147089285Y-76815476D01*
X147208333Y-76755952D01*
X147267857Y-76696428D01*
X147327380Y-76577380D01*
X147327380Y-76339285D01*
X147267857Y-76220238D01*
X147208333Y-76160714D01*
X147089285Y-76101190D01*
X147196428Y-88946428D02*
X147136904Y-89005952D01*
X146958333Y-89065476D01*
X146839285Y-89065476D01*
X146660714Y-89005952D01*
X146541666Y-88886904D01*
X146482142Y-88767857D01*
X146422619Y-88529761D01*
X146422619Y-88351190D01*
X146482142Y-88113095D01*
X146541666Y-87994047D01*
X146660714Y-87875000D01*
X146839285Y-87815476D01*
X146958333Y-87815476D01*
X147136904Y-87875000D01*
X147196428Y-87934523D01*
X148386904Y-89065476D02*
X147672619Y-89065476D01*
X148029761Y-89065476D02*
X148029761Y-87815476D01*
X147910714Y-87994047D01*
X147791666Y-88113095D01*
X147672619Y-88172619D01*
X149517857Y-87815476D02*
X148922619Y-87815476D01*
X148863095Y-88410714D01*
X148922619Y-88351190D01*
X149041666Y-88291666D01*
X149339285Y-88291666D01*
X149458333Y-88351190D01*
X149517857Y-88410714D01*
X149577380Y-88529761D01*
X149577380Y-88827380D01*
X149517857Y-88946428D01*
X149458333Y-89005952D01*
X149339285Y-89065476D01*
X149041666Y-89065476D01*
X148922619Y-89005952D01*
X148863095Y-88946428D01*
X147196428Y-63696428D02*
X147136904Y-63755952D01*
X146958333Y-63815476D01*
X146839285Y-63815476D01*
X146660714Y-63755952D01*
X146541666Y-63636904D01*
X146482142Y-63517857D01*
X146422619Y-63279761D01*
X146422619Y-63101190D01*
X146482142Y-62863095D01*
X146541666Y-62744047D01*
X146660714Y-62625000D01*
X146839285Y-62565476D01*
X146958333Y-62565476D01*
X147136904Y-62625000D01*
X147196428Y-62684523D01*
X148386904Y-63815476D02*
X147672619Y-63815476D01*
X148029761Y-63815476D02*
X148029761Y-62565476D01*
X147910714Y-62744047D01*
X147791666Y-62863095D01*
X147672619Y-62922619D01*
X149458333Y-62565476D02*
X149220238Y-62565476D01*
X149101190Y-62625000D01*
X149041666Y-62684523D01*
X148922619Y-62863095D01*
X148863095Y-63101190D01*
X148863095Y-63577380D01*
X148922619Y-63696428D01*
X148982142Y-63755952D01*
X149101190Y-63815476D01*
X149339285Y-63815476D01*
X149458333Y-63755952D01*
X149517857Y-63696428D01*
X149577380Y-63577380D01*
X149577380Y-63279761D01*
X149517857Y-63160714D01*
X149458333Y-63101190D01*
X149339285Y-63041666D01*
X149101190Y-63041666D01*
X148982142Y-63101190D01*
X148922619Y-63160714D01*
X148863095Y-63279761D01*
X135196428Y-88946428D02*
X135136904Y-89005952D01*
X134958333Y-89065476D01*
X134839285Y-89065476D01*
X134660714Y-89005952D01*
X134541666Y-88886904D01*
X134482142Y-88767857D01*
X134422619Y-88529761D01*
X134422619Y-88351190D01*
X134482142Y-88113095D01*
X134541666Y-87994047D01*
X134660714Y-87875000D01*
X134839285Y-87815476D01*
X134958333Y-87815476D01*
X135136904Y-87875000D01*
X135196428Y-87934523D01*
X136386904Y-89065476D02*
X135672619Y-89065476D01*
X136029761Y-89065476D02*
X136029761Y-87815476D01*
X135910714Y-87994047D01*
X135791666Y-88113095D01*
X135672619Y-88172619D01*
X137458333Y-88232142D02*
X137458333Y-89065476D01*
X137160714Y-87755952D02*
X136863095Y-88648809D01*
X137636904Y-88648809D01*
D11*
X154166666Y-65428571D02*
X153833333Y-65428571D01*
X153833333Y-65952380D02*
X153833333Y-64952380D01*
X154309523Y-64952380D01*
X154690476Y-65952380D02*
X154690476Y-64952380D01*
X154928571Y-64952380D01*
X155071428Y-65000000D01*
X155166666Y-65095238D01*
X155214285Y-65190476D01*
X155261904Y-65380952D01*
X155261904Y-65523809D01*
X155214285Y-65714285D01*
X155166666Y-65809523D01*
X155071428Y-65904761D01*
X154928571Y-65952380D01*
X154690476Y-65952380D01*
X155595238Y-64952380D02*
X156214285Y-64952380D01*
X155880952Y-65333333D01*
X156023809Y-65333333D01*
X156119047Y-65380952D01*
X156166666Y-65428571D01*
X156214285Y-65523809D01*
X156214285Y-65761904D01*
X156166666Y-65857142D01*
X156119047Y-65904761D01*
X156023809Y-65952380D01*
X155738095Y-65952380D01*
X155642857Y-65904761D01*
X155595238Y-65857142D01*
X130416666Y-68178571D02*
X130083333Y-68178571D01*
X130083333Y-68702380D02*
X130083333Y-67702380D01*
X130559523Y-67702380D01*
X130940476Y-68702380D02*
X130940476Y-67702380D01*
X131178571Y-67702380D01*
X131321428Y-67750000D01*
X131416666Y-67845238D01*
X131464285Y-67940476D01*
X131511904Y-68130952D01*
X131511904Y-68273809D01*
X131464285Y-68464285D01*
X131416666Y-68559523D01*
X131321428Y-68654761D01*
X131178571Y-68702380D01*
X130940476Y-68702380D01*
X131892857Y-67797619D02*
X131940476Y-67750000D01*
X132035714Y-67702380D01*
X132273809Y-67702380D01*
X132369047Y-67750000D01*
X132416666Y-67797619D01*
X132464285Y-67892857D01*
X132464285Y-67988095D01*
X132416666Y-68130952D01*
X131845238Y-68702380D01*
X132464285Y-68702380D01*
X138166666Y-114428571D02*
X137833333Y-114428571D01*
X137833333Y-114952380D02*
X137833333Y-113952380D01*
X138309523Y-113952380D01*
X138690476Y-114952380D02*
X138690476Y-113952380D01*
X138928571Y-113952380D01*
X139071428Y-114000000D01*
X139166666Y-114095238D01*
X139214285Y-114190476D01*
X139261904Y-114380952D01*
X139261904Y-114523809D01*
X139214285Y-114714285D01*
X139166666Y-114809523D01*
X139071428Y-114904761D01*
X138928571Y-114952380D01*
X138690476Y-114952380D01*
X140214285Y-114952380D02*
X139642857Y-114952380D01*
X139928571Y-114952380D02*
X139928571Y-113952380D01*
X139833333Y-114095238D01*
X139738095Y-114190476D01*
X139642857Y-114238095D01*
D15*
X142565476Y-72202380D02*
X143577380Y-72202380D01*
X143696428Y-72142857D01*
X143755952Y-72083333D01*
X143815476Y-71964285D01*
X143815476Y-71726190D01*
X143755952Y-71607142D01*
X143696428Y-71547619D01*
X143577380Y-71488095D01*
X142565476Y-71488095D01*
X142684523Y-70952380D02*
X142625000Y-70892857D01*
X142565476Y-70773809D01*
X142565476Y-70476190D01*
X142625000Y-70357142D01*
X142684523Y-70297619D01*
X142803571Y-70238095D01*
X142922619Y-70238095D01*
X143101190Y-70297619D01*
X143815476Y-71011904D01*
X143815476Y-70238095D01*
M02*
